<svg xmlns="http://www.w3.org/2000/svg" width="32" height="32" viewBox="0 0 32 32" fill="none">
                    <path
                      d="M15.6667 2C10.3367 2 6 6.33667 6 11.6667V27C6 28.654 7.346 30 9 30H22.3333C23.9873 30 25.3333 28.654 25.3333 27V11.6667C25.3333 6.33667 20.9967 2 15.6667 2ZM29 9.33333C28.4703 9.33339 27.9563 9.51369 27.5427 9.84461C27.129 10.1755 26.8403 10.6373 26.7239 11.1541C26.6075 11.6709 26.6705 12.2119 26.9024 12.6882C27.1343 13.1645 27.5214 13.5477 28 13.7747V17.6667C28 18.218 27.5513 18.6667 27 18.6667H26.6667V20.6667H27C28.654 20.6667 30 19.3207 30 17.6667V13.7721C30.4771 13.5442 30.8627 13.1611 31.0935 12.6854C31.3244 12.2097 31.3868 11.6697 31.2706 11.1538C31.1544 10.638 30.8664 10.177 30.4539 9.84621C30.0414 9.51546 29.5287 9.33462 29 9.33333ZM10.6667 12.6667H12V20H10.6667C9.93 20 9.33333 19.4033 9.33333 18.6667V14C9.33333 13.2633 9.93 12.6667 10.6667 12.6667ZM14 12.6667H17.3333V20H14V12.6667ZM19.3333 12.6667H20.6667C21.4033 12.6667 22 13.2633 22 14V18.6667C22 19.4033 21.4033 20 20.6667 20H19.3333V12.6667Z"
                      fill="#E5EAFA" />
                  </svg>