<svg width="33" height="33" viewBox="0 0 33 33" fill="none" xmlns="http://www.w3.org/2000/svg">
<path d="M25.0556 6.33089H26.5103V7.78509C26.5103 8.5885 27.1611 9.23928 27.964 9.23928C28.7674 9.23928 29.4192 8.5885 29.4192 7.78509V6.33089H30.8733C31.6768 6.33089 32.3275 5.67963 32.3275 4.87622C32.3275 4.07329 31.6768 3.42203 30.8733 3.42203H29.4192V1.96735C29.4192 1.16442 28.7674 0.513156 27.964 0.513156C27.1611 0.513156 26.5103 1.16442 26.5103 1.96735V3.42203H25.0556C24.2522 3.42203 23.6014 4.07329 23.6014 4.87622C23.6014 5.67963 24.2522 6.33089 25.0556 6.33089ZM9.05803 9.23928V23.7832C9.05803 24.5866 9.70882 25.2373 10.5122 25.2373C11.3156 25.2373 11.9664 24.5866 11.9664 23.7832V9.23928C11.9664 8.43636 11.3156 7.78509 10.5122 7.78509C9.70882 7.78509 9.05803 8.43636 9.05803 9.23928ZM30.2912 12.1482C29.5041 12.3085 28.9968 13.0768 29.1571 13.8639C30.6147 20.9444 26.0572 27.8664 18.9763 29.3244C11.8963 30.7825 4.97429 26.2246 3.51673 19.1436C2.0587 12.0632 6.61661 5.14162 13.6971 3.68359C15.4387 3.32508 17.2351 3.32508 18.9763 3.68359C19.7792 3.84437 20.5615 3.32364 20.7218 2.52023C20.8821 1.71683 20.3619 0.935497 19.5585 0.775199C18.4935 0.576507 17.4122 0.489159 16.3295 0.513156C7.49441 0.513156 0.331421 7.67567 0.331421 16.5112C0.331421 25.3468 7.49441 32.5093 16.3295 32.5093C25.1646 32.5093 32.3275 25.3468 32.3275 16.5112C32.3304 15.4366 32.2234 14.3645 32.0074 13.3115C31.863 12.5215 31.1042 11.9989 30.3142 12.1438L30.2912 12.1482ZM14.8753 12.1482V13.6023C14.882 14.6788 15.2856 15.715 16.0094 16.5112C15.2856 17.3079 14.882 18.3436 14.8753 19.4201V20.8743C14.8753 23.284 16.8286 25.2373 19.2384 25.2373H20.6925C23.1023 25.2373 25.0556 23.284 25.0556 20.8743V19.4201C25.0489 18.3436 24.6453 17.3079 23.9215 16.5112C24.6453 15.715 25.0489 14.6788 25.0556 13.6023V12.1482C25.0556 9.73841 23.1023 7.78509 20.6925 7.78509H19.2384C16.8286 7.78509 14.8753 9.73841 14.8753 12.1482ZM22.1472 20.8743C22.1472 21.6777 21.4955 22.329 20.6925 22.329H19.2384C18.4354 22.329 17.7842 21.6777 17.7842 20.8743V19.4201C17.7842 18.6167 18.4354 17.9654 19.2384 17.9654H20.6925C21.4955 17.9654 22.1472 18.6167 22.1472 19.4201V20.8743ZM22.1472 12.1482V13.6023C22.1472 14.4058 21.4955 15.057 20.6925 15.057H19.2384C18.4354 15.057 17.7842 14.4058 17.7842 13.6023V12.1482C17.7842 11.3447 18.4354 10.694 19.2384 10.694H20.6925C21.4955 10.694 22.1472 11.3447 22.1472 12.1482Z" fill="#E5EAFA"/>
</svg>
