 <svg xmlns="http://www.w3.org/2000/svg" width="32" height="32" viewBox="0 0 32 32" fill="none">
                    <path
                      d="M15.6667 4.66663C14.6939 4.66663 13.8635 5.17096 13.3138 5.8984C12.8332 5.57042 12.2867 5.33329 11.6667 5.33329C10.0217 5.33329 8.66667 6.68829 8.66667 8.33329V8.66663H7C3.14 8.66663 0 11.8066 0 15.6666C0 19.5266 3.14 22.6666 7 22.6666C7.71002 22.6666 8.39463 22.5471 9.04688 22.3437C9.15622 22.7547 9.2952 23.1607 9.48958 23.5494L9.63151 23.8333C10.7035 25.9763 12.8993 27.3333 15.2956 27.3333H20.6667C23.4838 27.3333 25.8289 25.2495 26.2565 22.5481C29.5175 21.9537 32 19.0971 32 15.6666C32 12.3774 29.7165 9.621 26.6536 8.87496C26.5858 7.28807 25.2689 5.99996 23.6667 5.99996C23.0466 5.99996 22.5001 6.23709 22.0195 6.56506C21.4698 5.83762 20.6394 5.33329 19.6667 5.33329C19.0466 5.33329 18.5001 5.57042 18.0195 5.8984C17.4698 5.17096 16.6394 4.66663 15.6667 4.66663ZM15.6667 6.66663C16.231 6.66663 16.6667 7.10229 16.6667 7.66663V8.33329V9.66663V10.3333C16.6667 10.8976 16.231 11.3333 15.6667 11.3333C15.1023 11.3333 14.6667 10.8976 14.6667 10.3333V9.66663V8.33329V7.66663C14.6667 7.10229 15.1023 6.66663 15.6667 6.66663ZM11.6667 7.33329C12.231 7.33329 12.6667 7.76896 12.6667 8.33329V9.66663C12.6667 10.231 12.231 10.6666 11.6667 10.6666C11.1023 10.6666 10.6667 10.231 10.6667 9.66663V8.33329C10.6667 7.76896 11.1023 7.33329 11.6667 7.33329ZM19.6667 7.33329C20.231 7.33329 20.6667 7.76896 20.6667 8.33329V8.99996V9.66663C20.6667 10.231 20.231 10.6666 19.6667 10.6666C19.1023 10.6666 18.6667 10.231 18.6667 9.66663V8.33329C18.6667 7.76896 19.1023 7.33329 19.6667 7.33329ZM23.6667 7.99996C24.231 7.99996 24.6667 8.43563 24.6667 8.99996C24.6667 9.56429 24.231 9.99996 23.6667 9.99996C23.1023 9.99996 22.6667 9.56429 22.6667 8.99996C22.6667 8.43563 23.1023 7.99996 23.6667 7.99996ZM7 12.6666C7.55267 12.6666 8 13.1146 8 13.6666V14.6666H9C9.55267 14.6666 10 15.1146 10 15.6666C10 16.2186 9.55267 16.6666 9 16.6666H8V17.6666C8 18.2186 7.55267 18.6666 7 18.6666C6.44733 18.6666 6 18.2186 6 17.6666V16.6666H5C4.44733 16.6666 4 16.2186 4 15.6666C4 15.1146 4.44733 14.6666 5 14.6666H6V13.6666C6 13.1146 6.44733 12.6666 7 12.6666ZM25 12.6666C25.552 12.6666 26 13.1146 26 13.6666C26 14.2186 25.552 14.6666 25 14.6666C24.448 14.6666 24 14.2186 24 13.6666C24 13.1146 24.448 12.6666 25 12.6666ZM14.5898 13.5234C14.7633 13.6216 14.8224 13.6 14.9922 13.7695C15.4216 14.198 15.7672 14.6577 15.224 15.9817V15.983C14.896 16.7834 14.4102 17.9492 14.4102 17.9492C14.3589 18.0722 14.3328 18.2042 14.3332 18.3375C14.3337 18.4708 14.3609 18.6026 14.413 18.7252C14.4652 18.8479 14.5413 18.9588 14.637 19.0516C14.7326 19.1444 14.8459 19.2172 14.9701 19.2656C14.9701 19.2656 15.2686 19.3702 15.7305 19.8099C16.1924 20.2495 16.7398 20.976 17.0247 22.2226C17.054 22.3507 17.1082 22.4717 17.1842 22.5789C17.2602 22.686 17.3566 22.7771 17.4678 22.847C17.6925 22.9882 17.964 23.0343 18.2227 22.9752C18.3507 22.946 18.4718 22.8918 18.5789 22.8158C18.6861 22.7397 18.7772 22.6434 18.8471 22.5321C18.9169 22.4209 18.9642 22.297 18.9862 22.1675C19.0082 22.038 19.0045 21.9054 18.9753 21.7773C18.7444 20.7673 18.3567 19.9618 17.9284 19.3333H19.043C20.1738 21.1781 22.0689 22.3752 24.207 22.6158C23.7921 24.1864 22.3743 25.3333 20.6667 25.3333H15.2956C13.6523 25.3333 12.1555 24.4072 11.4206 22.9375L11.2786 22.6549V22.6536C10.5831 21.2614 10.6852 19.6082 11.5482 18.3138C11.5526 18.3073 11.5569 18.3008 11.5612 18.2942L14.5898 13.5234ZM23 14.6666C23.552 14.6666 24 15.1146 24 15.6666C24 16.2186 23.552 16.6666 23 16.6666C22.448 16.6666 22 16.2186 22 15.6666C22 15.1146 22.448 14.6666 23 14.6666ZM27 14.6666C27.552 14.6666 28 15.1146 28 15.6666C28 16.2186 27.552 16.6666 27 16.6666C26.448 16.6666 26 16.2186 26 15.6666C26 15.1146 26.448 14.6666 27 14.6666ZM25 16.6666C25.552 16.6666 26 17.1146 26 17.6666C26 18.2186 25.552 18.6666 25 18.6666C24.448 18.6666 24 18.2186 24 17.6666C24 17.1146 24.448 16.6666 25 16.6666Z"
                      fill="white" />
                  </svg>