 <svg xmlns="http://www.w3.org/2000/svg" width="32" height="32" viewBox="0 0 32 32" fill="none">
                    <path
                      d="M7.33337 3C5.12404 3 3.33337 4.79067 3.33337 7V21.6667C3.33337 23.876 5.12404 25.6667 7.33337 25.6667H16C18.2094 25.6667 20 23.876 20 21.6667V7C20 4.79067 18.2094 3 16 3H7.33337ZM21.1823 5.76302C21.277 6.16035 21.3334 6.57333 21.3334 7V21.6667C21.3334 24.6073 18.9407 27 16 27H12.7474L19.9128 28.8698C20.2515 28.9585 20.5905 29 20.9245 29C22.6972 29 24.3158 27.8122 24.7891 26.0182L28.5326 11.819C29.0973 9.67768 27.8146 7.48505 25.6706 6.92839L21.1823 5.76302ZM11.655 8.33333C12.0819 8.33333 12.5092 8.48818 12.8425 8.79818C14.3212 10.1722 16.655 12.6231 16.655 14.3997C16.655 15.8357 15.4699 17 14.0079 17C13.5539 17 13.1344 16.8764 12.7631 16.6771L13.9519 18.7552C14.1259 19.1925 13.8034 19.6667 13.3321 19.6667H9.99093C9.52226 19.6667 9.19856 19.1971 9.36723 18.7604L10.5651 16.6667C10.1891 16.872 9.76412 17 9.30212 17C7.84012 17 6.65499 15.8357 6.65499 14.3997C6.65499 12.6231 8.98882 10.1722 10.4675 8.79818C10.8012 8.48818 11.2281 8.33333 11.655 8.33333Z"
                      fill="#E5EAFA" />
                  </svg>