 <svg xmlns="http://www.w3.org/2000/svg" width="32" height="32" viewBox="0 0 32 32" fill="none">
                    <path
                      d="M24.8955 25.5322C22.5456 27.8798 19.3328 29.3204 15.793 29.333L15.8164 28.9434C18.4611 28.6476 19.6212 27.3285 19.8848 26.9785C20.4789 26.8884 23.6897 26.363 24.8125 25.3857L24.8955 25.5322ZM13.6387 21.5459C14.1149 21.8383 16.1254 22.9824 18.6904 23.1104C18.9468 24.0965 19.4272 26.2332 19.5352 26.7168C19.2912 27.0269 18.1685 28.2787 15.6064 28.5186L15.5537 28.5146C15.5166 28.511 15.4774 28.5075 15.4385 28.5039C15.3802 28.5003 15.3184 28.4945 15.2549 28.4873C15.2071 28.4837 15.1589 28.4772 15.1094 28.4736C15.0547 28.4682 14.9966 28.4603 14.9385 28.4531C14.9013 28.4495 14.8651 28.4458 14.8262 28.4404C14.8227 28.4403 14.8178 28.4395 14.8145 28.4395C14.7474 28.4323 14.6801 28.4231 14.6113 28.4141C14.4292 28.3888 14.2356 28.3561 14.0322 28.3164C13.983 28.3074 13.9319 28.2969 13.8809 28.2861C13.8296 28.2771 13.7777 28.2636 13.7246 28.251C13.6719 28.2402 13.619 28.2282 13.5645 28.2139C13.5096 28.1994 13.4562 28.1863 13.4014 28.1719C13.3006 28.1466 13.1959 28.1166 13.0898 28.0859C13.0246 28.0644 12.9596 28.044 12.8926 28.0225C12.8344 28.0063 12.7758 27.9846 12.7158 27.9648C12.6557 27.9468 12.597 27.923 12.5352 27.9014C12.4963 27.8887 12.4569 27.8746 12.418 27.8584C12.3792 27.844 12.3386 27.8297 12.2998 27.8135C12.2556 27.7954 12.211 27.7768 12.165 27.7588C12.1545 27.7552 12.1401 27.7504 12.1279 27.7451C12.1211 27.7433 12.1162 27.7391 12.1094 27.7373C12.0298 27.7048 11.9495 27.6708 11.8682 27.6348C11.84 27.6222 11.8114 27.6093 11.7832 27.5967C11.7551 27.5841 11.7283 27.5712 11.7002 27.5586C11.6898 27.5533 11.6791 27.5483 11.667 27.543C11.6335 27.5268 11.5999 27.5123 11.5664 27.4961C11.4639 27.4474 11.3592 27.3949 11.2549 27.3408C11.2089 27.3174 11.161 27.2918 11.1133 27.2666C11.1028 27.2612 11.0918 27.2563 11.083 27.251H11.082C11.059 27.2384 11.0355 27.2255 11.0107 27.2129C10.986 27.1985 10.9632 27.1853 10.9385 27.1709C10.8325 27.1132 10.7248 27.0502 10.6152 26.9854C10.6135 26.9854 10.6092 26.9824 10.6074 26.9824C10.5562 26.95 10.503 26.919 10.4482 26.8848V26.874C10.4342 26.8668 10.4201 26.8574 10.4043 26.8467L10.3818 26.7998C10.0459 26.0948 9.439 24.8221 9.49902 23.623L10.9912 22.8281L11 22.8242C12.0521 22.3248 13.2709 21.7262 13.6387 21.5459ZM5.48535 19.2842C5.92739 20.1749 7.1532 22.3621 9.0752 23.6045C9.01154 24.8072 9.54182 26.0338 9.9043 26.8037L8.13477 26.8398H8.13281C6.02693 25.2964 4.38601 23.1302 3.47363 20.6094L3.69824 19.3203L5.48535 19.2842ZM28.7783 16.9873C28.5485 20.1824 27.2294 23.0454 25.2031 25.2109L25.0957 25.0225C25.1187 24.9792 25.1401 24.9376 25.1631 24.8926C25.575 24.0812 26.1916 22.862 26.5488 20.9365C27.6327 19.9304 28.5064 17.4183 28.6514 16.9873H28.7783ZM16.4922 12.1328C17.7742 12.3618 20.9122 13.028 21.6602 13.6699C21.6619 13.6733 21.6641 13.6729 21.6641 13.6729C21.9275 13.9613 22.4489 16.6807 22.8096 19.1924C21.9096 20.1282 19.6657 22.3514 18.8223 22.6904C16.0074 22.5858 13.7915 21.1394 13.7686 21.125L13.7637 21.1221C13.4914 20.199 12.7312 16.5812 12.5684 15.7959L16.4922 12.1328ZM24.2881 10.0195C25.4728 10.4072 26.7351 10.9306 26.9385 11.1885C26.9615 11.248 26.9967 11.3309 27.0391 11.4316C27.3945 12.2773 28.2751 14.3706 28.291 16.1953V16.2275C28.2875 16.4023 28.2772 16.5756 28.2578 16.7432L28.2432 16.8662V16.8682L28.2422 16.8662C27.9133 17.8543 27.1347 19.7549 26.3125 20.5645C25.5133 20.1948 23.6857 19.3309 23.2275 19.1162C23.079 18.0865 22.5267 14.419 22.0635 13.5156L24.2881 10.0195ZM7.39844 14.6396C7.02345 15.0888 6.00279 16.4823 5.47949 18.8477L3.40918 18.8906L2.81543 18.0127C2.7182 17.3546 2.667 16.6822 2.66699 15.9971C2.66699 13.6764 3.25199 11.4923 4.2793 9.5918H4.27734L6.60449 9.58496L7.39844 14.6396ZM11.2285 5.97363C12.2614 6.00795 14.8598 6.25475 15.5918 7.03711C15.7226 7.70604 16.1222 11.1498 16.1982 11.8154L12.2959 15.46L7.79395 14.4014L7.01465 9.43555C7.35767 9.05148 8.99886 7.28271 11.2285 5.97363ZM20.9004 3.75098C23.7663 5.00956 26.1039 7.28284 27.4795 10.1279L27.0537 10.7285C26.4013 10.2705 24.8498 9.74807 24.3477 9.58398C23.6528 8.26059 22.497 6.93691 20.9111 5.65137L20.9004 3.75098ZM15.7461 2.66699C17.4117 2.66699 19.009 2.9861 20.4766 3.57031L20.4863 5.55566C17.764 5.82431 16.2843 6.44972 15.835 6.66797C15.3771 6.23886 14.484 5.92085 13.1758 5.7207C12.4208 5.6053 11.7324 5.56032 11.3965 5.5459L11.4707 3.39648H11.4727C12.8128 2.92412 14.2504 2.66701 15.7461 2.66699Z"
                      fill="#E5EAFA" />
                  </svg>