<svg width="30" height="33" viewBox="0 0 30 33" fill="none" xmlns="http://www.w3.org/2000/svg">
<g clip-path="url(#clip0_50676_1051)">
<path d="M28.4045 19.1099C28.9603 19.11 29.4112 19.5356 29.4114 20.062V29.4985L24.1487 32.5093L18.8879 29.4985V20.062C18.8881 19.5356 19.3379 19.1099 19.8938 19.1099H28.4045ZM21.8176 0.509277C23.0648 0.509498 24.0764 1.52052 24.0764 2.76904V17.5767H21.0334V9.77002L12.2698 5.0835L3.5061 9.77002V19.1421L12.2698 23.8286L17.3538 21.1099V29.2261L12.2688 32.3022L0.462158 25.1587V2.76904C0.462158 1.52038 1.47326 0.509277 2.72192 0.509277H21.8176ZM22.7961 26.8345L22.2991 26.2339L20.8342 24.4644L20.0461 25.1157L21.4143 26.769L22.7678 28.4038L28.2844 22.1938L27.5198 21.5151L22.7961 26.8345ZM13.1624 8.89209C14.1324 8.89211 15.0425 9.13988 15.8362 9.57568C15.6204 9.53636 15.3993 9.51146 15.175 9.50146L14.9504 9.49658C12.2116 9.49658 9.99048 11.7167 9.99048 14.4556C9.99053 17.1944 12.2116 19.4155 14.9504 19.4155C15.252 19.4155 15.5487 19.3888 15.8362 19.3364L15.5334 19.4907C14.8142 19.8303 14.0113 20.02 13.1624 20.02C10.0899 20.02 7.59893 17.5293 7.59888 14.4556C7.59888 11.3818 10.0899 8.89209 13.1624 8.89209ZM15.1946 17.5581H15.9182L15.9172 17.5591H15.9182L15.3323 17.9839L15.5559 18.6714L14.9709 18.2476L14.385 18.6714L14.6086 17.9839L14.0237 17.5591H14.0247L14.0237 17.5581H14.7473L14.9709 16.8696L15.1946 17.5581ZM15.1946 15.3491H15.9182L15.3323 15.7739L15.5559 16.4624L14.9709 16.0366L14.385 16.4624L14.6077 15.7739L14.0237 15.3491H14.7473L14.9709 14.6597L15.1946 15.3491ZM15.1946 13.1382H15.9182L15.3323 13.563L15.5559 14.2524L14.9709 13.8267L14.385 14.2524L14.6086 13.563L14.0237 13.1382H14.7473L14.9709 12.4507L15.1946 13.1382ZM15.1946 10.9282H15.9182L15.3323 11.354L15.5559 12.0425L14.9709 11.6167L14.385 12.0425L14.6086 11.354L14.0237 10.9282H14.7473L14.9709 10.2407L15.1946 10.9282Z" fill="#E5EAFA"/>
</g>
<defs>
<clipPath id="clip0_50676_1051">
<rect width="28.9493" height="32" fill="white" transform="translate(0.462158 0.509277)"/>
</clipPath>
</defs>
</svg>
