<svg width="86" height="17" viewBox="0 0 86 17" fill="none" xmlns="http://www.w3.org/2000/svg">
<path d="M0.121979 1.62074C0.121979 1.49003 0.157288 1.38568 0.225281 1.30715C0.294861 1.2302 0.397629 1.19067 0.535187 1.19067H6.51236C6.94189 1.19067 7.34721 1.2497 7.72826 1.36829C8.10825 1.48687 8.45767 1.65078 8.77548 1.85949C9.09329 2.06873 9.38052 2.31749 9.63719 2.60894C9.89175 2.89776 10.1089 3.21135 10.2865 3.54865C10.4641 3.88491 10.6001 4.23908 10.6939 4.61012C10.7872 4.98063 10.8336 5.35693 10.8336 5.73693C10.8336 6.29876 10.7319 6.84688 10.53 7.38393C10.3271 7.91993 10.0378 8.39744 9.6646 8.81485C9.29041 9.23227 8.84137 9.57115 8.31801 9.82941C7.79308 10.0887 7.21333 10.2215 6.57719 10.2273H3.74329V14.6803C3.74329 14.9486 3.59995 15.0814 3.31323 15.0814H0.535187C0.409744 15.0814 0.310135 15.0487 0.235291 14.9849C0.159927 14.919 0.121979 14.8173 0.121979 14.6803V1.62074ZM7.16695 5.71796C7.16695 5.53086 7.13428 5.34376 7.06841 5.15666C7.00252 4.97009 6.90871 4.80249 6.78326 4.6565C6.65887 4.50998 6.50708 4.38981 6.33002 4.296C6.15134 4.20324 5.95053 4.15581 5.72603 4.15581H3.74329V7.28011H5.72603C5.95053 7.28011 6.15292 7.23531 6.33421 7.14466C6.51448 7.05453 6.66679 6.93806 6.78749 6.7947C6.90923 6.65029 7.00252 6.48586 7.06841 6.29876C7.13428 6.11113 7.16695 5.91823 7.16695 5.71796Z" fill="#E5EAFA"/>
<path d="M16.3717 1.55612C16.3775 1.51922 16.3981 1.47917 16.4323 1.43437C16.4666 1.39063 16.5093 1.35057 16.5588 1.31315C16.6084 1.27521 16.6621 1.24622 16.7185 1.22408C16.7739 1.20247 16.8271 1.19141 16.8761 1.19141H19.272C19.3775 1.19141 19.4681 1.22408 19.5435 1.28943C19.6178 1.35532 19.6737 1.41276 19.7111 1.46283L19.9446 1.99567L24.8566 14.6621C24.9066 14.787 24.8966 14.8876 24.8281 14.9662C24.7601 15.0436 24.6415 15.0832 24.4729 15.0832H21.7887C21.6442 15.0832 21.5341 15.0568 21.4566 15.0041C21.3781 14.9498 21.317 14.8618 21.2737 14.7364C21.1488 14.4191 21.0276 14.1023 20.9096 13.7877C20.7899 13.4725 20.6713 13.1568 20.5533 12.838H15.5859C15.4673 13.1568 15.3477 13.4725 15.2259 13.7877C15.1042 14.1023 14.984 14.4191 14.8654 14.7364C14.7843 14.9677 14.6262 15.0832 14.389 15.0832H11.6289C11.5103 15.0832 11.4128 15.0515 11.3343 14.9899C11.2563 14.9272 11.2415 14.8333 11.2926 14.7079L16.3717 1.55612ZM18.0746 5.56005C17.956 5.87838 17.8359 6.22149 17.7141 6.58883C17.5924 6.95724 17.4722 7.32827 17.3536 7.70142C17.2361 8.07667 17.1159 8.4456 16.9942 8.81032C16.8729 9.17555 16.7528 9.51708 16.6337 9.83488H19.5055L18.0746 5.56005Z" fill="#E5EAFA"/>
<path d="M29.0049 6.31793L31.2638 1.48128C31.3008 1.40696 31.3324 1.35215 31.3571 1.3179C31.3824 1.28311 31.4072 1.25834 31.432 1.24253C31.4568 1.22725 31.4841 1.21776 31.511 1.2146C31.5395 1.21196 31.5722 1.20458 31.6096 1.19141H35.2109C35.2551 1.19141 35.2915 1.20616 35.3195 1.2341C35.3468 1.26203 35.3611 1.29523 35.3611 1.33212C35.3611 1.40064 35.3173 1.47917 35.2309 1.56561L30.7964 9.4143V14.6441C30.7964 14.9366 30.653 15.0832 30.3668 15.0832H27.5672C27.4428 15.0832 27.3474 15.0436 27.2778 14.9662C27.2099 14.8876 27.1756 14.7806 27.1756 14.6441V9.39638L22.7511 1.56561C22.6699 1.48497 22.6293 1.40696 22.6293 1.33212C22.6293 1.29523 22.6425 1.26203 22.6667 1.2341C22.692 1.20616 22.7263 1.19141 22.7701 1.19141H26.3718C26.4145 1.20458 26.4493 1.21196 26.4736 1.2146C26.4994 1.21776 26.5237 1.22725 26.5495 1.24253C26.5742 1.25834 26.599 1.28311 26.6238 1.3179C26.6491 1.35215 26.6833 1.40696 26.7271 1.48128L29.0049 6.31793Z" fill="#E5EAFA"/>
<path d="M36.6707 1.60298C36.6707 1.49073 36.705 1.39428 36.7735 1.31311C36.8415 1.23142 36.9453 1.19189 37.0819 1.19189H40.1418C40.2283 1.19189 40.3189 1.2135 40.4127 1.25619C40.5066 1.30099 40.5872 1.37583 40.6557 1.48124C41.4478 2.75984 42.2331 4.01894 43.0126 5.26012C43.7927 6.5013 44.5816 7.76146 45.3796 9.04006V1.54659C45.4044 1.43486 45.4534 1.34684 45.5293 1.28465C45.6041 1.22299 45.6921 1.19189 45.7907 1.19189H48.4565C48.5887 1.19189 48.6978 1.22668 48.7848 1.29888C48.8723 1.37056 48.9155 1.47175 48.9155 1.60298V14.7179C48.9155 14.8428 48.8786 14.934 48.8033 14.994C48.7279 15.0536 48.6256 15.0836 48.4949 15.0836H45.5103C45.4291 15.0836 45.358 15.0552 45.2958 14.9983C45.2331 14.9424 45.1677 14.8681 45.0992 14.7743C44.2691 13.4024 43.4495 12.0458 42.6384 10.705C41.8284 9.36419 41.0051 8.00759 40.1692 6.6357V14.671C40.1692 14.808 40.1382 14.9113 40.0754 14.9803C40.0132 15.0489 39.901 15.0836 39.7392 15.0836H37.0819C36.9385 15.0836 36.8346 15.0446 36.7688 14.9656C36.7034 14.8876 36.6707 14.7927 36.6707 14.681V1.60298Z" fill="#E5EAFA"/>
<path d="M70.8727 14.8865C70.8099 14.7806 70.7509 14.671 70.695 14.5592C70.6402 14.4464 70.5891 14.3342 70.5453 14.2225C69.74 12.1016 68.9395 10.0003 68.141 7.91694C67.343 5.83407 66.5414 3.73276 65.7361 1.61247C65.7361 1.58085 65.7319 1.55344 65.7235 1.52814C65.7134 1.50285 65.7092 1.4786 65.7092 1.45383C65.7092 1.27885 65.8246 1.19189 66.055 1.19189H69.0675C69.3047 1.19189 69.4655 1.31048 69.554 1.54659L72.4158 10.0683L75.0637 1.54659C75.1506 1.31048 75.3219 1.19189 75.5781 1.19189H78.6191C78.7619 1.19189 78.8642 1.21772 78.9222 1.27095C78.9817 1.32365 79.0117 1.39375 79.0117 1.48124C79.0117 1.53078 79.0081 1.56504 79.0017 1.58454V1.61247L77.3368 6.38272L78.5907 10.0594L81.6222 1.54659C81.7086 1.31048 81.8794 1.19189 82.1355 1.19189H85.0828C85.2261 1.19189 85.3262 1.21772 85.3863 1.27095C85.4459 1.32365 85.4754 1.39375 85.4754 1.48124C85.4754 1.53078 85.4727 1.56504 85.4654 1.58454V1.61247C85.0416 2.70924 84.6079 3.80444 84.1662 4.89541C83.7225 5.98691 83.2782 7.07789 82.8339 8.16886C82.3859 9.26089 81.9437 10.3545 81.5047 11.4476C81.0646 12.5428 80.6356 13.6359 80.2176 14.7263C80.1934 14.7959 80.138 14.8712 80.05 14.9566C79.962 15.0404 79.8566 15.0831 79.7312 15.0831H79.7032H77.4391C77.302 15.0831 77.1977 15.0562 77.1265 15.003C77.0549 14.9503 77.0027 14.8797 76.9716 14.7927L75.4943 10.9005C75.2824 11.4692 75.0737 12.0252 74.8671 12.5712C74.661 13.1167 74.4555 13.6738 74.2499 14.2404C74.2188 14.3284 74.1824 14.419 74.1419 14.516C74.1023 14.6135 74.0533 14.7047 73.9969 14.7874C73.9411 14.8712 73.8768 14.9424 73.8051 14.9977C73.7339 15.0547 73.6501 15.0831 73.5574 15.0831H73.5294H71.2658C71.0666 15.0831 70.9349 15.0172 70.8727 14.8865Z" fill="#E5EAFA"/>
<path d="M53.3421 1.79738C49.8089 4.55118 49.1754 9.66664 51.9286 13.1994C53.4787 15.1884 55.8161 16.3295 58.3411 16.3295C60.1642 16.3295 61.8897 15.7355 63.3307 14.614C65.0388 13.2816 66.1271 11.36 66.3944 9.20442C66.6631 7.0483 66.076 4.9201 64.7436 3.21196C64.3995 2.76977 64.0111 2.36343 63.5879 2.00398C63.4977 1.92756 63.3833 1.8854 63.2663 1.8854C63.1093 1.8854 62.9596 1.96235 62.8648 2.092L58.3733 8.26102L56.1228 5.50934C56.0317 5.39813 55.9031 5.33541 55.7687 5.33541C55.6238 5.33541 55.4904 5.40604 55.4003 5.52884L54.4437 6.84222C54.2935 7.04988 54.3019 7.35609 54.4637 7.55478L58.1182 12.0215C58.2078 12.1316 58.3375 12.197 58.4719 12.197C58.6163 12.197 58.7507 12.1242 58.8419 11.9998L63.5362 5.55308C64.799 8.02227 64.1439 11.0786 61.9235 12.8089C60.8894 13.6158 59.6503 14.0421 58.3411 14.0421C56.526 14.0421 54.8469 13.2236 53.7322 11.7927C52.7745 10.5652 52.355 9.03577 52.5468 7.48679C52.7392 5.93887 53.5203 4.55803 54.7483 3.60092C55.7834 2.79455 57.022 2.3687 58.3311 2.3687C59.1317 2.3687 59.9054 2.52628 60.6333 2.83618C60.8694 2.93737 61.1719 2.85358 61.3211 2.64961L62.0784 1.6087C62.1643 1.49065 62.1944 1.34676 62.1596 1.21132C62.1269 1.07692 62.0336 0.965186 61.9061 0.901941C60.7919 0.357508 59.5881 0.0808105 58.3311 0.0808105C56.5086 0.0808105 54.7842 0.674787 53.3421 1.79738Z" fill="#E5EAFA"/>
</svg>
