<svg width="23" height="23" viewBox="0 0 23 23" fill="none" xmlns="http://www.w3.org/2000/svg">
<path d="M11.8242 0.151123C5.7171 0.151123 0.770142 5.0979 0.770142 11.205C0.770142 17.3121 5.7171 22.2589 11.8242 22.2589C17.9313 22.2589 22.8779 17.3121 22.8779 11.205C22.8779 5.0979 17.9313 0.151123 11.8242 0.151123ZM9.75043 18.8787V18.892C9.75043 19.1522 9.54376 19.2988 9.29736 19.2186C5.95703 18.1522 3.53015 15.0185 3.53015 11.3181C3.53015 7.61827 5.95026 4.48454 9.29736 3.41766C9.55072 3.33798 9.75043 3.48456 9.75043 3.74426V4.38468C9.75043 4.55782 9.61713 4.76441 9.45032 4.81803C6.80347 5.79145 4.91034 8.33148 4.91034 11.3049C4.91034 14.2851 6.80347 16.8252 9.45032 17.7922C9.61713 17.8522 9.75043 18.0519 9.75043 18.2255V18.8787ZM12.5373 16.4922H12.5309L12.5176 16.5055C12.5176 16.6988 12.3642 16.8522 12.1708 16.8522H11.4842C11.2909 16.8522 11.1375 16.6988 11.1375 16.5055V15.412C9.63031 15.2054 8.89062 14.3653 8.69043 13.2119C8.65686 13.0186 8.81036 12.8385 9.01056 12.8385H9.79712C9.96381 12.8385 10.1041 12.9585 10.1375 13.1184C10.2841 13.8051 10.677 14.325 11.8905 14.325C12.7842 14.325 13.4173 13.8252 13.4173 13.0786C13.4173 12.3319 13.0439 12.0515 11.7375 11.8317C9.80396 11.5715 8.89062 10.9851 8.89062 9.47165C8.89062 8.29804 9.77747 7.39151 11.1439 7.19821V6.12444C11.1439 5.93114 11.2973 5.77816 11.4907 5.77816H12.1773C12.3707 5.77816 12.5241 5.93114 12.5241 6.12444V7.22477C13.6377 7.42447 14.344 8.058 14.5777 9.10471C14.6243 9.3049 14.464 9.49132 14.2644 9.49132H13.5372C13.3845 9.49132 13.2506 9.38508 13.2043 9.23801C13.011 8.57152 12.5309 8.28475 11.704 8.28475C10.7906 8.28475 10.3176 8.72498 10.3176 9.34474C10.3176 9.99844 10.5841 10.3314 11.9909 10.5316C13.8909 10.7918 14.8708 11.3314 14.8708 12.9517C14.8708 14.1784 13.9573 15.172 12.5373 15.3987V16.4922ZM14.3508 19.2388V19.2255C14.0975 19.3057 13.8974 19.1586 13.8974 18.8989V18.2585C13.8974 18.0652 14.0175 17.892 14.1974 17.8252C16.8442 16.8522 18.7379 14.3117 18.7379 11.3383C18.7379 8.35804 16.8442 5.81801 14.1974 4.85098C14.0307 4.79097 13.8974 4.59127 13.8974 4.41764V3.77771C13.8974 3.518 14.104 3.36454 14.3508 3.45111C17.6912 4.51798 20.1181 7.65122 20.1181 11.3516C20.1112 15.0387 17.6976 18.1719 14.3508 19.2388Z" fill="#E5EAFA"/>
</svg>
