<svg width="26" height="23" viewBox="0 0 26 23" fill="none" xmlns="http://www.w3.org/2000/svg">
<path d="M14.8155 8.27319V10.4329C14.7243 10.4412 14.2287 10.4824 13.242 10.4824C12.421 10.4824 11.8259 10.4471 11.6176 10.4329V8.27319C8.44185 8.41387 6.07043 8.96628 6.07043 9.62849C6.07043 10.2902 8.44136 10.8431 11.6186 10.9843V10.9813C11.823 10.9921 12.4038 11.0157 13.2293 11.0157C14.2616 11.0157 14.7253 10.9877 14.8155 10.9818C17.9844 10.8407 20.3514 10.2873 20.3514 9.62752C20.3514 8.96776 17.9858 8.41436 14.8155 8.27319Z" fill="#E5EAFA"/>
<path d="M21.071 0.109131H5.03426L0.371826 10.0761L13.0529 22.3013L25.7339 10.0761L21.071 0.109131ZM14.8155 11.5084V17.7055H11.6162V11.5094C8.0223 11.3427 5.31709 10.6305 5.31709 9.77761C5.31709 8.92473 8.02083 8.21252 11.6162 8.04733V6.11462H7.19245V3.16726H19.2372V6.11462H14.814V8.0493L14.8155 8.04978C18.4045 8.21497 21.1023 8.92669 21.1023 9.77908C21.1023 10.631 18.4045 11.3427 14.8155 11.5084Z" fill="#E5EAFA"/>
</svg>
