<svg width="75" height="23" viewBox="0 0 75 23" fill="none" xmlns="http://www.w3.org/2000/svg">
<path d="M72.3305 10.0125L69.7244 16.0298L67.0397 10.0125H65.1318L68.7636 18.1964L66.9825 22.2736H68.8885L74.2534 10.0125H72.3305Z" fill="#E5EAFA"/>
<path d="M22.3921 14.1423C22.3921 15.1789 22.3381 15.8595 22.2308 16.1669C22.0838 16.6073 21.8123 16.9682 21.4227 17.2388C21.0318 17.5103 20.5451 17.6484 19.9757 17.6484C19.4009 17.6484 18.9038 17.5063 18.4974 17.2266C18.0892 16.9455 17.8205 16.5728 17.6765 16.0888C17.5785 15.746 17.5289 15.0908 17.5289 14.1423V10.0125H16.0856V14.2658C16.0856 15.4913 16.2286 16.4266 16.5105 17.0463C16.7971 17.6765 17.2361 18.1728 17.8155 18.5219C18.3916 18.8693 19.1185 19.045 19.9757 19.045C20.8284 19.045 21.5502 18.8688 22.1215 18.5215C22.6949 18.1723 23.1322 17.682 23.421 17.0636C23.7061 16.4534 23.851 15.5408 23.851 14.3512V10.0125H22.3921V14.1423Z" fill="#E5EAFA"/>
<path d="M32.8549 15.761C32.5312 16.299 32.2297 16.6908 31.9586 16.9251C31.6898 17.1576 31.3575 17.3487 30.9715 17.4927C30.5861 17.637 30.1829 17.7097 29.7724 17.7097C28.9224 17.7097 28.2273 17.4173 27.6479 16.8162C27.1104 16.2577 26.8122 15.5394 26.7604 14.6781H34.3669L34.3664 14.5047C34.361 13.316 34.0363 12.3081 33.4016 11.5076C32.5057 10.3716 31.2975 9.7959 29.811 9.7959C28.355 9.7959 27.178 10.3589 26.3132 11.4695C25.6321 12.3362 25.287 13.3396 25.287 14.4511C25.287 15.627 25.6938 16.6963 26.4957 17.6284C27.3048 18.5683 28.438 19.045 29.8651 19.045C30.5071 19.045 31.0919 18.946 31.604 18.7517C32.1161 18.5569 32.5847 18.2686 32.9957 17.8949C33.4066 17.5213 33.7679 17.0232 34.0699 16.4139L34.1444 16.2636L32.9398 15.6202L32.8549 15.761ZM26.9302 13.3973C27.1385 12.7626 27.4287 12.2745 27.7933 11.9444C28.3558 11.4404 29.0373 11.1848 29.8187 11.1848C30.296 11.1848 30.7576 11.2874 31.1909 11.4894C31.6235 11.691 31.9745 11.958 32.2343 12.2831C32.4612 12.5664 32.6432 12.9405 32.7772 13.3973H26.9302Z" fill="#E5EAFA"/>
<path d="M0.259338 8.67292H3.50977V16.3474C3.53018 17.191 3.82214 17.8743 4.37695 18.3792C5.18057 19.1102 6.33752 19.2192 6.9559 19.2192C7.27826 19.2192 7.49255 19.1915 7.51572 19.1883L7.68643 19.1652L7.48892 17.6669L7.31824 17.6887C6.98676 17.7309 5.92252 17.7427 5.39264 17.2582C5.12427 17.0131 5.00351 16.6512 5.02258 16.1449V8.67292H8.45331V7.21411H0.259338V8.67292Z" fill="#E5EAFA"/>
<path d="M10.9877 10.1845C9.83084 10.9405 9.30371 12.1464 9.30371 12.9469V19.0218H10.8166V12.9469C10.8166 12.6068 11.1339 11.8962 11.8149 11.4508C12.3239 11.1185 13.1974 10.8392 14.4702 11.3977L14.6286 11.4672L15.2365 10.0819L15.0781 10.0124C13.6016 9.36454 12.1491 9.42583 10.9877 10.1845Z" fill="#E5EAFA"/>
<path d="M64.2462 14.6243C64.2462 13.3553 63.8149 12.2443 62.9658 11.3231C62.041 10.3097 60.8628 9.79614 59.4643 9.79614C58.0655 9.79614 56.8868 10.3124 55.961 11.3326C55.1278 12.2597 54.7056 13.3671 54.7056 14.6243C54.7056 15.8888 55.1515 17.0098 56.0309 17.9551C56.9167 18.9077 58.0718 19.3908 59.4643 19.3908L59.4934 19.3899C59.9097 19.3544 60.2766 19.2836 60.6108 19.1828V17.2654C60.0082 17.6105 59.2968 17.6959 58.4673 17.5188C57.7585 17.1628 57.2519 16.731 56.9608 16.2348C56.6616 15.7245 56.5099 15.1878 56.5099 14.6398C56.5099 13.7771 56.7964 13.062 57.3862 12.4536C57.9733 11.8484 58.653 11.5542 59.4643 11.5542C60.2742 11.5542 60.9454 11.8475 61.5157 12.45C61.7358 12.6838 61.912 12.9326 62.0396 13.19C62.1758 13.6459 62.2489 14.1226 62.2598 14.613H62.2617V18.2003V19.4294H64.2607C64.2607 19.4294 64.2617 19.0516 64.2462 14.6243Z" fill="#E5EAFA"/>
<path d="M53.2519 1.97646C51.1533 0.280647 50.1476 0.136719 45.7208 0.136719H39.2822L38.2462 7.50613C40.4814 5.55333 43.1428 5.33948 44.1104 5.33176V3.21915L50.9649 7.53292L44.1967 12.4583V10.1036C40.8282 10.3034 38.7773 11.394 37.5291 12.609L36.5512 19.5684H42.2139L42.9036 16.1427C42.9036 16.1427 45.8139 16.2989 47.5892 16.1427C50.1476 15.9175 54.4592 13.9057 55.063 10.3988C55.6664 6.89182 55.3504 3.67227 53.2519 1.97646Z" fill="#E5EAFA"/>
<path d="M35.2576 16.1431C35.2576 16.1431 35.7462 9.91465 44.5422 9.56732V11.6064L50.3488 7.38069L44.4559 3.67261V5.51235C44.4559 5.51235 35.3725 4.87035 35.2576 16.1431Z" fill="#E5EAFA"/>
</svg>
