<svg width="83" height="23" viewBox="0 0 83 23" fill="none" xmlns="http://www.w3.org/2000/svg">
<path d="M7.35477 7.82276L6.40784 8.81166C5.60852 8.04033 4.83356 7.6544 4.0835 7.6544C3.59964 7.6544 3.18576 7.8124 2.84229 8.12787C2.49832 8.44335 2.3269 8.81839 2.3269 9.25353C2.3269 9.61821 2.47034 9.96839 2.75784 10.3051C3.03864 10.6631 3.63129 11.0728 4.53571 11.5359C5.64371 12.1037 6.39389 12.6543 6.7865 13.1874C7.17242 13.7271 7.36511 14.3337 7.36511 15.0072C7.36511 15.9468 7.03409 16.7446 6.37106 17.3999C5.7085 18.0557 4.87912 18.3836 3.88351 18.3836C3.21738 18.3836 2.58069 18.2417 1.97461 17.9578C1.36804 17.6734 0.868134 17.2756 0.475464 16.7638L1.41153 15.7013C2.16885 16.5571 2.9718 16.9844 3.82034 16.9844C4.40933 16.9844 4.91278 16.7938 5.32983 16.411C5.74683 16.0292 5.9556 15.5822 5.9556 15.0704C5.9556 14.6425 5.81882 14.2638 5.54535 13.9343C5.27176 13.6044 4.65125 13.191 3.68359 12.6932C2.6387 12.1669 1.9306 11.6374 1.55914 11.1044C1.18051 10.5859 0.990906 9.98963 0.990906 9.31621C0.990906 8.43972 1.29083 7.71242 1.8902 7.13379C2.49002 6.55517 3.24173 6.26611 4.1467 6.26611C5.20547 6.26611 6.27469 6.78517 7.35477 7.82276Z" fill="#E5EAFA"/>
<path d="M9.66614 6.56104H11.1596V11.9464C11.1596 13.2652 11.2296 14.1697 11.3699 14.6603C11.5807 15.3689 11.9838 15.9279 12.58 16.3381C13.1757 16.7484 13.8911 16.9535 14.7256 16.9535C15.5529 16.9535 16.2543 16.7536 16.8293 16.3542C17.4043 15.9543 17.8006 15.4285 18.0182 14.7763C18.172 14.3344 18.2492 13.3911 18.2492 11.9464V6.56104H19.7639V12.2308C19.7639 13.8226 19.5764 15.0198 19.2013 15.8227C18.8263 16.6256 18.2668 17.2535 17.5235 17.7057C16.7801 18.1579 15.8477 18.3843 14.7256 18.3843C13.5964 18.3843 12.6567 18.1579 11.9066 17.7057C11.156 17.2535 10.5949 16.6189 10.2236 15.8015C9.85159 14.9851 9.66614 13.7558 9.66614 12.1147V6.56104Z" fill="#E5EAFA"/>
<path d="M22.3706 13.0927V11.7044C22.4825 11.0103 22.6442 10.4457 22.8544 10.0105C23.345 8.80457 24.0045 7.92135 24.8322 7.35982C25.6595 6.79932 26.3469 6.51855 26.8934 6.51855C27.3001 6.51855 27.7352 6.65169 28.1978 6.91847L27.4301 8.15964C26.7779 7.92135 26.1309 8.11405 25.4896 8.73826C24.8478 9.36196 24.4044 10.0421 24.1588 10.7787C23.9765 11.4309 23.8853 12.6545 23.8853 14.4494V18.3522H22.3706V13.0927Z" fill="#E5EAFA"/>
<path d="M38.6721 14.2711L39.9133 14.9336C39.5134 15.7402 39.0435 16.3892 38.5038 16.8798C37.9641 17.3709 37.3574 17.7444 36.684 18.0003C36.011 18.2562 35.25 18.3841 34.4016 18.3841C32.5222 18.3841 31.0531 17.7687 29.9943 16.5379C28.9354 15.3071 28.406 13.9173 28.406 12.3673C28.406 10.9019 28.8546 9.59749 29.7523 8.45422C30.8884 6.996 32.4134 6.26611 34.328 6.26611C36.2841 6.26611 37.8516 7.0131 39.0296 8.50706C39.8641 9.55864 40.2848 10.8703 40.292 12.4409H29.9311C29.959 13.7872 30.3869 14.8901 31.2141 15.749C32.0415 16.6078 33.062 17.0378 34.2752 17.0378C34.8641 17.0378 35.4361 16.9342 35.9898 16.7275C36.5435 16.5203 37.0156 16.2489 37.4046 15.9121C37.7936 15.5754 38.2163 15.0284 38.6721 14.2711ZM38.6721 11.1681C38.4758 10.3756 38.1884 9.74306 37.8096 9.26959C37.4309 8.79612 36.9295 8.41382 36.3053 8.12321C35.6811 7.83208 35.0258 7.68652 34.3384 7.68652C33.2091 7.68652 32.2383 8.05121 31.4245 8.78058C30.8355 9.3131 30.39 10.1093 30.0886 11.1681H38.6721Z" fill="#E5EAFA"/>
<path d="M60.7196 13.2234H64.3224L62.5048 8.24683L60.7196 13.2234Z" fill="#E5EAFA"/>
<path d="M50.2188 7.7124H48.5736V11.3976H50.2188C50.7944 11.3976 51.2756 11.3375 51.6626 11.2168C52.049 11.0961 52.3438 10.8987 52.5468 10.6242C52.7494 10.3502 52.851 9.99117 52.851 9.54671C52.851 9.0147 52.6945 8.58164 52.3821 8.247C52.0314 7.8906 51.3098 7.7124 50.2188 7.7124Z" fill="#E5EAFA"/>
<path d="M78.1789 0.0344238H45.7421C43.4887 0.0344238 41.6616 1.86148 41.6616 4.11486V18.2951C41.6616 20.5485 43.4887 22.3755 45.7421 22.3755H78.1789C80.4323 22.3755 82.2594 20.5485 82.2594 18.2951V4.11486C82.2594 1.86148 80.4323 0.0344238 78.1789 0.0344238ZM54.1915 12.2902C53.4352 12.9238 52.308 13.2403 50.8109 13.2403H48.5736V16.654C48.5736 17.142 48.4586 17.5124 48.2281 17.7647C47.9981 18.0164 47.7069 18.1428 47.3562 18.1428C46.989 18.1428 46.6926 18.018 46.4678 17.7688C46.243 17.5191 46.1306 17.1529 46.1306 16.6706V7.37527C46.1306 6.83809 46.2539 6.45423 46.5005 6.22371C46.7476 5.9932 47.1397 5.8782 47.6769 5.8782H50.8109C51.7376 5.8782 52.4504 5.94968 52.9498 6.09214C53.443 6.2289 53.8693 6.45682 54.2288 6.77489C54.5878 7.09295 54.8608 7.48198 55.0472 7.94302C55.2338 8.40354 55.327 8.92156 55.327 9.49759C55.327 10.7258 54.9489 11.6567 54.1915 12.2902ZM67.8144 17.7931C67.5813 18.0263 67.3 18.1428 66.971 18.1428C66.7788 18.1428 66.6147 18.1086 66.4774 18.0397C66.3401 17.9713 66.2251 17.8781 66.1319 17.7605C66.0386 17.6424 65.9386 17.4616 65.8319 17.2176C65.7247 16.9736 65.633 16.7581 65.5563 16.5717L64.9803 15.058H60.0778L59.5023 16.6048C59.2769 17.2078 59.0853 17.6149 58.9262 17.8263C58.7672 18.0371 58.5066 18.1428 58.145 18.1428C57.8379 18.1428 57.5664 18.0304 57.3307 17.8056C57.0945 17.5808 56.9769 17.3259 56.9769 17.0405C56.9769 16.8763 57.0044 16.7063 57.0587 16.5307C57.1137 16.3551 57.2043 16.1111 57.3307 15.7983L60.415 7.96737C60.5025 7.74255 60.6082 7.47266 60.732 7.15719C60.8553 6.84223 60.9869 6.58011 61.1267 6.37187C61.2667 6.16311 61.45 5.99475 61.6779 5.86576C61.9053 5.73678 62.1861 5.67254 62.5213 5.67254C62.8611 5.67254 63.1449 5.73678 63.3724 5.86576C63.5998 5.99475 63.7837 6.16052 63.9236 6.36358C64.0634 6.56664 64.181 6.78421 64.2774 7.01732C64.3732 7.25043 64.4949 7.56176 64.6431 7.95131L67.7937 15.7325C68.0408 16.3251 68.164 16.7556 68.164 17.0239C68.164 17.3036 68.0469 17.56 67.8144 17.7931ZM79.0648 7.30948C78.9606 7.52342 78.7824 7.81921 78.5301 8.19789L75.5111 12.829V16.654C75.5111 17.1529 75.3961 17.5259 75.1656 17.7724C74.9356 18.0195 74.6419 18.1428 74.2855 18.1428C73.9234 18.1428 73.6302 18.0206 73.4054 17.7766C73.1806 17.5326 73.0682 17.1586 73.0682 16.654V12.829L70.1232 8.26367C69.8652 7.85237 69.6834 7.53171 69.5762 7.30119C69.4695 7.07068 69.4156 6.87072 69.4156 6.70081C69.4156 6.42108 69.5244 6.17968 69.7409 5.97662C69.9574 5.77407 70.2247 5.67254 70.5428 5.67254C70.8774 5.67254 71.1307 5.76682 71.3037 5.95642C71.4763 6.14549 71.7358 6.52261 72.0808 7.08725L74.3347 10.7476L76.6135 7.08725C76.7502 6.86243 76.8658 6.67335 76.959 6.52002C77.0522 6.36617 77.1548 6.22216 77.2672 6.08799C77.3796 5.95383 77.5045 5.85074 77.6418 5.77925C77.7785 5.70829 77.9459 5.67254 78.1432 5.67254C78.4504 5.67254 78.7068 5.77252 78.9124 5.97299C79.1181 6.17295 79.2212 6.4045 79.2212 6.66766C79.2212 6.8816 79.1689 7.09554 79.0648 7.30948Z" fill="#E5EAFA"/>
</svg>
