<svg width="93" height="17" viewBox="0 0 93 17" fill="none" xmlns="http://www.w3.org/2000/svg">
<path d="M90.8697 1.44617C89.6937 0.640768 87.9147 0.234691 85.5823 0.234691H79.4748L77.2037 12.5615H69.2026L69.7166 9.76513H74.5366L75.1075 6.62393L70.2903 6.63068L70.806 3.84608H75.7712L76.4315 0.235254H66.3493L64.1935 11.9282H60.4933L62.6637 0.234691H57.3932L55.2373 11.9277H51.6333L53.8053 0.234691H48.5376L46.2643 12.5621H38.2051L38.7147 9.76513H43.5539L44.1259 6.64193L39.2912 6.63687L39.8041 3.8472H44.8244L45.4808 0.234131H14.0621L12.2741 10.003L8.71284 0.234131H3.24429L0.301636 16.1763H5.52385L7.30508 6.13856L10.7607 16.1763H29.4768L31.7523 3.84552H34.6792L32.4036 16.1763H81.6492L83.0772 8.39279L85.3866 16.1763H90.6115L88.2184 9.81631L88.7657 9.6982C89.9715 9.43948 90.9125 8.88435 91.5671 8.05195C92.2218 7.21224 92.5553 6.13349 92.5553 4.83821C92.5553 3.32977 92.0036 2.22008 90.868 1.44505L90.8697 1.44617ZM24.9323 12.5615H16.9384L17.4547 9.76513H22.4689L23.0374 6.61493H18.0717L18.5498 3.8472H26.5318L24.9306 12.5615H24.9323ZM86.5643 7.19199C86.039 7.55926 85.2769 7.73812 84.2353 7.73812H83.2026L83.9951 3.46025H84.7544C85.6194 3.46025 86.2505 3.59861 86.6858 3.88151C87.0255 4.10311 87.4293 4.54181 87.4293 5.37196C87.4282 6.37534 86.958 6.91471 86.5626 7.19199H86.5643Z" fill="#E5EAFA"/>
</svg>
