<svg width="50" height="18" viewBox="0 0 50 18" fill="none" xmlns="http://www.w3.org/2000/svg">
<path d="M39.2565 2.46926L43.3403 1.74279V17.4117H39.2565V2.46926ZM45.2185 2.46926V17.4028H49.3018V1.74279L45.2185 2.46926ZM33.4517 17.4028H37.5349V5.94705H33.4517V17.4028ZM6.46526 7.56548C5.94621 7.53091 4.75255 7.45287 4.75255 6.3802C4.75255 5.08231 6.47416 5.08231 7.1142 5.08231C8.24763 5.08231 9.71888 5.41962 10.7654 5.73126C10.7654 5.73126 11.3541 5.93867 11.8469 6.1466L11.8904 6.15498V2.60805L11.8296 2.59025C10.5925 2.15814 9.15636 1.74279 6.48254 1.74279C1.87918 1.74279 0.253418 4.42499 0.253418 6.7175C0.253418 8.04158 0.823797 11.1564 6.09338 11.5194C6.5433 11.5456 7.72858 11.6147 7.72858 12.7308C7.72858 13.6479 6.75961 14.1932 5.12442 14.1932C3.33315 14.1932 1.60263 13.7344 0.547249 13.3017V16.9618C2.12221 17.3772 3.90458 17.5846 5.98968 17.5846C10.4888 17.5846 12.5048 15.0495 12.5048 12.5318C12.5048 9.67677 10.2552 7.82527 6.46526 7.56548ZM31.1502 5.78311C27.3776 5.9041 25.4658 7.60005 25.4658 10.9658V17.4117H29.5837V12.151C29.5837 10.1351 29.8435 9.26981 32.2397 9.19229V5.83496C31.8243 5.75745 31.1502 5.78311 31.1502 5.78311ZM20.0753 5.93867C19.9888 6.16389 19.3315 8.01539 17.7477 9.92765V1.74279L13.5345 2.57296V17.4028H17.7477V12.8173C18.968 14.6515 19.5735 17.4028 19.5735 17.4028H24.6179C24.1161 15.3266 21.9357 11.5021 21.9357 11.5021C23.8909 9.01893 24.7561 6.3713 24.8944 5.93029H20.0753V5.93867ZM35.4849 4.84871C36.5921 4.84871 37.5009 3.94889 37.5009 2.84165C37.5009 1.73389 36.6005 0.825684 35.4849 0.825684C34.3772 0.825684 33.4779 1.72551 33.4779 2.84165C33.4779 3.94889 34.3772 4.84871 35.4849 4.84871Z" fill="#E5EAFA"/>
</svg>
