<svg width="100" height="19" viewBox="0 0 100 19" fill="none" xmlns="http://www.w3.org/2000/svg">
<path d="M65.705 13.6577C64.3848 13.6577 63.4113 13.0121 63.1317 11.8653C62.8714 13.0121 61.8885 13.6577 60.5777 13.6577C58.4095 13.6577 57.3397 12.2313 57.3397 10.2942V4.51196H59.4501V10.4196C59.4501 11.3546 59.7781 11.9809 60.761 11.9809C61.6959 11.9809 62.0718 11.3546 62.091 10.4196V4.51196H64.1921V10.4196C64.1921 11.3546 64.5774 11.9809 65.5218 11.9809C66.5051 11.9809 66.8326 11.3546 66.8326 10.4196V4.51196H68.9431V10.2942C68.9431 12.2313 67.8733 13.6577 65.705 13.6577Z" fill="#E5EAFA"/>
<path d="M38.7007 6.7958C39.1729 6.131 39.4233 5.33086 39.4233 4.51196H32.6197V6.12112H36.8214L33.1882 11.2291C32.7161 11.8939 32.4651 12.6941 32.4651 13.513H39.2692V11.9038H35.0676L38.7007 6.7958Z" fill="#E5EAFA"/>
<path d="M97.3055 7.68237V9.99535V10.5446C97.3055 10.9111 97.3633 11.2291 97.4981 11.4697L97.508 11.4988C97.5559 11.5759 97.6043 11.6529 97.6714 11.7107C97.7105 11.7492 97.749 11.7877 97.7969 11.8169C97.8162 11.8361 97.8453 11.8455 97.8739 11.8648L97.8838 11.8747L97.9125 11.8939C98.1728 12.048 98.4815 12.0964 98.7798 12.0964C98.9344 12.0964 99.0885 12.0772 99.2426 12.048V13.6384C99.0885 13.6577 98.9344 13.6577 98.7798 13.6577C97.1128 13.6577 95.8213 12.8289 95.3975 11.5082L95.3876 11.4889C95.32 11.2385 95.2814 10.9782 95.2622 10.6987C95.2622 10.6508 95.2528 10.593 95.2528 10.5446V10.5352V10.3613V7.68237H93.9805V6.12112H95.2528V4.51147H97.3055V6.11125H99.2426V7.68237H97.3055Z" fill="#E5EAFA"/>
<path d="M42.4117 9.20493C42.4117 7.98102 43.1728 7.68221 43.8766 7.68221C44.5992 7.68221 45.3603 7.98102 45.3603 9.20493H42.4117ZM46.5363 7.08458C46.4978 7.04605 46.4593 7.00753 46.4109 6.969C46.2183 6.79564 45.9965 6.65092 45.7555 6.52547C45.6399 6.46769 45.5243 6.41978 45.3993 6.37137C45.3603 6.36199 45.3218 6.34273 45.2833 6.33285C44.8595 6.18813 44.3873 6.11108 43.8766 6.11108C43.7413 6.11108 43.6065 6.12096 43.4815 6.13035C43.4039 6.14022 43.3368 6.14961 43.2597 6.14961C42.9703 6.18813 42.7006 6.24592 42.4502 6.34273C42.3539 6.37137 42.267 6.4099 42.1707 6.44842C42.0837 6.48695 41.9973 6.53535 41.9104 6.57388C41.66 6.70871 41.4283 6.87269 41.2357 7.06532C40.6766 7.60516 40.3491 8.35689 40.3491 9.25284V9.87961V10.5059C40.3491 10.5345 40.359 10.5538 40.359 10.5829C40.3684 10.8432 40.3975 11.0936 40.4553 11.3248V11.3445C40.8312 12.7611 42.1608 13.6476 43.8959 13.6476C45.3218 13.6476 46.4785 13.0406 47.047 12.0286V12.0187C47.134 11.8646 47.2011 11.7105 47.2589 11.5466H45.1099C44.9366 11.7975 44.6861 11.9516 44.416 12.0187C44.2525 12.0671 44.0693 12.0765 43.8959 12.0765C43.5971 12.0765 43.279 12.0286 43.0281 11.8745L42.9994 11.8552C42.7876 11.7397 42.6428 11.5466 42.5465 11.3154C42.5273 11.2576 42.4981 11.1899 42.4887 11.1322C42.4789 11.0936 42.4695 11.0457 42.4596 10.9973C42.4309 10.8719 42.4211 10.7178 42.4211 10.5637V10.5251H47.4328V10.5059V9.87961V9.25284C47.4229 8.37615 47.0954 7.6338 46.5363 7.08458Z" fill="#E5EAFA"/>
<path d="M74.9758 11.1808C74.9665 11.2771 74.9373 11.364 74.8894 11.441C74.6968 11.7591 74.1955 12.1058 73.4146 12.1058C72.8752 12.1058 72.4031 11.7976 72.4031 11.2292C72.4031 10.6602 72.8367 10.3036 73.5978 10.3036H74.9758V10.7664C74.9857 10.9012 74.9951 11.036 74.9758 11.1808ZM76.9999 9.14733C76.9999 9.03176 76.99 8.92557 76.9806 8.80999C76.9707 8.73294 76.9614 8.65589 76.9515 8.57884C76.9421 8.54032 76.9322 8.50179 76.9322 8.46327C76.9322 8.42474 76.9129 8.38622 76.9129 8.35708V8.33781C76.547 6.94993 75.246 6.07324 73.5401 6.07324C72.6342 6.07324 71.844 6.31378 71.2463 6.75731C71.0537 6.90202 70.8804 7.06551 70.7258 7.24874L72.2776 8.2415C72.451 7.92343 72.7207 7.75006 73.0294 7.67301C73.0679 7.66314 73.1158 7.65375 73.1548 7.64387C73.2798 7.62461 73.4052 7.61523 73.5401 7.61523C73.6848 7.61523 73.8389 7.62461 73.9836 7.66314C74.0221 7.67301 74.0508 7.6824 74.0893 7.69228C74.1955 7.72092 74.2918 7.76932 74.3881 7.82711L74.4172 7.84637L74.4266 7.85576C74.4459 7.86564 74.4651 7.8849 74.4844 7.89429C74.6192 7.98121 74.716 8.09679 74.7832 8.23162C74.8025 8.26077 74.8124 8.28003 74.8218 8.30867C74.8316 8.33781 74.841 8.35708 74.8509 8.38622C74.8702 8.44401 74.8988 8.50179 74.9087 8.56897C74.9181 8.60749 74.9279 8.65589 74.9373 8.69442C74.9472 8.72306 74.9472 8.76159 74.9566 8.79073V8.80061C74.9665 8.86778 74.9758 8.92557 74.9758 9.00262V9.11819V9.15721H73.0773C71.6123 9.15721 70.379 9.79287 70.379 11.364C70.379 12.8482 71.6706 13.6577 72.9908 13.6577C73.7134 13.6577 74.4844 13.4458 74.9758 12.9154V13.5229H76.9999V9.27278C77.0098 9.22438 77.0098 9.18586 76.9999 9.14733Z" fill="#E5EAFA"/>
<path d="M26.5581 9.20493C26.5581 7.98102 27.3192 7.68221 28.023 7.68221C28.7456 7.68221 29.5067 7.98102 29.5067 9.20493H26.5581ZM30.6827 7.08458C30.6442 7.04605 30.6057 7.00753 30.5573 6.969C30.3647 6.79564 30.1429 6.65092 29.9019 6.52547C29.7863 6.46769 29.6707 6.41978 29.5458 6.37137C29.5067 6.36199 29.4682 6.34273 29.4297 6.33285C29.0059 6.18813 28.5337 6.11108 28.023 6.11108C27.8877 6.11108 27.7529 6.12096 27.6279 6.13035C27.5504 6.14022 27.4832 6.14961 27.4062 6.14961C27.1167 6.18813 26.847 6.24592 26.5966 6.34273C26.5003 6.37137 26.4134 6.4099 26.3171 6.44842C26.2302 6.48695 26.1437 6.53535 26.0568 6.57388C25.8064 6.70871 25.5747 6.87269 25.3821 7.06532C24.823 7.60516 24.4955 8.35689 24.4955 9.25284V9.87961V10.5059C24.4955 10.5345 24.5054 10.5538 24.5054 10.5829C24.5148 10.8432 24.5439 11.0936 24.6017 11.3248V11.3445C24.9776 12.7611 26.3072 13.6476 28.0423 13.6476C29.4682 13.6476 30.625 13.0406 31.1934 12.0286V12.0187C31.2127 11.9802 31.2418 11.9323 31.2611 11.8938C31.3189 11.7782 31.3668 11.6621 31.4053 11.5466H29.2563C29.083 11.7975 28.8326 11.9516 28.5624 12.0187C28.3989 12.0671 28.2157 12.0765 28.0423 12.0765C27.7435 12.0765 27.4254 12.0286 27.1745 11.8745L27.1459 11.8552C26.934 11.7397 26.7893 11.5466 26.6929 11.3154C26.6737 11.2576 26.6445 11.1899 26.6253 11.1322C26.6159 11.0936 26.606 11.0457 26.5966 10.9973C26.5675 10.8719 26.5581 10.7178 26.5581 10.5637V10.5251H31.5693V10.5059V9.87961V9.25284C31.5693 8.37615 31.2418 7.6338 30.6827 7.08458Z" fill="#E5EAFA"/>
<path d="M50.7767 9.20493C50.7767 7.98102 51.5378 7.68221 52.2417 7.68221C52.9643 7.68221 53.7254 7.98102 53.7254 9.20493H50.7767ZM54.9014 7.08458C54.8628 7.04605 54.8243 7.00753 54.7759 6.969C54.5833 6.79564 54.3615 6.65092 54.1205 6.52547C54.0049 6.46769 53.8894 6.41978 53.7644 6.37137C53.7254 6.36199 53.6868 6.34273 53.6483 6.33285C53.2245 6.18813 52.7524 6.11108 52.2417 6.11108C52.1063 6.11108 51.9715 6.12096 51.8465 6.13035C51.769 6.14022 51.7018 6.14961 51.6248 6.14961C51.3354 6.18813 51.0657 6.24592 50.8153 6.34273C50.7189 6.37137 50.632 6.4099 50.5357 6.44842C50.4488 6.48695 50.3624 6.53535 50.2754 6.57388C50.025 6.70871 49.8032 6.87269 49.6007 7.06532C49.0416 7.60516 48.7142 8.35689 48.7142 9.25284V9.87961V10.5059C48.7142 10.5345 48.7241 10.5538 48.7241 10.5829C48.7334 10.8432 48.7626 11.0936 48.8204 11.3248V11.3445C49.1962 12.7611 50.5258 13.6476 52.2609 13.6476C53.6868 13.6476 54.8436 13.0406 55.4121 12.0286V12.0187C55.499 11.8646 55.5662 11.7105 55.624 11.5466H53.4656C53.2917 11.7975 53.0413 11.9516 52.7716 12.0187C52.6077 12.0671 52.4244 12.0765 52.2511 12.0765C51.9522 12.0765 51.6342 12.0286 51.3838 11.8745L51.3546 11.8552C51.1427 11.7397 50.998 11.5466 50.9017 11.3154C50.8824 11.2576 50.8538 11.1899 50.8345 11.1322C50.8246 11.0936 50.8153 11.0457 50.8054 10.9973C50.7767 10.8719 50.7669 10.7178 50.7669 10.5637V10.5251H55.7785V10.5059V9.87961V9.25284C55.7879 8.37615 55.4605 7.6338 54.9014 7.08458Z" fill="#E5EAFA"/>
<path d="M88.0251 9.20493C88.0251 7.98102 88.7862 7.68221 89.49 7.68221C90.2126 7.68221 90.9737 7.98102 90.9737 9.20493H88.0251ZM92.1497 7.08458C92.1112 7.04605 92.0727 7.00753 92.0243 6.969C91.8316 6.79564 91.6099 6.65092 91.3689 6.52547C91.2533 6.46769 91.1377 6.41978 91.0127 6.37137C90.9737 6.36199 90.9352 6.34273 90.8967 6.33285C90.4729 6.18813 90.0007 6.11108 89.49 6.11108C89.3547 6.11108 89.2198 6.12096 89.0949 6.13035C89.0173 6.14022 88.9502 6.14961 88.8731 6.14961C88.5837 6.18813 88.314 6.24592 88.0636 6.34273C87.9673 6.37137 87.8804 6.4099 87.7841 6.44842C87.6971 6.48695 87.6107 6.53535 87.5238 6.57388C87.2734 6.70871 87.0417 6.87269 86.8491 7.06532C86.29 7.60516 85.9625 8.35689 85.9625 9.25284V9.87961V10.5059C85.9625 10.5345 85.9724 10.5538 85.9724 10.5829C85.9818 10.8432 86.0109 11.0936 86.0687 11.3248V11.3445C86.4446 12.7611 87.7742 13.6476 89.5093 13.6476C90.9352 13.6476 92.0919 13.0406 92.6604 12.0286V12.0187C92.7474 11.8646 92.8145 11.7105 92.8723 11.5466H90.7233C90.55 11.7975 90.2995 11.9516 90.0294 12.0187C89.8659 12.0671 89.6827 12.0765 89.5093 12.0765C89.2105 12.0765 88.8924 12.0286 88.6415 11.8745L88.6128 11.8552C88.401 11.7397 88.2562 11.5466 88.1599 11.3154C88.1407 11.2576 88.1115 11.1899 88.1021 11.1322C88.0923 11.0936 88.0829 11.0457 88.073 10.9973C88.0444 10.8719 88.0345 10.7178 88.0345 10.5637V10.5251H93.0462V10.5059V9.87961V9.25284C93.0363 8.37615 92.7088 7.6338 92.1497 7.08458Z" fill="#E5EAFA"/>
<path d="M79.5632 13.513H80.7392V4.51147H78.686V12.6457C78.686 13.1272 79.0718 13.513 79.5632 13.513Z" fill="#E5EAFA"/>
<path d="M83.1296 13.513H84.3056V4.51147H82.2524V12.6457C82.2524 13.1272 82.6475 13.513 83.1296 13.513Z" fill="#E5EAFA"/>
<path d="M7.31189 11.3732C7.31189 12.0094 7.82259 12.5201 8.45875 12.5201H17.6143V10.2362H8.45875C7.82259 10.2263 7.31189 10.737 7.31189 11.3732Z" fill="#E5EAFA"/>
<path d="M17.6046 5.64893H8.44904C7.81289 5.64893 7.30219 6.15963 7.30219 6.79578C7.30219 7.43194 7.81289 7.94264 8.44904 7.94264H17.6046V5.64893Z" fill="#E5EAFA"/>
<path d="M4.39207 4.85863C4.2281 5.15745 4.15105 5.49479 4.15105 5.83213C4.14166 6.69943 4.68101 7.35485 5.39421 7.79788C5.92418 8.1451 6.43537 8.54961 6.43537 9.20503C6.43537 9.86045 5.92418 10.265 5.39421 10.6122C4.69089 11.0557 4.15105 11.7106 4.15105 12.5779C4.15105 12.9153 4.2281 13.2526 4.39207 13.5514C4.90277 14.515 5.97258 14.7946 6.9846 14.7946H18.7421V18.2258H6.80136H6.30004C4.89339 18.2352 3.41858 17.9171 2.29098 17.0305C1.64544 16.5297 1.14413 15.8644 0.864575 15.084C0.209652 13.3203 0.604779 11.5951 1.96352 10.3134C2.09836 10.1785 2.24307 10.0531 2.36803 9.90885C2.50337 9.75426 2.62832 9.5809 2.68611 9.37839C2.70537 9.32061 2.71525 9.28208 2.71525 9.20503C2.71525 9.12798 2.70537 9.08946 2.68611 9.03167C2.62832 8.82917 2.50337 8.6558 2.36803 8.5017C2.24307 8.35699 2.09836 8.23154 1.96352 8.0967C0.604779 6.815 0.209652 5.0804 0.864575 3.32653C1.15401 2.55553 1.64544 1.88086 2.30086 1.37954C3.42846 0.502355 4.90277 0.174893 6.30992 0.184278H6.81124H18.752V3.61546H6.99399C5.97258 3.61546 4.90277 3.89502 4.39207 4.85863Z" fill="#E5EAFA"/>
</svg>
