<svg width="23" height="23" viewBox="0 0 23 23" fill="none" xmlns="http://www.w3.org/2000/svg">
<path d="M10.3421 11.3342L9.67493 14.0072C10.4981 14.2115 13.0372 15.0263 13.4123 13.5188C13.8028 11.9462 11.1648 11.5395 10.3421 11.3342Z" fill="#E5EAFA"/>
<path d="M11.2508 7.68652L10.6462 10.1108C11.3321 10.2817 13.4452 10.9783 13.7874 9.60667C14.1444 8.17641 11.9367 7.85737 11.2508 7.68652Z" fill="#E5EAFA"/>
<path d="M13.9829 0.470144C8.05555 -1.00739 2.05139 2.60052 0.573863 8.52935C-0.904164 14.4572 2.70375 20.4619 8.62962 21.9399C14.5585 23.4179 20.5631 19.8105 22.0411 13.8821C23.5191 7.9538 19.9112 1.94817 13.9829 0.470144ZM16.1866 9.62876C16.0276 10.7065 15.4294 11.2284 14.6362 11.412C15.7253 11.9797 16.2792 12.8492 15.7514 14.3573C15.0966 16.2292 13.5393 16.3872 11.469 15.9953L10.9668 18.009L9.75267 17.7067L10.2485 15.7201C9.93385 15.6418 9.61235 15.5586 9.28099 15.469L8.78324 17.4649L7.57059 17.1622L8.07279 15.1445C7.78968 15.0717 7.50166 14.9948 7.20771 14.921L5.62729 14.5271L6.22993 13.1372C6.22993 13.1372 7.12454 13.375 7.11271 13.3573C7.45636 13.4425 7.60899 13.2185 7.66905 13.0688L8.46321 9.88577L8.59121 9.91728C8.54298 9.89808 8.49916 9.88577 8.46517 9.87691L9.03138 7.60473C9.04663 7.34674 8.95752 7.0213 8.46567 6.89871C8.48488 6.88591 7.58389 6.67912 7.58389 6.67912L7.90686 5.38277L9.58133 5.80078L9.57986 5.80668C9.83193 5.8697 10.0909 5.92879 10.3553 5.98935L10.8531 3.99534L12.0662 4.29764L11.5788 6.25275C11.9047 6.32709 12.2321 6.40193 12.5512 6.48169L13.0351 4.53939L14.2498 4.84218L13.7525 6.83667C15.2857 7.36496 16.4067 8.15616 16.1866 9.62876Z" fill="#E5EAFA"/>
</svg>
