<svg width="208" height="29" viewBox="0 0 208 29" fill="none" xmlns="http://www.w3.org/2000/svg">
<path d="M40.2299 9.9917C42.466 9.90207 44.4347 11.1546 45.5082 13.0327V10.2603H47.3861V15.896H45.4183C45.2396 15.0909 44.8811 14.3744 44.434 13.7485C43.5392 12.5857 42.1084 11.8704 40.6771 11.7808C38.5301 11.7808 35.3099 13.6595 35.3099 19.1167C35.31 23.4107 37.6353 26.5415 40.6771 26.5415C43.0924 26.4519 45.061 24.6631 45.5082 22.3374C45.5978 21.8898 45.598 21.3529 45.598 20.9058H41.3929L41.4818 19.2954H47.6547V28.062H45.6869V25.2896C45.3294 25.9153 44.8818 26.4521 44.3451 26.9888C43.1825 27.9727 41.7503 28.5093 40.3187 28.5093C36.2041 28.509 32.9838 24.484 32.9838 19.2954C32.9838 14.1066 36.2042 9.9918 40.2299 9.9917ZM55.5277 14.4644C58.301 14.4644 60.6263 15.717 60.6263 19.1167V26.5415H62.5052L62.6849 28.1519H58.8373V25.7358C57.9425 27.4357 56.1534 28.4204 54.2748 28.4204C52.0383 28.5989 50.0707 26.8093 49.892 24.5728V24.3052C49.892 21.7111 52.128 20.4582 57.4955 19.9214L58.7484 19.8315V18.4897C58.7483 16.9693 57.585 15.9849 55.7064 15.9849C53.8279 15.9849 52.8432 16.6119 52.4857 18.4009H50.4291C50.6078 17.3274 51.1444 16.3429 51.9496 15.6274C52.9334 14.8224 54.2755 14.4644 55.5277 14.4644ZM114.734 14.4653C118.044 14.4653 120.728 17.0591 120.728 21.8003H110.977C111.156 23.7685 111.603 24.9315 112.497 25.8257C113.213 26.452 114.108 26.8101 115.002 26.8101C116.523 26.81 117.508 26.0941 118.223 24.4839L120.459 24.395C120.28 25.2001 119.923 25.8263 119.386 26.4526C118.313 27.7047 116.791 28.4203 115.092 28.4204C111.424 28.4204 108.83 25.5576 108.829 21.4429C108.829 17.5063 111.424 14.4654 114.734 14.4653ZM166.082 14.4644C169.84 14.4644 171.808 16.1647 171.808 19.2065L171.718 25.5571H172.881V28.1519H168.677V26.5415C167.693 27.7943 166.172 28.4204 164.562 28.4204C161.878 28.4204 159.821 26.6307 159.821 24.2153C159.821 20.2796 164.293 19.8316 168.587 19.4741C168.587 17.4165 167.871 16.7906 166.172 16.7905C164.472 16.7905 163.846 17.5959 163.757 18.8481V18.938L160.536 18.8481C160.715 16.1644 162.862 14.4644 166.082 14.4644ZM24.0375 14.2856C26.0949 14.2857 28.0633 15.2701 29.226 17.0591C30.1206 18.5797 30.6574 20.2799 30.5677 22.0688H20.9056C21.2637 25.557 23.5002 25.7368 24.1263 25.7368C25.3791 25.8259 26.5418 24.9312 26.8998 23.7681L30.2992 23.6782C29.6733 26.6304 27.258 28.4194 24.0375 28.4194C20.2802 28.4194 17.5073 25.4683 17.5072 21.353C17.5072 17.2377 20.2802 14.2856 24.0375 14.2856ZM191.391 14.2856C193.449 14.2857 195.416 15.2701 196.579 17.0591C197.474 18.5797 198.011 20.2799 197.921 22.0688H188.26C188.618 25.5573 190.855 25.7368 191.481 25.7368C192.733 25.8258 193.896 24.9311 194.254 23.7681L197.654 23.6782C197.027 26.6304 194.611 28.4194 191.391 28.4194C187.634 28.4194 184.861 25.4683 184.861 21.353C184.861 17.2377 187.634 14.2856 191.391 14.2856ZM90.7738 17.4175C91.3105 16.4331 92.8314 14.4654 95.1576 14.4653C98.1987 14.4653 100.525 17.5959 100.525 21.5317C100.525 25.1999 98.0201 28.3315 95.1576 28.3315C92.7424 28.3315 91.5789 26.7214 90.7738 25.6479V28.1528H86.9271V26.5425H88.806V11.2446H87.017V9.63428H90.7738V17.4175ZM79.8597 14.2856C81.917 14.2856 83.0803 15.6271 83.0804 17.9526V26.4517H84.9594V28.062H81.2015V18.6685C81.2015 16.79 80.5754 15.8962 79.2338 15.896C76.9081 15.896 75.6558 18.6683 75.6556 19.6528V26.4517H77.6234V28.062H73.6869V18.3999C73.6868 16.7009 73.0607 15.985 71.7191 15.9849C69.6618 15.9849 68.1411 18.5792 68.141 19.8315V26.5415H70.1088V28.1519H64.2943V26.5415H66.2621V16.1636H64.2943V14.5542H68.2299L68.3197 17.1479C68.9461 16.2531 70.1087 14.3745 72.6136 14.3745C74.4026 14.3745 75.387 15.2693 75.7445 17.1479C76.1025 16.5216 76.4597 15.9845 76.9965 15.4478C77.8016 14.7323 78.7863 14.2857 79.8597 14.2856ZM105.52 26.5415H107.309V28.1519H101.583V26.5415H103.552V11.1548H101.673V9.6333H105.52V26.5415ZM138.171 25.2896H139.514V28.1519H135.488L134.326 24.3042H128.063L126.901 28.1519H122.786V25.2896H124.127L128.957 10.439H133.251L138.171 25.2896ZM7.13025 10.439C10.1718 10.439 11.2453 10.5283 12.14 10.8862C13.8394 11.6914 14.8236 13.3015 14.8236 15.1802C14.8235 16.9695 14.2863 17.8636 12.4974 18.7583C14.3761 19.3847 15.6283 21.1738 15.4496 23.1421C15.4496 26.0941 13.1241 28.0619 9.72498 28.062H0.331421V25.1997H1.67322V13.3013H0.331421V10.439H7.13025ZM144.703 17.2378H143.361L145.24 25.1997L147.475 14.644H150.964L153.201 25.021L154.99 17.2378H153.648V14.644H159.016V17.2378H157.853L154.99 28.062H151.411L149.175 18.7593L147.028 28.062H143.451L140.498 17.2378H139.335V14.644H144.703V17.2378ZM182.623 14.3755C183.16 14.3755 183.608 14.4651 184.145 14.5542V17.6851C183.608 17.5954 183.071 17.5063 182.535 17.5063C180.835 17.4173 179.403 18.6695 179.314 20.2798V25.4673H180.924V28.062H174.662V25.4673H176.004V17.2378H174.662V14.6431H179.224V16.7905C180.119 15.0907 181.103 14.3756 182.623 14.3755ZM57.5853 21.353C53.4701 21.8898 52.1283 22.6058 52.1283 24.3052C52.2182 25.8261 53.4704 26.8999 54.9017 26.8999C56.8694 26.8102 58.5688 25.3782 58.8373 23.4106V21.1743L57.5853 21.353ZM94.6215 15.9858C92.6532 15.9858 90.684 18.1328 90.684 20.1011L90.7738 22.4272C90.774 24.6638 92.4745 26.4526 94.6215 26.6313C96.9469 26.6311 98.3772 24.5739 98.3773 21.2642C98.3773 17.9547 96.8574 15.9861 94.6215 15.9858ZM168.497 21.8003C165.367 22.0686 163.309 22.337 163.309 24.2153C163.309 25.2887 164.204 26.0042 165.545 26.0044C167.156 26.0044 168.498 24.7524 168.587 23.1421V21.8003H168.497ZM5.34119 20.3687V25.1997H9.09802C10.5296 25.2893 11.7818 24.3045 11.8715 22.8735V22.7837C11.8713 21.2633 10.6189 20.2789 8.7406 20.2788L5.34119 20.3687ZM128.779 21.6206H133.43L131.105 13.7485L128.779 21.6206ZM117.149 16.8804C116.522 16.3437 115.718 15.9851 114.912 16.0747C113.213 16.1638 111.782 17.3277 111.334 18.938C111.245 19.385 111.066 19.8328 111.066 20.2798H118.492C118.492 19.0275 118.044 17.8643 117.149 16.8804ZM24.1263 17.0591C22.6059 17.0592 21.3538 18.222 21.0853 19.6528L26.8998 19.7427C26.8998 18.222 25.6477 17.0591 24.2162 17.0591H24.1263ZM191.391 17.0591C189.87 17.0591 188.618 18.2219 188.35 19.6528L194.164 19.7427C194.164 18.2221 192.912 17.0592 191.481 17.0591H191.391ZM5.34119 17.5952H8.82947C10.0817 17.6849 11.2457 16.7899 11.3353 15.5376V15.3589C11.3352 14.1959 10.1719 13.3014 8.56189 13.3013H5.34119V17.5952ZM202.752 0.509277C205.169 0.509335 207.135 2.47584 207.135 4.89209C207.135 7.30903 205.169 9.27582 202.752 9.27588C200.335 9.27588 198.37 7.30906 198.37 4.89209C198.37 2.4758 200.335 0.509277 202.752 0.509277ZM202.752 1.2251C200.73 1.2251 199.085 2.87029 199.084 4.89209C199.084 6.91457 200.73 8.56104 202.752 8.56104C204.775 8.56098 206.42 6.91454 206.42 4.89209C206.42 2.87033 204.775 1.22516 202.752 1.2251ZM203.19 2.47412C203.62 2.47412 203.958 2.57797 204.202 2.78955C204.443 3.00112 204.564 3.29086 204.564 3.65771C204.564 3.93283 204.502 4.17351 204.378 4.38037C204.253 4.58707 204.054 4.72816 203.779 4.8042V4.81689C203.909 4.84238 204.016 4.88364 204.099 4.94287C204.181 5.00225 204.247 5.07348 204.295 5.15576C204.344 5.23758 204.38 5.32953 204.404 5.43115C204.427 5.53211 204.445 5.63777 204.457 5.74756C204.466 5.85804 204.471 5.96989 204.476 6.0835C204.48 6.19814 204.491 6.31 204.507 6.41943C204.524 6.52928 204.549 6.63399 204.581 6.73291C204.613 6.83234 204.659 6.91959 204.723 6.99561H204.051C204.009 6.94931 203.981 6.88563 203.966 6.80615C203.951 6.7259 203.942 6.6357 203.938 6.53564C203.934 6.43719 203.929 6.33038 203.925 6.21631C203.92 6.10271 203.908 5.99032 203.887 5.88037C203.869 5.77056 203.849 5.66631 203.824 5.56689C203.799 5.46842 203.758 5.38164 203.703 5.30713C203.648 5.23344 203.576 5.17507 203.489 5.13037C203.4 5.08608 203.281 5.06396 203.133 5.06396H201.663V6.99561H201.062V2.47412H203.19ZM201.663 4.55713H202.917C203.057 4.55713 203.19 4.54672 203.317 4.52588C203.443 4.50399 203.554 4.46282 203.65 4.40186C203.745 4.3409 203.821 4.25845 203.877 4.15479C203.934 4.0516 203.963 3.91764 203.963 3.75244C203.963 3.52486 203.899 3.33907 203.773 3.1958C203.646 3.05249 203.442 2.97998 203.159 2.97998H201.663V4.55713Z" fill="#E5EAFA"/>
</svg>
