<svg width="40" height="33" viewBox="0 0 40 33" fill="none" xmlns="http://www.w3.org/2000/svg">
<g clip-path="url(#clip0_50676_1112)">
<path d="M21.8143 24.0905H21.2086V23.6758H21.3973C21.4235 23.7276 21.4541 23.778 21.491 23.825C21.5757 23.9334 21.684 24.0217 21.8143 24.0905Z" fill="#E5EAFA"/>
<path d="M20.9434 0.525379V0.509277C20.9434 0.509277 20.9387 0.514064 20.9361 0.516675C20.9318 0.513629 20.9275 0.509277 20.9275 0.509277V0.525379C20.6554 0.79214 16.6104 4.63515 8.69153 5.9015V10.9408C9.03929 11.2202 9.35652 11.5418 9.63421 11.9004C9.86376 11.6292 10.1174 11.3795 10.3899 11.1532V7.33714C15.7623 6.22397 19.276 4.01285 20.9357 2.75085C22.5923 4.01155 26.1082 6.22397 31.4806 7.33714V10.5013C31.5751 10.5435 31.6701 10.5866 31.7656 10.6292L32.0843 10.7933L32.579 11.0093L32.829 11.1187C32.9346 11.1187 33.1794 11.2905 33.1794 11.2905V10.7933V5.9015C25.2605 4.63559 21.2151 0.79214 20.9434 0.525379ZM31.0554 24.2353C30.8934 24.2353 30.7429 24.2053 30.608 24.1461C30.571 24.1296 30.5353 24.1113 30.5009 24.0909C30.3436 24.187 30.1579 24.2353 29.9464 24.2353C29.869 24.2353 29.7938 24.2284 29.722 24.2144H29.416C28.135 25.8398 25.7669 28.0331 20.9361 30.5758C16.0903 28.0257 13.7218 25.8272 12.4442 24.2001L12.2185 24.214H11.8158C11.7736 24.2275 11.6997 24.2353 11.6262 24.2353C11.3919 24.2353 11.189 24.1644 11.0244 24.0247C11.0209 24.0217 11.0184 24.0186 11.0149 24.0156C10.8383 24.1483 10.6229 24.2218 10.3719 24.2332C11.5978 26.1388 14.18 29.0805 20.9279 32.5023V32.5093C20.9309 32.508 20.9335 32.5062 20.9365 32.5049C20.9365 32.5049 20.9413 32.508 20.9438 32.5093V32.5023C27.8392 29.0057 30.3849 26.0104 31.5781 24.1096C31.4277 24.1927 31.2527 24.2353 31.0554 24.2353Z" fill="#E5EAFA"/>
<path d="M36.2606 10.8526H34.2351L31.6345 17.4572C31.6349 17.4424 31.6362 17.4276 31.6362 17.4128C31.5274 16.8036 31.3976 16.5586 31.0911 16.1473C30.7846 15.7356 30.2804 15.3266 29.4925 14.9676C28.671 14.5877 27.8319 14.075 27.6634 13.9114C27.4992 13.7521 27.4687 13.5955 27.4687 13.414C27.4687 13.2451 27.6226 13.0015 27.7683 12.8874C27.914 12.7734 28.1823 12.7177 28.5034 12.7177C29.1245 12.7177 29.6399 12.9901 30.4949 13.387L31.3585 11.5562C30.3745 11.1132 29.4907 10.7151 28.5442 10.7151C27.4726 10.7151 26.8707 11.0919 26.2578 11.5689C25.6448 12.0458 25.3331 12.6812 25.3331 13.5337C25.3331 13.9897 25.4625 14.3814 25.6375 14.6995C25.8159 15.0237 25.9496 15.2169 26.2479 15.4745C26.5458 15.7322 26.9692 15.9959 27.5654 16.27C28.2239 16.5699 28.5919 16.8075 28.7441 16.9045C28.8962 17.0016 29.048 17.1012 29.1168 17.1961C29.1855 17.291 29.2724 17.532 29.2569 17.7196C29.2397 17.9215 29.0811 18.1852 28.9104 18.314C28.7394 18.4429 28.4522 18.5473 28.0855 18.5473C27.6604 18.5473 27.1798 18.3362 26.7022 18.1121C26.2522 17.9011 26.109 17.7087 25.6379 17.4637L24.9553 18.6174L21.8994 10.8526H19.8739L16.849 18.5342L16.4965 17.8562C15.9798 18.2161 15.332 18.4289 14.6309 18.4289C12.9295 18.4289 11.5501 17.1756 11.5501 15.6308C11.5501 14.0859 12.9291 12.8326 14.6309 12.8326C15.3376 12.8326 15.9914 13.0498 16.5124 13.4157L17.4379 11.5737C16.5958 11.0227 15.5736 10.6994 14.4723 10.6994C12.2353 10.6994 10.3271 12.0328 9.58736 13.9053C8.94816 12.0384 7.19605 10.6968 5.13401 10.6968C2.5312 10.6968 0.421021 12.833 0.421021 15.4667V15.7944C0.421021 18.4294 2.5312 20.5656 5.13401 20.5656C6.43519 20.5656 7.6143 20.0321 8.46671 19.1679C8.96492 18.6626 9.35137 18.0447 9.58736 17.3562C10.3271 19.2288 12.2353 20.5626 14.4727 20.5626C15.0621 20.5626 15.6269 20.4677 16.1552 20.2976L16.1341 20.3511H18.4648L19.1156 18.4916H22.6585L23.3076 20.3511H25.6383L25.4264 19.8132C25.8051 20.0199 26.1873 20.2162 26.4044 20.2619C26.817 20.3485 27.4214 20.5225 28.0301 20.5225C28.7596 20.5225 29.4198 20.3855 29.9675 20.1522C30.3333 19.9964 30.6226 19.7223 30.8594 19.4277L30.4958 20.3515H32.8265L33.4773 18.492H37.0202L37.6693 20.3515H40L36.2606 10.8526ZM7.5481 16.0551C7.5481 17.4045 6.467 18.499 5.13401 18.499C3.80101 18.499 2.71991 17.4045 2.71991 16.0551V15.2069C2.71991 13.8561 3.80101 12.763 5.13401 12.763C5.80072 12.763 6.40381 13.0371 6.84141 13.4784C7.27772 13.9201 7.5481 14.532 7.5481 15.2069V16.0551ZM19.8219 16.5686L20.8858 13.8178L21.9497 16.5686H19.8219ZM34.1835 16.5686L35.2474 13.8178L36.3113 16.5686H34.1835Z" fill="#E5EAFA"/>
<path d="M36.2606 10.8526H34.2351L31.6345 17.4572C31.6349 17.4424 31.6362 17.4276 31.6362 17.4128C31.5274 16.8036 31.3976 16.5586 31.0911 16.1473C30.7846 15.7356 30.2804 15.3266 29.4925 14.9676C28.671 14.5877 27.8319 14.075 27.6634 13.9114C27.4992 13.7521 27.4687 13.5955 27.4687 13.414C27.4687 13.2451 27.6226 13.0015 27.7683 12.8874C27.914 12.7734 28.1823 12.7177 28.5034 12.7177C29.1245 12.7177 29.6399 12.9901 30.4949 13.387L31.3585 11.5562C30.3745 11.1132 29.4907 10.7151 28.5442 10.7151C27.4726 10.7151 26.8707 11.0919 26.2578 11.5689C25.6448 12.0458 25.3331 12.6812 25.3331 13.5337C25.3331 13.9897 25.4625 14.3814 25.6375 14.6995C25.8159 15.0237 25.9496 15.2169 26.2479 15.4745C26.5458 15.7322 26.9692 15.9959 27.5654 16.27C28.2239 16.5699 28.5919 16.8075 28.7441 16.9045C28.8962 17.0016 29.048 17.1012 29.1168 17.1961C29.1855 17.291 29.2724 17.532 29.2569 17.7196C29.2397 17.9215 29.0811 18.1852 28.9104 18.314C28.7394 18.4429 28.4522 18.5473 28.0855 18.5473C27.6604 18.5473 27.1798 18.3362 26.7022 18.1121C26.2522 17.9011 26.109 17.7087 25.6379 17.4637L24.9553 18.6174L21.8994 10.8526H19.8739L16.849 18.5342L16.4965 17.8562C15.9798 18.2161 15.332 18.4289 14.6309 18.4289C12.9295 18.4289 11.5501 17.1756 11.5501 15.6308C11.5501 14.0859 12.9291 12.8326 14.6309 12.8326C15.3376 12.8326 15.9914 13.0498 16.5124 13.4157L17.4379 11.5737C16.5958 11.0227 15.5736 10.6994 14.4723 10.6994C12.2353 10.6994 10.3271 12.0328 9.58736 13.9053C8.94816 12.0384 7.19605 10.6968 5.13401 10.6968C2.5312 10.6968 0.421021 12.833 0.421021 15.4667V15.7944C0.421021 18.4294 2.5312 20.5656 5.13401 20.5656C6.43519 20.5656 7.6143 20.0321 8.46671 19.1679C8.96492 18.6626 9.35137 18.0447 9.58736 17.3562C10.3271 19.2288 12.2353 20.5626 14.4727 20.5626C15.0621 20.5626 15.6269 20.4677 16.1552 20.2976L16.1341 20.3511H18.4648L19.1156 18.4916H22.6585L23.3076 20.3511H25.6383L25.4264 19.8132C25.8051 20.0199 26.1873 20.2162 26.4044 20.2619C26.817 20.3485 27.4214 20.5225 28.0301 20.5225C28.7596 20.5225 29.4198 20.3855 29.9675 20.1522C30.3333 19.9964 30.6226 19.7223 30.8594 19.4277L30.4958 20.3515H32.8265L33.4773 18.492H37.0202L37.6693 20.3515H40L36.2606 10.8526ZM7.5481 16.0551C7.5481 17.4045 6.467 18.499 5.13401 18.499C3.80101 18.499 2.71991 17.4045 2.71991 16.0551V15.2069C2.71991 13.8561 3.80101 12.763 5.13401 12.763C5.80072 12.763 6.40381 13.0371 6.84141 13.4784C7.27772 13.9201 7.5481 14.532 7.5481 15.2069V16.0551ZM19.8219 16.5686L20.8858 13.8178L21.9497 16.5686H19.8219ZM34.1835 16.5686L35.2474 13.8178L36.3113 16.5686H34.1835Z" fill="#E5EAFA"/>
<path d="M3.89581 23.0166C3.89581 23.1637 3.8683 23.2921 3.81371 23.4017C3.75912 23.5114 3.68131 23.5949 3.58116 23.6528C3.481 23.7107 3.36365 23.7394 3.22996 23.7394C3.09627 23.7394 2.98322 23.7103 2.8822 23.6519C2.78119 23.5941 2.70252 23.5109 2.64664 23.4035C2.59076 23.296 2.56196 23.1711 2.56067 23.0296V22.9213C2.56067 22.7768 2.58818 22.6493 2.64406 22.5388C2.69951 22.4282 2.77775 22.3434 2.8792 22.2846C2.98064 22.2259 3.0967 22.1963 3.22738 22.1963C3.35806 22.1963 3.47756 22.2254 3.57901 22.2833C3.68045 22.3412 3.75869 22.4256 3.81328 22.5362C3.86787 22.6467 3.89539 22.7751 3.89539 22.9213V23.0166H3.89581ZM3.67831 22.9195C3.67831 22.7416 3.63876 22.6049 3.55966 22.5096C3.48057 22.4143 3.3701 22.3669 3.22781 22.3669C3.08553 22.3669 2.98064 22.4143 2.90112 22.5096C2.82159 22.6049 2.78076 22.7372 2.77861 22.9061V23.0166C2.77861 23.1894 2.81859 23.3247 2.89897 23.4235C2.97892 23.5223 3.0894 23.5714 3.22996 23.5714C3.37053 23.5714 3.48057 23.5249 3.55837 23.4317C3.63575 23.3386 3.67573 23.205 3.67788 23.031V22.9195H3.67831Z" fill="#E5EAFA"/>
<path d="M4.36116 22.5844L4.3676 22.7271C4.4583 22.6179 4.57738 22.5635 4.72353 22.5635C4.975 22.5635 5.10181 22.6988 5.10395 22.9695V23.7193H4.90063V22.9686C4.89977 22.8868 4.88043 22.8263 4.84174 22.7872C4.80305 22.748 4.7433 22.7284 4.66206 22.7284C4.59629 22.7284 4.53826 22.7454 4.48839 22.7789C4.43853 22.8124 4.39984 22.8563 4.3719 22.9112V23.7197H4.16858V22.5852H4.36116V22.5844Z" fill="#E5EAFA"/>
<path d="M5.62288 23.7203H5.41956V22.1924H5.62288V23.7203Z" fill="#E5EAFA"/>
<path d="M6.16048 23.7188H5.95715V22.5843H6.16048V23.7188ZM6.16048 22.1709H5.95715V22.3933H6.16048V22.1709Z" fill="#E5EAFA"/>
<path d="M6.66877 22.5844L6.67522 22.7271C6.76592 22.6179 6.88499 22.5635 7.03115 22.5635C7.28261 22.5635 7.40942 22.6988 7.41157 22.9695V23.7193H7.20825V22.9686C7.20739 22.8868 7.18805 22.8263 7.14936 22.7872C7.11067 22.748 7.05092 22.7284 6.96968 22.7284C6.90391 22.7284 6.84588 22.7454 6.79601 22.7789C6.74615 22.8124 6.70746 22.8563 6.67952 22.9112V23.7197H6.4762V22.5852H6.66877V22.5844Z" fill="#E5EAFA"/>
<path d="M8.28493 23.7397C8.12373 23.7397 7.99263 23.6892 7.89161 23.5883C7.79059 23.4873 7.73987 23.3524 7.73987 23.1827V23.147C7.73987 23.0343 7.76222 22.9338 7.80736 22.8454C7.85249 22.7571 7.91525 22.6879 7.99649 22.6378C8.07731 22.5878 8.16543 22.563 8.25957 22.563C8.41432 22.563 8.53425 22.6117 8.62022 22.7088C8.70619 22.8063 8.74875 22.9451 8.74875 23.1261V23.2066H7.94319C7.9462 23.3184 7.98016 23.409 8.04593 23.4777C8.11127 23.5465 8.19509 23.5809 8.29611 23.5809C8.36789 23.5809 8.42893 23.5669 8.4788 23.5391C8.52866 23.5112 8.57208 23.4738 8.60948 23.4277L8.73371 23.5199C8.63398 23.6666 8.48439 23.7397 8.28493 23.7397ZM8.25957 22.7227C8.17747 22.7227 8.10869 22.7514 8.05281 22.808C7.99735 22.865 7.96254 22.9446 7.94964 23.0478H8.54543V23.033C8.53941 22.9342 8.5119 22.858 8.46203 22.8036C8.41217 22.7497 8.34468 22.7227 8.25957 22.7227Z" fill="#E5EAFA"/>
<path d="M10.9285 23.243C10.9079 23.4018 10.8434 23.5245 10.7342 23.6107C10.6251 23.6969 10.4802 23.7404 10.2992 23.7404C10.1032 23.7404 9.94588 23.6769 9.8281 23.5493C9.70989 23.4223 9.651 23.2517 9.651 23.0389V22.8944C9.651 22.7547 9.67851 22.632 9.73353 22.5263C9.78856 22.4205 9.86679 22.3391 9.96781 22.2821C10.0688 22.2256 10.1857 22.1973 10.319 22.1973C10.4952 22.1973 10.6367 22.2417 10.7428 22.3309C10.849 22.4201 10.9114 22.5432 10.9285 22.7008H10.7085C10.6895 22.5807 10.6483 22.4936 10.5847 22.4401C10.521 22.3861 10.4325 22.3596 10.3186 22.3596C10.1789 22.3596 10.0693 22.4066 9.98973 22.5001C9.91021 22.5937 9.87066 22.7269 9.87066 22.8996V23.0454C9.87066 23.2086 9.90849 23.3383 9.98371 23.4345C10.0589 23.5306 10.1643 23.5789 10.2992 23.5789C10.4209 23.5789 10.5142 23.5541 10.5791 23.5041C10.644 23.454 10.687 23.3674 10.7085 23.2434H10.9285V23.243Z" fill="#E5EAFA"/>
<path d="M11.9928 23.7188C11.9812 23.6966 11.9718 23.6566 11.964 23.5991C11.8695 23.6927 11.7568 23.7397 11.6253 23.7397C11.508 23.7397 11.4117 23.7079 11.3369 23.6448C11.2616 23.5813 11.2242 23.5012 11.2242 23.4042C11.2242 23.2858 11.2715 23.1944 11.3657 23.1287C11.4598 23.0634 11.5922 23.0308 11.7629 23.0308H11.9606V22.9416C11.9606 22.8737 11.9395 22.8197 11.897 22.7797C11.8544 22.7397 11.7917 22.7192 11.7091 22.7192C11.6365 22.7192 11.5759 22.7366 11.5264 22.7719C11.4774 22.8067 11.4529 22.8493 11.4529 22.8985H11.2483C11.2483 22.8419 11.2694 22.7871 11.3115 22.7344C11.3536 22.6818 11.4108 22.64 11.483 22.6091C11.5552 22.5782 11.6343 22.563 11.7212 22.563C11.8583 22.563 11.9658 22.5956 12.0431 22.6609C12.1209 22.7262 12.1613 22.8163 12.1639 22.9311V23.4534C12.1639 23.5574 12.1777 23.6405 12.2056 23.7018V23.7188H11.9928ZM11.6554 23.5708C11.719 23.5708 11.7796 23.5552 11.8368 23.5238C11.894 23.4925 11.9352 23.4516 11.961 23.4011V23.1683H11.8015C11.5522 23.1683 11.428 23.2379 11.428 23.3768C11.428 23.4377 11.4491 23.4851 11.4916 23.5195C11.5342 23.5539 11.5888 23.5708 11.6554 23.5708Z" fill="#E5EAFA"/>
<path d="M13.0633 23.4176C13.0633 23.365 13.0427 23.3245 13.001 23.2953C12.9593 23.2662 12.8875 23.2414 12.7843 23.2205C12.6811 23.1996 12.5995 23.1744 12.5393 23.1448C12.4787 23.1156 12.434 23.0804 12.4052 23.0399C12.3764 22.9994 12.3618 22.9511 12.3618 22.895C12.3618 22.8018 12.403 22.7235 12.4856 22.6591C12.5681 22.5947 12.6734 22.5625 12.8015 22.5625C12.9365 22.5625 13.0457 22.5956 13.1295 22.6622C13.2133 22.7287 13.2554 22.8136 13.2554 22.9172H13.0508C13.0508 22.8641 13.0272 22.8184 12.9799 22.7797C12.9326 22.7409 12.8733 22.7218 12.8011 22.7218C12.7289 22.7218 12.6691 22.737 12.6274 22.7679C12.5857 22.7988 12.5647 22.8388 12.5647 22.8884C12.5647 22.9354 12.584 22.9707 12.6231 22.9942C12.6618 23.0181 12.7323 23.0408 12.8337 23.0625C12.9352 23.0843 13.0173 23.1099 13.0805 23.14C13.1437 23.17 13.1901 23.2061 13.2206 23.2483C13.2511 23.2905 13.2662 23.3423 13.2662 23.4033C13.2662 23.5047 13.2236 23.586 13.1385 23.647C13.0534 23.7083 12.9434 23.7388 12.8075 23.7388C12.7121 23.7388 12.6278 23.7227 12.5548 23.6905C12.4817 23.6583 12.4241 23.6134 12.3828 23.5556C12.3416 23.4981 12.3209 23.4355 12.3209 23.3684H12.5242C12.5277 23.4337 12.5552 23.4851 12.6059 23.5234C12.6566 23.5617 12.7241 23.5804 12.8075 23.5804C12.8845 23.5804 12.9464 23.5656 12.9928 23.536C13.0396 23.5073 13.0633 23.4672 13.0633 23.4176Z" fill="#E5EAFA"/>
<path d="M13.7821 23.7188H13.5787V22.5843H13.7821V23.7188ZM13.7821 22.1709H13.5787V22.3933H13.7821V22.1709Z" fill="#E5EAFA"/>
<path d="M14.2391 22.5844L14.2455 22.7271C14.3362 22.6179 14.4553 22.5635 14.6015 22.5635C14.8529 22.5635 14.9797 22.6988 14.9819 22.9695V23.7193H14.7786V22.9686C14.7777 22.8868 14.7584 22.8263 14.7197 22.7872C14.681 22.748 14.6212 22.7284 14.54 22.7284C14.4742 22.7284 14.4162 22.7454 14.3663 22.7789C14.3165 22.8124 14.2778 22.8563 14.2498 22.9112V23.7197H14.0465V22.5852H14.2391V22.5844Z" fill="#E5EAFA"/>
<path d="M15.2521 23.141C15.2521 23.03 15.2749 22.9299 15.3209 22.8411C15.3668 22.7523 15.4305 22.6836 15.5121 22.6357C15.5938 22.5878 15.6871 22.5635 15.792 22.5635C15.954 22.5635 16.0847 22.617 16.1849 22.7241C16.285 22.8311 16.3349 22.9734 16.3349 23.151V23.1644C16.3349 23.275 16.3125 23.3738 16.2683 23.4617C16.224 23.5496 16.1604 23.6179 16.0783 23.6666C15.9957 23.7154 15.9012 23.7402 15.7941 23.7402C15.6329 23.7402 15.5023 23.6867 15.4021 23.5796C15.3019 23.4726 15.2521 23.3311 15.2521 23.1549V23.141ZM15.4567 23.164C15.4567 23.2898 15.4872 23.3907 15.5482 23.4669C15.6093 23.543 15.6914 23.5813 15.7941 23.5813C15.8969 23.5813 15.9794 23.5426 16.0404 23.4656C16.1015 23.3886 16.1316 23.2802 16.1316 23.141C16.1316 23.0165 16.1006 22.9155 16.0387 22.8385C15.9768 22.761 15.8947 22.7227 15.792 22.7227C15.6892 22.7227 15.6106 22.761 15.5491 22.8372C15.4872 22.9129 15.4567 23.0221 15.4567 23.164Z" fill="#E5EAFA"/>
<path d="M18.049 23.2826H17.4399L17.283 23.7191H17.0758L17.6578 22.2173H17.8336L18.417 23.7191H18.2106L18.049 23.2826ZM17.5229 23.0663H17.9682L17.7455 22.4614L17.5229 23.0663Z" fill="#E5EAFA"/>
<path d="M18.805 22.5844L18.8115 22.7271C18.9022 22.6179 19.0212 22.5635 19.1674 22.5635C19.4188 22.5635 19.5457 22.6988 19.5478 22.9695V23.7193H19.3445V22.9686C19.3436 22.8868 19.3243 22.8263 19.2856 22.7872C19.2469 22.748 19.1871 22.7284 19.1059 22.7284C19.0401 22.7284 18.9821 22.7454 18.9322 22.7789C18.8824 22.8124 18.8437 22.8563 18.8157 22.9112V23.7197H18.6124V22.5852H18.805V22.5844Z" fill="#E5EAFA"/>
<path d="M20.1515 22.309V22.5836H20.3738V22.7338H20.1515V23.4383C20.1515 23.484 20.1614 23.5179 20.1812 23.5406C20.201 23.5632 20.2349 23.5745 20.2822 23.5745C20.3059 23.5745 20.3381 23.5702 20.3789 23.5619V23.7181C20.3256 23.732 20.2736 23.739 20.2229 23.739C20.1322 23.739 20.0634 23.7129 20.0174 23.6602C19.9714 23.6076 19.9482 23.5336 19.9482 23.437V22.7333H19.7316V22.5832H19.9482V22.3086H20.1515V22.309Z" fill="#E5EAFA"/>
<path d="M20.7191 23.7188H20.5157V22.5843H20.7191V23.7188ZM20.7191 22.1709H20.5157V22.3933H20.7191V22.1709Z" fill="#E5EAFA"/>
<path d="M21.6049 23.1794H21.0685V23.0293H21.6049V23.1794Z" fill="#E5EAFA"/>
<path d="M22.3856 23.0498C22.1978 23.001 22.0615 22.941 21.976 22.8696C21.8904 22.7987 21.8479 22.7108 21.8479 22.6063C21.8479 22.488 21.9003 22.3905 22.0048 22.313C22.1092 22.2356 22.245 22.1973 22.4123 22.1973C22.5262 22.1973 22.6281 22.2173 22.717 22.2569C22.8064 22.2969 22.8752 22.3518 22.9247 22.4218C22.9737 22.4919 22.9982 22.5685 22.9982 22.652H22.7781C22.7781 22.5611 22.7463 22.4893 22.6822 22.4375C22.6182 22.3853 22.5283 22.3591 22.4118 22.3591C22.3039 22.3591 22.2197 22.3809 22.1595 22.424C22.0993 22.4671 22.0688 22.5267 22.0688 22.6033C22.0688 22.6646 22.0976 22.7164 22.1548 22.7586C22.212 22.8009 22.31 22.84 22.4479 22.8748C22.5859 22.9101 22.6938 22.9488 22.7716 22.991C22.8494 23.0332 22.9075 23.0824 22.9449 23.139C22.9823 23.1956 23.0012 23.2617 23.0012 23.3383C23.0012 23.4601 22.9487 23.5576 22.8438 23.6307C22.739 23.7038 22.5988 23.7408 22.423 23.7408C22.3091 23.7408 22.2025 23.7212 22.1036 23.6816C22.0048 23.642 21.9287 23.5881 21.8749 23.5193C21.8212 23.4506 21.7946 23.3727 21.7946 23.2852H22.0146C22.0146 23.3761 22.0516 23.4475 22.126 23.5002C22.1999 23.5528 22.2992 23.5789 22.423 23.5789C22.5386 23.5789 22.6272 23.5576 22.6887 23.515C22.7501 23.4723 22.7811 23.4144 22.7811 23.3409C22.7811 23.2674 22.7527 23.2103 22.6955 23.1703C22.6384 23.129 22.5352 23.0894 22.3856 23.0498Z" fill="#E5EAFA"/>
<path d="M23.7776 23.5813C23.8503 23.5813 23.9135 23.5604 23.9676 23.5182C24.0218 23.4764 24.0519 23.4238 24.0579 23.3611H24.2501C24.2466 23.4259 24.223 23.4877 24.1796 23.5465C24.1366 23.6052 24.0785 23.6522 24.0063 23.687C23.9341 23.7219 23.8576 23.7397 23.7772 23.7397C23.6152 23.7397 23.4862 23.6879 23.3908 23.5848C23.2953 23.4816 23.2472 23.3406 23.2472 23.1618V23.1291C23.2472 23.0186 23.2683 22.9207 23.3108 22.8345C23.3534 22.7484 23.4144 22.6818 23.4939 22.6344C23.5735 22.5869 23.6676 22.563 23.7759 22.563C23.9092 22.563 24.0201 22.6013 24.1082 22.6774C24.1963 22.7536 24.2436 22.8524 24.2496 22.9742H24.0575C24.0515 22.9007 24.0227 22.8406 23.9702 22.7932C23.9178 22.7462 23.8533 22.7223 23.7764 22.7223C23.6732 22.7223 23.5928 22.7579 23.5361 22.8289C23.4793 22.8998 23.4509 23.0025 23.4509 23.1365V23.1735C23.4509 23.3041 23.4793 23.405 23.5356 23.4755C23.5919 23.546 23.6728 23.5813 23.7776 23.5813Z" fill="#E5EAFA"/>
<path d="M25.2018 23.7188C25.1902 23.6966 25.1808 23.6566 25.173 23.5991C25.0784 23.6927 24.9658 23.7397 24.8343 23.7397C24.7169 23.7397 24.6206 23.7079 24.5459 23.6448C24.4706 23.5813 24.4332 23.5012 24.4332 23.4042C24.4332 23.2858 24.4805 23.1944 24.5747 23.1287C24.6688 23.0634 24.8012 23.0308 24.9718 23.0308H25.1696V22.9416C25.1696 22.8737 25.1485 22.8197 25.106 22.7797C25.0634 22.7397 25.0006 22.7192 24.9181 22.7192C24.8455 22.7192 24.7849 22.7366 24.7354 22.7719C24.6864 22.8067 24.6619 22.8493 24.6619 22.8985H24.4573C24.4573 22.8419 24.4784 22.7871 24.5205 22.7344C24.5626 22.6818 24.6198 22.64 24.692 22.6091C24.7642 22.5782 24.8433 22.563 24.9301 22.563C25.0673 22.563 25.1747 22.5956 25.2521 22.6609C25.3299 22.7262 25.3703 22.8163 25.3729 22.9311V23.4534C25.3729 23.5574 25.3867 23.6405 25.4146 23.7018V23.7188H25.2018ZM24.8644 23.5708C24.928 23.5708 24.9886 23.5552 25.0458 23.5238C25.1029 23.4925 25.1442 23.4516 25.17 23.4011V23.1683H25.0105C24.7612 23.1683 24.637 23.2379 24.637 23.3768C24.637 23.4377 24.658 23.4851 24.7006 23.5195C24.7432 23.5539 24.7978 23.5708 24.8644 23.5708Z" fill="#E5EAFA"/>
<path d="M25.8574 22.5844L25.8626 22.7101C25.9429 22.6122 26.0517 22.5635 26.1884 22.5635C26.3419 22.5635 26.4467 22.6244 26.5022 22.7462C26.5387 22.6919 26.5864 22.6475 26.6449 22.614C26.7034 22.5804 26.7726 22.5635 26.8525 22.5635C27.0932 22.5635 27.2158 22.6953 27.2201 22.959V23.7193H27.0322V22.9708C27.0322 22.8899 27.0142 22.8289 26.9785 22.7889C26.9428 22.7489 26.8822 22.7284 26.7979 22.7284C26.7283 22.7284 26.6703 22.7502 26.6243 22.7928C26.5783 22.8359 26.5516 22.8938 26.5439 22.9664V23.7193H26.3552V22.976C26.3552 22.8111 26.2769 22.7284 26.1209 22.7284C25.9975 22.7284 25.9133 22.7824 25.8681 22.8912V23.7197H25.6803V22.5852H25.8574V22.5844Z" fill="#E5EAFA"/>
<path d="M30.201 23.4176C30.201 23.365 30.1804 23.3245 30.1387 23.2953C30.0974 23.2662 30.0252 23.2414 29.922 23.2205C29.8188 23.1996 29.7372 23.1744 29.677 23.1448C29.6164 23.1156 29.5717 23.0804 29.5429 23.0399C29.5141 22.9994 29.4995 22.9511 29.4995 22.895C29.4995 22.8018 29.5407 22.7235 29.6233 22.6591C29.7058 22.5947 29.8111 22.5625 29.9392 22.5625C30.0742 22.5625 30.1834 22.5956 30.2672 22.6622C30.351 22.7287 30.3931 22.8136 30.3931 22.9172H30.1885C30.1885 22.8641 30.1649 22.8184 30.1176 22.7797C30.0703 22.7409 30.011 22.7218 29.9388 22.7218C29.8666 22.7218 29.8068 22.737 29.7651 22.7679C29.7234 22.7988 29.7023 22.8388 29.7023 22.8884C29.7023 22.9354 29.7217 22.9707 29.7608 22.9942C29.7995 23.0181 29.87 23.0408 29.9714 23.0625C30.0729 23.0843 30.155 23.1099 30.2182 23.14C30.2814 23.17 30.3278 23.2061 30.3583 23.2483C30.3888 23.2905 30.4039 23.3423 30.4039 23.4033C30.4039 23.5047 30.3613 23.586 30.2762 23.647C30.1911 23.7083 30.0811 23.7388 29.9452 23.7388C29.8498 23.7388 29.7655 23.7227 29.6925 23.6905C29.6194 23.6583 29.5618 23.6134 29.5205 23.5556C29.4793 23.4981 29.4586 23.4355 29.4586 23.3684H29.6619C29.6654 23.4337 29.6929 23.4851 29.7436 23.5234C29.7943 23.5617 29.8618 23.5804 29.9452 23.5804C30.0222 23.5804 30.0841 23.5656 30.1305 23.536C30.1778 23.5073 30.201 23.4672 30.201 23.4176Z" fill="#E5EAFA"/>
<path d="M31.3099 23.4176C31.3099 23.365 31.2893 23.3245 31.2476 23.2953C31.2063 23.2662 31.1341 23.2414 31.031 23.2205C30.9278 23.1996 30.8461 23.1744 30.7859 23.1448C30.7253 23.1156 30.6806 23.0804 30.6518 23.0399C30.623 22.9994 30.6084 22.9511 30.6084 22.895C30.6084 22.8018 30.6497 22.7235 30.7322 22.6591C30.8147 22.5947 30.92 22.5625 31.0481 22.5625C31.1831 22.5625 31.2923 22.5956 31.3766 22.6622C31.4604 22.7287 31.5025 22.8136 31.5025 22.9172H31.2979C31.2979 22.8641 31.2743 22.8184 31.227 22.7797C31.1797 22.7409 31.1199 22.7218 31.0481 22.7218C30.9764 22.7218 30.9162 22.737 30.8745 22.7679C30.8328 22.7988 30.8117 22.8388 30.8117 22.8884C30.8117 22.9354 30.8311 22.9707 30.8702 22.9942C30.9089 23.0181 30.9794 23.0408 31.0808 23.0625C31.1823 23.0843 31.2644 23.1099 31.3276 23.14C31.3903 23.17 31.4372 23.2061 31.4677 23.2483C31.4982 23.2905 31.5133 23.3423 31.5133 23.4033C31.5133 23.5047 31.4707 23.586 31.3856 23.647C31.3005 23.7083 31.1904 23.7388 31.0546 23.7388C30.9592 23.7388 30.8749 23.7227 30.8018 23.6905C30.7288 23.6583 30.6712 23.6134 30.6299 23.5556C30.5886 23.4981 30.568 23.4355 30.568 23.3684H30.7713C30.7748 23.4337 30.8023 23.4851 30.853 23.5234C30.9037 23.5617 30.9712 23.5804 31.0546 23.5804C31.1315 23.5804 31.1934 23.5656 31.2399 23.536C31.2867 23.5073 31.3099 23.4672 31.3099 23.4176Z" fill="#E5EAFA"/>
<path d="M31.797 23.141C31.797 23.03 31.8198 22.9299 31.8658 22.8411C31.9113 22.7523 31.9754 22.6836 32.0571 22.6357C32.1387 22.5878 32.232 22.5635 32.3369 22.5635C32.499 22.5635 32.6296 22.617 32.7298 22.7241C32.83 22.8311 32.8798 22.9734 32.8798 23.151V23.1644C32.8798 23.275 32.8575 23.3738 32.8132 23.4617C32.7689 23.5496 32.7057 23.6179 32.6232 23.6666C32.5407 23.7154 32.4461 23.7402 32.3391 23.7402C32.1779 23.7402 32.0472 23.6867 31.947 23.5796C31.8469 23.4726 31.797 23.3311 31.797 23.1549V23.141ZM32.0016 23.164C32.0016 23.2898 32.0321 23.3907 32.0932 23.4669C32.1542 23.543 32.2363 23.5813 32.3391 23.5813C32.4418 23.5813 32.5243 23.5426 32.5854 23.4656C32.646 23.3886 32.6765 23.2802 32.6765 23.141C32.6765 23.0165 32.6455 22.9155 32.5836 22.8385C32.5217 22.761 32.4396 22.7227 32.3369 22.7227C32.2342 22.7227 32.1555 22.761 32.094 22.8372C32.0321 22.9129 32.0016 23.0221 32.0016 23.164Z" fill="#E5EAFA"/>
<path d="M33.5535 23.5813C33.6262 23.5813 33.6894 23.5604 33.7435 23.5182C33.7977 23.4764 33.8278 23.4238 33.8338 23.3611H34.0259C34.0221 23.4259 33.9989 23.4877 33.9554 23.5465C33.912 23.6052 33.8544 23.6522 33.7822 23.687C33.71 23.7219 33.6335 23.7397 33.5531 23.7397C33.391 23.7397 33.2625 23.6879 33.1666 23.5848C33.0712 23.4816 33.0231 23.3406 33.0231 23.1618V23.1291C33.0231 23.0186 33.0441 22.9207 33.0867 22.8345C33.1292 22.7484 33.1903 22.6818 33.2698 22.6344C33.3493 22.5869 33.4435 22.563 33.5518 22.563C33.6851 22.563 33.796 22.6013 33.8845 22.6774C33.9726 22.7536 34.0199 22.8524 34.0259 22.9742H33.8338C33.8278 22.9007 33.799 22.8406 33.7461 22.7932C33.6937 22.7462 33.6292 22.7223 33.5522 22.7223C33.4491 22.7223 33.3687 22.7579 33.3119 22.8289C33.2552 22.8998 33.2268 23.0025 33.2268 23.1365V23.1735C33.2268 23.3041 33.2552 23.405 33.3115 23.4755C33.3682 23.546 33.4491 23.5813 33.5535 23.5813Z" fill="#E5EAFA"/>
<path d="M34.4061 23.7188H34.2028V22.5843H34.4061V23.7188ZM34.4061 22.1709H34.2028V22.3933H34.4061V22.1709Z" fill="#E5EAFA"/>
<path d="M35.5246 23.7188C35.513 23.6966 35.5036 23.6566 35.4963 23.5991C35.4017 23.6927 35.2886 23.7397 35.1575 23.7397C35.0402 23.7397 34.9439 23.7079 34.8691 23.6448C34.7939 23.5813 34.7565 23.5012 34.7565 23.4042C34.7565 23.2858 34.8033 23.1944 34.8979 23.1287C34.992 23.0634 35.1244 23.0308 35.2951 23.0308H35.4928V22.9416C35.4928 22.8737 35.4713 22.8197 35.4292 22.7797C35.3866 22.7397 35.3239 22.7192 35.2414 22.7192C35.1687 22.7192 35.1081 22.7366 35.0587 22.7719C35.0097 22.8067 34.9852 22.8493 34.9852 22.8985H34.7805C34.7805 22.8419 34.8016 22.7871 34.8437 22.7344C34.8859 22.6818 34.943 22.64 35.0152 22.6091C35.0875 22.5782 35.167 22.563 35.2534 22.563C35.3905 22.563 35.4975 22.5956 35.5754 22.6609C35.6532 22.7262 35.6931 22.8163 35.6961 22.9311V23.4534C35.6961 23.5574 35.7099 23.6405 35.7378 23.7018V23.7188H35.5246ZM35.1872 23.5708C35.2508 23.5708 35.3114 23.5552 35.3686 23.5238C35.4258 23.4925 35.467 23.4516 35.4928 23.4011V23.1683H35.3333C35.084 23.1683 34.9594 23.2379 34.9594 23.3768C34.9594 23.4377 34.9809 23.4851 35.023 23.5195C35.066 23.5539 35.1206 23.5708 35.1872 23.5708Z" fill="#E5EAFA"/>
<path d="M36.2262 22.309V22.5836H36.4485V22.7338H36.2262V23.4383C36.2262 23.484 36.2361 23.5179 36.2559 23.5406C36.2757 23.5632 36.3092 23.5745 36.3569 23.5745C36.3801 23.5745 36.4124 23.5702 36.4536 23.5619V23.7181C36.3999 23.732 36.3479 23.739 36.2976 23.739C36.2065 23.739 36.1381 23.7129 36.0921 23.6602C36.0461 23.6076 36.0229 23.5336 36.0229 23.437V22.7333H35.8063V22.5832H36.0229V22.3086H36.2262V22.309Z" fill="#E5EAFA"/>
<path d="M36.8978 23.7188H36.6945V22.5843H36.8978V23.7188ZM36.8982 22.1709H36.6949V22.3933H36.8982V22.1709Z" fill="#E5EAFA"/>
<path d="M37.1481 23.141C37.1481 23.03 37.1709 22.9299 37.2168 22.8411C37.2624 22.7523 37.3265 22.6836 37.4081 22.6357C37.4898 22.5878 37.5831 22.5635 37.688 22.5635C37.85 22.5635 37.9807 22.617 38.0809 22.7241C38.181 22.8311 38.2309 22.9734 38.2309 23.151V23.1644C38.2309 23.275 38.2085 23.3738 38.1643 23.4617C38.12 23.5496 38.0568 23.6179 37.9743 23.6666C37.8917 23.7154 37.7972 23.7402 37.6901 23.7402C37.5289 23.7402 37.3982 23.6867 37.2981 23.5796C37.1979 23.4726 37.1481 23.3311 37.1481 23.1549V23.141ZM37.3527 23.164C37.3527 23.2898 37.3832 23.3907 37.4442 23.4669C37.5053 23.543 37.5874 23.5813 37.6901 23.5813C37.7929 23.5813 37.8754 23.5426 37.9364 23.4656C37.997 23.3886 38.0276 23.2802 38.0276 23.141C38.0276 23.0165 37.9966 22.9155 37.9347 22.8385C37.8728 22.761 37.7907 22.7227 37.688 22.7227C37.5852 22.7227 37.5066 22.761 37.4451 22.8372C37.3832 22.9129 37.3527 23.0221 37.3527 23.164Z" fill="#E5EAFA"/>
<path d="M38.6312 22.5844L38.6377 22.7271C38.7284 22.6179 38.8475 22.5635 38.994 22.5635C39.2455 22.5635 39.3723 22.6988 39.3745 22.9695V23.7193H39.1711V22.9686C39.1703 22.8868 39.1509 22.8263 39.1122 22.7872C39.074 22.748 39.0138 22.7284 38.9326 22.7284C38.8664 22.7284 38.8088 22.7454 38.7589 22.7789C38.709 22.8124 38.6704 22.8563 38.6424 22.9112V23.7197H38.4391V22.5852H38.6312V22.5844Z" fill="#E5EAFA"/>
<path d="M28.9846 23.2826H28.3754L28.2185 23.7191H28.0114L28.5934 22.2173H28.7692L29.3525 23.7191H29.1462L28.9846 23.2826ZM28.4584 23.0663H28.9037L28.6811 22.4614L28.4584 23.0663Z" fill="#E5EAFA"/>
<path d="M18.8571 25.1722C18.8571 25.0791 18.8712 24.9903 18.9 24.9068C18.9288 24.8228 18.9705 24.7479 19.026 24.6818C19.0814 24.6161 19.1399 24.5695 19.2018 24.543L19.2349 24.6291C19.17 24.6722 19.1171 24.7384 19.0767 24.8271C19.0363 24.9159 19.0144 25.0173 19.0105 25.1313L19.0097 25.1835C19.0097 25.3058 19.0294 25.4151 19.069 25.5108C19.1085 25.607 19.1635 25.6796 19.2349 25.7297L19.2018 25.8115C19.1399 25.785 19.081 25.7384 19.0256 25.6718C18.9701 25.6052 18.928 25.5304 18.8996 25.4473C18.8712 25.3633 18.8571 25.2719 18.8571 25.1722Z" fill="#E5EAFA"/>
<path d="M19.9212 25.3431H19.5683L19.4943 25.5729H19.3297L19.6736 24.5859H19.8155L20.1602 25.5729H19.9951L19.9212 25.3431ZM19.613 25.2048H19.8769L19.745 24.7953L19.613 25.2048Z" fill="#E5EAFA"/>
<path d="M20.9206 25.3185C20.9206 25.275 20.9051 25.2415 20.8737 25.218C20.8428 25.1945 20.7865 25.171 20.7052 25.1466C20.624 25.1227 20.5595 25.0961 20.5113 25.0665C20.4194 25.0099 20.3734 24.9364 20.3734 24.8454C20.3734 24.7658 20.4065 24.7005 20.4727 24.6488C20.5389 24.5974 20.6248 24.5713 20.7306 24.5713C20.8006 24.5713 20.8634 24.5839 20.9184 24.6091C20.9734 24.6344 21.0164 24.6705 21.0478 24.7175C21.0792 24.7641 21.0951 24.8163 21.0951 24.8729H20.9206C20.9206 24.8215 20.9042 24.781 20.8711 24.7519C20.838 24.7227 20.7908 24.7084 20.7297 24.7084C20.6725 24.7084 20.6283 24.7201 20.5965 24.7445C20.5646 24.7684 20.5492 24.8019 20.5492 24.845C20.5492 24.8811 20.5664 24.9112 20.6003 24.9355C20.6343 24.9599 20.691 24.9834 20.7693 25.006C20.8479 25.0291 20.9107 25.0548 20.9584 25.0839C21.0061 25.1131 21.0409 25.1466 21.0629 25.1844C21.0852 25.2223 21.096 25.2663 21.096 25.3167C21.096 25.399 21.0637 25.4643 20.9992 25.513C20.9348 25.5617 20.8475 25.5861 20.737 25.5861C20.6639 25.5861 20.5969 25.5726 20.5358 25.5465C20.4748 25.52 20.4271 25.4834 20.3931 25.4368C20.3592 25.3903 20.3424 25.3363 20.3424 25.2741H20.5178C20.5178 25.3302 20.5367 25.3733 20.5745 25.4042C20.6124 25.4351 20.6665 25.4503 20.7374 25.4503C20.7985 25.4503 20.8441 25.4382 20.875 25.4138C20.9055 25.3898 20.9206 25.3581 20.9206 25.3185Z" fill="#E5EAFA"/>
<path d="M21.516 25.5729H21.3414V24.5859H21.516V25.5729Z" fill="#E5EAFA"/>
<path d="M22.3167 25.3431H21.9638L21.8899 25.5729H21.7252L22.0691 24.5859H22.211L22.5557 25.5729H22.3906L22.3167 25.3431ZM22.0085 25.2048H22.2724L22.1405 24.7953L22.0085 25.2048Z" fill="#E5EAFA"/>
<path d="M23.0581 25.4463C23.0297 25.5298 22.9876 25.6047 22.9321 25.6708C22.8767 25.7374 22.8178 25.784 22.7559 25.8105L22.7228 25.7287C22.7937 25.6787 22.8492 25.6056 22.8887 25.5098C22.9283 25.4141 22.948 25.3048 22.948 25.1826L22.9472 25.1303C22.9433 25.0159 22.9214 24.9145 22.881 24.8262C22.8406 24.7374 22.7877 24.6717 22.7228 24.6282L22.7559 24.542C22.8178 24.5685 22.8762 24.6151 22.9317 24.6808C22.9871 24.747 23.0293 24.8218 23.0576 24.9058C23.0864 24.9893 23.1006 25.0781 23.1006 25.1713C23.1006 25.2713 23.0864 25.3627 23.0581 25.4463Z" fill="#E5EAFA"/>
</g>
<defs>
<clipPath id="clip0_50676_1112">
<rect width="39.5789" height="32" fill="white" transform="translate(0.421021 0.509277)"/>
</clipPath>
</defs>
</svg>
