<svg width="99" height="33" viewBox="0 0 99 33" fill="none" xmlns="http://www.w3.org/2000/svg">
<path d="M31.4072 0.600922C43.3085 -0.592118 43.5859 10.2756 43.3095 12.7494C43.0331 15.2228 41.5487 30.2093 34.3759 32.1009C27.2034 33.9922 20.8744 28.7984 18.7206 27.1976C15.0309 24.4128 10.7135 22.5735 6.14935 21.8431C4.84868 21.6947 3.56265 21.4309 2.30853 21.057C1.84294 20.8736 1.41294 20.6079 1.04193 20.2718C-0.194544 19.0351 0.969865 17.2304 1.85735 16.1683C5.16049 12.1525 18.4148 2.52155 31.4072 0.600922ZM55.3701 22.1341C55.3702 22.5124 55.8068 22.9632 56.665 22.9632H58.8329C59.6913 22.9632 60.1277 22.5124 60.1279 22.1341V17.973H61.0009V22.5121C60.8554 23.1522 60.1279 23.4583 58.8329 23.4583H56.665C55.3702 23.4583 54.6425 23.1522 54.497 22.5121V17.973H55.3701V22.1341ZM52.3437 17.8714C53.3622 18.0897 53.4492 18.5404 53.4492 19.5443H52.5624C52.5333 18.9186 52.2999 18.4388 51.8925 18.4388H48.2411C47.8047 18.4388 47.5712 18.9771 47.5712 19.7191V21.3919C47.5712 22.134 47.8047 22.7308 48.2411 22.7308H52.0673C52.0993 22.7308 52.1315 22.7274 52.162 22.723C52.5359 22.6662 52.793 22.3185 52.7363 21.9447V21.6683L53.4931 21.6537V21.93C53.4495 22.9484 53.0858 23.2687 52.373 23.3851H47.8329C47.0767 23.2684 46.7128 22.4975 46.7128 21.3919V19.7191C46.7128 18.6136 47.0767 17.988 47.8329 17.8714H52.3437ZM67.1562 17.973C68.0043 17.9586 68.7257 18.5872 68.829 19.4281C68.8289 20.7081 67.8974 20.8831 67.8974 20.8831C68.283 21.0592 68.5595 21.4109 68.6396 21.8285V23.3705H67.8398V21.8431C67.6361 21.4198 67.1851 21.1738 66.7197 21.2318H63.3583V23.3851H62.456V17.973H67.1562ZM76.6855 23.3851H75.6669L75.0566 22.2503H71.1572L70.5458 23.3851H69.498L72.4081 17.8568H73.7763L76.6855 23.3851ZM82.8837 17.8714C83.9022 18.0897 84.0048 18.5404 84.0048 19.5443H83.1025C83.0734 18.9189 82.8406 18.4391 82.4335 18.4388H78.7958C78.3593 18.4388 78.1269 18.9771 78.1269 19.7191V21.3919C78.1269 22.134 78.3593 22.7308 78.7958 22.7308H82.579C82.6108 22.7308 82.6425 22.7273 82.6728 22.723C83.0467 22.6662 83.3047 22.3186 83.248 21.9447V21.6683L84.0048 21.6537V21.93C83.9612 22.9485 83.5967 23.2687 82.8837 23.3851H78.3447C77.5881 23.2687 77.2245 22.4977 77.2245 21.3919V19.7191C77.2245 18.6133 77.5881 17.9878 78.3447 17.8714H82.8837ZM91.5986 23.3851H90.58L89.9687 22.2503H86.0693L85.4579 23.3851H84.4111L87.3212 17.8568H88.6884L91.5986 23.3851ZM97.7968 17.929C98.5097 18.06 98.8739 18.6857 98.874 19.806V21.5081C98.874 22.643 98.5097 23.2687 97.7968 23.3851H93.0976C92.3847 23.2687 92.0204 22.643 92.0204 21.5081V19.806C92.0205 18.6857 92.3847 18.06 93.0976 17.929H97.7968ZM93.5195 18.5111C93.0975 18.5111 92.8788 18.919 92.8788 19.7337V21.5814C92.8789 22.396 93.0976 22.8031 93.5195 22.8031H97.3749C97.7968 22.8031 98.0155 22.396 98.0156 21.5814V19.7337C98.0156 18.919 97.7969 18.5111 97.3749 18.5111H93.5195ZM29.8798 11.9349C28.1193 11.9349 26.6933 13.3624 26.6933 15.1214V19.4281C26.6935 21.1986 28.1239 22.6342 29.8945 22.6429H34.7099C35.8302 22.6429 37.4023 21.77 37.4023 20.6351L37.3437 18.9769H35.8017V19.8646C35.8015 20.752 35.1756 21.4359 33.8954 21.4359H30.5488C29.2976 21.4358 28.3085 20.9404 28.3085 18.889V15.5726C28.3085 13.6812 29.0504 13.0697 30.5634 13.0697H33.954C34.9141 13.0698 35.6854 13.4626 35.6855 15.0335V15.1937H37.1396V14.4085C37.1396 13.0424 36.033 11.9351 34.6669 11.9349H29.8798ZM17.6874 11.9496C15.9838 11.9408 14.5953 13.3153 14.5878 15.0189V19.4281C14.572 21.1317 15.9398 22.5253 17.6435 22.5414H22.9833C24.3174 22.5413 25.3983 21.4604 25.3984 20.1263V17.2162H19.6659V18.4525H19.7529V18.264H24.1181V19.4857C24.1501 20.5143 23.344 21.3746 22.3154 21.4066H18.2695C16.9527 21.3673 15.9167 20.2673 15.956 18.9505V15.4847C15.9153 14.168 16.9498 13.0665 18.2665 13.0257H22.2411C23.2697 13.0577 24.0776 13.9162 24.0458 14.9447V15.1497H25.3837V14.3646C25.3837 13.0304 24.3029 11.9496 22.9687 11.9496H17.6874ZM71.5204 21.596H74.8085L73.1503 18.5111L71.5204 21.596ZM86.3603 21.596H89.7216L88.0478 18.5111L86.3603 21.596ZM63.3583 20.4749H67.4609C67.8392 20.4749 68.0583 19.9948 68.0292 19.471C67.971 19.1278 67.762 18.8297 67.4609 18.6566H63.3583V20.4749ZM52.373 10.6976C53.3914 10.8577 53.4493 11.3675 53.4784 12.3714H52.6054C52.6054 11.7458 52.3438 11.265 51.9365 11.265H48.2411C47.8047 11.265 47.5713 11.818 47.5712 12.5599V14.2191C47.5713 14.961 47.8047 15.5716 48.2411 15.5716H52.038C52.4162 15.5673 52.719 15.2593 52.7148 14.8812C52.7148 14.8493 52.7123 14.8184 52.7079 14.7865V14.1312H49.914V13.39H53.4931V14.7865C53.4931 15.7757 53.0859 16.1106 52.373 16.2415H47.8329C47.0767 16.1249 46.7129 15.3537 46.7128 14.2337V12.5599C46.7129 11.44 47.0767 10.8287 47.8329 10.6976H52.373ZM89.1542 10.6976C90.1873 10.8576 90.2317 11.3675 90.2753 12.3714H89.373C89.373 11.7458 89.1251 11.265 88.7177 11.265H85.0517C84.6007 11.265 84.3682 11.818 84.3681 12.5599V14.2191C84.3681 14.961 84.6007 15.5716 85.0517 15.5716H88.8495C89.2188 15.5685 89.5163 15.268 89.5136 14.8988C89.5136 14.861 89.5096 14.8228 89.5038 14.7865V14.1312H86.6962V13.39H90.2607V14.7865C90.2606 15.7757 89.8526 16.1106 89.1542 16.2415H84.6152C83.8732 16.1252 83.4951 15.3539 83.4951 14.2337V12.5599C83.4951 11.4398 83.8732 10.8285 84.6152 10.6976H89.1542ZM61.3359 16.2269H60.3027L59.6913 15.0628H55.6904L55.079 16.1976H54.0605L56.9706 10.6976H58.4257L61.3359 16.2269ZM66.7187 15.3822L69.5263 10.6976H71.3017V16.2269H70.2831V11.3519L67.1552 16.2269H66.1806L63.1542 11.3519V16.2269H62.1357V10.6976H63.9247L66.7187 15.3822ZM73.7861 16.2259H72.7861V10.6976H73.7861V16.2259ZM81.2685 15.6878V10.7845H82.2284V16.1537H80.6425L76.2783 11.2503V16.1537H75.2743V10.7845H76.9033L81.2685 15.6878ZM55.996 14.4369L59.3427 14.4076L57.6835 11.3529L55.996 14.4369ZM37.7656 12.1966V12.4007H38.1728V13.2445H38.4208V12.4007H38.8134V13.2445H39.0458V12.4876L39.5409 13.1859L40.0497 12.5023V13.2445H40.2685V12.1966H39.9628L39.5409 12.7201L39.2206 12.1966L39.206 12.2025V12.1966H37.7656Z" fill="#E5EAFA"/>
</svg>
