<svg width="36" height="40" viewBox="0 0 36 40" fill="none" xmlns="http://www.w3.org/2000/svg">
<path d="M17.5 0C7.794 0 2 5.42 2 14.5V18.0215C0.747 18.9505 0 20.402 0 22C0 24.357 1.63889 26.3373 3.83789 26.8633C5.83089 34.7663 11.026 40 17 40C17.828 40 18.5 39.329 18.5 38.5C18.5 37.671 17.828 37 17 37C12.294 37 7.98734 32.1415 6.52734 25.1855C6.38134 24.4915 5.77055 23.9941 5.06055 23.9941C5.02655 23.9941 4.98341 23.995 4.94141 23.998C3.86541 23.968 3 23.083 3 22C3 21.235 3.43853 20.5537 4.14453 20.2188C4.66753 19.9697 5 19.4423 5 18.8633V16.1738C8.855 15.1618 11.2686 13.104 12.5566 11.666C14.1976 12.667 17.431 14 23 14C25.1468 14 27.0095 13.8069 28.4961 13.5645C28.7315 14.2691 29 15.3019 29 16.5V26.5C29 29.0035 27.0035 31 24.5 31H22.6602C22.3765 30.4019 21.929 29.8965 21.3696 29.5425C20.8102 29.1885 20.162 29.0004 19.5 29C19.0404 29 18.5852 29.0905 18.1606 29.2664C17.736 29.4423 17.3501 29.7001 17.0251 30.0251C16.7001 30.3501 16.4423 30.736 16.2664 31.1606C16.0905 31.5852 16 32.0404 16 32.5C16 32.9596 16.0905 33.4148 16.2664 33.8394C16.4423 34.264 16.7001 34.6499 17.0251 34.9749C17.3501 35.2999 17.736 35.5577 18.1606 35.7336C18.5852 35.9095 19.0404 36 19.5 36C20.1616 35.9992 20.8095 35.8109 21.3685 35.457C21.9275 35.103 22.3746 34.5978 22.6582 34H24.5C28.4557 34 31.7139 30.8927 31.9746 27H32C34.209 27 36 25.209 36 23V21C36 18.791 34.209 17 32 17V16.5C32 15.0423 31.709 13.7474 31.418 12.8164C32.0004 12.4921 32.4666 11.9873 32.7402 11.3672C33.0982 10.5542 33.0851 9.62903 32.7031 8.83203C30.0191 3.21803 24.477 0 17.5 0ZM12 20C11.4696 20 10.9609 20.2107 10.5858 20.5858C10.2107 20.9609 10 21.4696 10 22C10 22.5304 10.2107 23.0391 10.5858 23.4142C10.9609 23.7893 11.4696 24 12 24C12.5304 24 13.0391 23.7893 13.4142 23.4142C13.7893 23.0391 14 22.5304 14 22C14 21.4696 13.7893 20.9609 13.4142 20.5858C13.0391 20.2107 12.5304 20 12 20ZM22 20C21.4776 20.0011 20.9763 20.2066 20.6035 20.5725C20.2306 20.9384 20.0157 21.4357 20.0047 21.958C19.9937 22.4803 20.1876 22.9862 20.5448 23.3674C20.9019 23.7486 21.3941 23.975 21.916 23.998C21.944 23.9993 21.972 23.9999 22 24C22.5304 24 23.0391 23.7893 23.4142 23.4142C23.7893 23.0391 24 22.5304 24 22C24 21.4696 23.7893 20.9609 23.4142 20.5858C23.0391 20.2107 22.5304 20 22 20Z" fill="#E5EAFA"/>
</svg>
