<svg width="9" height="15" viewBox="0 0 9 15" fill="none" xmlns="http://www.w3.org/2000/svg">
<path d="M3.83337 14.4701C3.37404 14.4701 3.00004 14.0964 3.00004 13.6367V7.80341L1.51671 7.80441C1.06104 7.80441 0.687041 7.43441 0.683041 6.97908L0.673374 5.97808C0.671374 5.75375 0.756708 5.54275 0.914708 5.38375C1.07204 5.22441 1.28237 5.13675 1.50671 5.13675H3.00004V3.63675C3.00004 1.38808 4.14737 0.149414 6.23037 0.149414C7.05437 0.149414 7.77371 0.207747 7.78037 0.208414C8.10204 0.237081 8.34404 0.501747 8.34404 0.824081V2.34741C8.34404 2.68808 8.06671 2.96541 7.72604 2.96541H6.75671C6.35104 2.96541 6.02071 3.29541 6.02071 3.70141L6.00204 5.13675H7.48137C7.71904 5.13675 7.94571 5.23875 8.10371 5.41608C8.26171 5.59341 8.33671 5.83041 8.30904 6.06641L8.19271 7.06641C8.14404 7.48675 7.78804 7.80341 7.36538 7.80341H6.00004V13.6367C6.00004 14.0964 5.62604 14.4701 5.16671 14.4701H3.83337Z" fill="#E5EAFA"/>
</svg>
