<svg width="56" height="33" viewBox="0 0 56 33" fill="none" xmlns="http://www.w3.org/2000/svg">
<path d="M18.2474 9.04233C18.4904 9.04233 18.6998 9.25178 18.6998 9.46542V19.0583C18.6998 19.3306 18.549 19.6029 18.3396 19.783C16.5299 21.3204 13.7568 22.2252 10.858 22.2252C4.34403 22.2252 0 17.8812 0 11.3672C0 4.8533 4.34403 0.509277 10.858 0.509277C13.0907 0.509277 15.4408 1.17114 17.1918 2.26029C17.4347 2.38177 17.5227 2.62055 17.4641 2.80487L15.956 7.23686C15.8639 7.44631 15.6544 7.53847 15.3821 7.47982C14.1464 6.81796 12.5461 6.42419 11.0381 6.42419C8.26496 6.42419 6.39246 8.41398 6.39246 11.3714C6.39246 14.3289 8.26077 16.3773 11.0381 16.3773C12.1524 16.3773 12.9064 16.1679 13.2415 15.8034V14.0524H10.4684C10.1961 14.0524 10.016 13.9309 9.98665 13.7215L9.59288 9.55758C9.56356 9.25597 9.74368 9.04652 10.0746 9.04652H18.2474V9.04233ZM37.1902 19.9631C37.2824 20.1768 37.1609 20.3862 36.9179 20.5077C35.1669 21.5927 32.8169 22.2587 30.5841 22.2587C24.3718 22.2587 20.2079 17.9147 20.2079 11.4008C20.2079 4.88681 24.3718 0.54279 30.5841 0.54279C32.8169 0.54279 35.1669 1.20466 36.9179 2.2938C37.1609 2.41529 37.2782 2.62474 37.1902 2.83838L35.2004 7.0316C35.0789 7.30388 34.8695 7.39185 34.6265 7.27456C33.5122 6.64202 32.4231 6.42838 31.1287 6.42838C28.4142 6.42838 26.6045 8.41817 26.6045 11.4049C26.6045 14.3917 28.4142 16.3815 31.1287 16.3815C32.4273 16.3815 33.5122 16.1721 34.6265 15.5353C34.8695 15.4138 35.0789 15.506 35.2004 15.7783L37.1902 19.9715V19.9631ZM48.4084 0.991016C52.3587 0.991016 54.9852 3.34525 54.9852 6.87241C54.9852 9.04233 53.9296 10.6425 52.3 11.1243C54.2019 11.606 55.4376 13.4157 55.4376 15.9207C55.4376 19.4479 52.8153 21.8021 48.8944 21.8021H39.3308C39.092 21.8021 38.9077 21.5927 38.9077 21.379V1.44343C38.9077 1.23398 39.0878 0.991016 39.3308 0.991016H48.4126H48.4084ZM47.0219 9.16381C47.9267 9.16381 48.5299 8.61924 48.5299 7.77724C48.5299 6.93525 47.9267 6.39068 47.0219 6.39068H45.12V9.16381H47.0219ZM47.5622 16.4025C48.4378 16.4025 49.041 15.8286 49.041 14.9531C49.041 14.0775 48.4378 13.5036 47.5622 13.5036H45.12V16.3983H47.5622V16.4025ZM10.7742 30.5572C10.7951 30.5949 10.7742 30.6493 10.7281 30.687C10.3218 30.9426 9.76044 31.1185 9.33316 31.1185C7.96754 31.1185 7.06271 30.243 7.06271 28.9318C7.06271 27.6207 7.96754 26.7452 9.33316 26.7452C9.76463 26.7452 10.3218 26.9169 10.7281 27.1766C10.7742 27.2143 10.7951 27.2688 10.7742 27.3065L10.3385 28.2281C10.3092 28.2867 10.2547 28.3119 10.2045 28.2742C10.016 28.1401 9.73112 28.048 9.47978 28.048C8.93101 28.048 8.56657 28.404 8.56657 28.936C8.56657 29.468 8.92682 29.8241 9.47978 29.8241C9.72693 29.8241 10.016 29.732 10.2045 29.5979C10.2589 29.5602 10.3092 29.5811 10.3385 29.644L10.7742 30.5656V30.5572ZM14.6951 30.5739C14.7119 30.6284 14.6951 30.6577 14.6407 30.687C14.2385 30.951 13.6604 31.1101 13.0782 31.1101C11.7419 31.1101 10.8538 30.2346 10.8538 28.9318C10.8538 27.6291 11.7293 26.7452 13.0405 26.7452C14.3516 26.7452 15.0302 27.5537 15.0302 28.9235C15.0302 29.0366 15.0219 29.1497 15.0009 29.2628C14.9925 29.3214 14.9548 29.3549 14.8878 29.3549H12.4666C12.4666 29.3549 12.4666 29.8283 13.0991 29.8283C13.4845 29.8283 13.9118 29.7361 14.2553 29.5811C14.3097 29.5602 14.3516 29.5895 14.3684 29.6398L14.6909 30.5739H14.6951ZM13.5348 28.559C13.5348 28.2281 13.3295 28.0103 13.0279 28.0103C12.6886 28.0103 12.4624 28.2281 12.4624 28.559H13.5348ZM17.8453 26.8457C17.9039 26.8457 17.95 26.8918 17.95 26.9504V27.9307C17.95 27.9893 17.9039 28.0354 17.8453 28.0354H17.6484C17.3635 28.0354 17.1038 28.1653 17.0075 28.3538V30.8797C17.0075 30.9384 16.953 30.9928 16.8944 30.9928H15.5664C15.5078 30.9928 15.4533 30.9384 15.4533 30.8797V26.9588C15.4533 26.9044 15.5078 26.8541 15.5664 26.8541H16.4168C16.4755 26.8541 16.5132 26.9085 16.5383 26.9672L16.6514 27.2981C16.8776 27.0175 17.2462 26.8457 17.6484 26.8457H17.8453ZM20.832 26.8457C20.8991 26.8457 20.9452 26.8918 20.9452 26.9504L20.8614 27.6835C20.853 27.7422 20.8069 27.7966 20.7483 27.7966H20.2665V30.8797C20.2665 30.9384 20.2121 30.9928 20.1534 30.9928H18.8255C18.7669 30.9928 18.7124 30.9384 18.7124 30.8797V27.7966H18.2809C18.2265 27.7966 18.1762 27.7505 18.1762 27.6919V26.9588C18.1762 26.8918 18.2307 26.8457 18.2809 26.8457H18.7124V26.0247C18.7124 25.9702 18.7669 25.9283 18.8255 25.9199L20.1534 25.7901C20.2121 25.7817 20.2665 25.8445 20.2665 25.8948V26.8457H20.832ZM21.8584 31.1018C21.4604 31.1018 21.1965 30.8546 21.1965 30.4818C21.1965 30.109 21.4604 29.8492 21.8584 29.8492C22.2563 29.8492 22.5202 30.1048 22.5202 30.4818C22.5202 30.8588 22.2563 31.1018 21.8584 31.1018ZM25.5824 30.4525C25.4609 30.6954 25.1007 30.8504 24.6776 30.8504C23.5759 30.8504 22.8428 30.0587 22.8428 28.8648C22.8428 27.5285 23.5214 26.7368 24.6776 26.7368C25.2599 26.7368 25.7206 26.896 25.9133 27.1683L26.0474 26.9588C26.0935 26.8918 26.1605 26.8457 26.2233 26.8457H27.0234C27.0905 26.8457 27.1365 26.8918 27.1365 26.9588V30.6075C27.1365 31.7469 26.1018 32.5093 24.82 32.5093C24.0744 32.5093 23.4083 32.3375 23.0397 32.0359C22.9936 31.9982 22.981 31.9438 22.9936 31.9061L23.379 30.9719C23.3999 30.9174 23.446 30.8965 23.4921 30.9258C23.8146 31.1897 24.3131 31.3489 24.82 31.3489C25.2934 31.3489 25.5824 31.0976 25.5824 30.6703V30.4525ZM25.5824 28.492C25.5824 28.492 25.4693 28.1527 25.063 28.1527C24.686 28.1527 24.4681 28.4166 24.4681 28.869C24.4681 29.3214 24.686 29.5937 25.063 29.5937C25.4693 29.5937 25.5824 29.2544 25.5824 29.2544V28.492ZM31.2669 30.5572C31.2879 30.5949 31.2669 30.6493 31.2208 30.687C30.8145 30.9426 30.2532 31.1185 29.8259 31.1185C28.4603 31.1185 27.5554 30.243 27.5554 28.9318C27.5554 27.6207 28.4603 26.7452 29.8259 26.7452C30.2574 26.7452 30.8145 26.9169 31.2208 27.1766C31.2669 27.2143 31.2879 27.2688 31.2669 27.3065L30.8313 28.2281C30.8019 28.2867 30.7475 28.3119 30.6972 28.2742C30.5087 28.1401 30.2197 28.048 29.9725 28.048C29.4237 28.048 29.0593 28.404 29.0593 28.936C29.0593 29.468 29.4196 29.8241 29.9725 29.8241C30.2197 29.8241 30.5087 29.732 30.6972 29.5979C30.7517 29.5602 30.8019 29.5811 30.8313 29.644L31.2669 30.5656V30.5572ZM33.2525 27.0258C33.4787 26.8457 33.818 26.741 34.1741 26.741C35.368 26.741 36.1639 27.6165 36.1639 28.9193C36.1639 30.2221 35.3638 31.106 34.1741 31.106C33.6672 31.106 33.1855 30.9091 32.9006 30.6075L32.7875 30.8797C32.7582 30.9468 32.7205 30.9928 32.6661 30.9928H31.8115C31.7528 30.9928 31.6984 30.9384 31.6984 30.8797V25.6309C31.6984 25.5764 31.7528 25.5262 31.8115 25.5262H33.1394C33.1981 25.5262 33.2525 25.5806 33.2525 25.6309V27.0258ZM33.2525 29.4052C33.3447 29.6524 33.5835 29.8199 33.8474 29.8199C34.2621 29.8199 34.5427 29.4597 34.5427 28.9151C34.5427 28.3705 34.2621 28.0396 33.8474 28.0396C33.5835 28.0396 33.3405 28.2071 33.2525 28.4543V29.4052ZM37.1483 31.1018C36.7504 31.1018 36.4865 30.8546 36.4865 30.4818C36.4865 30.109 36.7504 29.8492 37.1483 29.8492C37.5463 29.8492 37.8102 30.1048 37.8102 30.4818C37.8102 30.8588 37.5463 31.1018 37.1483 31.1018ZM41.8484 30.5572C41.8694 30.5949 41.8484 30.6493 41.8023 30.687C41.396 30.9426 40.8347 31.1185 40.4074 31.1185C39.0418 31.1185 38.1369 30.243 38.1369 28.9318C38.1369 27.6207 39.0418 26.7452 40.4074 26.7452C40.8389 26.7452 41.396 26.9169 41.8023 27.1766C41.8484 27.2143 41.8694 27.2688 41.8484 27.3065L41.4128 28.2281C41.3834 28.2867 41.329 28.3119 41.2787 28.2742C41.0902 28.1401 40.8053 28.048 40.554 28.048C40.0052 28.048 39.6408 28.404 39.6408 28.936C39.6408 29.468 40.001 29.8241 40.554 29.8241C40.8053 29.8241 41.0902 29.732 41.2787 29.5979C41.3332 29.5602 41.3834 29.5811 41.4128 29.644L41.8484 30.5656V30.5572ZM48.4671 26.8457C48.5257 26.8457 48.5634 26.9002 48.5425 26.9504L47.3151 30.8881C47.2983 30.9426 47.2397 30.9928 47.181 30.9928H46.0123C45.9537 30.9928 45.8824 30.9384 45.8615 30.8881L45.2792 28.8816L44.697 30.8881C44.676 30.9426 44.6048 30.9928 44.5461 30.9928H43.3774C43.3188 30.9928 43.2559 30.9384 43.2434 30.8881L42.016 26.9504C41.995 26.896 42.0327 26.8457 42.0914 26.8457H43.6162C43.6832 26.8457 43.746 26.8918 43.7586 26.9504L44.1524 28.6009L44.5587 26.9504C44.5755 26.875 44.6425 26.8457 44.6928 26.8457H45.8699C45.983 26.8457 45.9914 26.875 46.0039 26.9504L46.4103 28.6009L46.804 26.9504C46.8208 26.8918 46.8794 26.8457 46.9465 26.8457H48.4713H48.4671Z" fill="#E5EAFA"/>
</svg>
