<svg width="105" height="15" viewBox="0 0 105 15" fill="none" xmlns="http://www.w3.org/2000/svg">
<path fill-rule="evenodd" clip-rule="evenodd" d="M30.5502 7.28465H33.7865L32.6955 12.7407C32.0296 13.2462 31.2562 13.6312 30.3738 13.8965C29.4928 14.1614 28.5647 14.294 27.5912 14.294C26.2836 14.294 25.1399 14.0568 24.1599 13.5819C23.18 13.1075 22.4217 12.4387 21.8849 11.5753C21.3487 10.7125 21.0809 9.71994 21.0809 8.59778C21.0809 7.10575 21.4256 5.77101 22.1161 4.59357C22.8066 3.41613 23.775 2.49448 25.0198 1.82862C26.2656 1.16276 27.6958 0.830078 29.3109 0.830078C31.8754 0.830078 33.7559 1.62509 34.9514 3.21562L32.3256 5.28707C31.9065 4.76946 31.4442 4.40261 30.9381 4.18652C30.4331 3.97093 29.8346 3.86288 29.1441 3.86288C28.2692 3.86288 27.5018 4.05737 26.8415 4.44583C26.1821 4.83429 25.6736 5.36748 25.3163 6.0454C24.958 6.72382 24.7801 7.49421 24.7801 8.35757C24.7801 9.24505 25.069 9.95111 25.6484 10.4748C26.2284 10.9989 27.0425 11.2612 28.0898 11.2612C28.7189 11.2612 29.2923 11.1562 29.8104 10.9466L30.5502 7.28465ZM40.3888 3.91867L39.9637 6.10118H45.7152L45.179 8.83799H39.4094L38.9465 11.2054H45.7343L45.1423 14.0352H34.7665L37.356 1.08888H47.4917L46.9178 3.91867H40.3888ZM64.8025 1.08888L62.2497 14.0352H58.8651L60.1968 7.21078L55.8875 12.7593H54.2784L51.9296 7.21078L50.5612 14.0352H47.1952L49.7842 1.08888H52.7623L55.7951 8.57919L61.6763 1.08888H64.8025Z" fill="#E5EAFA"/>
<path fill-rule="evenodd" clip-rule="evenodd" d="M76.1764 7.35851C76.7312 7.60525 77.1599 7.94748 77.4619 8.38519C77.7639 8.8229 77.9152 9.3375 77.9152 9.92948C77.9152 11.2733 77.3664 12.2934 76.2689 12.9904C75.1714 13.6869 73.7411 14.0352 71.9782 14.0352H64.8578L67.4469 1.08887H73.9939C75.4493 1.08887 76.5619 1.35069 77.3323 1.87483C78.1031 2.39898 78.4881 3.14776 78.4881 4.12218C78.4881 4.87397 78.2851 5.52425 77.878 6.07302C77.471 6.62179 76.9041 7.05045 76.1764 7.35851ZM70.5355 3.73372L70.0364 6.23031H72.6627C73.316 6.23031 73.812 6.10418 74.1512 5.8514C74.4904 5.59863 74.6598 5.23178 74.6598 4.75085C74.6598 4.07242 74.1482 3.73372 73.125 3.73372H70.5355ZM72.1818 11.3904C72.8351 11.3904 73.3466 11.2612 73.7165 11.0019C74.0864 10.7431 74.2713 10.3607 74.2713 9.85561C74.2713 9.48524 74.1356 9.21136 73.8648 9.03246C73.5934 8.85355 73.2235 8.7641 72.7552 8.7641H69.5183L69.0007 11.3904H72.1818ZM84.7025 3.91865L84.2773 6.10116H90.0288L89.4926 8.83798H83.7225L83.2602 11.2054H90.0474L89.456 14.0352H79.0801L81.6697 1.08887H91.8048L91.2314 3.91865H84.7025ZM96.2618 3.99252H92.2852L92.8772 1.08887H104.473L103.882 3.99252H99.9238L97.9076 14.0352H94.2456L96.2618 3.99252Z" fill="#E5EAFA"/>
<path fill-rule="evenodd" clip-rule="evenodd" d="M3.2896 4.56711L1.61967 6.47524L0.0376902 4.66711C-0.0125634 4.60982 -0.0125634 4.52439 0.0376902 4.4671L3.66148 0.325199C3.69063 0.292031 3.73234 0.273438 3.77606 0.273438H10.6844L12.3644 2.65797C12.3825 2.6836 12.392 2.71375 12.392 2.74541C12.392 2.82934 12.3237 2.89718 12.2398 2.89718H4.79068C4.74645 2.89718 4.70424 2.91678 4.67509 2.95045L3.2896 4.56711ZM8.89539 11.0076L10.6246 12.9162H10.5648L9.00997 14.6932C9.00545 14.6987 9.00042 14.7033 8.9954 14.7078C8.93208 14.7631 8.83609 14.7565 8.78081 14.6932L1.67948 6.53504L3.59414 5.12693C3.65796 5.0802 3.74691 5.08974 3.79867 5.14955L8.65669 10.7096L8.89539 11.0076ZM14.3575 4.73194C14.4399 4.63746 14.4404 4.49625 14.3585 4.40077L13.07 2.89718L10.8035 0.273438H14.0147C14.0584 0.273438 14.1002 0.292031 14.1288 0.325199L17.6948 4.40077C17.7782 4.49625 17.7787 4.63847 17.6953 4.73395L10.6844 12.7966L9.37029 10.6257C9.33612 10.5689 9.34215 10.497 9.38537 10.4468L14.3575 4.73194ZM6.48523 4.92491H11.3051C11.389 4.92491 11.4573 4.99275 11.4573 5.07668C11.4573 5.11336 11.4443 5.14904 11.4201 5.17668L9.00997 7.9532C8.95519 8.01651 8.85921 8.02355 8.79539 7.96827C8.79036 7.96375 8.78534 7.95872 8.78031 7.9532L6.37065 5.17668C6.31537 5.11336 6.32241 5.01738 6.38573 4.9621C6.41337 4.93798 6.44854 4.92491 6.48523 4.92491Z" fill="#E5EAFA"/>
</svg>
