  <svg xmlns="http://www.w3.org/2000/svg" width="96" height="24" viewBox="0 0 96 24" fill="none">
                  <path
                    d="M11.2926 1.95274C12.0794 1.6467 12.8954 1.42811 13.7259 1.31152C13.8862 2.94371 14.3524 4.51759 15.0955 5.96033C15.8386 4.51759 16.3195 2.92913 16.4943 1.31152C17.3248 1.42811 18.1408 1.6467 18.9276 1.95274C18.7527 3.27889 18.4176 4.57589 17.9368 5.8146C19.2773 5.31911 20.4721 4.50302 21.4337 3.41004C22.104 3.93467 22.7014 4.53217 23.2259 5.20253C21.5794 7.06788 19.3938 8.30659 16.9897 8.74378C17.7182 9.53073 18.5196 10.2157 19.3938 10.7986C20.88 9.31213 22.6722 8.19001 24.6392 7.53422C24.9889 8.32116 25.2366 9.13725 25.4115 9.96792C24.0856 10.4051 22.8616 11.1046 21.798 12.0081C23.0219 12.4453 24.2896 12.6931 25.5863 12.7368C25.528 13.5966 25.3823 14.4418 25.1346 15.2725C21.3026 15.0248 17.7037 13.2614 15.0955 10.3614C12.4874 13.276 8.88848 15.0393 5.05642 15.2725C4.80872 14.4418 4.66302 13.5966 4.60474 12.7368C5.90152 12.6931 7.18372 12.4308 8.40765 11.9644C7.32943 11.0609 6.1055 10.3614 4.79415 9.90963C4.969 9.07896 5.23127 8.27744 5.56639 7.50507C7.53342 8.16086 9.32559 9.28298 10.8118 10.7694C11.7006 10.1865 12.502 9.48701 13.2305 8.70006C10.8264 8.26287 8.62621 7.00959 6.99431 5.14424C7.51885 4.47388 8.13081 3.87638 8.80106 3.35175C9.74814 4.44473 10.9575 5.26082 12.298 5.75631C11.8026 4.54674 11.4675 3.26431 11.2926 1.95274ZM10.2873 14.3981C11.0595 14.0484 11.8026 13.6403 12.502 13.1594C13.3762 14.3107 14.2504 15.4911 15.0955 16.6424C15.9698 15.4911 16.844 14.3253 17.6891 13.1594C18.3885 13.6258 19.1316 14.0484 19.9038 14.3981C18.7382 16.0157 17.4997 17.5896 16.3486 19.1927C16.3486 20.3877 16.3486 21.5972 16.3486 22.7922C15.5181 22.8942 14.6876 22.8942 13.8716 22.7922V19.1927L10.2873 14.3981Z"
                    fill="#E5EAFA" />
                  <path
                    d="M77.8362 7.94239C78.5501 7.49062 79.4098 7.31574 80.2258 7.47605C80.998 7.57806 81.7411 7.89867 82.3531 8.40872L81.4934 9.69115C80.8669 9.16652 80.0655 8.90421 79.2641 8.94792C78.8998 8.99164 78.5064 9.26853 78.5647 9.67658C78.623 10.0846 78.8707 10.2304 79.1475 10.3324C80.0509 10.6821 81.0563 10.7696 81.8431 11.3816C82.6736 12.1249 82.8193 13.3927 82.1928 14.3254C81.7848 14.8937 81.1583 15.2581 80.4734 15.3455C79.0747 15.5495 77.6759 15.1123 76.6268 14.1505L77.5885 12.9555C78.1567 13.4801 78.8561 13.8008 79.6138 13.8882C80.0218 13.9611 80.4443 13.859 80.7794 13.5967C80.9106 13.451 80.9688 13.2324 80.9397 13.0284C80.896 12.8244 80.7794 12.6495 80.59 12.562C79.6429 12.052 78.4773 12.0666 77.6031 11.3671C77.1368 10.9736 76.8891 10.3615 76.9328 9.74944C76.9474 9.04994 77.2825 8.365 77.8362 7.94239ZM39.2534 7.94239C40.215 7.4469 41.3224 7.33032 42.3715 7.6072C43.0126 7.76751 43.6245 8.07354 44.1199 8.52531L43.0709 9.82231C42.59 9.35597 41.9781 9.07908 41.3224 9.04994C40.6376 8.99165 39.9528 9.28311 39.5156 9.82231C38.656 10.9007 38.758 12.4746 39.7488 13.4219C40.6376 14.1214 41.8615 14.1651 42.7794 13.5093C42.7794 13.2324 42.7794 12.9555 42.7794 12.6786H41.9926C41.9926 12.2414 41.9926 11.8042 41.9926 11.3525H44.3531V14.2817C43.3185 15.1998 41.9489 15.637 40.5939 15.4767C39.5885 15.3746 38.6705 14.8646 38.0294 14.0631C37.3009 13.0867 37.0386 11.8334 37.2863 10.6238C37.534 9.47255 38.248 8.49616 39.2534 7.94239ZM47.2672 8.08812C48.2871 7.47605 49.511 7.30117 50.6475 7.6072C51.2741 7.76751 51.8715 8.07354 52.3523 8.51073C52.0026 8.93335 51.6529 9.37055 51.3178 9.79316C50.8224 9.31225 50.1958 9.03536 49.511 9.02079C48.7825 8.97707 48.0685 9.31225 47.646 9.9389C46.8883 11.0464 47.0632 12.562 48.054 13.451C48.9428 14.0776 50.123 14.0776 51.0264 13.451V12.6495H50.2541V11.3233H52.6146C52.6146 12.2997 52.6146 13.2761 52.6146 14.2671C51.7549 15.0249 50.6621 15.4475 49.5256 15.4621C48.4328 15.5204 47.3692 15.1269 46.5678 14.3545C45.7955 13.553 45.4021 12.4455 45.4604 11.3233C45.5041 10.0118 46.1744 8.8022 47.2672 8.08812ZM29.9719 7.6072C30.613 7.6072 31.2541 7.6072 31.8952 7.6072C32.4781 8.75848 33.09 9.90975 33.6874 11.061L35.4942 7.6072H37.3592C36.4121 9.37054 35.4213 11.1047 34.4742 12.8826C34.4742 13.6987 34.4742 14.544 34.4742 15.3601H32.8569C32.8569 14.544 32.8569 13.7133 32.8569 12.8972C31.9098 11.1193 30.919 9.37054 29.9719 7.6072ZM53.9405 7.6072H56.4758C57.8745 7.53434 59.215 8.24842 59.9727 9.47256C60.5992 10.5801 60.6866 11.9354 60.1767 13.1158C59.5647 14.442 58.2679 15.3163 56.84 15.3601C55.8784 15.3601 54.9021 15.3601 53.9259 15.3601C53.9405 12.7661 53.9405 10.1866 53.9405 7.6072ZM55.587 9.10823C55.587 10.6675 55.587 12.2414 55.587 13.8008C56.33 13.8008 57.1314 13.8882 57.7871 13.451C58.4282 12.9847 58.7925 12.2414 58.7925 11.4399C58.7925 10.6384 58.3991 9.89517 57.758 9.44341C57.1169 9.04994 56.33 9.13738 55.587 9.10823ZM61.5754 7.6072C62.712 7.6072 63.8485 7.6072 64.9704 7.6072C65.9175 7.57806 66.8063 8.07354 67.3017 8.90421C67.8116 9.93889 67.6368 11.1922 66.8646 12.0228C66.6023 12.2706 66.2963 12.4455 65.9758 12.5766L67.8116 15.3455H65.8883C65.3638 14.5148 64.8247 13.6987 64.2856 12.8681H63.8485V11.3671C64.4021 11.3379 65.0141 11.4836 65.5095 11.1485C65.8155 10.9153 65.9758 10.5364 65.932 10.1429C65.8883 9.74944 65.6552 9.41426 65.3055 9.25396C64.6207 9.1228 63.9213 9.07909 63.2219 9.13738V15.3601H61.59C61.5755 12.7661 61.5754 10.1866 61.5754 7.6072ZM68.3508 15.3746L71.5563 7.57806H73.0716L76.2771 15.3746H74.5287C74.2955 14.7771 74.0624 14.2088 73.8438 13.6259H71.3377L71.9205 12.1394H73.261L72.2702 9.61829C71.5126 11.5419 70.7549 13.4656 69.9972 15.3892H68.3508V15.3746ZM83.8684 7.6072H85.5003V15.3601H83.8684V7.6072ZM86.8699 7.6072H88.531C88.531 9.67658 88.531 11.746 88.531 13.8153H92.0279V15.3601H86.8699C86.8699 12.7661 86.8554 10.1866 86.8699 7.6072Z"
                    fill="#E5EAFA" />
                </svg>