 <svg xmlns="http://www.w3.org/2000/svg" width="76" height="24" viewBox="0 0 76 24" fill="none">
                  <g clip-path="url(#clip0_2090_56125)">
                    <path
                      d="M26.0382 22.2357H24.3567L23.4028 21.0011C23.2543 21.045 23.1133 21.1107 22.9633 21.1527C21.0781 21.6786 19.2292 20.5384 18.979 18.6027C18.8577 17.6631 18.8988 16.3702 18.9516 15.416C18.9569 15.3221 18.9435 15.223 18.9521 15.1308C19.3238 11.1868 24.9089 11.3491 25.1489 15.2023C25.1011 16.2246 25.2138 17.3045 25.1489 18.3199C25.1056 18.998 24.8606 19.6302 24.4564 20.1724L26.0379 22.2355L26.0382 22.2357ZM21.8537 13.3646C20.6766 13.4678 20.153 14.4436 20.104 15.5106C20.0684 16.2825 20.0677 17.2404 20.104 18.0118C20.2422 20.9497 23.8089 20.7266 23.9732 18.2975C23.9211 17.2985 24.0393 16.2398 23.9732 15.2487C23.8975 14.1152 23.0301 13.2614 21.8537 13.3646Z"
                      fill="#E5EAFA" />
                    <path
                      d="M46.1432 12.3816V15.8328L49.422 12.3816H51.0194L47.3237 16.3406L51.0194 21.1884H49.5181L46.5038 17.2008L46.1432 17.5585V21.1884H44.9663V12.3816H46.1432Z"
                      fill="#E5EAFA" />
                    <path
                      d="M28.0316 12.3816L28.0306 18.3451C28.0407 20.8813 31.7215 20.8817 31.7316 18.3451L31.7307 12.3816H32.9076L32.9085 18.3689C32.8187 20.0968 31.8866 21.2489 30.0862 21.3326C28.1054 21.4246 26.9539 20.3012 26.8533 18.3689L26.8542 12.3816H28.0311H28.0316Z"
                      fill="#E5EAFA" />
                    <path
                      d="M60.3387 18.0941V21.1883H59.1138V12.3815C60.757 12.4687 62.8068 11.9895 64.0263 13.3809C64.971 14.459 64.8884 16.3484 63.809 17.308C62.8503 18.1606 61.5528 18.1139 60.3387 18.0941ZM60.3387 17.023C60.95 17.0113 61.5877 17.0697 62.1831 16.9108C63.945 16.4406 63.9647 14.0431 62.1881 13.5599C61.5865 13.3962 60.956 13.4679 60.3387 13.4527V17.023Z"
                      fill="#E5EAFA" />
                    <path
                      d="M57.4079 12.5005V13.4525C57.1662 13.402 56.9177 13.3646 56.6724 13.3365C55.9833 13.2578 55.2026 13.2023 54.5207 13.3405C52.2666 13.7978 54.5378 15.6531 55.2576 16.3809C55.8862 17.0164 57.2171 18.1454 57.3776 19.0169C57.7993 21.3054 54.9729 21.4375 53.3849 21.3071C52.9666 21.2728 52.547 21.1946 52.1477 21.0693V20.1409L53.6492 20.3072C54.2057 20.323 54.7341 20.3177 55.2588 20.1176C56.5926 19.6088 55.7639 18.6432 55.1269 17.9624C54.2725 17.0491 52.2736 15.4489 52.171 14.1793C52.0682 12.9068 53.2078 12.4567 54.277 12.3135C55.328 12.1726 56.3828 12.2422 57.4084 12.5005H57.4079Z"
                      fill="#E5EAFA" />
                    <path
                      d="M43.0923 13.4527C41.8561 13.1253 40.2739 13.0951 39.4697 14.2546C38.8243 15.1849 38.8204 17.0636 39.0203 18.1423C39.1756 18.9802 39.5196 19.635 40.309 20.0313C41.2059 20.4817 42.1468 20.3232 43.0923 20.1414V20.9149C42.4638 21.2635 41.6348 21.3726 40.9188 21.3312C38.1729 21.172 37.6238 18.6766 37.7106 16.3914C37.793 14.2203 38.56 12.3325 41.0375 12.2379C41.7148 12.2122 42.494 12.3352 43.0921 12.6554V13.4527H43.0923Z"
                      fill="#E5EAFA" />
                    <path
                      d="M74.8232 19.3794V12.3815H76.0001V20.2244C76.0001 20.5961 75.7588 21.0284 75.3891 21.1421C74.7915 21.3258 74.3114 20.9824 74.03 20.4868L70.4996 14.1668V21.1885H69.3228V13.2029C69.3228 12.8717 69.6594 12.453 69.9941 12.3924C70.7659 12.2528 71.0737 12.7239 71.4165 13.2939C72.5333 15.1502 73.5344 17.1454 74.6029 19.0384C74.6675 19.1528 74.7305 19.2894 74.8232 19.3794Z"
                      fill="#E5EAFA" />
                    <path d="M67.4488 12.3577H66.2239V21.1883H67.4488V12.3577Z" fill="#E5EAFA" />
                    <path d="M36.0777 12.3816H34.8528V21.1884H36.0777V12.3816Z" fill="#E5EAFA" />
                    <path
                      d="M13.3071 1.17065C13.4786 1.21402 13.6586 1.24 13.8206 1.31649C14.268 1.52809 14.569 2.00468 14.6051 2.4908V20.9156C14.5544 21.5485 14.1079 22.0756 13.4765 22.2012C9.37397 22.2617 5.2508 22.2526 1.14709 22.2057C0.68191 22.1051 0.296023 21.8118 0.115814 21.3712L0 20.9265V2.47983C0.0675182 1.78259 0.613911 1.23309 1.32105 1.17065H13.3071ZM6.62471 3.81975C4.48744 3.91579 2.60558 4.5444 2.47318 6.96569C2.36914 8.86846 2.55392 10.863 2.47318 12.7755C2.58059 14.4965 3.89972 15.3443 5.04512 16.4154C5.17968 16.5005 5.33658 16.4671 5.45263 16.3687L6.64946 14.7698C6.73548 14.6197 6.74869 14.5253 6.64225 14.3806C6.41471 14.0713 5.89499 13.7218 5.60809 13.4296C5.16983 12.9835 4.97929 12.4936 4.94709 11.8709C4.8911 10.787 4.91081 9.4537 4.97184 8.37067C5.06122 6.78459 5.71694 6.34708 7.29413 6.3447C8.7418 6.34256 9.56644 6.74027 9.65582 8.27583C9.72286 9.42821 9.60536 10.6406 9.65702 11.7992C9.62459 12.3509 9.45399 12.7726 9.14715 13.2221C8.22617 14.5706 7.1317 15.8142 6.20086 17.1577C6.16362 17.2247 6.16121 17.3367 6.17827 17.4108C6.19918 17.5013 6.71289 17.9574 6.82126 18.0587C7.24151 18.4509 7.6865 18.8732 8.11828 19.2487C8.29008 19.3981 8.46044 19.5857 8.70624 19.5945L11.6081 19.5883C11.8231 19.5232 11.9195 19.2585 11.7695 19.0822L9.56548 17.0352L11.549 14.3647C11.8726 13.8728 12.0687 13.3136 12.1309 12.7278C12.0466 10.8177 12.2398 8.8177 12.1309 6.91803C11.9618 3.96297 8.99722 3.71324 6.62447 3.81975H6.62471Z"
                      fill="#E5EAFA" />
                  </g>
                  <defs>
                    <clipPath id="clip0_2090_56125">
                      <rect width="76" height="24" fill="white" />
                    </clipPath>
                  </defs>
                </svg>