 <svg xmlns="http://www.w3.org/2000/svg" width="89" height="24" viewBox="0 0 89 24" fill="none">
                  <g clip-path="url(#clip0_2090_56093)">
                    <path
                      d="M18.6904 4.26957C18.6904 3.2389 16.8499 3.65117 16.6438 3.65117C16.0254 3.65117 15.407 4.06344 14.9947 4.06344C14.5824 4.06344 13.964 3.8573 13.5518 3.8573C15.2008 4.06344 17.2475 3.44503 18.6757 2.62049C19.2941 2.41436 19.9125 2.62049 19.9125 3.44503C19.9125 4.4757 19.7064 5.28552 18.8818 5.90393C18.8818 6.11006 18.8818 6.3162 18.6757 6.52233L19.2941 6.11006C19.2941 6.9346 18.8818 7.14074 18.2634 7.34687C18.2634 7.14074 18.2634 6.52233 17.645 6.11006L18.6904 4.26957Z"
                      fill="#E5EAFA" />
                    <path
                      d="M2.66991 6.11017C2.25764 6.3163 2.0515 6.72857 1.84537 7.14084C1.22696 6.93471 0.814695 6.72857 0.814695 5.90403L1.4331 6.3163C1.4331 6.11017 1.22696 5.90403 1.22696 5.6979C0.402424 5.07949 0.196289 4.25495 0.196289 3.239C0.196289 2.6206 0.814694 2.20833 1.4331 2.41446C3.08218 3.239 5.12881 3.85741 6.76316 3.65127C6.35089 3.85741 5.93862 4.06354 5.32022 3.85741C4.70181 3.85741 4.08341 3.44514 3.47973 3.44514C3.06746 3.44514 1.4331 3.03287 1.4331 4.06354L2.66991 6.11017Z"
                      fill="#E5EAFA" />
                    <path
                      d="M9.44066 17.1974C7.60017 17.4036 6.36336 18.4343 6.15723 19.6563C6.36336 19.6563 6.5695 19.2441 6.77563 19.2441C6.98177 19.0379 7.1879 18.8318 7.39404 19.0379C7.60017 19.0379 7.39404 19.6563 7.39404 19.8625C8.63085 20.687 10.0591 20.4809 10.0591 19.6563C10.0591 20.2747 10.4713 20.2747 10.8836 20.2747C11.502 20.2747 12.1204 20.0686 12.7241 19.6563C12.518 19.0379 12.7241 18.8318 13.3425 19.0379C13.5486 19.2441 13.7548 19.2441 13.9609 19.4502L14.3732 19.6563C13.5486 17.8158 11.9143 16.9913 9.44066 17.1974Z"
                      fill="#E5EAFA" />
                    <path
                      d="M7.39134 16.5788C8.21588 16.3727 8.83429 16.1666 9.6441 15.7543C9.85024 15.7543 9.85024 15.5482 9.85024 15.342C9.85024 15.1359 9.85024 14.9297 9.85024 14.7236C9.85024 14.5175 9.6441 14.1052 9.43797 14.1052C8.81956 14.1052 8.20116 13.6929 7.78889 13.0745C7.58275 12.8684 7.58275 12.4561 7.37662 12.0439C7.37662 11.6316 7.37662 11.4255 7.58275 11.0132C6.96435 11.0132 6.96435 11.2193 6.75821 11.6316C6.55208 12.25 7.17048 12.6623 6.34594 12.8684C6.75821 13.0745 7.17048 13.8991 7.58275 14.3113C6.75821 14.5175 6.34594 13.6929 5.74226 13.4868C5.9484 14.5175 6.97907 14.7236 7.39134 15.1212L5.74226 14.7089C6.15453 15.5334 7.18521 15.1212 7.78889 15.7396C7.17048 16.1518 6.55208 15.9457 6.13981 15.7396C5.93367 15.7396 5.93367 15.7396 5.72754 15.9457C5.72754 16.1518 5.93367 16.1518 5.93367 16.358C6.13981 16.358 6.34594 16.5641 6.75821 16.5641C6.97907 16.785 7.18521 16.785 7.39134 16.5788Z"
                      fill="#E5EAFA" />
                    <path
                      d="M11.9145 11.6611C11.9145 11.8673 11.9145 12.0734 11.2961 12.2795C10.8839 12.2795 10.4716 12.4857 10.2655 12.4857C9.02865 12.4857 8.42496 12.4857 8.42496 11.6611C8.21883 11.6611 8.21883 11.8673 8.0127 12.0734C8.21883 12.6918 8.21883 12.6918 8.21883 12.6918C8.42496 12.8979 9.2495 12.8979 9.2495 12.8979C10.2802 12.8979 10.6924 12.8979 11.5023 12.8979C11.7084 12.8979 11.9145 12.8979 11.9145 12.6918C11.9145 12.4857 11.9145 12.2795 11.9145 12.2795C12.1207 12.0587 11.9145 11.8673 11.9145 11.6611Z"
                      fill="#E5EAFA" />
                    <path
                      d="M13.9631 9.39371C14.5815 9.18757 14.3754 8.56917 14.3754 8.36304C14.1693 8.36304 13.9631 8.36304 13.757 8.36304C13.5509 8.56917 13.3447 8.77531 13.3447 8.98144C13.3447 9.39371 13.5509 9.59984 13.9631 9.39371Z"
                      fill="#E5EAFA" />
                    <path
                      d="M14.5855 14.7382L12.9364 15.1505C13.5548 14.5321 14.3794 14.532 14.5855 13.5161C13.9671 13.9284 13.5548 14.5468 12.745 14.3406L14.3941 13.1038C13.5696 12.8977 13.5696 12.2793 13.5696 11.867C13.5696 11.6609 13.5696 11.6609 13.3634 11.4547C13.1573 11.4547 12.9512 11.2486 12.745 11.0425C12.745 11.2486 12.745 11.4548 12.745 11.6609C12.745 11.867 12.745 12.0732 12.745 12.2793C12.745 12.6916 12.745 12.6916 12.5389 12.8977C12.1266 13.5161 11.5082 13.9284 10.8898 14.1345C10.6837 14.3406 10.4775 14.5468 10.4775 14.5468C10.4775 14.7529 10.4775 15.1652 10.4775 15.3713C10.4775 15.7836 10.4775 15.7836 10.6837 15.9897C11.5082 16.1959 12.1266 16.6081 12.7303 16.8143C12.9364 16.8143 13.1426 16.8143 13.3487 16.8143C13.761 16.6081 13.9671 16.6081 14.1732 16.402C14.1732 16.402 14.3794 16.1959 14.3794 15.9897C14.1732 15.9897 14.1732 15.9897 13.9671 15.9897C13.5548 15.9897 13.1426 15.9897 12.9364 15.7836C13.5548 15.3419 14.1732 15.548 14.5855 14.7382Z"
                      fill="#E5EAFA" />
                    <path
                      d="M5.74683 8.5838C5.74683 8.78994 5.74683 9.20221 6.1591 9.40834C6.36523 9.40834 6.7775 9.20221 6.7775 8.78994C6.7775 8.78994 6.57137 8.5838 6.36523 8.5838C5.95296 8.37767 5.74683 8.37767 5.74683 8.5838Z"
                      fill="#E5EAFA" />
                    <path
                      d="M2.67041 6.11019C2.67041 6.11019 1.02133 3.44516 3.49495 3.6513L5.54157 4.06357C5.1293 4.06357 4.92317 4.2697 4.5109 4.06357C4.09863 4.06357 3.68636 3.85743 3.06795 3.85743C2.86182 3.85743 2.65568 3.85743 2.65568 4.06357C3.06795 4.2697 4.09863 4.68197 4.09863 4.68197C3.89249 4.68197 3.27409 4.47583 3.06795 4.47583C3.27409 4.8881 2.86182 6.11019 3.89249 7.96541C4.30476 8.78995 4.92317 9.59976 5.54157 10.012C5.95384 10.4243 6.77838 10.6304 7.38206 10.4243C7.38206 10.2182 7.17593 10.2182 6.96979 10.012C6.76366 9.8059 6.55752 9.8059 6.14525 9.59976C5.11458 9.39363 4.49617 8.36295 3.89249 7.55314C3.89249 7.14087 3.89249 6.93473 3.89249 6.52246H4.09863C4.09863 6.7286 4.30476 6.93473 4.30476 7.14087C4.30476 7.347 4.71703 7.55314 5.1293 7.55314C6.15998 7.55314 6.96979 7.75927 7.5882 8.78995C7.79433 9.20222 8.2066 9.82062 8.61887 10.0268C8.61887 10.0268 8.61887 9.40835 8.41274 9.20222C8.82501 8.99608 8.61887 8.58381 8.41274 8.37768C8.2066 8.17154 7.79433 7.75927 7.38206 7.347C7.79433 7.347 8.2066 6.93473 8.2066 6.93473H6.36611C6.98452 6.93473 8.01519 6.52246 8.01519 6.31633C7.19065 5.69792 6.1747 6.11019 5.14403 5.90406C5.76243 5.69792 6.38084 5.49179 6.98452 5.49179C7.5882 5.49179 8.6336 4.87338 8.6336 4.87338H6.1747C6.99924 4.46111 7.61765 3.84271 8.6336 3.84271C9.45814 3.84271 10.4741 3.84271 11.2986 3.84271C12.3293 3.84271 13.1391 4.25498 13.9637 4.66725H11.7109C11.7109 4.66725 12.9477 5.28565 13.36 5.28565C13.9784 5.49179 14.5968 5.69792 15.0091 5.90406C14.1845 6.11019 13.1686 5.90406 12.1379 6.31633C12.5502 6.93473 13.3747 6.52246 13.9784 6.93473H11.9318C11.9318 6.93473 12.344 7.347 12.7563 7.347C12.344 7.75927 12.1379 8.17154 11.7256 8.58381C11.5195 8.78994 11.5195 8.99608 11.7256 9.20222C11.7256 9.40835 11.5195 10.0268 11.5195 10.0268C11.7256 9.82062 11.9318 9.61448 12.1379 9.61448C12.5502 9.20221 12.7563 8.99608 12.9624 8.78995C13.3747 7.75927 14.4054 7.75927 15.2152 7.75927C15.8336 7.75927 16.0397 7.55314 16.2459 7.14087C16.0397 6.7286 16.2459 6.52246 16.2459 6.52246C16.452 7.14087 16.2459 7.55314 16.0397 7.96541C15.6275 8.99608 14.5968 9.59976 13.3747 10.012C13.1686 10.012 12.9624 10.2182 12.7563 10.6304C12.9624 10.6304 13.3747 10.6304 13.5808 10.6304C14.6115 10.4243 15.4213 9.8059 16.0397 8.99608C16.0397 8.99608 16.2459 8.58381 16.2459 8.37768C16.6581 7.55314 16.8643 6.74332 16.8643 5.71265C16.8643 5.30038 16.8643 5.09424 16.8643 4.68197C16.8643 4.88811 16.452 4.88811 16.2459 5.09424C16.6581 4.68197 17.0704 4.2697 17.6888 4.2697C17.6888 4.2697 17.0704 4.06357 16.6581 4.06357C16.0397 4.06357 15.4213 4.2697 15.0091 4.2697C14.8029 4.2697 14.8029 4.2697 14.5968 4.2697L16.8495 3.6513C19.2937 3.44516 17.6594 6.11019 17.6594 6.11019C19.3084 4.47584 19.9121 2.62062 17.041 3.23903C15.3919 3.6513 14.3759 3.85743 13.9637 3.85743C13.9637 3.85743 10.8864 3.03289 6.98452 3.85743H6.57225C6.15998 3.85743 5.1293 3.85743 3.28881 3.44516C0.417646 2.62062 1.03605 4.47584 2.67041 6.11019Z"
                      fill="#E5EAFA" />
                    <path
                      d="M19.707 12.4709C19.5009 12.4709 19.5009 12.4709 19.5009 12.4709C19.5009 12.8832 19.5009 13.2955 19.5009 13.7077C19.2947 15.3421 18.8825 16.785 17.6604 18.0218C17.4542 18.228 17.2481 18.4341 17.042 18.4341H16.8358C16.8358 18.4341 16.8358 18.4341 16.8358 18.228C17.2481 17.6096 17.4542 16.785 17.8665 16.1814C18.2788 15.5629 18.4849 14.7384 18.691 13.9286V13.7225C18.4849 13.7225 18.2788 13.9286 18.0726 13.9286H17.8665C17.8665 13.1041 18.691 11.0574 18.691 11.0574L18.2788 11.6758C17.8665 12.2942 17.6604 12.5004 17.2481 13.3102C17.2481 13.5163 17.042 13.7225 17.042 13.9286V14.1347C17.6604 14.547 17.042 15.5777 16.8358 15.7691C16.6297 16.1814 16.4236 16.5936 16.2174 17.212C16.2174 17.4182 16.2174 17.4182 16.0113 17.6243C16.0113 17.6243 16.0113 17.8304 15.8052 17.6243C15.8052 17.6243 15.8052 17.6243 15.8052 17.4182C15.8052 16.7998 16.0113 15.7838 16.2174 15.5777C16.6297 15.5777 16.4236 14.3409 16.0113 14.1347C15.8052 13.9286 15.599 13.9286 15.8052 13.5163V13.3102L14.1561 12.4856V12.2795C14.7745 12.2795 15.1868 12.4856 15.8052 12.6918C16.0113 12.8979 16.6297 12.6918 16.8358 12.4856V12.2795V12.0734V11.8672C16.0113 11.6611 15.8052 11.6611 15.8052 11.455C15.8052 11.455 15.8052 11.2488 16.0113 11.2488C16.2174 11.2488 16.6297 11.2488 16.8358 11.2488C17.042 11.0427 17.042 10.8366 17.042 10.6304V10.4243C16.6297 10.4243 16.6297 10.4243 16.4236 10.4243V10.2182C16.4236 10.2182 16.4236 10.2182 16.6297 10.012C17.2481 9.59976 18.0726 7.14086 18.0726 6.31632V6.11019C18.0726 6.11019 18.0726 5.90405 17.8665 5.90405C17.8665 5.90405 17.8665 5.90405 17.6604 5.90405C17.2481 7.14086 16.6297 10.012 13.7585 10.4243C13.5524 10.4243 13.3463 10.4243 12.934 10.4243H12.7279V11.2488C12.7279 11.455 12.7279 11.6611 12.7279 11.6611C12.7279 12.0734 12.934 12.2795 13.1401 12.4856C15.8052 13.5163 15.3929 15.7691 15.1868 16.1814C13.5377 17.212 14.3622 19.2587 14.5683 19.8771V20.0832C14.3622 20.0832 14.1561 20.0832 13.9499 20.0832C13.5377 19.8771 12.9193 20.0832 12.507 20.4955L12.0947 20.7016C12.507 20.0832 13.3315 20.2893 13.9352 20.4955C14.3475 20.4955 14.5536 20.7016 14.9659 20.9077H15.172C15.172 20.7016 15.172 20.2893 15.172 20.0832C15.172 19.8771 15.172 19.4648 15.5843 19.4648C15.9966 19.4648 15.9966 19.8771 15.9966 20.0832C15.9966 20.4955 15.9966 20.9077 15.9966 21.32C15.9966 21.32 15.9966 21.5261 16.2027 21.5261C16.2027 21.5261 16.2027 21.5261 16.4088 21.5261C16.4088 21.1139 16.615 20.4955 16.8211 20.0832C16.8211 20.0832 16.8211 20.0832 16.8211 19.8771H17.2481C17.2481 19.8771 17.2481 20.0832 17.4542 19.8771C18.2788 18.8464 19.1033 17.6243 19.707 16.5936C19.707 16.5936 19.9131 16.3875 19.9131 16.1814C20.1193 14.9445 19.9131 14.547 19.9131 13.5163C19.9131 13.2955 19.707 12.8832 19.707 12.4709Z"
                      fill="#E5EAFA" />
                    <path
                      d="M0.62295 12.4709C0.829085 12.4709 0.829085 12.4709 0.829085 12.4709C0.829085 12.8832 0.829085 13.2955 0.829085 13.7077C1.03522 15.3421 1.44749 16.785 2.47816 18.0218C2.6843 18.228 2.89044 18.228 3.09657 18.4341H3.30271C3.30271 18.4341 3.30271 18.4341 3.30271 18.228C2.89044 17.6096 2.6843 16.9912 2.27203 16.1814C2.0659 15.5629 1.85976 14.7384 1.65363 13.9286V13.7225C2.06589 13.9286 2.27203 13.9286 2.27203 13.9286H2.47816C2.27203 13.1041 1.65363 11.0574 1.65363 11.0574L2.0659 11.6758C2.47817 12.2942 2.6843 12.5004 2.89044 13.3102C3.09657 13.5163 3.09657 13.9286 3.09657 13.9286V14.1347C2.47817 14.547 3.09657 15.5777 3.30271 15.7691C3.71498 16.1814 3.92111 16.5936 3.92111 17.212C3.92111 17.4182 3.92111 17.4182 4.12725 17.6243C4.12725 17.6243 4.12725 17.8304 4.33338 17.6243C4.33338 17.6243 4.33338 17.6243 4.33338 17.4182C4.33338 16.7998 4.33338 15.9752 4.12725 15.7838C3.71498 15.5777 3.71498 14.3409 4.12725 14.1495C4.53952 13.958 4.53952 13.9433 4.33338 13.531V13.3249L5.98246 12.5004V12.2942C5.36406 12.0881 4.95178 12.2942 4.53951 12.7065C4.12724 12.9126 3.71497 12.7065 3.50884 12.5004V12.2942V12.0881V11.882C4.33338 11.6758 4.33338 11.6758 4.33338 11.4697C4.33338 11.4697 4.33338 11.2636 4.12725 11.2636C3.92111 11.2636 3.50884 11.2636 3.30271 11.2636C3.30271 11.0574 3.30271 10.8513 3.09657 10.6452V10.439C3.30271 10.6452 3.50884 10.6452 3.50884 10.439V10.2329C3.50884 10.2329 3.50884 10.2329 3.30271 10.0268C3.09657 9.61448 2.27203 7.15559 2.27203 6.33105V6.11019C2.27203 5.90405 2.47816 5.90405 2.47816 5.90405C2.47816 5.90405 2.6843 5.90405 2.6843 6.11019C3.09657 7.347 3.50884 10.012 6.58614 10.4243C6.79228 10.4243 6.99841 10.4243 7.41068 10.4243H7.61682L7.82295 11.2488C7.82295 11.455 7.82295 11.6611 7.82295 11.6611C7.82295 12.0734 7.61682 12.2795 7.41068 12.4856C4.33338 13.5163 5.15792 15.7691 5.36406 16.1814C6.807 17.0059 6.18859 19.2587 5.98246 19.8771V20.0832C6.18859 20.0832 6.39473 20.0832 6.39473 20.0832C7.01313 19.8771 7.63154 20.0832 8.04381 20.4955C7.21927 20.0832 7.01313 20.2893 6.39473 20.4955C5.98246 20.4955 5.57019 20.7016 5.36406 20.9077H5.15792C5.15792 20.7016 5.15792 20.2893 5.15792 20.0832C5.15792 19.8771 5.15792 19.4648 4.74565 19.4648C4.33338 19.4648 4.33338 19.8771 4.33338 20.0832C4.33338 20.4955 4.33338 20.9077 4.33338 21.32C4.33338 21.32 4.33338 21.5261 4.12725 21.5261C4.12725 21.5261 4.12725 21.5261 3.92111 21.5261C3.92111 21.1139 3.50884 20.4955 3.30271 20.0832C3.30271 20.0832 3.30271 20.0832 3.30271 19.8771H2.89044C2.89044 19.8771 2.89043 20.0832 2.6843 19.8771C1.85976 18.8464 1.24136 17.6243 0.43154 16.5936C0.43154 16.5936 0.225405 16.3875 0.225405 16.1814C0.0192696 14.9445 0.225405 14.547 0.225405 13.5163C0.416816 13.2955 0.416815 12.8832 0.62295 12.4709Z"
                      fill="#E5EAFA" />
                    <path
                      d="M30.1767 16.7853H27.0994L24.8466 13.0896V16.7853H22.3877V7.14111H26.0834C27.1141 7.14111 27.9239 7.34725 28.5423 7.96565C29.1607 8.37792 29.3668 9.20246 29.3668 10.2184C29.3668 10.8368 29.1607 11.4552 28.7484 12.0589C28.3362 12.4712 27.7178 12.8834 27.0994 13.0896L30.1767 16.7853ZM24.6405 11.4552H24.8466C25.0527 11.4552 25.2589 11.4552 25.465 11.4552C25.6711 11.4552 25.8773 11.4552 26.0834 11.2491C26.2895 11.2491 26.2895 11.043 26.4957 10.8368C26.7018 10.4245 26.7018 10.0123 26.4957 9.60001C26.4957 9.39388 26.2895 9.39387 26.0834 9.18774C25.8773 9.18774 25.6711 8.9816 25.465 8.9816C25.2589 8.9816 25.0527 8.9816 24.8466 8.9816H24.6405V11.4552Z"
                      fill="#E5EAFA" />
                    <path
                      d="M33.2519 9.18774V10.8368H36.1231V12.8834H33.2519V14.7387H36.1231V16.7853H30.5869V7.14111H36.1231V9.18774H33.2519Z"
                      fill="#E5EAFA" />
                    <path
                      d="M37.7666 7.14111H41.2562C41.8746 7.14111 42.493 7.34725 43.0967 7.55338C43.7003 7.75952 44.1273 8.17179 44.7457 8.58406C45.158 8.99633 45.5703 9.61473 45.7764 10.2184C45.9826 10.8368 46.1887 11.4552 46.1887 12.0589C46.1887 12.6626 45.9826 13.2957 45.7764 13.8994C45.5703 14.5178 45.158 14.9301 44.7457 15.3423C44.3335 15.7546 43.7151 16.1669 43.0967 16.373C42.6844 16.5792 42.066 16.7853 41.4476 16.7853H37.958V7.14111H37.7666ZM40.2255 14.7387H40.8439C41.2562 14.7387 41.6684 14.7387 41.8746 14.5325C42.2868 14.5325 42.493 14.3264 42.6991 14.1203C42.9053 13.9141 43.1114 13.5018 43.3175 13.2957C43.5237 12.8834 43.5237 12.4712 43.5237 12.0589C43.5237 11.2344 43.3175 10.616 42.6991 10.0123C42.0807 9.60001 41.4623 9.18774 40.6525 9.39387H40.0341L40.2255 14.7387Z"
                      fill="#E5EAFA" />
                    <path d="M55.6306 16.7853H53.157V9.18774H51.1104V7.14111H57.6772V9.18774H55.6306V16.7853Z"
                      fill="#E5EAFA" />
                    <path d="M61.1708 16.7853H58.7119V7.14111H61.1708V16.7853Z" fill="#E5EAFA" />
                    <path
                      d="M72.2557 11.4548C72.2557 12.0732 72.2557 12.8978 72.0496 13.5014C72.0496 14.1199 71.6373 14.7383 71.2251 15.1358C70.8128 15.7542 70.1944 16.1665 69.576 16.5787C68.9576 16.991 68.133 16.991 67.3232 16.991C66.7048 16.991 65.8803 16.7849 65.2766 16.5787C64.6582 16.3726 64.0398 15.9603 63.6275 15.5481C63.2152 15.1358 62.803 14.5174 62.5968 13.9137C62.3907 13.2953 62.1846 12.4708 62.1846 11.8671C62.1846 11.0426 62.3907 10.4241 62.5968 9.82047C62.803 9.20206 63.2152 8.58366 63.6275 8.18611C64.0398 7.77384 64.6582 7.36157 65.2766 7.15543C65.895 6.9493 66.7195 6.74316 67.3232 6.74316C68.1478 6.74316 69.1637 6.9493 69.9883 7.36157C70.8128 7.77384 71.4312 8.59838 71.6373 9.40819L69.1784 10.4389C68.9723 10.0266 68.7662 9.61433 68.3539 9.40819C67.9416 9.20206 67.5294 8.99593 67.1171 8.99593C66.7048 8.99593 66.2925 8.99592 66.0864 9.20206C65.6741 9.40819 65.468 9.61433 65.2619 9.82047C65.0557 10.0266 64.8496 10.4389 64.8496 10.8511C64.6435 11.6757 64.6435 12.2941 64.8496 13.1039C65.0557 13.5162 65.0557 13.7223 65.2619 14.1346C65.6741 14.3407 65.8803 14.5468 66.2925 14.753C66.7048 14.9591 66.9109 14.9591 67.3232 14.9591C67.7355 14.9591 68.3539 14.753 68.7662 14.5468C69.1784 14.3407 69.3846 13.7223 69.3846 13.31H67.3379V11.2634L72.2557 11.4548Z"
                      fill="#E5EAFA" />
                    <path
                      d="M75.9503 9.18749V10.8366H78.8214V12.8832H75.9503V14.7384H78.8214V16.785H73.2705V7.14087H78.8214V9.18749H75.9503Z"
                      fill="#E5EAFA" />
                    <path
                      d="M88.466 16.785H85.3887L83.1359 13.0893V16.785H80.677V7.14087H84.3727C85.4034 7.14087 86.2132 7.34701 86.8316 7.96541C87.45 8.58381 87.6561 9.20222 87.6561 10.2182C87.6561 10.8366 87.45 11.455 87.0377 12.0587C86.6255 12.4709 86.0071 12.8832 85.3887 13.0893L88.466 16.785ZM82.9298 11.455H83.1359C83.342 11.455 83.5482 11.455 83.7543 11.455C83.9604 11.455 84.1666 11.455 84.3727 11.2488C84.5788 11.2488 84.5788 11.0427 84.785 10.8366C84.9911 10.4243 84.9911 10.012 84.785 9.59977C84.785 9.39363 84.5788 9.39363 84.3727 9.18749C84.1666 9.18749 83.9604 8.98136 83.7543 8.98136C83.5482 8.98136 83.342 8.98136 83.1359 8.98136H82.9298V11.455Z"
                      fill="#E5EAFA" />
                  </g>
                  <defs>
                    <clipPath id="clip0_2090_56093">
                      <rect width="88" height="24" fill="white" transform="translate(0.188477)" />
                    </clipPath>
                  </defs>
                </svg>