 <svg xmlns="http://www.w3.org/2000/svg" width="88" height="24" viewBox="0 0 88 24" fill="none">
                  <g clip-path="url(#clip0_2090_56067)">
                    <path
                      d="M85.2722 5.68509C84.0886 5.11631 82.6509 5.38058 81.376 5.31982C81.3202 2.23363 78.7599 0.184778 75.8385 0.000244141H54.1937C51.3884 0.240973 48.8575 1.8957 47.2682 4.18756C47.1039 4.42525 46.7156 5.28034 46.5075 5.31982L6.18302 5.3297C3.87001 5.64409 2.54464 6.97987 1.81786 9.13428C1.29691 10.6804 0.546767 12.8751 0.216553 14.4318C-0.241826 16.5931 0.781234 18.3761 3.00829 18.6837L42.8073 18.6807C42.9491 19.1371 42.9544 19.6223 43.0818 20.0855C43.6872 22.2901 45.725 23.7777 47.9415 23.9995H69.8781C73.1267 23.6403 76.1974 21.6324 77.6939 18.6974C79.0555 18.6093 80.4547 18.8698 81.7726 18.4392C83.3528 17.9228 84.7731 16.7153 85.3499 15.132C85.9002 13.6223 86.6737 11.212 87.0077 9.66358C87.3575 8.04378 86.8072 6.42247 85.2722 5.68509ZM7.20155 13.9876C6.92336 14.646 6.86003 15.4259 6.47478 16.0273H4.6277L7.00855 8.0491L11.4928 8.08707C12.2121 8.29211 12.5257 8.87836 12.4676 9.60966C12.4232 10.1731 11.7725 12.1498 11.4747 12.6343C10.4539 14.2951 8.88504 13.9587 7.20155 13.9876ZM11.5637 16.0273L13.9762 8.05365H15.9364L14.2024 13.977H16.0872L16.6903 12.0025H18.6505L17.4065 16.0273H11.5637ZM26.2273 10.5597C25.7463 12.3329 25.0889 14.0658 24.6117 15.8428L24.4933 16.0273H22.6839C22.6387 16.0273 22.5784 15.918 22.5821 15.8527C22.6108 15.3697 23.1913 14.3415 23.2478 13.778C23.281 13.6975 23.1943 13.5213 23.1362 13.5213H21.4023C20.9801 14.2784 20.8406 15.2079 20.5353 16.0273H18.6882C18.6655 16.0273 18.5547 15.9142 18.5864 15.8527C19.2046 14.0977 19.6147 12.2607 20.2133 10.5012C20.5677 9.46234 21.0713 8.52524 22.1976 8.17136C22.7141 8.00885 24.9886 7.96329 25.5164 8.08631C25.9717 8.19263 26.4007 8.71737 26.4731 9.17301C26.5477 9.64004 26.3487 10.1093 26.2273 10.5597ZM33.921 8.43715C33.7483 9.26565 33.0389 11.6251 32.6868 12.3579C32.3641 13.03 31.62 13.6869 30.9053 13.9041C30.7168 13.9618 30.2894 13.9587 30.2208 14.0506L29.6576 16.0273H27.6974L28.2259 14.0537C27.2602 13.9405 26.6894 13.3596 26.7927 12.3435L28.0744 8.05365H30.0345L28.9037 12.0025H30.8639L32.1078 8.05365H33.9549C33.9692 8.18503 33.9474 8.30805 33.921 8.43715ZM35.1989 8.05365H37.4229L36.7444 10.3318H34.4826C34.6945 9.57093 34.883 8.76597 35.1989 8.05365ZM42.741 11.8537L41.494 16.0273H39.5339L40.6647 12.0025H38.8176L37.4983 16.0273H35.5381L36.8175 11.7345C37.6913 9.83824 39.6477 9.88836 41.4593 10.0251C42.5035 10.1033 42.9249 10.8498 42.741 11.8537ZM54.1251 21.801C52.5728 21.924 49.5443 21.9514 48.0161 21.798C46.0446 21.5998 44.7743 19.7522 45.0465 17.821C46.301 14.2101 47.085 9.8914 48.568 6.40728C49.3551 4.55739 51.9689 2.20629 54.0467 2.20629H64.3376L62.8222 7.05884L53.252 7.10137L50.2394 16.9386H54.8006L55.6676 14.0529H53.6697C53.6162 14.0529 53.5212 13.8866 53.5694 13.8061L54.7629 10.0281H61.8497C61.2835 11.944 60.7527 13.882 60.136 15.7813C59.208 18.6366 57.4702 21.5375 54.1251 21.801ZM79.2424 6.77787C78.4493 10.3167 76.8789 14.0309 75.9131 17.5492C75.0024 19.2943 73.3649 20.8039 71.4967 21.454C70.0281 21.9643 66.159 21.9316 64.523 21.801C61.8565 21.5892 60.9389 19.254 61.5112 16.8634C62.3638 13.3011 63.8453 9.59447 64.9015 6.0777C65.8605 4.17389 68.1501 2.46829 70.2769 2.22756C71.6392 2.07264 75.0718 2.05517 76.4183 2.22528C78.7667 2.5222 79.731 4.5984 79.2424 6.77787Z"
                      fill="#E5EAFA" />
                    <path
                      d="M82.4705 0.915383C80.5834 2.33622 82.9899 5.15738 84.6674 3.47C86.1013 2.0279 84.1539 -0.352052 82.4705 0.915383ZM83.5259 3.65529C81.7037 3.70085 81.6389 0.903992 83.4626 0.86754C85.2275 0.831849 85.324 3.61048 83.5259 3.65529Z"
                      fill="#E5EAFA" />
                    <path d="M74.2131 7.06641L71.1597 16.9386H66.4478L69.4634 7.06641H74.2131Z" fill="#E5EAFA" />
                    <path d="M24.3807 10.0278L23.7776 12.0023H21.8174L22.3451 10.0278H24.3807Z" fill="#E5EAFA" />
                    <path d="M10.3575 10.0278L9.8298 12.0023H7.86963L8.39737 10.0278H10.3575Z" fill="#E5EAFA" />
                    <path
                      d="M84.2411 3.07968C84.2034 2.81541 83.7887 2.43874 83.7887 2.39622C83.791 2.31041 84.2712 2.27092 84.1634 1.71504C84.0647 1.20852 83.1848 1.40596 82.8071 1.37103V3.19359C83.3123 3.31737 83.0514 2.80325 83.1087 2.43343C83.6334 2.20789 83.8317 3.10701 83.9501 3.18068C84.0217 3.22472 84.2659 3.25737 84.2411 3.07968ZM83.1087 2.13043V1.59809C83.2497 1.59353 83.7902 1.58366 83.8513 1.68542C84.1227 2.13802 83.405 2.17979 83.1087 2.13043Z"
                      fill="#E5EAFA" />
                  </g>
                  <defs>
                    <clipPath id="clip0_2090_56067">
                      <rect width="87" height="24" fill="white" transform="translate(0.106201)" />
                    </clipPath>
                  </defs>
                </svg>