<svg xmlns="http://www.w3.org/2000/svg" width="70" height="24" viewBox="0 0 70 24" fill="none">
                  <path
                    d="M5.01666 20.4247C5.01666 21.1987 4.82476 21.726 4.36194 22.1186C4.10231 22.3767 3.70722 22.444 3.18795 22.444C2.53323 22.444 2.0817 22.186 1.6866 21.726C1.35924 21.2661 1.22378 20.8173 1.22378 20.3013C1.22378 19.6506 1.35924 19.1346 1.74305 18.6746C1.93495 18.4839 2.13814 18.282 2.33004 18.1586C2.58967 18.024 2.8493 17.9679 3.17666 17.9679C3.50403 17.9679 3.76366 18.0352 4.09102 18.1025C4.35065 18.1698 4.55384 18.2932 4.67801 18.4952C4.74574 18.5625 4.74574 18.6298 4.74574 18.6859C4.74574 18.7532 4.74574 18.8205 4.67801 18.8766C4.61028 18.9439 4.54255 18.9439 4.48611 18.9439C4.41838 18.9439 4.35065 18.9439 4.29421 18.8766C4.10231 18.742 3.96685 18.6186 3.83139 18.5512C3.63949 18.4839 3.50403 18.4166 3.24439 18.4166C2.78157 18.4166 2.39777 18.6073 2.13814 19C1.94624 19.3253 1.81077 19.7179 1.81077 20.1667C1.81077 20.8173 2.00268 21.2661 2.33004 21.6587C2.52194 21.8494 2.79286 21.984 3.10893 21.984C3.30084 21.984 3.57176 21.9167 3.76366 21.8494C4.22648 21.6587 4.48611 21.1987 4.48611 20.6154V20.4247H3.71851C3.58305 20.4247 3.45887 20.3574 3.45887 20.1667C3.45887 19.976 3.5266 19.9086 3.71851 19.9086H4.70059C4.89249 19.9086 5.02795 20.0994 5.02795 20.3686V20.4247H5.01666ZM68.7619 20.4247C68.7619 21.1987 68.57 21.726 68.1072 22.1186C67.8476 22.3767 67.4525 22.444 66.9332 22.444C66.2785 22.444 65.827 22.186 65.4319 21.726C65.1045 21.2661 64.9691 20.8173 64.9691 20.3013C64.9691 19.6506 65.1045 19.1346 65.4883 18.6746C65.6802 18.4839 65.8834 18.282 66.0753 18.1586C66.335 18.024 66.5946 17.9679 66.922 17.9679C67.2493 17.9679 67.5089 18.0352 67.8363 18.1025C68.0959 18.1698 68.2991 18.2932 68.4233 18.4952C68.491 18.5625 68.491 18.6298 68.491 18.6859C68.491 18.7532 68.491 18.8205 68.4233 18.8766C68.3556 18.9439 68.2878 18.9439 68.2314 18.9439C68.1749 18.9439 68.0959 18.9439 68.0395 18.8766C67.8476 18.742 67.7121 18.6186 67.5767 18.5512C67.3848 18.4839 67.2493 18.4166 66.9897 18.4166C66.5269 18.4166 66.1431 18.6073 65.8834 19C65.6915 19.3253 65.5561 19.7179 65.5561 20.1667C65.5561 20.8173 65.748 21.2661 66.0753 21.6587C66.2672 21.8494 66.5381 21.984 66.8542 21.984C67.0461 21.984 67.317 21.9167 67.5089 21.8494C67.9718 21.6587 68.2314 21.1987 68.2314 20.6154V20.4247H67.4525C67.317 20.4247 67.1929 20.3574 67.1929 20.1667C67.1929 19.976 67.2606 19.9086 67.4525 19.9086H68.4346C68.6942 19.9086 68.8297 20.0433 68.8297 20.3013V20.4359H68.7619V20.4247ZM32.0184 22.1186C32.0184 22.3767 31.9507 22.5113 31.7588 22.5113C31.6233 22.5113 31.4991 22.444 31.4991 22.2533L30.9799 18.6746L29.93 22.2533C29.8623 22.3879 29.7946 22.444 29.6704 22.444C29.5349 22.444 29.4108 22.3767 29.4108 22.2533L28.361 18.6746L27.8417 22.2533C27.8417 22.444 27.7062 22.5113 27.5143 22.5113C27.3789 22.5113 27.2547 22.3767 27.2547 22.1859C27.2547 22.1186 27.2547 22.1186 27.2547 22.0513L27.9094 18.3493C27.9094 18.2147 27.9772 18.1586 28.0449 18.0913C28.1126 18.024 28.2368 17.9567 28.3045 17.9567C28.44 17.9567 28.4964 17.9567 28.5642 18.024C28.6319 18.0913 28.6996 18.1586 28.6996 18.2147L29.614 21.4007L30.5283 18.1474C30.5283 18.0801 30.5961 18.0128 30.6638 17.9567C30.7315 17.8894 30.7992 17.8894 30.9234 17.8894C31.0589 17.8894 31.1153 17.8894 31.183 17.9567C31.2508 18.024 31.3185 18.0913 31.3185 18.2147L32.0184 22.1186ZM42.223 22.1859C42.223 22.3767 42.1553 22.5113 41.9634 22.5113C41.7715 22.5113 41.7038 22.444 41.7038 22.2533V18.3605C41.7038 18.1698 41.7715 18.1025 41.9634 18.1025C42.1553 18.1025 42.223 18.1698 42.223 18.3605V22.1859ZM55.3627 22.1859C55.3627 22.3767 55.295 22.444 55.1031 22.444C54.9676 22.444 54.9111 22.3767 54.7757 22.2533L52.4277 18.9439V22.1299C52.4277 22.3206 52.36 22.3879 52.1681 22.3879C51.9762 22.3879 51.9084 22.3206 51.9084 22.1299V18.2371C51.9084 18.0464 51.9762 17.9791 52.1003 17.9791C52.2358 17.9791 52.2923 18.0464 52.4277 18.1698L54.7192 21.4792V18.282C54.7192 18.2147 54.7192 18.1474 54.787 18.0913C54.8547 18.024 54.9224 18.024 54.9789 18.024C55.1708 18.024 55.2385 18.0913 55.2385 18.282V22.1747H55.3627V22.1859ZM17.9644 22.2533C17.9644 22.3879 17.8967 22.444 17.7048 22.444C17.637 22.444 17.5693 22.444 17.5129 22.3767C17.4451 22.3767 17.4451 22.3767 17.4451 22.3093L17.1855 21.5353H15.1536L14.7585 22.3093C14.6908 22.444 14.623 22.5001 14.4989 22.5001C14.3634 22.5001 14.2392 22.4328 14.2392 22.3093V22.242V22.1747L15.6729 18.4054C15.7406 18.2708 15.7406 18.2147 15.8083 18.1474C15.8761 18.0801 15.9438 18.0801 16.0002 18.0801C16.068 18.0801 16.1357 18.0801 16.2599 18.1474C16.3276 18.2147 16.3953 18.282 16.3953 18.4054L17.8289 22.1747C17.9644 22.186 17.9644 22.2533 17.9644 22.2533ZM16.9823 21.0193L16.1357 18.6186L15.2213 21.0193H16.9823ZM57.8461 1.52197C58.8169 1.52197 59.6071 2.30725 59.6071 3.27202C59.6071 4.23678 58.8169 5.02206 57.8461 5.02206C56.8753 5.02206 56.0851 4.23678 56.0851 3.27202C56.0851 2.30725 56.8753 1.52197 57.8461 1.52197ZM68.8297 3.28323C68.8297 4.25922 68.0508 5.03328 67.0687 5.03328C66.0866 5.03328 65.3077 4.25922 65.3077 3.28323C65.3077 2.30725 66.0866 1.53319 67.0687 1.53319C68.0508 1.53319 68.8297 2.30725 68.8297 3.28323ZM57.8461 10.1039C58.8169 10.1039 59.6071 10.8892 59.6071 11.854C59.6071 12.8187 58.8169 13.604 57.8461 13.604C56.8753 13.604 56.0851 12.8187 56.0851 11.854C56.0851 10.8892 56.8753 10.1039 57.8461 10.1039ZM68.8297 11.854C68.8297 12.8299 68.0508 13.604 67.0687 13.604C66.0866 13.604 65.3077 12.8299 65.3077 11.854C65.3077 10.878 66.0866 10.1039 67.0687 10.1039C68.0508 10.1039 68.8297 10.878 68.8297 11.854ZM64.2579 7.5686C64.2579 8.54458 63.479 9.31864 62.4969 9.31864C61.5148 9.31864 60.7359 8.54458 60.7359 7.5686C60.7359 6.59261 61.5148 5.81855 62.4969 5.81855C63.479 5.81855 64.2579 6.59261 64.2579 7.5686ZM53.1389 13.2226L48.2397 1.7239C48.172 1.58928 48.1043 1.53319 47.9801 1.53319H46.998H46.8626H45.8805C45.745 1.53319 45.6886 1.6005 45.6208 1.7239L40.654 13.2226V13.2899C40.654 13.4245 40.7217 13.4806 40.8459 13.4806H43.0697C43.2051 13.4806 43.2616 13.4133 43.3293 13.2899L44.3791 10.6312H49.6056L50.6554 13.2899C50.7232 13.4245 50.7909 13.4806 50.9151 13.4806H53.1389C53.2743 13.4806 53.3308 13.4133 53.3308 13.2899C53.2066 13.2787 53.2066 13.2226 53.1389 13.2226ZM45.1016 8.54458L46.9303 3.93389L48.759 8.54458H45.1016ZM18.2918 5.22399C18.4272 4.76404 18.6191 4.57333 18.6191 4.57333C18.6191 4.57333 18.8788 4.11338 19.4657 3.85536C20.0527 3.59734 20.572 3.59735 20.572 3.59735H24.9519C25.0873 3.59735 25.2115 3.46273 25.2115 3.33933V1.77999C25.2115 1.64537 25.0761 1.52197 24.9519 1.52197H20.1092C17.4338 1.52197 15.2665 3.85536 15.2665 6.71601V7.43398V7.50129V7.63591V7.70322V8.42118C15.2665 11.2818 17.4226 13.6152 20.1092 13.6152H24.9519C25.0873 13.6152 25.2115 13.4806 25.2115 13.3572V11.7306C25.2115 11.5959 25.0761 11.4725 24.9519 11.4725H20.572C20.572 11.4725 19.985 11.4725 19.4657 11.2145C18.8788 10.9565 18.6191 10.4966 18.6191 10.4966C18.6191 10.4966 18.4272 10.2385 18.2918 9.8459C18.1563 9.38595 18.1563 8.8026 18.1563 8.8026V8.54458H24.9519C25.0873 8.54458 25.2115 8.40996 25.2115 8.28656V6.65992C25.2115 6.5253 25.0761 6.4019 24.9519 6.4019H18.1676V6.26728C18.1676 6.26728 18.224 5.68394 18.2918 5.22399ZM33.3278 13.4806H37.3126C37.4481 13.4806 37.5045 13.346 37.5045 13.2226V11.5959C37.5045 11.4613 37.4368 11.3379 37.3126 11.3379H33.7116C33.7116 11.3379 33.2488 11.3379 32.7973 11.0799C32.3345 10.8219 32.0748 10.3619 32.0748 10.3619C32.0748 10.3619 31.8152 10.1039 31.8152 9.64397C31.8152 9.25133 31.8152 8.73529 31.8152 8.73529V7.5686V1.7239C31.8152 1.58928 31.7475 1.53319 31.6233 1.53319H29.5349C29.3995 1.53319 29.2753 1.66781 29.2753 1.79121C29.2753 1.79121 29.2753 1.79121 29.2753 1.85852V7.63591V8.40996V9.64397V9.71128C29.343 11.7867 31.104 13.4806 33.3278 13.4806ZM11.8913 13.2226L9.08047 8.54458C10.5141 8.21926 11.4962 7.24327 11.4962 5.10059C11.5639 2.23994 9.59973 1.58928 7.18403 1.52197H6.59703H1.35924C1.22378 1.52197 1.09961 1.65659 1.09961 1.77999V13.2787C1.09961 13.4133 1.23507 13.5367 1.35924 13.5367H3.44758C3.58305 13.5367 3.70722 13.4021 3.70722 13.2787V8.79138H6.65347L9.27237 13.346C9.3401 13.4806 9.46427 13.5367 9.59973 13.5367H11.8235C11.959 13.5367 12.0154 13.4694 12.0154 13.346C11.8913 13.2787 11.8913 13.2226 11.8913 13.2226ZM7.24047 6.65992L6.58574 6.72723H3.65078V3.67587H6.65347H7.24047C8.61765 3.67587 9.00145 4.32653 9.00145 5.1679C8.94501 6.00926 8.54992 6.65992 7.24047 6.65992Z"
                    fill="#E5EAFA" />
                </svg>