 <svg xmlns="http://www.w3.org/2000/svg" width="65" height="24" viewBox="0 0 65 24" fill="none">
                  <g clip-path="url(#clip0_2090_56115)">
                    <path
                      d="M64.4595 0.927274V21.7158C64.4595 21.7215 64.3669 21.6938 64.3532 21.7497C64.3358 21.8218 64.3711 21.9195 64.3511 21.9994C64.2069 22.5708 63.4991 22.9579 62.9622 23.0764H2.06572C1.47944 23.019 0.737913 22.5917 0.571609 21.9989C0.532137 21.8578 0.62371 21.7748 0.458984 21.6406L0.461089 6.12179C0.581082 5.41508 0.973687 4.8797 1.71311 4.64831L60.6466 4.63943C60.755 4.62637 61.8786 3.33623 62.0618 3.14245C62.4491 2.73243 62.817 2.31248 63.2006 1.90924C63.3191 1.78493 64.0932 0.96697 64.1574 0.942944C64.2558 0.905859 64.359 0.932497 64.46 0.927274H64.4595ZM35.0404 7.56079H32.7248C32.7206 7.56079 32.7337 7.61929 32.7058 7.64645C32.6779 7.67361 32.6195 7.66055 32.6195 7.66525V9.70232H35.093V7.66525C35.093 7.66055 35.0188 7.67727 34.9993 7.65742L35.0404 7.56079ZM16.3048 7.97865H13.7786V17.5894H16.3048V7.97865ZM5.56865 8.44874V17.5894H8.06848L8.14743 17.5111V15.0823H10.0684C10.0768 15.0823 10.1289 14.9997 10.1847 14.9888C10.4725 14.9323 10.762 14.9015 11.0499 14.7615C11.9993 14.2998 12.5092 13.5456 12.7271 12.5584C12.7366 12.5156 12.8229 12.5448 12.8355 12.4476C12.9276 11.7524 12.8019 10.7668 12.5082 10.1641C11.9367 8.99039 10.6315 8.5041 9.38629 8.44613C8.13111 8.38763 6.82857 8.49418 5.56865 8.44822V8.44874ZM29.7776 10.4858V8.57932C29.6655 8.46441 29.2492 8.47068 29.1066 8.51716C29.0324 8.54119 28.6471 9.15335 28.4787 9.20036L28.4245 9.3346L27.6577 10.0706L27.6035 10.2048C27.3504 10.4759 26.0278 11.7138 25.992 11.9253C25.9657 12.0799 26.0026 12.2601 25.9889 12.4184H27.2256C27.3009 12.4644 27.2983 12.5223 27.3072 12.5986C27.4572 13.8652 27.0309 15.1831 27.6125 16.3672C27.8335 16.8174 28.3766 17.2891 28.8834 17.4583C28.9461 17.4792 29.4039 17.5894 29.4355 17.5894H31.5669V15.3956C31.148 15.3539 30.2818 15.5116 29.987 15.1475C29.9465 15.0974 29.8302 14.8409 29.8302 14.795V12.4967L29.9092 12.4184H31.5669V10.6686C31.5669 10.6488 31.4475 10.4858 31.4354 10.4858H29.7776ZM23.357 17.5894H25.2516C25.2347 17.5382 25.3042 17.4761 25.3042 17.4588V10.5642L25.2253 10.4858H23.4885C23.3101 10.4858 23.3806 10.6676 23.3559 10.7616C23.348 10.7924 23.178 10.8363 23.2517 11.0081C22.8512 10.8164 22.4344 10.5161 21.9997 10.396C18.7057 9.4866 16.2374 13.0624 17.7668 15.9545C17.7915 16.0015 18.041 16.4006 18.0578 16.4236C18.9962 17.6813 20.9355 18.1342 22.4075 17.5612C22.7286 17.4364 22.9122 17.1783 23.2506 17.1705C23.177 17.4014 23.3701 17.4129 23.3559 17.5889L23.357 17.5894ZM38.2244 10.4858H36.5666V20.1488H38.8559C38.8759 20.1488 39.0401 20.0302 39.0401 20.0182V17.4327C39.5875 17.6636 40.1948 17.8662 40.8021 17.8506C43.833 17.7712 45.2971 14.5479 43.9503 12.0653C43.1204 10.5354 41.0305 9.88983 39.3722 10.5276C39.0591 10.6482 38.8144 10.8713 38.5144 11.0081L38.2244 10.4858ZM57.0916 12.7318H59.4598C59.4341 12.5563 59.4977 12.3004 59.4588 12.141C59.4535 12.1181 59.2856 11.8214 59.2672 11.7749C58.2747 9.29699 52.6535 9.90498 53.4734 13.2677C53.7297 14.3186 54.9165 14.701 55.8048 14.8712C56.199 14.947 56.339 14.9402 56.7132 15.0765C56.9721 15.1705 57.1084 15.1026 57.1137 15.4218C57.1158 15.5649 56.9974 15.8532 56.8679 15.9028C56.7795 15.9368 56.3848 15.9347 56.2737 15.9211C55.8853 15.8725 55.7248 15.5424 55.7227 15.1878L53.4445 15.1982L53.3229 15.3157C53.3208 16.4351 54.1091 17.3329 55.1733 17.639C56.2374 17.9451 58.0005 17.8725 58.8825 17.0436C58.9683 16.9631 59.4472 16.3484 59.4583 16.2998C59.4756 16.223 59.4435 16.1353 59.4598 16.0585C59.4688 16.0156 59.5556 16.0454 59.5688 15.9483C59.5909 15.7801 59.5961 14.8378 59.563 14.7015C59.5541 14.6649 59.4783 14.6722 59.463 14.6257C59.2751 14.0381 59.0536 13.7341 58.4667 13.4714C57.8252 13.1836 57.1247 13.1998 56.4874 13.0441C56.3827 13.0185 55.8748 12.8143 55.8438 12.7193C55.8127 12.6242 55.809 12.4482 55.829 12.3531C55.8322 12.3374 56.0353 12.128 56.0506 12.1222C56.1369 12.0888 56.6369 12.0883 56.7505 12.1024C56.7642 12.104 56.9753 12.2382 56.9832 12.2492C57.0663 12.3589 57.1074 12.5955 57.0895 12.7328L57.0916 12.7318ZM35.093 10.4858H32.6195V17.5894H35.093V10.4858ZM49.8815 10.4858C49.8736 10.6012 49.8352 10.7062 49.8268 10.8232C49.7384 12.0235 50.0057 13.6605 49.8168 14.7824C49.6405 15.8287 48.0985 15.8104 47.8943 14.7824C47.7448 13.52 48.0506 11.942 47.8848 10.7177C47.8753 10.6488 47.8175 10.4853 47.7506 10.4853H45.4087V15.3168C45.4087 15.3241 45.4881 15.3732 45.5013 15.4338C45.645 16.095 45.7923 16.3097 46.2307 16.7746C47.0443 17.6375 48.0211 17.883 49.2795 17.8004C50.3225 17.732 51.4472 17.1413 51.9451 16.2674C52.0166 16.142 52.3556 15.3455 52.3556 15.2645V10.5636L52.2766 10.4853H49.8821L49.8815 10.4858Z"
                      fill="#E5EAFA" />
                    <path
                      d="M41.4826 12.9715C41.5326 13.0175 41.7663 13.2599 41.7736 13.2917C41.7915 13.3685 41.76 13.4557 41.7763 13.5315C41.7858 13.5743 41.8721 13.5445 41.8852 13.6417C41.9021 13.7702 41.9057 14.4184 41.88 14.5234C41.8705 14.5625 41.79 14.5516 41.7779 14.5975C41.7279 14.7814 41.6768 14.9694 41.5263 15.1303C40.8421 15.8589 39.3885 15.6965 38.9923 14.737C38.3165 13.1021 40.138 11.7378 41.4837 12.971L41.4826 12.9715Z"
                      fill="#E5EAFA" />
                    <path
                      d="M9.54158 10.7469C9.56316 10.7526 9.90419 10.9563 9.9205 10.9715C9.98366 11.03 10.0089 11.148 10.0479 11.2264C10.0673 11.2656 10.1368 11.2703 10.1452 11.3068C10.171 11.4212 10.1689 12.0041 10.1515 12.1347C10.1394 12.2235 10.0721 12.1953 10.0468 12.2528C10.0305 12.2904 10.0531 12.3598 10.0252 12.4021C10.0131 12.4204 9.73473 12.7087 9.71367 12.7166C9.61368 12.7521 9.52527 12.7119 9.44474 12.7307C9.38791 12.7437 9.4158 12.8362 9.41054 12.8362H8.14746V10.7469C8.52007 10.8111 9.21371 10.6607 9.54211 10.7469H9.54158Z"
                      fill="#E5EAFA" />
                    <path
                      d="M21.3887 15.5774C22.2424 15.5774 22.9344 14.8906 22.9344 14.0433C22.9344 13.1961 22.2424 12.5093 21.3887 12.5093C20.535 12.5093 19.843 13.1961 19.843 14.0433C19.843 14.8906 20.535 15.5774 21.3887 15.5774Z"
                      fill="#E5EAFA" />
                  </g>
                  <defs>
                    <clipPath id="clip0_2090_56115">
                      <rect width="64" height="24" fill="white" transform="translate(0.458984)" />
                    </clipPath>
                  </defs>
                </svg>