   <svg xmlns="http://www.w3.org/2000/svg" width="96" height="32" viewBox="0 0 96 32" fill="none">
                  <g clip-path="url(#clip0_2090_56078)">
                    <path
                      d="M11.925 3.3571C18.7021 2.77599 24.6579 7.84925 25.2424 14.7126C25.5898 18.7802 23.947 22.7696 20.8508 25.3766C16.4117 29.1143 10.0137 29.2083 5.46405 25.6432C0.0929589 21.4184 -0.886166 13.5813 3.28436 8.13151C5.36957 5.39896 8.51294 3.67128 11.925 3.3571ZM19.3342 5.61882C17.1699 4.22108 14.6105 3.57676 12.0197 3.78092C5.47984 4.3151 0.599185 10.1261 1.1203 16.7536C1.64162 23.3813 7.37602 28.3286 13.9162 27.7946C20.472 27.2604 25.3379 21.4652 24.8166 14.8219C24.5164 11.0527 22.4778 7.6605 19.3342 5.61882ZM5.99921 24.8737C6.99427 24.9365 8.00514 25.0777 8.90546 25.5173C9.93218 25.9727 10.8331 26.6323 11.7492 27.2604C9.66407 26.9934 7.67366 26.1771 5.99921 24.8737ZM7.76874 22.9889C9.1904 23.0204 10.5489 23.5072 11.9074 23.9469C14.1506 24.6694 16.3621 25.5485 18.7316 25.737C17.7206 26.3024 16.662 26.7582 15.5246 27.0094C15.3669 27.0562 15.2408 26.9306 15.0988 26.8835C13.6928 26.0982 12.3495 25.2032 10.9435 24.3708C9.93267 23.7898 8.89016 23.2559 7.76874 22.9889ZM9.9328 22.2819C13.2345 22.6117 16.5204 23.5075 19.8537 23.1149C20.6435 23.0364 21.4177 22.8479 22.176 22.5495C21.5915 23.319 20.9754 24.0573 20.2014 24.6383C19.5853 24.7483 18.9687 24.6855 18.3683 24.6227C16.5833 24.3871 14.8772 23.8365 13.1711 23.2712C12.0969 22.9414 11.0385 22.5332 9.9328 22.2819ZM11.2756 4.40885C16.9469 3.52935 22.3817 7.07933 23.9299 12.6862C24.7829 15.7801 24.3242 19.2672 22.5549 21.9528C20.9438 22.6907 19.1273 22.8164 17.3898 22.738C14.4832 22.5966 11.6394 21.8263 8.71698 21.7477C7.07404 21.7006 5.38313 21.921 3.85077 22.5964C0.138365 17.4764 1.22818 10.267 6.28339 6.51335C7.73673 5.41399 9.4589 4.70727 11.2756 4.40885ZM94.5783 14.8698C94.8625 15.121 95.1631 15.3715 95.4631 15.6227C95.2735 15.7641 95.0677 15.8906 94.8781 16.0319C95.2098 16.5815 95.2732 17.2721 95.0363 17.8688C94.7836 18.4656 94.2465 18.8898 93.5988 18.984C93.2671 19.0468 92.9354 18.984 92.6037 18.984C92.4141 19.0469 92.1303 19.0941 92.1144 19.3454C92.3039 19.5491 92.5876 19.455 92.8244 19.4235C93.5037 19.2822 94.2628 19.2508 94.8947 19.612C95.6213 20.0361 95.6369 21.2148 95.0051 21.7331C94.3732 22.2512 93.5517 22.408 92.7619 22.3766C92.0194 22.3452 91.2921 22.1093 90.676 21.6852C90.9445 21.3711 91.2132 21.0726 91.466 20.7585C91.9398 21.1667 92.5561 21.3709 93.1721 21.3239C93.5196 21.2768 93.9628 21.2456 94.1682 20.9001C94.2784 20.6332 94.0253 20.366 93.7726 20.3503C92.9986 20.2404 92.193 20.5703 91.4348 20.3034C91.0872 20.2249 90.8498 19.9107 90.8498 19.5495C90.8341 19.1255 91.2292 18.8424 91.5451 18.654C90.6449 18.167 90.3447 16.8163 90.9924 15.9997C91.7349 15.0733 93.0939 14.9633 94.0891 15.403C94.2468 15.2304 94.4205 15.0424 94.5783 14.8698ZM38.8605 14.8698C39.1448 15.121 39.4453 15.3715 39.7453 15.6227C39.5557 15.7641 39.3499 15.8906 39.1603 16.0319C39.5394 16.6443 39.5553 17.4291 39.2394 18.0729C38.8919 18.6854 38.1971 19.0308 37.5021 19.0309C37.202 19.0466 36.8861 18.9217 36.6017 19.0944C36.4755 19.1415 36.2858 19.3292 36.4904 19.4235C36.7115 19.5177 36.9645 19.4393 37.2014 19.4079C37.8806 19.2822 38.6548 19.2673 39.2551 19.6442C39.9818 20.1625 39.8872 21.387 39.1447 21.8424C37.8967 22.6434 36.1902 22.5019 34.9738 21.6852C35.2424 21.3711 35.5109 21.0569 35.7795 20.7585C36.4588 21.3553 37.4865 21.5283 38.2922 21.0885C38.4814 20.9942 38.5441 20.7583 38.4494 20.57C38.402 20.4916 38.3233 20.4129 38.2287 20.3815C37.502 20.1616 36.7591 20.4915 36.0324 20.3659C35.6377 20.3344 35.1961 20.0992 35.1642 19.6598C35.0853 19.1887 35.4953 18.8581 35.8586 18.654C34.9585 18.1512 34.6582 16.8162 35.3058 15.9997C36.0168 15.0732 37.3759 14.9789 38.3869 15.4186L38.8605 14.8698ZM21.5754 12.4352C20.4381 11.383 18.7168 11.2572 17.2951 11.7282C16.2841 12.0894 15.4624 12.8121 14.9885 13.7858C14.4672 14.838 14.3879 16.0476 14.5617 17.194C14.7197 18.2774 15.2566 19.2981 16.1252 19.9733C16.9467 20.6172 18.0215 20.8214 19.0168 20.7428C20.0277 20.6643 21.0862 20.3819 21.8918 19.7223V15.3717H18.8586V17.0368H20.0432V18.7008C19.427 19.1249 18.6054 19.125 17.9103 18.8737C17.1524 18.5752 16.6308 17.8218 16.4728 17.0368C16.3149 16.2358 16.3621 15.403 16.6623 14.6491C16.9466 13.9581 17.5315 13.3931 18.258 13.2516C19.1584 13.0161 20.0904 13.4088 20.7697 13.9899C21.0382 13.4718 21.2911 12.9533 21.5754 12.4352ZM8.29022 11.5241C7.54792 11.4456 6.77375 11.4451 6.03144 11.6491C5.33634 11.8376 4.67195 12.2776 4.3244 12.9215C4.29281 15.1831 4.32458 17.445 4.30878 19.7223C4.83002 20.0835 5.39884 20.3348 6.01483 20.4919C6.72572 20.6803 7.45319 20.6327 8.17987 20.5856C8.90641 20.5384 9.64873 20.3498 10.1857 19.8473C11.0228 19.1091 11.2755 17.8057 10.8332 16.7692C10.5962 16.1884 10.0753 15.7802 9.52265 15.529C10.0755 15.1834 10.5015 14.5861 10.4699 13.9108C10.4855 12.7017 9.44325 11.6498 8.29022 11.5241ZM17.0578 11.4772C14.4198 11.4929 11.7816 11.4772 9.15936 11.4772C9.98045 11.7757 10.5176 12.529 10.8019 13.3298H11.8918V20.6012H13.756V13.3298H14.7824C15.3353 12.4974 16.11 11.7913 17.0578 11.4772ZM66.9963 13.2829C67.628 13.33 68.2436 13.5504 68.7648 13.9587C68.5753 14.2884 68.4016 14.6338 68.2121 14.9635C67.5802 14.5395 66.8219 14.2565 66.0637 14.445C65.2422 14.5864 64.5948 15.2935 64.4211 16.0944C64.2473 16.8639 64.2788 17.7276 64.7053 18.4186C65.3214 19.4238 66.8061 19.6905 67.7697 19.0309V17.6491H66.7433V16.5807H69.0812V19.7223C68.2914 20.272 67.312 20.4762 66.3801 20.4762C65.464 20.4919 64.4845 20.1778 63.8683 19.4714C63.0469 18.6076 62.8411 17.3347 63.0148 16.1725C63.1255 15.3246 63.5836 14.5238 64.2785 13.9899C65.0368 13.4088 66.0484 13.2201 66.9963 13.2829ZM69.8391 15.4508C70.7394 15.0896 71.7508 15.0577 72.6828 15.3717C73.2199 15.5602 73.5831 16.0789 73.6779 16.6286C73.8674 17.5237 73.7257 18.419 73.8205 19.3141C73.8521 19.6281 73.994 19.9108 74.215 20.1149C73.9938 20.4446 73.5832 20.5079 73.2199 20.4294C72.9358 20.3508 72.778 20.0993 72.6359 19.8796C72.2884 20.2722 71.7352 20.4292 71.2297 20.4606C70.6768 20.4763 70.0926 20.366 69.6818 19.9577C69.2553 19.5336 69.1916 18.8424 69.3654 18.277C69.5393 17.7119 70.0607 17.3512 70.6135 17.1628C71.2294 16.9743 71.877 16.9269 72.5246 17.0368C72.4772 16.7227 72.3512 16.3928 72.0353 16.2829C71.4192 16.0473 70.7079 16.141 70.1076 16.3766C70.0129 16.0785 69.918 15.7647 69.8391 15.4508ZM57.3596 16.0632C58.2915 14.9796 60.0446 14.8695 61.1662 15.7331C61.8929 16.2985 62.1623 17.3195 61.8937 18.1833H58.0226C58.0701 18.6857 58.3545 19.1726 58.8283 19.3298C59.4918 19.5653 60.3131 19.502 60.8976 19.0309C61.0556 19.3293 61.2299 19.6436 61.3879 19.9577C60.6454 20.4603 59.7128 20.5079 58.8439 20.4294C57.9911 20.3507 57.1537 19.7538 56.8693 18.9059C56.5534 17.9636 56.6645 16.817 57.3596 16.0632ZM75.7316 15.6862C76.5215 14.9323 77.8809 15.0109 78.7023 15.6862C79.4448 15.0738 80.5979 14.9639 81.4035 15.4821C81.8771 15.7962 82.1145 16.3769 82.0988 16.9264C82.1146 18.0728 82.0988 19.2195 82.0988 20.3815H80.8342V17.2565C80.8342 16.9424 80.7871 16.5809 80.5344 16.361C80.0604 16 79.3025 16.1574 78.9865 16.6598C78.9549 17.9004 78.9867 19.1253 78.9709 20.3659H77.7062C77.6905 19.2195 77.7222 18.0728 77.6906 16.9264C77.6904 16.2513 76.8221 15.9846 76.3166 16.2829C76.127 16.4085 75.8264 16.5501 75.8264 16.8171V20.3659H74.5627V15.2624H75.4318C75.5581 15.4036 75.6527 15.5449 75.7316 15.6862ZM86.6642 15.7174C87.2803 15.1051 88.2592 15.0424 89.049 15.2936C89.7599 15.5292 90.2342 16.236 90.2658 16.9899C90.2974 18.1204 90.2657 19.251 90.2814 20.3815H89.0178V17.3669C89.0178 16.9743 88.923 16.5183 88.5598 16.3141C87.9752 16.0157 87.2638 16.2045 86.8215 16.6442C86.8057 17.8848 86.8215 19.1253 86.8215 20.3659H85.5578V15.2624H86.4738C86.5212 15.4193 86.5853 15.5605 86.6642 15.7174ZM34.4367 20.3659H33.1574V16.236H32.4621C32.4779 15.922 32.4621 15.592 32.4621 15.2624H34.4367V20.3659ZM45.3849 14.4928H43.8205V20.3659H42.4943V14.4928H40.1398V13.3776H45.3849V14.4928ZM47.7707 20.3659H46.4904V16.236H45.7951V15.2624H47.7707V20.3659ZM49.8244 15.6862C50.6301 14.9325 51.9725 15.0109 52.8098 15.6862C53.5522 15.0737 54.7051 14.9639 55.5266 15.4821C56.0004 15.7962 56.2218 16.3768 56.2219 16.9264V20.3659H54.9582V17.2409C54.9582 16.9268 54.9111 16.5652 54.6584 16.361C54.1845 15.9998 53.4253 16.1573 53.1252 16.6598C53.0936 17.9004 53.1253 19.1253 53.1096 20.3659H51.8459C51.8459 19.2195 51.8617 18.0728 51.8459 16.9264C51.8614 16.2513 50.9929 15.9845 50.4875 16.2829C50.2979 16.4085 49.9973 16.5501 49.9973 16.8171C49.9815 17.9948 49.9973 19.1725 49.9973 20.3659H48.7336V15.2624H49.6027L49.8244 15.6862ZM84.5783 20.3659H83.3146V16.236H82.6193C82.6035 15.9063 82.6037 15.592 82.6037 15.2624H84.5783V20.3659ZM29.4289 13.3141C30.0608 13.3298 30.7251 13.44 31.2307 13.8327C31.7202 14.2254 31.9093 14.9166 31.7355 15.5133C31.6091 15.9373 31.2463 16.2047 30.883 16.4089C31.3726 16.5816 31.8466 16.8957 32.0519 17.3825C32.3519 18.0734 32.3047 18.9529 31.7678 19.5182C31.215 20.1149 30.3933 20.3502 29.6193 20.3503C28.8295 20.366 28.0234 20.3503 27.2336 20.3503L27.2648 13.3776C27.9914 13.3619 28.7024 13.3141 29.4289 13.3141ZM72.5246 17.9635C71.9718 17.8851 71.3558 17.8693 70.882 18.1676C70.4398 18.4347 70.4086 19.2507 70.9299 19.4391C71.3564 19.5647 71.8928 19.549 72.256 19.235C72.5877 18.9053 72.5088 18.4032 72.5246 17.9635ZM28.5764 17.0368V19.3298C29.1292 19.3612 29.6977 19.4078 30.2189 19.2194C31.0876 18.9525 31.1196 17.4301 30.2512 17.1628C29.7299 16.9743 29.145 17.0211 28.5764 17.0368ZM6.36249 16.4557C7.01017 16.4871 7.68977 16.3607 8.30585 16.612C9.20617 16.9733 9.14272 18.5283 8.24237 18.8424C7.62627 18.921 6.947 18.968 6.36249 18.6696V16.4557ZM37.9914 16.5339C37.7386 16.1415 37.2018 16.0634 36.7912 16.2204C36.1751 16.456 36.0803 17.3666 36.5226 17.7907C36.807 18.0732 37.2492 18.1047 37.6125 17.9948C38.1654 17.7906 38.3073 16.9893 37.9914 16.5339ZM93.5988 16.3932C93.3303 16.1105 92.8567 16.0791 92.4933 16.2204C91.8141 16.4874 91.7981 17.5869 92.4142 17.9167C92.825 18.1364 93.4407 18.0886 93.7092 17.6647C93.9303 17.2721 93.9304 16.7231 93.5988 16.3932ZM60.2824 16.4089C59.8875 16.1262 59.3343 16.1103 58.8762 16.2516C58.4339 16.393 58.1811 16.8324 58.0705 17.2721H60.7238C60.6449 16.9426 60.5663 16.613 60.2824 16.4089ZM30.1564 14.5397C29.6825 14.2884 29.1134 14.3825 28.5764 14.3825V16.0475C29.0661 16.0632 29.6036 16.1258 30.0617 15.9059C30.5825 15.6702 30.6614 14.8226 30.1564 14.5397ZM6.52069 13.5817C6.99462 13.0006 8.08462 13.0946 8.40058 13.8171C8.52681 14.2097 8.35258 14.7589 7.91034 14.8688C7.40488 15.0101 6.88374 14.9322 6.36249 14.9479C6.39408 14.5082 6.25227 13.99 6.52069 13.5817ZM34.4367 14.4928H32.4621C32.4621 14.1317 32.4787 13.7544 32.4787 13.3932H34.4367V14.4928ZM47.7541 14.4928H45.7951V13.3932H47.7541V14.4928ZM84.5939 14.4928H82.6359C82.6201 14.1317 82.6193 13.7544 82.6193 13.3932H84.5939V14.4928ZM4.40351 10.6598L3.78729 10.9118L4.42011 11.068C4.4359 11.2879 4.45118 11.5083 4.46698 11.7282C4.57756 11.5397 4.68826 11.3511 4.81464 11.1784L5.44647 11.32L5.03534 10.8171L5.383 10.2516L4.76679 10.5026C4.64055 10.3301 4.49862 10.1575 4.35663 10.0007C4.37242 10.2204 4.38772 10.4401 4.40351 10.6598ZM21.1808 10.5026L20.5803 10.2516L20.9279 10.8171C20.7857 10.9898 20.6433 11.1472 20.5012 11.32L21.133 11.1784L21.4807 11.7282L21.5285 11.068L22.1603 10.9118L21.5598 10.6598L21.6076 10.0007L21.1808 10.5026ZM17.674 8.41374L16.5842 8.27311C16.8526 8.53995 17.1048 8.79149 17.3732 9.04264C17.2153 9.37236 17.0575 9.71782 16.8996 10.0475L17.8635 9.52897C18.132 9.78022 18.4006 10.0472 18.6691 10.2985C18.5902 9.93751 18.5428 9.56086 18.4797 9.19987C18.7956 9.02711 19.1118 8.83845 19.4435 8.66569L18.3527 8.52409C18.2738 8.1629 18.2266 7.78559 18.1476 7.4401C17.9897 7.75407 17.8319 8.08408 17.674 8.41374ZM7.61054 8.49284L6.52069 8.63444L7.48456 9.16764C7.42138 9.52881 7.35829 9.90615 7.29511 10.2516C7.56359 10.0004 7.83229 9.74901 8.10077 9.4821C8.41656 9.65478 8.73209 9.84366 9.06366 10.0007C8.90574 9.67095 8.74795 9.32548 8.59003 8.99577C8.85859 8.74448 9.12731 8.47655 9.38007 8.22526C9.0168 8.27237 8.65349 8.31976 8.29022 8.36686C8.13226 8.08418 7.97358 7.75434 7.81561 7.40885C7.73663 7.77008 7.68952 8.13161 7.61054 8.49284ZM12.2863 6.7653C11.5441 6.76529 10.8019 6.74954 10.0598 6.78092C10.66 7.2206 11.2603 7.6605 11.8605 8.11589C11.6394 8.82261 11.402 9.5292 11.1808 10.2516C11.7811 9.81189 12.3814 9.37203 12.9816 8.93229C13.5818 9.37197 14.1822 9.81195 14.7824 10.2516C14.5613 9.54499 14.3248 8.82252 14.1037 8.11589C14.704 7.67615 15.3042 7.23636 15.9045 6.78092C15.162 6.76522 14.4194 6.78092 13.6769 6.78092C13.44 6.04286 13.2028 5.33621 12.9816 4.62956C12.7447 5.33616 12.5232 6.04299 12.2863 6.7653Z"
                      fill="#E5EAFA" />
                  </g>
                  <defs>
                    <clipPath id="clip0_2090_56078">
                      <rect width="95" height="32" fill="white" transform="translate(0.647461)" />
                    </clipPath>
                  </defs>
                </svg>