 <svg xmlns="http://www.w3.org/2000/svg" width="69" height="24" viewBox="0 0 69 24" fill="none">
                  <g clip-path="url(#clip0_2090_56084)">
                    <path
                      d="M9.27455 13.6133V4.64282H12.1933V19.3576H9.51121L3.83139 10.3871V19.3576H0.912598V4.64282H3.55529L9.27455 13.6133Z"
                      fill="#E5EAFA" />
                    <path
                      d="M49.428 4.64282L55.1078 13.6133V4.64282H58.0266V19.3576H55.3839L49.6646 10.3871V19.3576H46.7458V4.64282H49.428Z"
                      fill="#E5EAFA" />
                    <path
                      d="M36.489 0.000244141V4.64287H45.2454V7.39697H38.54V10.5445H44.2987V13.2593L44.1804 13.3773H38.54V16.6035H45.2454V19.3576H36.489V24.0002L35.8137 23.9263V0.0742114L36.489 0.000244141Z"
                      fill="#E5EAFA" />
                    <path
                      d="M23.5531 4.64282V7.39692H16.8872L16.7689 7.51495V10.5445H22.5276V13.3772H16.7689V16.4854L16.8872 16.6035H23.5531V19.3576H13.8501V4.64282H23.5531Z"
                      fill="#E5EAFA" />
                    <path
                      d="M68.9125 4.64282V7.47561H65.6387L65.5204 7.59364V19.3576H62.6016V7.47561H59.2095V4.64282H68.9125Z"
                      fill="#E5EAFA" />
                    <path d="M34.4386 4.64282V7.47561H31.0465V19.3576H28.1277V7.47561H24.7356V4.64282H34.4386Z"
                      fill="#E5EAFA" />
                  </g>
                  <defs>
                    <clipPath id="clip0_2090_56084">
                      <rect width="68" height="24" fill="white" transform="translate(0.917969)" />
                    </clipPath>
                  </defs>
                </svg>