 <svg xmlns="http://www.w3.org/2000/svg" width="88" height="16" viewBox="0 0 88 16" fill="none">
                  <g clip-path="url(#clip0_2090_56033)">
                    <path
                      d="M87.9997 8.38216V14.3807H85.501V8.18628C85.501 8.15342 85.2165 7.66044 85.1651 7.60654C84.654 7.05835 83.4395 7.06624 82.881 7.54476C82.5083 7.86289 82.0815 9.03288 82.0815 9.49037V14.3807H79.7145V5.38355H82.0815L82.1487 6.55749L82.8758 5.71483C84.3352 4.71311 86.535 4.94316 87.4504 6.51543L87.9997 8.38347V8.38216Z"
                      fill="#E5EAFA" />
                    <path
                      d="M24.2083 1.60132V3.68759H17.368V6.81765H21.9716V8.90392H17.368V12.2943H24.4704V14.3805H15.001V1.60132H24.2083Z"
                      fill="#E5EAFA" />
                    <path
                      d="M7.57062 7.33965C4.08002 7.05701 1.89609 5.48212 0.511706 2.34154C0.38262 2.04839 -0.111333 1.04666 0.0243391 0.835011C4.14983 -1.21182 9.13019 0.627304 10.5343 5.05356C10.6265 5.34409 11.1745 7.33965 10.728 7.33965C9.7203 7.33965 8.55457 7.41853 7.57194 7.33965H7.57062Z"
                      fill="#E5EAFA" />
                    <path
                      d="M10.7296 8.6438L10.9127 8.86071C10.727 14.3071 4.88123 17.7435 0.000976562 15.0814C0.817645 12.347 2.38249 9.93342 5.27112 9.09865C5.78879 8.94879 7.09414 8.6438 7.5736 8.6438H10.7296Z"
                      fill="#E5EAFA" />
                    <path
                      d="M37.4693 5.16126C43.9328 4.56312 44.4333 14.0138 38.4809 14.5094C31.8909 15.0576 31.5537 5.70945 37.4693 5.16126ZM37.5931 7.1095C35.0812 7.51439 35.1655 12.1405 37.4614 12.523C41.2365 13.1527 41.0613 6.54948 37.5931 7.1095Z"
                      fill="#E5EAFA" />
                    <path
                      d="M72.9764 5.15869C79.4149 4.4659 80.0683 13.8232 74.2409 14.4976C67.6114 15.264 67.0516 5.79628 72.9764 5.15869ZM75.0655 7.64329C74.8771 7.45662 74.3318 7.19238 74.0657 7.13585C70.2379 6.32343 70.4342 13.7509 74.3924 12.4311C76.0798 11.8684 76.1812 8.74624 75.0655 7.64329Z"
                      fill="#E5EAFA" />
                    <path
                      d="M50.7756 5.38388V11.0564C50.7756 11.1616 51.1865 11.9805 51.309 12.0923C51.8636 12.5984 52.9819 12.5984 53.543 12.1054C53.7656 11.9096 54.195 11.0485 54.195 10.7948V5.38257H56.5621V14.381H54.195V13.2084L53.3968 14.0471C51.5633 15.3946 48.4072 13.8039 48.4072 11.5783V5.38388H50.7742H50.7756Z"
                      fill="#E5EAFA" />
                    <path
                      d="M26.6435 5.38354L28.9434 11.3821L30.7862 5.38354H33.1532L29.9853 14.1743C29.6705 14.6055 28.3586 14.2781 27.8185 14.3899L24.2094 5.38354H26.6422H26.6435Z"
                      fill="#E5EAFA" />
                    <path
                      d="M61.5639 2.38354V5.18759C62.0196 5.58723 62.8218 5.30196 63.4053 5.38346V7.20944H61.5639V11.9696C61.5639 12.4074 62.9772 12.2956 63.2736 12.2956V14.3819H61.2346C60.9777 14.3819 59.9714 14.0191 59.7659 13.8166C59.5222 13.5761 59.1955 12.5441 59.1955 12.2299V7.20944H58.0114V5.38346H59.1955V3.55748L61.5625 2.38354H61.5639Z"
                      fill="#E5EAFA" />
                    <path d="M46.5659 1.47095H44.1989V14.3816H46.5659V1.47095Z" fill="#E5EAFA" />
                    <path d="M67.3471 5.38354H64.9801V14.382H67.3471V5.38354Z" fill="#E5EAFA" />
                    <path d="M67.3487 1.73169H64.85V3.94811H67.3487V1.73169Z" fill="#E5EAFA" />
                  </g>
                  <defs>
                    <clipPath id="clip0_2090_56033">
                      <rect width="88" height="16" fill="white" />
                    </clipPath>
                  </defs>
                </svg>