 <svg xmlns="http://www.w3.org/2000/svg" width="70" height="32" viewBox="0 0 70 32" fill="none">
                  <g clip-path="url(#clip0_2090_56048)">
                    <path
                      d="M58.1176 9.66997C49.3107 10.1375 44.4402 20.2093 49.6558 27.4062C54.2776 33.7841 63.8945 33.4624 68.0985 26.8081C72.9234 19.1714 67.0895 9.19406 58.1176 9.66997ZM66.7271 26.6932C62.7682 32.1711 54.5373 32.1711 50.5982 26.6716C46.0246 20.2859 50.2752 11.3569 58.0653 10.8768C66.4109 10.3626 71.6542 19.8745 66.7271 26.6932Z"
                      fill="#E5EAFA" />
                    <path
                      d="M57.9154 8.49979C56.2713 8.60001 54.7251 9.00403 53.2543 9.73233C53.1255 9.79582 52.5474 10.181 52.4705 10.1264C51.9322 8.55541 51.0007 7.00279 49.7478 5.90195C49.3399 5.54357 48.8676 5.2618 48.4382 4.9328C50.3384 5.01466 51.9374 6.06985 52.993 7.6083C52.5757 5.10438 52.0804 2.54904 52.3385 0C53.9617 2.01699 55.101 4.38343 56.0833 6.76824L56.2037 5.34208C56.4467 3.96104 57.2054 2.74004 58.3086 1.89001C57.4117 3.97731 57.3268 6.31279 57.9154 8.49979Z"
                      fill="#E5EAFA" />
                    <path
                      d="M28.2307 18.3125V24.2942H27.262C27.2563 24.2942 27.1835 24.2207 27.1835 24.2155V20.0965L25.553 24.2869C25.2881 24.258 24.7446 24.4049 24.6058 24.1746L22.9947 20.044V24.2155C22.9947 24.2207 22.9214 24.2942 22.9162 24.2942H21.9475V18.3125H23.2041L25.1153 22.983L27.0526 18.3125H28.2307Z"
                      fill="#E5EAFA" />
                    <path
                      d="M21.3721 20.9885V22.1166C21.3721 22.8307 20.3846 23.8455 19.7479 24.1094C16.91 25.2843 14.6302 22.3574 15.8895 19.7181C16.9592 17.4761 20.7375 17.6754 21.2674 20.2014H20.2463C20.1966 20.2014 20.0835 19.9039 20.0332 19.8373C19.496 19.1221 18.5096 18.9473 17.7074 19.2837C16.7801 19.6725 16.511 20.7597 16.622 21.6821C16.9032 24.0313 20.2395 24.015 20.5343 21.7231H18.3352V20.9885H21.3721Z"
                      fill="#E5EAFA" />
                    <path
                      d="M9.39571 19.4786C9.16166 18.6763 8.41973 18.2807 7.627 18.2077C6.86883 18.1374 6.01275 18.2597 5.24463 18.2077V24.2944H6.23946V21.8807L6.90967 21.8917L8.4124 24.2944H9.48577L7.96734 21.8539C9.13339 21.6189 9.73239 20.6356 9.39571 19.4786ZM6.23946 21.1461V19.0997H7.627C7.66679 19.0997 7.94744 19.2131 8.00451 19.2461C8.5899 19.5819 8.61346 20.6518 8.00451 20.9997C7.94744 21.0322 7.66679 21.1461 7.627 21.1461H6.23946Z"
                      fill="#E5EAFA" />
                    <path
                      d="M45.5357 22.1953H46.5568C46.1876 24.4458 43.0151 25.0571 41.581 23.4294C40.4846 22.1848 40.5919 19.7769 41.9318 18.7411C43.5021 17.5264 46.197 18.2427 46.5568 20.3063H45.5357C45.0886 19.2391 43.8194 18.77 42.8031 19.3519C41.9145 19.8598 41.7423 21.1081 41.9868 22.0263C42.4627 23.8172 44.8493 23.8251 45.5357 22.1953Z"
                      fill="#E5EAFA" />
                    <path
                      d="M13.2499 18.3952C13.12 18.2157 12.3687 18.3595 12.1257 18.3086L9.8512 24.294H10.9508L11.4016 22.9791L13.8494 22.989C13.9918 23.0373 14.2243 24.1193 14.3803 24.294H15.4013L13.2499 18.3952ZM11.6838 22.1951L12.6524 19.4661L13.6211 22.1951H11.6838Z"
                      fill="#E5EAFA" />
                    <path
                      d="M32.2922 18.364C32.1906 18.2412 31.3968 18.3514 31.19 18.3084L28.9144 24.2942H29.9354C30.169 23.9049 30.2658 23.4148 30.4402 22.9898C31.2738 22.9924 32.1309 22.9463 32.9519 23.0134C33.1132 23.4332 33.2153 23.9128 33.4436 24.2942H34.4646L32.2922 18.364ZM30.747 22.1954L31.6638 19.5189L32.632 22.1954H30.747Z"
                      fill="#E5EAFA" />
                    <path
                      d="M2.60052 18.2075H0.270508V24.2942H1.26534V21.933H2.86232C2.88536 21.933 3.24611 21.8223 3.30633 21.8007C5.13264 21.1407 4.62737 18.2075 2.60052 18.2075ZM2.77435 21.0577C2.71204 21.0761 2.37747 21.1459 2.33872 21.1459H1.26534V19.0471H2.44344C2.46072 19.0471 2.74346 19.1116 2.78482 19.1247C3.63567 19.396 3.60426 20.8132 2.77435 21.0577Z"
                      fill="#E5EAFA" />
                    <path
                      d="M38.6018 18.2075V19.0471H36.9263V24.2942H35.9315V19.0471H34.256V18.2862C34.256 18.2805 34.3288 18.2075 34.3345 18.2075H38.6018Z"
                      fill="#E5EAFA" />
                    <path
                      d="M40.1169 18.2862V24.2942H39.1482C39.1425 24.2942 39.0697 24.2207 39.0697 24.2155V18.2862C39.0697 18.2805 39.1425 18.2075 39.1482 18.2075H40.0384C40.0436 18.2075 40.1169 18.2805 40.1169 18.2862Z"
                      fill="#E5EAFA" />
                    <path
                      d="M59.7506 16.4508C57.8809 15.3925 57.3997 12.6902 60.0554 12.4515C61.6063 12.3114 63.8672 13.3587 64.0441 15.086C64.2771 17.3523 61.1261 17.229 59.7506 16.4508Z"
                      fill="#E5EAFA" />
                    <path
                      d="M61.7897 18.3953C61.7635 18.3376 61.7216 18.3229 61.6635 18.3124C61.5462 18.2909 60.7048 18.2993 60.6414 18.3376L58.4685 24.0832L58.4434 24.2941H59.4906L59.9414 22.9786L62.4698 22.9876L62.8939 24.2941H63.9411L61.7897 18.3953ZM60.2236 22.1952L61.1922 19.4662L62.1609 22.1952H60.2236Z"
                      fill="#E5EAFA" />
                    <path
                      d="M53.4301 18.4788C53.3468 18.4353 52.8698 18.26 52.8112 18.26H50.167V24.2942H51.0833C51.0885 24.2942 51.1618 24.2207 51.1618 24.2155V21.933H52.7064C52.8159 21.933 53.2929 21.7609 53.4154 21.699C54.6034 21.0971 54.5961 19.0906 53.4301 18.4788ZM52.5787 21.0704C52.5289 21.0835 52.2075 21.1459 52.1828 21.1459H51.1618V19.0471H52.2876C52.3603 19.0471 52.7389 19.152 52.8216 19.194C53.5013 19.5398 53.4515 20.8369 52.5787 21.0704Z"
                      fill="#E5EAFA" />
                    <path
                      d="M67.7825 18.4148C67.3108 19.5917 66.4081 20.8369 65.874 22.0117V24.2155C65.874 24.2207 65.8007 24.2942 65.7955 24.2942H64.8792V22.1166C64.8792 21.9513 63.5278 19.5886 63.3335 19.2055C63.1765 18.897 63.0073 18.5859 62.8895 18.26H64.0414L65.4017 20.988L66.738 18.26H67.8113C67.8229 18.3219 67.804 18.3608 67.7825 18.4148Z"
                      fill="#E5EAFA" />
                    <path
                      d="M58.0233 23.4546V24.2942H55.0126C55.0069 24.2942 54.9341 24.2207 54.9341 24.2155V18.2862C54.9341 18.2805 55.0069 18.2075 55.0126 18.2075H55.9027C55.908 18.2075 55.9813 18.2805 55.9813 18.2862V23.4546H58.0233Z"
                      fill="#E5EAFA" />
                  </g>
                  <defs>
                    <clipPath id="clip0_2090_56048">
                      <rect width="69.5652" height="32" fill="white" transform="translate(0.270508)" />
                    </clipPath>
                  </defs>
                </svg>