<svg width="14" height="14" viewBox="0 0 14 14" fill="none" xmlns="http://www.w3.org/2000/svg">
<path d="M4.49996 0.803467C2.38629 0.803467 0.666626 2.52313 0.666626 4.6368V9.6368C0.666626 11.7505 2.38629 13.4701 4.49996 13.4701H9.49996C11.6136 13.4701 13.3333 11.7505 13.3333 9.6368V4.6368C13.3333 2.52313 11.6136 0.803467 9.49996 0.803467H4.49996ZM10.3333 3.1368C10.7016 3.1368 11 3.43513 11 3.80347C11 4.17147 10.7016 4.47013 10.3333 4.47013C9.96496 4.47013 9.66663 4.17147 9.66663 3.80347C9.66663 3.43513 9.96496 3.1368 10.3333 3.1368ZM6.99996 3.80347C8.83796 3.80347 10.3333 5.2988 10.3333 7.1368C10.3333 8.9748 8.83796 10.4701 6.99996 10.4701C5.16196 10.4701 3.66663 8.9748 3.66663 7.1368C3.66663 5.2988 5.16196 3.80347 6.99996 3.80347ZM6.99996 4.80347C6.69354 4.80347 6.39012 4.86382 6.10703 4.98108C5.82394 5.09834 5.56671 5.27021 5.35004 5.48688C5.13337 5.70355 4.9615 5.96078 4.84424 6.24387C4.72698 6.52697 4.66663 6.83038 4.66663 7.1368C4.66663 7.44322 4.72698 7.74663 4.84424 8.02973C4.9615 8.31282 5.13337 8.57005 5.35004 8.78672C5.56671 9.00339 5.82394 9.17526 6.10703 9.29252C6.39012 9.40978 6.69354 9.47013 6.99996 9.47013C7.30638 9.47013 7.60979 9.40978 7.89289 9.29252C8.17598 9.17526 8.4332 9.00339 8.64987 8.78672C8.86654 8.57005 9.03842 8.31282 9.15568 8.02973C9.27294 7.74663 9.33329 7.44322 9.33329 7.1368C9.33329 6.83038 9.27294 6.52697 9.15568 6.24387C9.03842 5.96078 8.86654 5.70355 8.64987 5.48688C8.4332 5.27021 8.17598 5.09834 7.89289 4.98108C7.60979 4.86382 7.30638 4.80347 6.99996 4.80347Z" fill="#E5EAFA"/>
</svg>
