<svg width="232" height="32" viewBox="0 0 232 32" fill="none" xmlns="http://www.w3.org/2000/svg">
<g clip-path="url(#clip0_50658_229)">
<path fill-rule="evenodd" clip-rule="evenodd" d="M67.6292 15.5018H74.7927L72.3779 27.5657C70.9054 28.6834 69.19 29.5365 67.239 30.1211C65.288 30.7057 63.234 30.9999 61.0769 30.9999C58.1835 30.9999 55.6509 30.4741 53.4827 29.4262C51.3146 28.3783 49.636 26.8965 48.447 24.9882C47.258 23.0799 46.6653 20.8848 46.6653 18.4029C46.6653 15.1047 47.431 12.1521 48.9587 9.5489C50.4863 6.94566 52.6287 4.90866 55.3859 3.43422C58.143 1.96347 61.3088 1.22441 64.8831 1.22441C70.5594 1.22441 74.7227 2.98197 77.3694 6.50075L71.557 11.0822C70.6293 9.93865 69.606 9.12605 68.4869 8.64806C67.3679 8.17006 66.0427 7.93106 64.515 7.93106C62.5788 7.93106 60.8781 8.36126 59.4167 9.21798C57.9553 10.0747 56.8289 11.255 56.0374 12.7551C55.246 14.2553 54.8484 15.9577 54.8484 17.866C54.8484 19.7743 55.4889 21.3885 56.7737 22.5467C58.0547 23.7049 59.8584 24.2859 62.1775 24.2859C63.569 24.2859 64.839 24.0542 65.9838 23.591L67.6219 15.4944L67.6292 15.5018ZM89.4103 8.05976L88.468 12.8838H101.201L100.012 18.936H87.2385L86.2151 24.1719H101.241L99.9309 30.43H76.9608L82.696 1.80168H105.132L103.862 8.05976H89.4103ZM143.453 1.80168L137.802 30.43H130.311L133.26 15.34L123.722 27.6098H120.159L114.957 15.34L111.928 30.43H104.477L110.209 1.80168H116.801L123.516 18.3624L136.532 1.80168H143.453Z" fill="#E5EAFA"/>
<path fill-rule="evenodd" clip-rule="evenodd" d="M168.631 15.6672C169.861 16.2114 170.807 16.9689 171.477 17.9359C172.147 18.9029 172.478 20.0427 172.478 21.3517C172.478 24.3226 171.263 26.5803 168.834 28.1209C166.404 29.6615 163.239 30.43 159.337 30.43H143.574L149.306 1.80168H163.798C167.019 1.80168 169.482 2.38263 171.19 3.54085C172.894 4.69907 173.748 6.35735 173.748 8.50833C173.748 10.1703 173.299 11.608 172.397 12.8213C171.495 14.0347 170.24 14.9833 168.631 15.6636V15.6672ZM156.145 7.65162L155.041 13.1706H160.853C162.3 13.1706 163.397 12.8912 164.148 12.3323C164.899 11.7734 165.274 10.9608 165.274 9.8982C165.274 8.39803 164.14 7.64794 161.877 7.64794H156.145V7.65162ZM159.789 24.5837C161.236 24.5837 162.37 24.2969 163.187 23.7233C164.004 23.1497 164.417 22.304 164.417 21.1863C164.417 20.37 164.115 19.7633 163.515 19.3662C162.915 18.9691 162.094 18.7742 161.059 18.7742H153.896L152.751 24.58H159.793L159.789 24.5837ZM187.508 8.06343L186.566 12.8875H199.299L198.11 18.9397H185.336L184.313 24.1756H199.339L198.029 30.4336H175.059L180.79 1.80536H203.226L201.956 8.06343H187.504H187.508ZM213.095 8.22521H204.294L205.604 1.80536H231.276L229.966 8.22521H221.205L216.743 30.43H208.638L213.099 8.22521H213.095Z" fill="#E5EAFA"/>
<path fill-rule="evenodd" clip-rule="evenodd" d="M7.28126 9.49374L3.58543 13.7148L0.0847017 9.71435C-0.0257314 9.58934 -0.0257314 9.39814 0.0847017 9.27312L8.10583 0.113984C8.16841 0.0404458 8.26043 0 8.35982 0H23.6511L27.369 5.27266C27.4095 5.32782 27.4316 5.39768 27.4316 5.46754C27.4316 5.65138 27.2807 5.80214 27.0966 5.80214H10.6053C10.5059 5.80214 10.4139 5.84626 10.3513 5.9198L7.28494 9.49374H7.28126ZM19.6903 23.7343L23.5186 27.9554H23.3861L19.9443 31.886C19.9443 31.886 19.9222 31.9081 19.9111 31.9191C19.7712 32.0404 19.5577 32.0257 19.4363 31.886L3.71795 13.8472L7.95858 10.7329C8.09846 10.6299 8.29725 10.652 8.41136 10.7843L19.1639 23.0799L19.6903 23.738V23.7343ZM31.7827 9.85775C31.9667 9.64817 31.9667 9.33563 31.7827 9.12605L28.9298 5.80214L23.9162 0H31.0244C31.1201 0 31.2121 0.0404458 31.2784 0.113984L39.1743 9.12605C39.3584 9.33563 39.3584 9.65184 39.1743 9.86143L23.6548 27.6907L20.7467 22.8887C20.6694 22.7636 20.6842 22.6055 20.7799 22.4952L31.7864 9.85775H31.7827ZM14.3563 10.2843H25.0279C25.2119 10.2843 25.3628 10.435 25.3628 10.6189C25.3628 10.6998 25.3334 10.777 25.2819 10.8395L19.9479 16.9799C19.8265 17.1196 19.613 17.1343 19.4731 17.013C19.462 17.002 19.451 16.9909 19.4399 16.9799L14.106 10.8395C13.9845 10.6998 13.9993 10.4865 14.1392 10.3652C14.2017 10.3137 14.279 10.2843 14.36 10.2843H14.3563Z" fill="#E5EAFA"/>
</g>
<defs>
<clipPath id="clip0_50658_229">
<rect width="231.273" height="32" fill="white"/>
</clipPath>
</defs>
</svg>
