<svg width="67" height="33" viewBox="0 0 67 33" fill="none" xmlns="http://www.w3.org/2000/svg">
<g clip-path="url(#clip0_50676_1085)">
<path d="M37.9614 29.3052C38.1146 29.3052 38.263 29.3229 38.4038 29.3589C38.5446 29.3949 38.6706 29.4515 38.7817 29.5337C38.8905 29.6134 38.9792 29.7169 39.0435 29.8403C39.1077 29.9637 39.1401 30.1151 39.1401 30.2925H38.5122C38.5072 30.2 38.4872 30.125 38.4575 30.0659C38.4279 30.007 38.3833 29.9586 38.3315 29.9253C38.2796 29.8919 38.2201 29.8659 38.1509 29.853C38.0818 29.8402 38.0101 29.8325 37.9312 29.8325C37.8794 29.8325 37.8276 29.8373 37.7759 29.8501C37.724 29.8604 37.6768 29.8814 37.6323 29.9097C37.5903 29.9379 37.555 29.9734 37.5278 30.0171C37.5007 30.0607 37.4859 30.115 37.4858 30.1792C37.4858 30.2381 37.496 30.2872 37.5181 30.3257C37.5403 30.3643 37.5831 30.3983 37.6499 30.4292C37.7141 30.46 37.8031 30.4931 37.9165 30.5239C38.0302 30.5548 38.1784 30.5962 38.3638 30.645C38.4181 30.6553 38.495 30.6757 38.5913 30.7065C38.6877 30.7374 38.7869 30.7842 38.8833 30.8511C38.9796 30.9179 39.0641 31.0053 39.1333 31.1157C39.2024 31.2263 39.2368 31.368 39.2368 31.5376C39.2368 31.6763 39.2096 31.8075 39.1577 31.9282C39.1058 32.0491 39.0266 32.1523 38.9253 32.2397C38.8216 32.327 38.6955 32.3941 38.5425 32.4429C38.3893 32.4917 38.2133 32.5141 38.0132 32.5142C37.85 32.5142 37.6938 32.4938 37.5405 32.4526C37.3873 32.4115 37.2534 32.3473 37.1372 32.2573C37.0211 32.1674 36.9275 32.0562 36.8608 31.9175C36.7917 31.7812 36.7597 31.6168 36.7622 31.4292H37.3872C37.3872 31.5321 37.4048 31.6199 37.4419 31.6919V31.6841C37.4765 31.756 37.5262 31.8123 37.5854 31.856C37.6447 31.8996 37.7136 31.933 37.7925 31.9536C37.8716 31.9742 37.9565 31.9849 38.0405 31.9849C38.0972 31.9848 38.1587 31.9795 38.2251 31.9692C38.2918 31.959 38.3538 31.9408 38.4106 31.9126C38.4675 31.8843 38.5171 31.8458 38.5542 31.7944C38.5938 31.7456 38.6108 31.6812 38.6108 31.604C38.6108 31.5219 38.5864 31.4552 38.5347 31.4038C38.4828 31.3524 38.4185 31.3083 38.3345 31.2749C38.2529 31.2415 38.1589 31.2108 38.0552 31.1851C37.9514 31.1594 37.845 31.1309 37.7388 31.1001C37.6301 31.0718 37.5212 31.0357 37.4175 30.9946C37.3136 30.9535 37.2188 30.8997 37.1372 30.8354C37.0557 30.7686 36.9889 30.686 36.937 30.5884C36.8851 30.4907 36.8608 30.3697 36.8608 30.231C36.8608 30.0741 36.8932 29.9375 36.9575 29.8218C37.0218 29.7063 37.1053 29.6082 37.2114 29.5337C37.3152 29.4566 37.4341 29.4004 37.5649 29.3618C37.696 29.3258 37.8304 29.3052 37.9614 29.3052ZM50.2544 29.3052C50.4075 29.3052 50.556 29.3229 50.6968 29.3589C50.8375 29.3949 50.9636 29.4515 51.0747 29.5337C51.1835 29.6134 51.2721 29.7169 51.3364 29.8403C51.4007 29.9637 51.4331 30.1151 51.4331 30.2925H50.8052C50.8002 30.2 50.7801 30.125 50.7505 30.0659C50.7208 30.007 50.6763 29.9586 50.6245 29.9253C50.5726 29.8919 50.5131 29.8659 50.4438 29.853C50.3748 29.8402 50.3031 29.8325 50.2241 29.8325C50.1724 29.8325 50.1206 29.8373 50.0688 29.8501C50.0169 29.8604 49.9698 29.8814 49.9253 29.9097C49.8833 29.9379 49.848 29.9734 49.8208 30.0171C49.7936 30.0607 49.7789 30.115 49.7788 30.1792C49.7788 30.2381 49.789 30.2872 49.811 30.3257C49.8333 30.3643 49.8761 30.3983 49.9429 30.4292C50.0071 30.46 50.096 30.4931 50.2095 30.5239C50.3232 30.5548 50.4714 30.5962 50.6567 30.645C50.7111 30.6553 50.7879 30.6757 50.8843 30.7065C50.9807 30.7374 51.0798 30.7842 51.1763 30.8511C51.2726 30.9179 51.3571 31.0053 51.4263 31.1157C51.4954 31.2263 51.5298 31.368 51.5298 31.5376C51.5297 31.6763 51.5026 31.8075 51.4507 31.9282C51.3988 32.0491 51.3196 32.1523 51.2183 32.2397C51.1145 32.327 50.9885 32.3941 50.8354 32.4429C50.6822 32.4917 50.5063 32.5141 50.3062 32.5142C50.143 32.5142 49.9868 32.4938 49.8335 32.4526C49.6803 32.4115 49.5463 32.3473 49.4302 32.2573C49.3141 32.1674 49.2205 32.0562 49.1538 31.9175C49.0847 31.7812 49.0527 31.6168 49.0552 31.4292H49.6802C49.6802 31.5321 49.6978 31.6199 49.7349 31.6919V31.6841C49.7695 31.756 49.8191 31.8123 49.8784 31.856C49.9376 31.8996 50.0065 31.933 50.0854 31.9536C50.1646 31.9742 50.2494 31.9849 50.3335 31.9849C50.3901 31.9848 50.4516 31.9795 50.5181 31.9692C50.5847 31.959 50.6468 31.9408 50.7036 31.9126C50.7604 31.8843 50.8101 31.8458 50.8472 31.7944C50.8867 31.7456 50.9038 31.6812 50.9038 31.604C50.9038 31.5219 50.8794 31.4552 50.8276 31.4038C50.7757 31.3524 50.7114 31.3083 50.6274 31.2749C50.5459 31.2415 50.4519 31.2108 50.3481 31.1851C50.2444 31.1594 50.138 31.1309 50.0317 31.1001C49.9231 31.0718 49.8142 31.0357 49.7104 30.9946C49.6066 30.9535 49.5118 30.8997 49.4302 30.8354C49.3487 30.7686 49.2819 30.686 49.23 30.5884C49.1781 30.4907 49.1538 30.3697 49.1538 30.231C49.1538 30.0741 49.1862 29.9375 49.2505 29.8218C49.3147 29.7063 49.3982 29.6082 49.5044 29.5337C49.6081 29.4566 49.727 29.4004 49.8579 29.3618C49.9889 29.3258 50.1234 29.3052 50.2544 29.3052ZM40.9429 29.3101C41.1057 29.3101 41.2587 29.3336 41.4019 29.3823C41.5453 29.4312 41.6768 29.501 41.7905 29.5962C41.9041 29.6887 41.9986 29.8038 42.0728 29.9399C42.1469 30.0762 42.1936 30.2333 42.2134 30.4106H41.5874C41.5775 30.3336 41.5502 30.2619 41.5132 30.1978L41.5112 30.1948C41.4717 30.1305 41.4245 30.0738 41.3677 30.0249C41.3108 29.9761 41.244 29.9373 41.1724 29.9116C41.1008 29.8834 41.0242 29.8706 40.9429 29.8706C40.797 29.8706 40.6731 29.8994 40.5718 29.9585C40.4705 30.0176 40.3865 30.0946 40.3247 30.1948C40.2604 30.2925 40.2157 30.4058 40.186 30.5317C40.1564 30.6577 40.1441 30.7887 40.144 30.9224C40.144 31.0561 40.1588 31.1775 40.186 31.2983C40.2157 31.4191 40.2605 31.5298 40.3247 31.6274C40.3865 31.725 40.4705 31.8018 40.5718 31.8608C40.6731 31.92 40.797 31.9487 40.9429 31.9487C41.1405 31.9486 41.2965 31.8871 41.4077 31.7612C41.5189 31.6353 41.588 31.4706 41.6128 31.2651H42.2378C42.2205 31.455 42.1789 31.6297 42.1099 31.7837C42.0407 31.9379 41.9511 32.0693 41.8374 32.1772C41.7237 32.2852 41.5927 32.3707 41.4419 32.4272C41.2912 32.4838 41.1256 32.5122 40.9429 32.5122C40.718 32.5122 40.5149 32.4708 40.3345 32.3911C40.154 32.3088 40.003 32.1982 39.8794 32.0542C39.7558 31.9103 39.662 31.7431 39.5952 31.5503C39.5285 31.3575 39.4966 31.149 39.4966 30.9253C39.4966 30.7016 39.5285 30.4856 39.5952 30.2876C39.662 30.0922 39.7558 29.9199 39.8794 29.7759C40.003 29.6293 40.154 29.5164 40.3345 29.4341C40.5149 29.3518 40.7179 29.3101 40.9429 29.3101ZM3.23291 29.3081C3.45775 29.3081 3.66533 29.349 3.84326 29.4312C4.02127 29.5134 4.17277 29.6289 4.29639 29.7729C4.41997 29.9195 4.51381 30.0893 4.58057 30.2847C4.64729 30.48 4.67917 30.6936 4.6792 30.9224C4.6792 31.1512 4.64728 31.3546 4.58057 31.5474C4.51386 31.7401 4.41989 31.9073 4.29639 32.0513C4.17277 32.1953 4.02128 32.3059 3.84326 32.3882C3.66531 32.4704 3.46027 32.5093 3.23291 32.5093C3.00548 32.5093 2.80498 32.4679 2.62451 32.3882C2.44416 32.3059 2.29298 32.1952 2.16943 32.0513C2.04597 31.9073 1.95195 31.7401 1.88525 31.5474C1.81855 31.3546 1.78662 31.146 1.78662 30.9224C1.78665 30.6987 1.81853 30.4826 1.88525 30.2847C1.952 30.0893 2.04587 29.9169 2.16943 29.7729C2.29301 29.6264 2.44412 29.5134 2.62451 29.4312C2.80498 29.3489 3.00795 29.3081 3.23291 29.3081ZM20.0288 29.3081C20.1794 29.3081 20.325 29.3312 20.4683 29.3774C20.6092 29.4237 20.7383 29.4929 20.8521 29.5854C20.9657 29.678 21.0592 29.7891 21.1333 29.9253C21.2074 30.059 21.2527 30.2134 21.27 30.3882H20.6519C20.6123 30.2161 20.5378 30.0873 20.4292 30.0024C20.3205 29.9177 20.1869 29.8736 20.0288 29.8735C19.8831 29.8735 19.759 29.9014 19.6577 29.9604C19.5563 30.0196 19.4725 30.0975 19.4106 30.1978C19.3464 30.2955 19.3016 30.4087 19.272 30.5347C19.2423 30.6606 19.23 30.7917 19.23 30.9253C19.23 31.0589 19.2448 31.1796 19.272 31.3003C19.3016 31.4211 19.3464 31.5317 19.4106 31.6294C19.4725 31.7271 19.5563 31.8046 19.6577 31.8638C19.7591 31.9229 19.883 31.9517 20.0288 31.9517C20.2435 31.9516 20.4088 31.8946 20.5249 31.7817C20.6411 31.6686 20.7112 31.5039 20.731 31.2905H20.0806V30.7886H21.3169V32.4448H20.9038L20.8364 32.0981C20.7203 32.2522 20.5944 32.3597 20.4536 32.4214V32.4165C20.3128 32.4782 20.1721 32.5092 20.0288 32.5093C19.8039 32.5093 19.6009 32.4679 19.4204 32.3882C19.2399 32.3059 19.089 32.1953 18.9653 32.0513C18.8418 31.9073 18.7479 31.7402 18.6812 31.5474C18.6144 31.3545 18.5825 31.1461 18.5825 30.9224C18.5825 30.6987 18.6144 30.4826 18.6812 30.2847C18.7479 30.0894 18.8418 29.9169 18.9653 29.7729C19.0889 29.6265 19.24 29.5134 19.4204 29.4312C19.6008 29.3489 19.8039 29.3081 20.0288 29.3081ZM33.9907 29.3081C34.1413 29.3081 34.2869 29.3312 34.4302 29.3774C34.5711 29.4237 34.7002 29.4929 34.814 29.5854C34.9276 29.678 35.0211 29.7891 35.0952 29.9253C35.1693 30.059 35.2146 30.2134 35.2319 30.3882H34.6138C34.5743 30.2161 34.4997 30.0873 34.3911 30.0024C34.2824 29.9177 34.1488 29.8736 33.9907 29.8735C33.845 29.8735 33.7209 29.9014 33.6196 29.9604C33.5183 30.0196 33.4344 30.0975 33.3726 30.1978C33.3083 30.2955 33.2636 30.4087 33.2339 30.5347C33.2043 30.6606 33.1919 30.7917 33.1919 30.9253C33.1919 31.0589 33.2067 31.1796 33.2339 31.3003C33.2635 31.4211 33.3083 31.5317 33.3726 31.6294C33.4344 31.7271 33.5183 31.8046 33.6196 31.8638C33.721 31.9229 33.8449 31.9517 33.9907 31.9517C34.2054 31.9516 34.3707 31.8946 34.4868 31.7817C34.603 31.6686 34.6731 31.5039 34.6929 31.2905H34.0425V30.7886H35.2788V32.4448H34.8657L34.7983 32.0981C34.6823 32.2522 34.5563 32.3597 34.4155 32.4214V32.4165C34.2747 32.4782 34.134 32.5092 33.9907 32.5093C33.7658 32.5093 33.5628 32.4679 33.3823 32.3882C33.2018 32.3059 33.0509 32.1953 32.9272 32.0513C32.8037 31.9073 32.7098 31.7402 32.6431 31.5474C32.5763 31.3545 32.5444 31.1461 32.5444 30.9224C32.5445 30.6987 32.5763 30.4826 32.6431 30.2847C32.7098 30.0894 32.8037 29.9169 32.9272 29.7729C33.0508 29.6265 33.2019 29.5134 33.3823 29.4312C33.5628 29.3489 33.7658 29.3081 33.9907 29.3081ZM6.99365 31.4321H7.00146V29.3774H7.60693V32.4399H6.95947L5.73486 30.3901H5.72803V32.4399H5.12256V29.3774H5.76514L6.99365 31.4321ZM11.2681 32.4399H10.6206V29.3774H11.2681V32.4399ZM13.7095 31.4321H13.7163V29.3774H14.3218V32.4399H13.6743L12.4507 30.3901H12.4429V32.4399H11.8374V29.3774H12.48L13.7095 31.4321ZM24.4067 32.4399H23.7349L23.5122 31.7583H22.4116L22.1821 32.4399H21.5317L22.644 29.3774H23.3071L24.4067 32.4399ZM26.2612 31.4829H26.269L26.9194 29.3774H27.8286V32.4399H27.2231V30.269H27.2153L26.4937 32.4399H25.9946L25.272 30.2925H25.2651V32.4399H24.6597V29.3774H25.5737L26.2612 31.4829ZM29.0474 32.4399H28.3999V29.3774H29.0474V32.4399ZM31.4907 31.4321H31.4985V29.3774H32.104V32.4399H31.4565L30.2319 30.3901H30.2251V32.4399H29.6196V29.3774H30.2622L31.4907 31.4321ZM45.2446 32.4399H44.5718L44.3491 31.7583H43.2495L43.019 32.4399H42.3696L43.4819 29.3774H44.144L45.2446 32.4399ZM47.0991 31.4829H47.1069L47.7573 29.3774H48.6665V32.4399H48.061V30.269H48.0532L47.3315 32.4399H46.8325L46.1099 30.2925H46.103V32.4399H45.4976V29.3774H46.4116L47.0991 31.4829ZM52.563 30.5522H53.7544V29.3774H54.4019V32.4399H53.7544V31.1177H52.563V32.4399H51.9155V29.3774H52.563V30.5522ZM55.6187 32.4399H54.9712V29.3774H55.6187V32.4399ZM8.82373 31.8716H10.2573V32.437H8.17627V29.3745H8.82373V31.8716ZM17.0933 29.3774V29.9429H15.5386V30.5991H16.9653V31.1206H15.5386V31.8716H17.1255V32.437H14.8911V29.3745H17.0913L17.0933 29.3774ZM58.3882 29.3774V29.9429H56.8325V30.5991H58.2593V31.1206H56.8325V31.8716H58.4204V32.437H56.1851V29.3745H58.3853L58.3882 29.3774ZM59.5054 31.8716H60.9399V32.437H58.8579V29.3745H59.5054V31.8716ZM62.5737 29.3774C62.764 29.3774 62.9399 29.4079 63.103 29.4722C63.2662 29.5339 63.4077 29.6294 63.5288 29.7554C63.6474 29.8813 63.7414 30.0385 63.8081 30.2261C63.8748 30.4137 63.9087 30.6348 63.9087 30.8892C63.9087 31.1128 63.882 31.3187 63.8276 31.5063C63.7733 31.694 63.6888 31.8584 63.5776 31.9946C63.4664 32.1309 63.3282 32.2391 63.1626 32.3188C62.9969 32.3986 62.8012 32.437 62.5737 32.437H61.3032V29.3745H62.5737V29.3774ZM3.23291 29.8706C3.08707 29.8706 2.96317 29.8994 2.86182 29.9585C2.76059 30.0176 2.67897 30.0946 2.61475 30.1948C2.55046 30.2925 2.50574 30.4057 2.47607 30.5317C2.44643 30.6576 2.43215 30.7888 2.43213 30.9224C2.43213 31.0561 2.44641 31.1775 2.47607 31.2983C2.50574 31.4191 2.55049 31.5298 2.61475 31.6274C2.67893 31.725 2.76066 31.8017 2.86182 31.8608C2.96317 31.92 3.08707 31.9487 3.23291 31.9487C3.37878 31.9487 3.50263 31.92 3.604 31.8608C3.70519 31.8017 3.78687 31.725 3.85107 31.6274C3.91533 31.5298 3.96008 31.4217 3.98975 31.2983C4.01942 31.1749 4.03369 31.0509 4.03369 30.9224C4.03367 30.7939 4.01939 30.6576 3.98975 30.5317C3.96008 30.4057 3.91536 30.2925 3.85107 30.1948C3.78684 30.0972 3.70526 30.0176 3.604 29.9585C3.50263 29.8994 3.37878 29.8706 3.23291 29.8706ZM61.9507 31.8745H62.5269L62.5298 31.8716C62.6235 31.8716 62.7149 31.8564 62.8013 31.8257C62.8903 31.7948 62.9674 31.7405 63.0366 31.6685C63.1057 31.5965 63.1597 31.5014 63.2017 31.3833C63.2437 31.265 63.2642 31.1233 63.2642 30.9536C63.2642 30.7993 63.2494 30.6601 63.2222 30.5366C63.1925 30.4134 63.1452 30.3056 63.0786 30.2183C63.0119 30.1308 62.9247 30.0614 62.8159 30.0151C62.7072 29.969 62.574 29.9458 62.4136 29.9458H61.9507V31.8745ZM22.5825 31.2544H23.3442L22.9731 30.1304H22.9653L22.5825 31.2544ZM43.4194 31.2544H44.1812L43.811 30.1304H43.8032L43.4194 31.2544ZM57.0972 0.512207C58.2197 0.512207 59.2981 0.643108 60.3315 0.902832C61.3647 1.16253 62.2816 1.58687 63.0825 2.17041C63.8836 2.75415 64.5219 3.49997 64.9917 4.40771C65.4614 5.31536 65.6987 6.41583 65.6987 7.70654H61.1274C61.0879 7.04078 60.952 6.48796 60.7222 6.04834C60.4922 5.61118 60.185 5.26653 59.8042 5.01709C59.4235 4.76774 58.9885 4.59027 58.4966 4.48486C58.0046 4.38202 57.4682 4.32764 56.8872 4.32764C56.5065 4.32764 56.1254 4.36875 55.7446 4.45361C55.364 4.5359 55.018 4.68288 54.7065 4.89111C54.395 5.09941 54.1402 5.35961 53.9399 5.67334C53.7398 5.98699 53.6382 6.38274 53.6382 6.86084C53.6382 7.29797 53.7177 7.65272 53.8784 7.92529C54.0391 8.19781 54.3551 8.44745 54.8247 8.67627C55.2945 8.90514 55.9476 9.13429 56.7808 9.36572C57.6115 9.59459 58.6995 9.88781 60.0444 10.2427C60.445 10.3275 61.0014 10.4763 61.7134 10.6948C62.4254 10.9134 63.1323 11.2638 63.8345 11.7446C64.5365 12.2254 65.1421 12.8654 65.6538 13.6675C66.1656 14.4698 66.4204 15.4988 66.4204 16.7485C66.4204 17.7694 66.2308 18.7184 65.8501 19.5952C65.4694 20.4721 64.9025 21.2276 64.1509 21.8628C63.3993 22.4979 62.4674 22.9943 61.355 23.3491C60.2425 23.704 58.9542 23.8813 57.4907 23.8813C56.3065 23.8813 55.1589 23.73 54.0464 23.4292C52.9338 23.1283 51.9521 22.6524 51.0991 22.0044C50.2462 21.359 49.5707 20.5339 49.0688 19.5337C48.5669 18.5334 48.3274 17.3421 48.3472 15.9663H52.9185C52.9185 16.717 53.0496 17.3526 53.3091 17.8745V17.8696C53.5687 18.3916 53.9155 18.8132 54.3481 19.1372C54.7782 19.4611 55.2849 19.7001 55.8657 19.8569C56.4466 20.0138 57.0475 20.0913 57.6704 20.0913C58.0906 20.0913 58.5434 20.0555 59.0229 19.981C59.505 19.909 59.9552 19.7673 60.3755 19.5591C60.7957 19.3508 61.1474 19.0658 61.4292 18.7007C61.7086 18.3355 61.8491 17.8722 61.8491 17.3091C61.8491 16.7048 61.6633 16.2138 61.2925 15.8384C60.9217 15.4631 60.4351 15.1493 59.8345 14.8999C59.2337 14.6505 58.5511 14.4314 57.7896 14.2437C57.0281 14.0559 56.2568 13.8475 55.4731 13.6187C54.6721 13.4104 53.8879 13.1564 53.1265 12.853C52.365 12.5522 51.6823 12.1585 51.0815 11.6802C50.4808 11.2019 49.9944 10.5997 49.6235 9.88232C49.2527 9.16235 49.0669 8.29339 49.0669 7.27002C49.0669 6.12314 49.3017 5.12776 49.7739 4.28174C50.2462 3.43571 50.862 2.73357 51.6235 2.17041C52.385 1.60733 53.2478 1.19102 54.2095 0.918457C55.1712 0.648453 56.1354 0.512213 57.0972 0.512207ZM35.2935 0.509277C36.396 0.509318 37.4642 0.681336 38.4976 1.02588C39.531 1.37045 40.4628 1.87748 41.2935 2.54346C42.1241 3.21197 42.8116 4.03458 43.353 5.01416C43.8945 5.99391 44.2256 7.12114 44.3442 8.39404H39.8325C39.5507 7.14183 39.0094 6.20252 38.2085 5.57764C37.4074 4.95276 36.4328 4.63916 35.2905 4.63916C34.2274 4.63917 33.3252 4.85293 32.5835 5.27979C31.8419 5.70658 31.2411 6.27966 30.7788 6.99951C30.3165 7.71951 29.9826 8.53758 29.77 9.45557C29.5599 10.3736 29.4536 11.3225 29.4536 12.3022C29.4536 13.282 29.5599 14.154 29.77 15.0386C29.9802 15.9256 30.3165 16.7225 30.7788 17.4321C31.2387 18.1419 31.8418 18.7103 32.5835 19.1372C33.3252 19.564 34.2275 19.7778 35.2905 19.7778C36.8556 19.7778 38.0625 19.3663 38.9155 18.5435C39.7684 17.7206 40.2629 16.5247 40.4038 14.9614H35.6519V11.3022H44.6733V23.3774H41.6665L41.1851 20.8452C40.342 21.9715 39.4093 22.7581 38.3882 23.2056L38.3911 23.2026C37.3677 23.65 36.3367 23.8764 35.2935 23.8765C33.6493 23.8765 32.1707 23.5779 30.8579 22.9839C29.5451 22.3899 28.4371 21.5728 27.5347 20.5288C26.6323 19.4874 25.9401 18.2605 25.4604 16.854C24.9783 15.4474 24.7388 13.93 24.7388 12.3022C24.7388 10.6745 24.9783 9.0849 25.4604 7.65771C25.9425 6.23076 26.6324 4.98391 27.5347 3.91943C28.4371 2.85482 29.5451 2.02179 30.8579 1.41748C32.1707 0.813215 33.6494 0.509277 35.2935 0.509277ZM10.6899 0.506348C12.3341 0.506348 13.8372 0.810257 15.1401 1.41455C16.4431 2.01886 17.5463 2.85447 18.4487 3.9165C19.351 4.9784 20.0433 6.22529 20.5229 7.65479C21.0051 9.08454 21.2446 10.633 21.2446 12.2993C21.2446 13.9657 21.0051 15.4445 20.5229 16.8511C20.0408 18.2577 19.3511 19.4844 18.4487 20.5259C17.5463 21.5699 16.4431 22.3869 15.1401 22.981C13.8372 23.575 12.3539 23.8735 10.6899 23.8735C9.02604 23.8735 7.56723 23.575 6.25439 22.981C4.94166 22.3869 3.83353 21.5698 2.93115 20.5259C2.02875 19.4844 1.33657 18.2576 0.856934 16.8511C0.374811 15.4445 0.135254 13.9271 0.135254 12.2993C0.135256 10.6716 0.374813 9.08197 0.856934 7.65479C1.33899 6.22788 2.02894 4.98096 2.93115 3.9165C3.83353 2.85197 4.94165 2.01885 6.25439 1.41455C7.56723 0.810255 9.04582 0.506359 10.6899 0.506348ZM10.6948 4.63916C9.63185 4.63918 8.72944 4.85204 7.98779 5.27881C7.24609 5.70566 6.64544 6.27952 6.18311 6.99951C5.72076 7.71954 5.38694 8.53753 5.17432 9.45557C4.9642 10.3735 4.85791 11.3226 4.85791 12.3022C4.85793 13.2817 4.96424 14.1532 5.17432 15.0376C5.38447 15.9248 5.72076 16.7224 6.18311 17.4321C6.64296 18.1418 7.24612 18.7104 7.98779 19.1372C8.72945 19.564 9.63183 19.7768 10.6948 19.7769C11.7578 19.7769 12.6602 19.5639 13.4019 19.1372C14.1436 18.7103 14.7452 18.1419 15.2075 17.4321C15.6673 16.7224 16.0037 15.9247 16.2163 15.0376C16.4264 14.1507 16.5327 13.238 16.5327 12.3022C16.5327 11.3663 16.4264 10.3735 16.2163 9.45557C16.0062 8.53763 15.6698 7.71948 15.2075 6.99951C14.7452 6.27949 14.1436 5.70568 13.4019 5.27881C12.6602 4.85211 11.7578 4.63916 10.6948 4.63916Z" fill="#E5EAFA"/>
</g>
<defs>
<clipPath id="clip0_50676_1085">
<rect width="66.2857" height="32" fill="white" transform="translate(0.135254 0.509277)"/>
</clipPath>
</defs>
</svg>
