<svg width="33" height="33" viewBox="0 0 33 33" fill="none" xmlns="http://www.w3.org/2000/svg">
<path d="M16.9161 0.509277C19.076 0.509279 21.1711 0.932798 23.1437 1.76709C25.0489 2.57296 26.7603 3.72645 28.2296 5.1958C29.699 6.66518 30.8525 8.37646 31.6583 10.2817C32.4926 12.2543 32.9161 14.3495 32.9161 16.5093C32.9161 18.6691 32.4926 20.7643 31.6583 22.7368C30.8525 24.6421 29.699 26.3534 28.2296 27.8228C26.7603 29.2921 25.0489 30.4456 23.1437 31.2515C21.1711 32.0858 19.076 32.5093 16.9161 32.5093C14.7562 32.5093 12.6612 32.0858 10.6886 31.2515C8.78332 30.4456 7.07204 29.2921 5.60266 27.8228C4.13331 26.3534 2.97982 24.6421 2.17395 22.7368C1.33962 20.7643 0.91614 18.6692 0.916138 16.5093C0.916138 14.3494 1.33963 12.2543 2.17395 10.2817C2.97982 8.37645 4.13331 6.66518 5.60266 5.1958C7.07204 3.72646 8.78332 2.57296 10.6886 1.76709C12.6612 0.932804 14.7562 0.509277 16.9161 0.509277ZM16.9161 0.718262C14.7843 0.718262 12.7164 1.13607 10.7697 1.95947C8.88934 2.75482 7.20033 3.89302 5.75012 5.34326C4.29985 6.79347 3.16165 8.48248 2.36633 10.3628C1.54293 12.3096 1.12512 14.3775 1.12512 16.5093C1.12512 18.6411 1.54293 20.709 2.36633 22.6558C3.16165 24.5361 4.29986 26.2251 5.75012 27.6753C7.20033 29.1255 8.88933 30.2638 10.7697 31.0591C12.7164 31.8825 14.7843 32.3003 16.9161 32.3003C19.0479 32.3003 21.1159 31.8825 23.0626 31.0591C24.943 30.2638 26.6319 29.1255 28.0822 27.6753C29.5324 26.2251 30.6706 24.5361 31.4659 22.6558C32.2893 20.709 32.7072 18.6411 32.7072 16.5093C32.7072 14.3775 32.2893 12.3096 31.4659 10.3628C30.6706 8.48248 29.5324 6.79347 28.0822 5.34326C26.6319 3.89304 24.943 2.75482 23.0626 1.95947C21.1159 1.13607 19.0479 0.718264 16.9161 0.718262ZM16.9171 1.12061C18.9941 1.12067 21.0093 1.52727 22.9064 2.32959C24.7388 3.10465 26.3849 4.21435 27.798 5.62744C29.2111 7.0406 30.3207 8.68663 31.0958 10.519C31.8983 12.4164 32.3058 14.4319 32.3058 16.5093C32.3058 18.5867 31.8983 20.6022 31.0958 22.4995C30.3207 24.3319 29.2111 25.9779 27.798 27.3911C26.3849 28.8042 24.7388 29.9139 22.9064 30.689C21.0093 31.4913 18.9941 31.8979 16.9171 31.8979C14.8399 31.8979 12.8241 31.4913 10.9269 30.689C9.09449 29.9139 7.4484 28.8042 6.03528 27.3911C4.62211 25.9779 3.51253 24.3319 2.73743 22.4995C1.9349 20.6022 1.52844 18.5867 1.52844 16.5093C1.52844 14.4319 1.9349 12.4164 2.73743 10.519C3.51253 8.68663 4.62212 7.0406 6.03528 5.62744C7.44839 4.21435 9.0945 3.10465 10.9269 2.32959C12.8241 1.52721 14.8399 1.12061 16.9171 1.12061ZM16.9171 1.60889C14.9054 1.60889 12.9532 2.00284 11.1163 2.77979C9.34214 3.53024 7.74846 4.60472 6.38 5.97314C5.01159 7.34165 3.93706 8.93522 3.18665 10.7095C2.40974 12.5463 2.01575 14.4976 2.01575 16.5093C2.01575 18.5209 2.40975 20.4723 3.18665 22.3091C3.93706 24.0833 5.0116 25.6769 6.38 27.0454C7.74846 28.4139 9.34214 29.4883 11.1163 30.2388C12.9532 31.0157 14.9054 31.4097 16.9171 31.4097C18.9287 31.4096 20.8802 31.0157 22.7169 30.2388C24.4911 29.4883 26.0848 28.4139 27.4532 27.0454C28.8216 25.6769 29.8962 24.0833 30.6466 22.3091C31.4235 20.4723 31.8175 18.5209 31.8175 16.5093C31.8175 14.4976 31.4235 12.5463 30.6466 10.7095C29.8962 8.93523 28.8216 7.34165 27.4532 5.97314C26.0848 4.60472 24.4911 3.53024 22.7169 2.77979C20.8802 2.0029 18.9287 1.60895 16.9171 1.60889ZM17.7892 28.2036C17.9836 28.1903 18.1451 28.2268 18.2736 28.313C18.4021 28.3993 18.4868 28.5572 18.5275 28.7866L18.2452 28.8062C18.2207 28.7009 18.1757 28.6145 18.1095 28.5483C18.0434 28.4822 17.9422 28.454 17.8068 28.4634C17.6219 28.4761 17.496 28.5754 17.4288 28.7612C17.3853 28.8818 17.3692 29.0279 17.381 29.1997C17.3928 29.3725 17.4395 29.5154 17.5206 29.6284C17.6019 29.7415 17.7211 29.7935 17.8781 29.7827C17.9983 29.7745 18.091 29.7308 18.1564 29.6528C18.2217 29.5746 18.2643 29.4706 18.2823 29.3413L18.5646 29.3218C18.5481 29.553 18.4783 29.7266 18.3566 29.8413C18.2349 29.9558 18.0738 30.0198 17.8732 30.0337C17.6475 30.0492 17.4613 29.9794 17.3156 29.8237C17.1699 29.6681 17.0885 29.4664 17.0714 29.2192C17.0505 28.9161 17.1076 28.6745 17.2433 28.4956C17.379 28.3167 17.5612 28.2193 17.7892 28.2036ZM15.2062 27.4517C15.4457 27.4879 15.6406 27.578 15.7902 27.7222C15.9395 27.8662 15.9945 28.0687 15.9552 28.3296L15.6564 28.2847C15.6601 28.1567 15.6415 28.0556 15.6017 27.981C15.5272 27.8444 15.379 27.7587 15.1564 27.7251C14.9765 27.6978 14.8407 27.7178 14.7501 27.7847C14.6598 27.8516 14.6068 27.9374 14.5909 28.0415C14.5736 28.1566 14.6076 28.2486 14.6925 28.3159C14.7484 28.3592 14.8795 28.423 15.0861 28.5063L15.3937 28.6294C15.5419 28.6888 15.6535 28.7561 15.7277 28.8315C15.8556 28.9631 15.9037 29.1335 15.8722 29.3423C15.8329 29.6023 15.7132 29.7748 15.5118 29.8589C15.3105 29.9429 15.0871 29.9661 14.8429 29.9292C14.5582 29.8861 14.3466 29.7775 14.2081 29.604C14.0695 29.4317 14.0212 29.2192 14.0626 28.9663L14.3615 29.0112C14.3485 29.1455 14.3627 29.258 14.4034 29.3491C14.4815 29.52 14.6487 29.6248 14.9054 29.6636C15.0201 29.6809 15.1272 29.6804 15.2267 29.6606C15.4192 29.6222 15.5289 29.5175 15.5548 29.3472C15.5741 29.2193 15.5488 29.1222 15.4796 29.0562C15.4092 28.9911 15.2933 28.9255 15.132 28.8608L14.8351 28.7427C14.6408 28.6653 14.5059 28.5921 14.4308 28.5229C14.3012 28.4031 14.251 28.2452 14.2804 28.0503C14.3123 27.8395 14.41 27.6768 14.5724 27.563C14.7348 27.4493 14.9461 27.4125 15.2062 27.4517ZM19.3156 27.9897C19.5323 27.9444 19.731 27.9792 19.9113 28.0933C20.0914 28.2074 20.2116 28.4056 20.2706 28.688C20.3276 28.9608 20.3085 29.2001 20.214 29.4058C20.1192 29.6114 19.9329 29.7442 19.6554 29.8022C19.4239 29.8506 19.223 29.8102 19.0538 29.6812C18.8848 29.552 18.7724 29.3539 18.7169 29.0884C18.6575 28.804 18.682 28.5623 18.7902 28.3638C18.8984 28.1652 19.0736 28.0403 19.3156 27.9897ZM19.8185 28.3882C19.7066 28.2489 19.5534 28.1992 19.3595 28.2397C19.1875 28.2757 19.0759 28.369 19.0255 28.5181C18.9752 28.667 18.9697 28.8356 19.0089 29.0229C19.0466 29.2031 19.1175 29.3449 19.2208 29.4487C19.3241 29.5523 19.461 29.5868 19.631 29.5513C19.8175 29.5122 19.9303 29.4136 19.9698 29.2563C20.0093 29.0991 20.0113 28.9331 19.9747 28.7583C19.9418 28.6003 19.8892 28.4768 19.8185 28.3882ZM21.9572 27.1304C22.1724 27.0417 22.3515 27.0596 22.4933 27.1831C22.5694 27.2494 22.6364 27.3534 22.6945 27.4946L23.1339 28.561L22.8546 28.6753L22.3966 27.564C22.3527 27.4574 22.2955 27.3943 22.2257 27.3765C22.156 27.3586 22.0826 27.3664 22.006 27.3979C21.9005 27.4415 21.8235 27.5137 21.7765 27.6157C21.7294 27.7178 21.7407 27.8517 21.8087 28.0171L22.1925 28.9487L21.9181 29.061L21.4884 28.0161C21.4437 27.9076 21.3981 27.8336 21.3517 27.7944C21.28 27.7365 21.1879 27.7309 21.0763 27.7769C20.9747 27.8188 20.8984 27.8964 20.8478 28.0093C20.797 28.1223 20.8146 28.2817 20.8995 28.4878L21.2491 29.3374L20.9796 29.4478L20.3204 27.8472L20.5861 27.7378L20.6798 27.9644C20.7111 27.8595 20.7454 27.7784 20.7823 27.7212C20.846 27.6239 20.9344 27.5518 21.047 27.5054C21.1745 27.4529 21.29 27.4425 21.3937 27.4731C21.4522 27.491 21.5137 27.5276 21.5782 27.5825C21.6028 27.4723 21.6474 27.3798 21.7111 27.3052C21.7748 27.2306 21.8565 27.1719 21.9572 27.1304ZM12.6798 26.9858C12.8597 26.9023 13.0741 26.9034 13.3234 26.9878C13.5527 27.0655 13.7288 27.1879 13.8507 27.356C13.9725 27.5242 13.9911 27.7337 13.9064 27.9839L13.6202 27.8862C13.6463 27.761 13.6463 27.658 13.6202 27.5776C13.5709 27.4301 13.439 27.3199 13.2257 27.2476C13.0539 27.1894 12.9173 27.185 12.8165 27.2349C12.7155 27.2849 12.6483 27.3604 12.6144 27.4604C12.5771 27.5707 12.5944 27.6664 12.6661 27.7476C12.7136 27.8 12.8319 27.8859 13.0206 28.0044L13.3019 28.1792C13.4374 28.2638 13.5351 28.3507 13.5948 28.438C13.6974 28.5899 13.7142 28.7656 13.6466 28.9653C13.5623 29.2143 13.4141 29.3633 13.2013 29.4106C12.9882 29.4579 12.7643 29.442 12.5304 29.3628C12.2578 29.2704 12.0689 29.1262 11.963 28.9312C11.8567 28.737 11.8454 28.5187 11.9308 28.2769L12.2179 28.3735C12.1816 28.5035 12.1752 28.6174 12.1993 28.7144C12.2462 28.8962 12.3924 29.0286 12.6378 29.1118C12.7478 29.1491 12.8538 29.1675 12.9552 29.1655C13.1515 29.1615 13.2777 29.0776 13.3331 28.9146C13.3746 28.7921 13.3672 28.692 13.3107 28.6147C13.2527 28.5383 13.1504 28.4538 13.0031 28.3618L12.7316 28.1929C12.554 28.0827 12.4339 27.9869 12.3722 27.9058C12.2656 27.7651 12.2436 27.6012 12.3068 27.4146C12.3752 27.2125 12.4998 27.0694 12.6798 26.9858ZM23.9015 26.2358C24.0983 26.2875 24.2732 26.4312 24.4249 26.6655C24.6297 26.982 24.6927 27.2622 24.6144 27.5054C24.5646 27.6594 24.47 27.7821 24.3302 27.8726C24.2204 27.9437 24.1124 27.9788 24.007 27.979C23.9458 27.9801 23.867 27.9654 23.7706 27.9341L24.2511 28.6763L24.007 28.8345L22.6954 26.8081L22.9347 26.6538L23.0587 26.8462C23.065 26.7484 23.0856 26.6621 23.1202 26.5884C23.1676 26.4809 23.2471 26.391 23.3585 26.3188C23.5236 26.212 23.7048 26.1843 23.9015 26.2358ZM11.4982 26.2388C11.7793 26.3963 11.9409 26.6197 11.9825 26.9087C12.0184 27.1684 11.9565 27.4404 11.797 27.7251C11.6737 27.9451 11.5212 28.1215 11.34 28.2534C11.0203 28.4865 10.6846 28.5046 10.3341 28.3081L9.50989 27.8452L10.671 25.7739L11.4982 26.2388ZM9.92688 27.7651L10.4171 28.0396C10.5098 28.0914 10.5915 28.1244 10.6622 28.1382C10.7894 28.1613 10.9166 28.1399 11.0431 28.0737C11.1441 28.0205 11.2429 27.9349 11.34 27.8179C11.3975 27.7476 11.4451 27.6786 11.4825 27.6118C11.6264 27.3553 11.6882 27.128 11.6681 26.9302C11.6479 26.7324 11.5273 26.571 11.3058 26.4468L10.8185 26.1743L9.92688 27.7651ZM23.9445 26.5845C23.7773 26.4657 23.6092 26.4606 23.4406 26.5698C23.2709 26.6797 23.2093 26.8397 23.256 27.0493C23.281 27.1615 23.3387 27.2879 23.4288 27.4272C23.5014 27.5394 23.5807 27.6233 23.6652 27.6802C23.8259 27.7893 23.9904 27.7895 24.1593 27.6802C24.2736 27.6062 24.3376 27.4966 24.3517 27.3521C24.3655 27.2077 24.3113 27.0407 24.1886 26.8511C24.1136 26.7352 24.0318 26.646 23.9445 26.5845ZM25.9396 24.2056C26.082 24.1658 26.2138 24.2009 26.3341 24.312L27.0665 24.9888C27.0887 25.0093 27.1111 25.0216 27.1329 25.0249C27.1547 25.0281 27.1792 25.0151 27.2062 24.9858C27.215 24.9763 27.2247 24.9647 27.2345 24.9517C27.2441 24.9389 27.2539 24.925 27.2638 24.9097L27.422 25.0552C27.4009 25.0972 27.383 25.1284 27.3693 25.1479C27.3556 25.1675 27.3344 25.1923 27.3068 25.2222C27.2388 25.2956 27.1631 25.325 27.0802 25.3101C27.0364 25.3018 26.9859 25.2774 26.9288 25.2378C26.9456 25.334 26.9378 25.4427 26.9044 25.563C26.871 25.6832 26.8085 25.792 26.7179 25.8901C26.6412 25.973 26.5562 26.0272 26.464 26.0562L26.8282 26.5122L26.0656 27.1206L25.505 26.4175L24.6232 25.4253L24.6759 25.3774L24.5851 25.2642L25.3468 24.6558L25.3741 24.6899C25.4108 24.6203 25.4592 24.5541 25.5177 24.4907C25.6556 24.3415 25.7966 24.2463 25.9396 24.2056ZM11.0978 24.7808L9.55188 26.5845L8.81165 25.9497L10.3575 24.146L11.0978 24.7808ZM26.0197 19.1567L26.1671 19.1997C25.5973 21.162 24.3841 22.9288 22.7501 24.1743C21.062 25.4611 19.0444 26.1411 16.9161 26.1411C14.7879 26.1411 12.7703 25.4611 11.0822 24.1743C9.44828 22.9288 8.23485 21.1619 7.66516 19.1997L7.81262 19.1567L7.95813 19.1138C7.96224 19.1279 7.96664 19.1426 7.97083 19.1567H8.81262L8.06067 19.4429C8.09332 19.5412 8.12818 19.6397 8.16418 19.7368L9.98254 19.1567H12.2052L8.93958 21.3384C8.99328 21.4267 9.04803 21.5145 9.10461 21.6011L13.2482 19.1567H13.8409L10.214 22.9917C10.2859 23.0662 10.3584 23.1402 10.4327 23.2124L14.7218 19.1567H14.8575L11.6525 24.2095C11.7364 24.2671 11.8209 24.3239 11.9064 24.3784L15.6241 19.1919L13.4298 25.1646C13.5247 25.2029 13.6208 25.2398 13.7169 25.2749L16.254 19.4126L15.3849 25.7114C15.4859 25.728 15.5878 25.7431 15.6896 25.7563L16.9161 19.4868L17.3732 25.8247C17.4757 25.8198 17.5779 25.8133 17.6798 25.8052L17.5792 19.4126L19.3751 25.5103C19.473 25.4837 19.5703 25.4551 19.6671 25.4253L18.2081 19.1919L21.2159 24.7886C21.306 24.7415 21.3958 24.6931 21.4845 24.6431L18.922 19.1567H19.0392L22.838 23.7144C22.9143 23.6515 22.9894 23.5872 23.0636 23.522L19.8302 19.1567H20.2755L24.2814 22.228C24.3395 22.1531 24.3964 22.0771 24.4523 22.0005L21.1652 19.1567H22.4161L25.3204 20.5542C25.3604 20.4715 25.3991 20.3881 25.4366 20.3042L23.379 19.1567H25.8615C25.8656 19.1427 25.87 19.1279 25.8741 19.1138L26.0197 19.1567ZM7.89954 23.5835C8.21295 23.5677 8.48586 23.6892 8.71887 23.9478C8.91775 24.1685 9.01388 24.3927 9.00598 24.6206C8.99808 24.8485 8.92482 25.0367 8.78723 25.1851L8.57727 24.9517C8.66755 24.8233 8.71143 24.6905 8.70813 24.5532C8.7047 24.416 8.63979 24.2771 8.51379 24.1372C8.36011 23.9667 8.17481 23.884 7.95813 23.8892C7.74136 23.8943 7.5064 24.0104 7.25403 24.2378C7.04732 24.4241 6.92224 24.6229 6.87903 24.8335C6.83582 25.044 6.8993 25.2432 7.06848 25.4312C7.22436 25.6042 7.4112 25.6755 7.62805 25.644C7.7424 25.6278 7.86781 25.5784 8.005 25.4976L8.21497 25.731C8.01086 25.8776 7.79416 25.95 7.56458 25.9478C7.28851 25.9456 7.0439 25.8272 6.83215 25.5923C6.64962 25.3897 6.55859 25.1632 6.55872 24.9136C6.5597 24.5844 6.73159 24.2654 7.07434 23.9565C7.33474 23.7219 7.61022 23.5975 7.89954 23.5835ZM26.4415 24.8071C26.434 24.8487 26.4166 24.8955 26.3898 24.9468C26.363 24.9981 26.3336 25.0455 26.3019 25.0894L26.1993 25.2339C26.1381 25.3207 26.1009 25.3942 26.087 25.4536C26.076 25.5 26.0766 25.5435 26.088 25.5845L26.2238 25.7544C26.2721 25.7827 26.3242 25.7927 26.381 25.7837C26.458 25.7715 26.5252 25.7349 26.5822 25.6733C26.6516 25.5981 26.7022 25.5084 26.7325 25.4058C26.7843 25.234 26.7445 25.0874 26.6134 24.9663L26.4415 24.8071ZM25.9493 24.4849C25.8686 24.5062 25.7834 24.5654 25.6945 24.6616C25.6096 24.7534 25.5677 24.8425 25.5646 24.9282L25.8693 25.311C25.8905 25.2677 25.9164 25.2245 25.9474 25.1812L26.2198 24.8003C26.2587 24.7456 26.2684 24.6937 26.2491 24.645C26.2388 24.6179 26.2156 24.5874 26.1798 24.5542C26.107 24.487 26.0299 24.4638 25.9493 24.4849ZM24.631 24.9888L24.4093 25.1851L24.1906 24.938L24.4122 24.7417L24.631 24.9888ZM27.171 22.7661C27.2751 22.78 27.3994 22.8365 27.5431 22.9351L28.4591 23.564L28.2921 23.8081L27.3917 23.1899C27.305 23.1305 27.2261 23.0954 27.1554 23.0845C27.0373 23.0662 26.9393 23.1132 26.8624 23.2251C26.8235 23.2819 26.7968 23.3322 26.7833 23.3765C26.7577 23.4556 26.7578 23.5404 26.7823 23.6304C26.8019 23.7027 26.8322 23.7626 26.8741 23.8091C26.9161 23.8555 26.9841 23.9101 27.0773 23.9741L27.8253 24.4878L27.6603 24.728L26.2335 23.7476L26.3898 23.52L26.5919 23.6587C26.5548 23.534 26.5443 23.4212 26.5597 23.3208C26.575 23.2203 26.6145 23.1241 26.6779 23.0317C26.8168 22.8293 26.9812 22.7404 27.171 22.7661ZM7.54895 22.5327C7.65876 22.7116 7.69608 22.8878 7.66223 23.0601C7.62827 23.2323 7.5195 23.375 7.33606 23.4878C7.17821 23.5846 7.01039 23.6195 6.83313 23.5933C6.65586 23.5669 6.50524 23.4527 6.38098 23.2505L5.99231 22.6187L5.13684 23.144L4.96887 22.8706L6.99231 21.6274L7.54895 22.5327ZM6.22375 22.4761L6.55676 23.0181C6.63168 23.14 6.7186 23.2231 6.8175 23.2671C6.91662 23.3111 7.0329 23.2926 7.16516 23.2114C7.31381 23.1201 7.38124 23.0029 7.36731 22.8608C7.35873 22.7832 7.32223 22.6921 7.25793 22.5874L6.92493 22.0454L6.22375 22.4761ZM27.6798 21.8677L27.548 22.1108L28.5431 22.647C28.5961 22.6755 28.6415 22.6772 28.6788 22.6509C28.7001 22.6366 28.723 22.6056 28.7482 22.5591C28.7547 22.5468 28.7617 22.5335 28.7687 22.519C28.7758 22.5045 28.7835 22.4867 28.7911 22.4663L28.9943 22.5767C28.9869 22.6106 28.9763 22.6444 28.963 22.6782C28.9497 22.7119 28.9332 22.7477 28.9132 22.7847C28.8488 22.9039 28.7746 22.9683 28.6906 22.978C28.6064 22.9877 28.5148 22.9663 28.4171 22.9136L27.4083 22.3696L27.297 22.5757L27.088 22.4634L27.1993 22.2563L26.7745 22.0269L26.9142 21.7681L27.339 21.9976L27.4708 21.7544L27.6798 21.8677ZM20.8566 17.2065L21.3331 15.7671H21.6622C21.6203 15.8806 21.5269 16.1389 21.3829 16.5425C21.2751 16.8462 21.185 17.0941 21.1124 17.2856C20.9409 17.7365 20.8195 18.0118 20.7491 18.1108C20.6788 18.2096 20.5581 18.2593 20.3868 18.2593C20.3451 18.2593 20.3128 18.2577 20.2902 18.2544C20.2677 18.2511 20.24 18.2446 20.2072 18.2358V17.9653C20.2583 17.9795 20.2954 17.9883 20.3185 17.9917C20.3415 17.995 20.3624 17.9966 20.38 17.9966C20.4349 17.9966 20.4753 17.9873 20.5011 17.9692C20.5269 17.9511 20.549 17.9292 20.5665 17.9028C20.5721 17.8939 20.5912 17.8482 20.6251 17.7671C20.6591 17.6861 20.6839 17.6259 20.6993 17.5864L20.046 15.7671H20.3829L20.8566 17.2065ZM6.16516 15.0483C6.41249 15.0484 6.62307 15.1103 6.79602 15.2329C6.96859 15.3557 7.05475 15.5516 7.05481 15.8208H6.74622C6.73038 15.6911 6.69629 15.5912 6.64465 15.522C6.54864 15.3958 6.38591 15.3326 6.15637 15.3325C5.9708 15.3325 5.83723 15.3734 5.75598 15.4546C5.67475 15.5361 5.63391 15.6309 5.63391 15.7388C5.63397 15.8574 5.68163 15.9446 5.77747 15.9995C5.84037 16.0348 5.98342 16.0786 6.2052 16.1313L6.5343 16.2095C6.69309 16.2469 6.81615 16.2979 6.90247 16.3628C7.05144 16.4761 7.12608 16.6406 7.1261 16.856C7.1261 17.1245 7.03045 17.3166 6.83997 17.4321C6.64952 17.5476 6.42803 17.605 6.1759 17.605C5.882 17.6049 5.65176 17.5285 5.48547 17.3745C5.31912 17.2217 5.23811 17.0142 5.24133 16.7524H5.54993C5.5574 16.8898 5.58864 17.0016 5.64368 17.0874C5.74868 17.2479 5.93351 17.3286 6.19836 17.3286C6.31705 17.3286 6.42505 17.3101 6.52258 17.2749C6.71123 17.2066 6.80579 17.0847 6.80579 16.9087C6.80575 16.7768 6.76558 16.6826 6.68567 16.6265C6.60463 16.5715 6.47739 16.5236 6.30481 16.4829L5.98743 16.4087C5.77968 16.3604 5.63237 16.3068 5.54602 16.2485C5.39676 16.1473 5.32141 15.9958 5.32141 15.7944C5.32147 15.5766 5.39546 15.398 5.54211 15.2583C5.6888 15.1186 5.89647 15.0483 6.16516 15.0483ZM8.18469 15.7271C8.30927 15.7271 8.43004 15.7562 8.547 15.8149C8.66385 15.8737 8.75333 15.9501 8.81458 16.0435C8.87361 16.1326 8.91301 16.2371 8.93274 16.356C8.9502 16.4374 8.95911 16.5675 8.95911 16.7456H7.67297C7.67847 16.9253 7.72045 17.0696 7.79895 17.1782C7.87752 17.2869 7.99951 17.3412 8.16418 17.3413C8.31813 17.3413 8.44161 17.2898 8.53333 17.187C8.58451 17.1274 8.62033 17.0583 8.64172 16.98H8.93469C8.92697 17.0449 8.90091 17.1171 8.85754 17.1968C8.8141 17.2765 8.76548 17.3415 8.71204 17.3921C8.62249 17.4801 8.51114 17.54 8.37903 17.5708C8.30818 17.5883 8.2281 17.5972 8.13879 17.5972C7.92008 17.5972 7.73416 17.5171 7.58215 17.3569C7.43027 17.1969 7.35461 16.9723 7.35461 16.6841C7.35465 16.4003 7.43105 16.1698 7.58411 15.9927C7.73722 15.8155 7.93754 15.7271 8.18469 15.7271ZM14.382 15.7271C14.5067 15.7271 14.6282 15.7561 14.7452 15.8149C14.8621 15.8738 14.9516 15.95 15.0128 16.0435C15.0718 16.1326 15.1113 16.2371 15.131 16.356C15.1485 16.4374 15.1564 16.5676 15.1564 16.7456H13.8712C13.8767 16.9254 13.9186 17.0696 13.9972 17.1782C14.0758 17.2869 14.1976 17.3413 14.3624 17.3413C14.5162 17.3413 14.6389 17.2897 14.7306 17.187C14.7819 17.1274 14.8186 17.0584 14.84 16.98H15.132C15.1242 17.0449 15.0982 17.1171 15.0548 17.1968C15.0113 17.2765 14.9628 17.3415 14.9093 17.3921C14.8198 17.4801 14.7093 17.54 14.5773 17.5708C14.5063 17.5884 14.4256 17.5972 14.3361 17.5972C14.1175 17.5971 13.9323 17.517 13.7804 17.3569C13.6284 17.1969 13.5529 16.9724 13.5529 16.6841C13.5529 16.4003 13.6292 16.1698 13.7823 15.9927C13.9353 15.8157 14.1351 15.7272 14.382 15.7271ZM25.2745 15.7271C25.3992 15.7271 25.5208 15.7561 25.6378 15.8149C25.7546 15.8737 25.8432 15.9502 25.9044 16.0435C25.9635 16.1326 26.0029 16.2371 26.0226 16.356C26.0401 16.4374 26.049 16.5674 26.049 16.7456H24.7638C24.7693 16.9254 24.8112 17.0696 24.8898 17.1782C24.9684 17.2868 25.0902 17.3413 25.255 17.3413C25.4088 17.3413 25.5315 17.2897 25.6232 17.187C25.6744 17.1274 25.7111 17.0584 25.7325 16.98H26.0245C26.0168 17.0449 25.9908 17.1171 25.9474 17.1968C25.9039 17.2765 25.8554 17.3415 25.8019 17.3921C25.7123 17.4801 25.6019 17.54 25.4698 17.5708C25.3988 17.5884 25.3181 17.5972 25.2286 17.5972C25.01 17.5971 24.8248 17.517 24.673 17.3569C24.5209 17.1969 24.4454 16.9724 24.4454 16.6841C24.4455 16.4003 24.5219 16.1698 24.6749 15.9927C24.8279 15.8157 25.0276 15.7272 25.2745 15.7271ZM19.1368 15.7241C19.3446 15.7241 19.514 15.7631 19.6437 15.8423C19.7721 15.9215 19.8361 16.0452 19.8361 16.2124V17.231C19.8361 17.2617 19.8429 17.2866 19.8556 17.3052C19.8683 17.3236 19.8945 17.3325 19.9347 17.3325C19.9479 17.3325 19.9632 17.3322 19.9796 17.3306C19.9961 17.329 20.0137 17.326 20.0323 17.3228V17.5425C19.9863 17.5557 19.9511 17.5636 19.9269 17.5669C19.9027 17.5702 19.8699 17.5727 19.8282 17.5728C19.7259 17.5728 19.6509 17.536 19.6046 17.4634C19.5805 17.4249 19.5637 17.3704 19.5538 17.3003C19.4932 17.3794 19.4063 17.4481 19.2931 17.5063C19.1797 17.5646 19.0545 17.5942 18.9181 17.5942C18.7544 17.5942 18.6206 17.544 18.5167 17.4448C18.4128 17.3454 18.3605 17.2203 18.3605 17.0708C18.3605 16.9072 18.4115 16.78 18.5138 16.6899C18.6161 16.5998 18.7509 16.5448 18.9171 16.5239L19.3907 16.4644C19.4588 16.4555 19.5044 16.4267 19.5275 16.3784C19.5405 16.3519 19.547 16.3137 19.547 16.2642C19.5469 16.1628 19.5113 16.0893 19.4396 16.0435C19.3677 15.9977 19.2647 15.9742 19.131 15.9741C18.9762 15.9741 18.8657 16.0162 18.8009 16.1001C18.7647 16.1466 18.7415 16.2163 18.7306 16.3081H18.4532C18.4588 16.0896 18.5294 15.9376 18.6652 15.8521C18.8008 15.7667 18.9579 15.7242 19.1368 15.7241ZM9.92297 15.7153C10.1221 15.7153 10.2844 15.7641 10.4093 15.8608C10.534 15.9577 10.6086 16.1244 10.6339 16.3608H10.3458C10.3282 16.2519 10.2875 16.1615 10.2247 16.0894C10.162 16.0174 10.0615 15.981 9.92297 15.981C9.73372 15.981 9.59813 16.0737 9.51672 16.2583C9.46394 16.3781 9.43762 16.5259 9.43762 16.7017C9.43762 16.8786 9.47511 17.028 9.54993 17.1489C9.62477 17.2696 9.74295 17.3296 9.90344 17.3296C10.0265 17.3295 10.1244 17.2923 10.1964 17.2173C10.2684 17.1422 10.3183 17.0391 10.3458 16.9087H10.6339C10.6009 17.1431 10.5189 17.315 10.3868 17.4233C10.2548 17.5317 10.0857 17.5854 9.88 17.5854C9.64903 17.5854 9.46479 17.5012 9.32727 17.3325C9.1898 17.1637 9.1213 16.9526 9.12122 16.6997C9.12122 16.3895 9.1962 16.1478 9.3468 15.9751C9.49757 15.8023 9.68969 15.7153 9.92297 15.7153ZM11.1339 16.9399C11.1339 17.0302 11.148 17.1044 11.1759 17.1616C11.2273 17.2671 11.3237 17.3198 11.464 17.3198C11.6651 17.3197 11.8023 17.2272 11.8751 17.0425C11.9147 16.9436 11.9347 16.8078 11.9347 16.6353V15.7671H12.2316V17.5347H11.9513L11.9542 17.2739C11.9164 17.3409 11.8696 17.3977 11.8136 17.4438C11.7023 17.5363 11.5671 17.5825 11.4083 17.5825C11.1611 17.5825 10.993 17.4979 10.9034 17.3296C10.8549 17.2394 10.8302 17.119 10.8302 16.9683V15.7671H11.1339V16.9399ZM28.4757 15.7671H28.7579V16.0093H28.4757V17.1626C28.4757 17.2243 28.4974 17.2658 28.5392 17.2866C28.5623 17.2986 28.6008 17.3052 28.6544 17.3052C28.6687 17.3052 28.6839 17.3049 28.7003 17.3042C28.7167 17.3035 28.736 17.3012 28.7579 17.2983V17.5347C28.7239 17.5445 28.6881 17.5517 28.6515 17.5562C28.6146 17.5605 28.5751 17.562 28.5323 17.562C28.3938 17.562 28.2997 17.5266 28.2501 17.4556C28.2007 17.3846 28.1759 17.2924 28.1759 17.1792V16.0093H27.9366V15.7671H28.1759V15.2729H28.4757V15.7671ZM13.422 15.729C13.4352 15.7301 13.4584 15.7316 13.4904 15.7349V16.0483C13.4729 16.0451 13.4563 16.0436 13.4415 16.0425C13.4267 16.0414 13.4103 16.0405 13.3927 16.0405C13.2431 16.0405 13.1283 16.0889 13.048 16.1851C12.9677 16.2813 12.927 16.3918 12.9269 16.5171V17.5347H12.63V15.7661H12.9122V16.0718C12.9353 16.0124 12.992 15.9402 13.0822 15.855C13.1724 15.7697 13.2769 15.7271 13.3947 15.7271C13.4001 15.7271 13.4092 15.728 13.422 15.729ZM17.4396 15.1099C17.6538 15.1099 17.8273 15.1701 17.9591 15.2915C18.0909 15.413 18.1563 15.5843 18.1564 15.8042C18.1564 15.9935 18.0973 16.159 17.9796 16.2993C17.8619 16.4393 17.6818 16.5093 17.4396 16.5093H16.6827V17.5347H16.3546V15.1099H17.4396ZM23.6486 15.7271C23.8861 15.7271 24.0481 15.8132 24.1339 15.9849C24.18 16.0772 24.2032 16.2019 24.2032 16.3579V17.5347H23.8947V16.3062C23.8946 16.1885 23.8647 16.108 23.8058 16.064C23.747 16.02 23.6755 15.9976 23.5909 15.9976C23.4743 15.9976 23.3734 16.0367 23.2892 16.1147C23.205 16.1929 23.1632 16.3237 23.1632 16.5063V17.5347H22.8615V16.3804C22.8614 16.2606 22.8471 16.1727 22.8185 16.1177C22.7733 16.0353 22.6887 15.9946 22.5656 15.9946C22.4533 15.9946 22.3508 16.0376 22.2589 16.1245C22.1672 16.2115 22.1212 16.3695 22.1212 16.5972V17.5347H21.8243V15.7661H22.1183V16.0171C22.1886 15.9303 22.2525 15.8672 22.3097 15.8276C22.4075 15.7606 22.5185 15.7271 22.6427 15.7271C22.7836 15.7271 22.8977 15.7612 22.9835 15.8306C23.0319 15.8702 23.0757 15.9294 23.1154 16.0063C23.1814 15.9118 23.2587 15.8411 23.3478 15.7954C23.437 15.7498 23.5374 15.7271 23.6486 15.7271ZM27.1906 15.7271C27.4415 15.7271 27.6112 15.8148 27.6993 15.9897C27.7475 16.0854 27.7716 16.2221 27.7716 16.3999V17.5347H27.4698V16.4204C27.4698 16.3128 27.4538 16.2257 27.422 16.1597C27.3692 16.0498 27.2734 15.9947 27.1349 15.9946C27.0645 15.9946 27.0061 16.0018 26.9611 16.0161C26.8797 16.0404 26.8078 16.0881 26.7462 16.1606C26.6968 16.2188 26.6655 16.2794 26.6505 16.3413C26.6357 16.4034 26.6281 16.4926 26.6281 16.6079V17.5347H26.3312V15.7661H26.6134V16.0171C26.6969 15.9139 26.7856 15.8395 26.879 15.7944C26.9724 15.7495 27.0763 15.7271 27.1906 15.7271ZM19.5392 16.6362C19.5029 16.6594 19.4556 16.6784 19.3986 16.6938C19.3416 16.7093 19.2853 16.7205 19.2306 16.7271L19.0519 16.7505C18.9443 16.7647 18.8629 16.7871 18.8087 16.8179C18.7169 16.8695 18.671 16.9518 18.671 17.0649C18.6711 17.1504 18.7022 17.2178 18.7648 17.2671C18.8274 17.3164 18.9017 17.3412 18.9874 17.3413C19.0918 17.3413 19.1934 17.3173 19.2911 17.269C19.4563 17.1888 19.5392 17.0569 19.5392 16.8745V16.6362ZM8.16614 15.9858C8.03086 15.9858 7.91701 16.0358 7.82532 16.1343C7.73386 16.2327 7.68526 16.3576 7.67981 16.5093H8.65344C8.64142 16.3806 8.61402 16.2777 8.57043 16.2007C8.48973 16.0577 8.35476 15.9859 8.16614 15.9858ZM14.3634 15.9858C14.2282 15.9859 14.1152 16.0359 14.0236 16.1343C13.932 16.2327 13.8825 16.3575 13.8771 16.5093H14.8517C14.8397 16.3805 14.8113 16.2777 14.7677 16.2007C14.6869 16.0577 14.5521 15.9858 14.3634 15.9858ZM25.256 15.9858C25.1207 15.9859 25.0069 16.0359 24.9152 16.1343C24.8238 16.2327 24.7751 16.3577 24.7697 16.5093H25.7443C25.7322 16.3805 25.7039 16.2777 25.6603 16.2007C25.5795 16.0577 25.4447 15.9858 25.256 15.9858ZM16.6827 16.2319H17.3312C17.4774 16.2319 17.5965 16.2007 17.6876 16.1382C17.7789 16.0755 17.8253 15.9646 17.8253 15.8062C17.8253 15.6279 17.7591 15.5067 17.6281 15.4429C17.5559 15.4088 17.4568 15.3921 17.3312 15.3921H16.6827V16.2319ZM16.9161 6.87744C19.0444 6.87744 21.0619 7.55746 22.7501 8.84424C24.384 10.0897 25.5974 11.8566 26.1671 13.8188L25.8741 13.9048C25.87 13.8906 25.8656 13.876 25.8615 13.8618H23.1935L25.3741 12.5786C25.3307 12.4855 25.2859 12.3928 25.2394 12.3013L22.2208 13.8618H21.0284L24.2745 10.7827C24.2127 10.7033 24.1495 10.6248 24.0851 10.5474L20.1769 13.8618H19.7921L22.9093 9.36377C22.8292 9.29639 22.7476 9.23019 22.6652 9.16553L19.0206 13.8618H18.9054L21.2335 8.23877C21.1435 8.19151 21.0524 8.14527 20.9611 8.10107L18.2081 13.8267L19.3448 7.49951C19.249 7.47381 19.1516 7.44984 19.0548 7.42725L17.5792 13.606L17.4747 7.19873C17.3729 7.19276 17.2705 7.18871 17.1681 7.18604L16.9161 13.5317L15.4572 7.29541C15.3535 7.31157 15.2503 7.32954 15.1476 7.34912L16.254 13.606L13.4913 7.82959C13.3931 7.86843 13.2953 7.90843 13.1984 7.95068L15.6241 13.8267L11.7345 8.75342C11.6468 8.81226 11.5598 8.87306 11.4738 8.93506L14.8419 13.8618H14.6749L10.1447 10.0991C10.0726 10.1754 10.0012 10.2529 9.93176 10.3315L13.7365 13.8618H13.0861L8.93958 11.6792C8.88755 11.7649 8.83747 11.8517 8.78821 11.939L11.9816 13.8618H9.98254L8.16418 13.2817C8.12823 13.3789 8.09332 13.4774 8.06067 13.5757L8.81262 13.8618H7.97083C7.96664 13.876 7.96225 13.8906 7.95813 13.9048L7.81262 13.8618L7.66516 13.8188C8.23488 11.8566 9.44827 10.0898 11.0822 8.84424C12.7703 7.55743 14.7879 6.87748 16.9161 6.87744ZM6.6593 8.81104C6.76542 8.82072 6.88761 8.86781 7.02454 8.95264L8.05579 9.59229L7.88782 9.86279L6.81165 9.1958C6.70846 9.13191 6.62144 9.11345 6.5509 9.14111C6.4804 9.16886 6.42209 9.22019 6.3761 9.29443C6.31291 9.39651 6.29292 9.50558 6.31555 9.62158C6.33834 9.73778 6.42985 9.84568 6.58997 9.94482L7.49133 10.5034L7.32727 10.7681L6.31555 10.1421C6.2105 10.077 6.12638 10.0415 6.06262 10.0366C5.96581 10.0314 5.88341 10.083 5.81653 10.1909C5.75572 10.2891 5.73856 10.4023 5.76477 10.5298C5.79107 10.6574 5.9042 10.7832 6.10364 10.9067L6.9259 11.4165L6.76477 11.6763L5.21497 10.7163L5.37415 10.4595L5.59485 10.5952C5.55694 10.4864 5.53599 10.3963 5.53235 10.3247C5.52666 10.2025 5.55759 10.087 5.62512 9.97803C5.70159 9.85459 5.79314 9.77346 5.90051 9.73584C5.96139 9.71505 6.03635 9.70824 6.12512 9.71533C6.07807 9.60615 6.05915 9.49981 6.0675 9.39697C6.07589 9.29433 6.10993 9.19436 6.17004 9.09717C6.29905 8.8889 6.46236 8.79316 6.6593 8.81104ZM30.0402 10.7544L28.4064 11.4849L29.2062 9.2251L30.0402 10.7544ZM27.0001 8.69873C27.2369 8.69865 27.4273 8.80131 27.5704 9.00732C27.6495 9.12136 27.6913 9.23371 27.6964 9.34424C27.6994 9.40822 27.6859 9.49297 27.6554 9.59814L28.4113 9.07275L28.5792 9.31494L26.5197 10.7456L26.3624 10.519L26.5704 10.3745C26.4377 10.3801 26.3231 10.3574 26.2267 10.3062C26.1303 10.2548 26.0463 10.1776 25.9747 10.0747C25.8593 9.9086 25.8292 9.71558 25.8849 9.49658C25.9407 9.27769 26.0847 9.087 26.3175 8.92529C26.5355 8.77381 26.7632 8.69883 27.0001 8.69873ZM27.0255 9.00146C26.8741 8.99051 26.704 9.05045 26.5157 9.18115C26.3557 9.2925 26.2457 9.42031 26.1847 9.56299C26.1238 9.70568 26.1446 9.85136 26.2482 10.0005C26.3286 10.1164 26.4448 10.177 26.5968 10.1821C26.7486 10.1872 26.9184 10.1246 27.1056 9.99463C27.2946 9.86331 27.408 9.72737 27.4454 9.5874C27.4828 9.44738 27.4624 9.32057 27.3839 9.20752C27.2963 9.08142 27.1767 9.01251 27.0255 9.00146ZM7.94055 7.34424C8.16483 7.33326 8.38843 7.43188 8.61047 7.63916C8.82497 7.8395 8.95406 8.0571 8.99719 8.2915C9.04014 8.52584 8.95961 8.75217 8.75598 8.97021C8.58608 9.15211 8.38888 9.23855 8.16516 9.22998C7.94158 9.22127 7.72532 9.11994 7.51672 8.92529C7.29307 8.7164 7.16801 8.49292 7.14075 8.25635C7.11365 8.01994 7.18881 7.80682 7.36633 7.6167C7.52533 7.44647 7.71654 7.35531 7.94055 7.34424ZM25.9493 7.30713C26.1131 7.32585 26.2675 7.41302 26.4132 7.56787C26.6037 7.7705 26.6825 7.97158 26.6495 8.17139C26.6279 8.29744 26.573 8.40084 26.4855 8.47998L26.2882 8.26904C26.3343 8.21768 26.3623 8.15619 26.3732 8.08545C26.3822 7.97813 26.3259 7.85937 26.2042 7.72998C26.1231 7.64385 26.0455 7.5938 25.9718 7.57959C25.898 7.56543 25.8349 7.58305 25.7823 7.63232C25.7248 7.6865 25.7054 7.75928 25.7257 7.8501C25.7367 7.90311 25.7656 7.96989 25.8116 8.05029L25.9171 8.23486C26.0318 8.4346 26.0976 8.57966 26.1134 8.66943C26.1378 8.80966 26.0882 8.93735 25.9659 9.05225C25.8479 9.16316 25.7035 9.21351 25.5323 9.20361C25.361 9.19366 25.1875 9.09636 25.0128 8.91064C24.8247 8.71064 24.7367 8.52646 24.7482 8.35889C24.7596 8.19145 24.8285 8.04269 24.9552 7.9126L25.1573 8.12646C25.0893 8.20304 25.0495 8.2758 25.0392 8.34424C25.0211 8.46917 25.0789 8.60292 25.212 8.74463C25.2914 8.82895 25.3795 8.88617 25.4757 8.9165C25.5718 8.94678 25.6573 8.92658 25.7325 8.85596C25.7896 8.80234 25.8096 8.73587 25.7911 8.65674C25.7785 8.60687 25.7379 8.52198 25.671 8.40283L25.547 8.18115C25.467 8.03981 25.4181 7.92557 25.4015 7.83838C25.3702 7.68427 25.4081 7.5568 25.5148 7.45654C25.6404 7.33844 25.7853 7.28844 25.9493 7.30713ZM8.04016 7.65479C7.85951 7.60268 7.69815 7.65282 7.55579 7.80518C7.42946 7.94046 7.38969 8.08762 7.43665 8.24658C7.48358 8.40532 7.58049 8.55342 7.72766 8.69092C7.86931 8.82316 8.01628 8.90257 8.16809 8.9292C8.31988 8.95584 8.45835 8.90271 8.58313 8.76904C8.72004 8.62234 8.75767 8.46927 8.69641 8.31006C8.63511 8.1508 8.53599 8.00678 8.39856 7.87842C8.27441 7.76249 8.15471 7.68816 8.04016 7.65479ZM24.6271 6.0376L24.4298 6.28564L24.6183 6.40283L24.1046 7.23193L23.8273 7.06006C23.7988 7.10643 23.7789 7.15042 23.7697 7.19287C23.7439 7.31099 23.7873 7.41474 23.9005 7.50439C24.0633 7.63313 24.2332 7.64617 24.4103 7.54346C24.5056 7.48875 24.6094 7.39121 24.7198 7.25146L25.2745 6.54932L25.5148 6.73975L24.3849 8.16943L24.1573 7.98975L24.3273 7.78076C24.2538 7.81085 24.1795 7.82712 24.1046 7.82861C23.9557 7.83224 23.8169 7.78264 23.6886 7.68115C23.4888 7.52316 23.4065 7.34802 23.4415 7.15479C23.456 7.07309 23.4932 6.98482 23.5558 6.89209L23.2755 6.71924L23.7892 5.89014L24.1622 6.12061L24.382 5.84326L24.6271 6.0376ZM9.17786 6.41748C9.16184 6.42651 9.14731 6.43494 9.13489 6.44385C9.12242 6.45284 9.10875 6.46346 9.09485 6.4751C8.9767 6.57414 8.91785 6.68872 8.91809 6.81787C8.9184 6.94706 8.96013 7.06156 9.04309 7.16064L9.71594 7.96436L9.48157 8.16064L8.31165 6.76318L8.5343 6.57666L8.73645 6.81787C8.71539 6.75563 8.71176 6.66082 8.72668 6.53369C8.74153 6.40665 8.79578 6.30399 8.88879 6.22607C8.89312 6.22241 8.90107 6.21638 8.91223 6.2085C8.92336 6.20062 8.94268 6.18781 8.96985 6.16943L9.17786 6.41748ZM10.213 5.42529C10.3472 5.41072 10.4671 5.42655 10.5724 5.47314C10.6734 5.51723 10.7661 5.58538 10.8497 5.67725C10.9104 5.73795 10.9903 5.84547 11.09 5.99951L9.97766 6.71924C10.0831 6.87189 10.2003 6.97383 10.3292 7.02393C10.458 7.07376 10.5939 7.05267 10.7365 6.96045C10.8696 6.87431 10.947 6.76088 10.9689 6.62061C10.9798 6.54039 10.9727 6.46017 10.9474 6.38037L11.2003 6.21631C11.23 6.27672 11.2479 6.35358 11.255 6.44678C11.2621 6.54006 11.2573 6.62408 11.2394 6.69775C11.2111 6.82411 11.148 6.93792 11.0509 7.03857C10.9994 7.09344 10.9349 7.14577 10.8575 7.1958C10.6682 7.31825 10.4626 7.35279 10.2413 7.29932C10.0202 7.2458 9.82851 7.09473 9.66711 6.84521C9.50814 6.59947 9.44529 6.35677 9.47864 6.11768C9.51195 5.87862 9.63578 5.68966 9.84973 5.55127C9.95758 5.48151 10.0788 5.43987 10.213 5.42529ZM22.3497 4.68994L22.1144 6.23486L23.2238 5.1333L23.5255 5.28662C23.434 5.3716 23.2277 5.56575 22.9073 5.86963C22.6666 6.09878 22.4686 6.28496 22.3126 6.42725C21.9452 6.76145 21.7059 6.95758 21.5948 7.01611C21.4841 7.07432 21.3492 7.06383 21.1915 6.98389C21.1533 6.9645 21.1247 6.94758 21.1056 6.93408C21.0864 6.92056 21.0634 6.90187 21.0372 6.87842L21.1632 6.62939C21.204 6.66661 21.2344 6.69274 21.254 6.70654C21.2737 6.72029 21.2916 6.73153 21.3077 6.73975C21.3582 6.76528 21.3996 6.77555 21.4318 6.771C21.4639 6.76633 21.4941 6.75571 21.5226 6.73975C21.5317 6.73417 21.5715 6.70193 21.6407 6.64307C21.7098 6.58434 21.7606 6.54036 21.7931 6.51123L22.0402 4.53271L22.3497 4.68994ZM10.4493 5.74561C10.2993 5.667 10.142 5.68091 9.97864 5.78662C9.86161 5.86238 9.79089 5.96851 9.76672 6.10498C9.74256 6.24137 9.77053 6.37687 9.85071 6.51123L10.6935 5.96631C10.6111 5.86181 10.5301 5.78786 10.4493 5.74561ZM21.798 3.91357L21.6183 4.38916L21.8907 4.49268L21.8019 4.72607L21.5294 4.62354L21.1085 5.73584C21.0861 5.79524 21.0914 5.84299 21.1241 5.87842C21.1419 5.89846 21.1769 5.91836 21.2286 5.93799C21.2423 5.94318 21.2576 5.94832 21.2736 5.95361C21.2898 5.95894 21.3098 5.96401 21.3322 5.96924L21.2452 6.19678C21.2088 6.19387 21.172 6.18834 21.1349 6.1792C21.0978 6.16999 21.059 6.15671 21.0177 6.14111C20.8841 6.09059 20.8062 6.02244 20.7843 5.93604C20.7624 5.84949 20.7723 5.75139 20.8136 5.64209L21.2404 4.51416L21.0089 4.42627L21.0978 4.19287L21.3282 4.27979L21.5089 3.8042L21.798 3.91357ZM12.4161 4.26318C12.6774 4.16745 12.8937 4.17381 13.0646 4.28271C13.1718 4.35207 13.2449 4.44278 13.2833 4.5542L13.0118 4.65381C12.9827 4.59122 12.937 4.54025 12.8761 4.50244C12.781 4.45229 12.65 4.45799 12.4835 4.51904C12.3726 4.55969 12.2961 4.61115 12.254 4.67334C12.212 4.7356 12.2029 4.80091 12.2277 4.86865C12.2549 4.94295 12.3148 4.98934 12.4064 5.00635C12.4595 5.0169 12.5323 5.01619 12.6241 5.00537L12.8341 4.98096C13.0626 4.95392 13.2217 4.95071 13.3107 4.97119C13.4494 5.00369 13.5478 5.09889 13.6056 5.25635C13.6614 5.4086 13.6516 5.56172 13.5753 5.71533C13.499 5.86893 13.341 5.98989 13.1017 6.07764C12.8439 6.1721 12.64 6.18121 12.4904 6.10498C12.3407 6.02877 12.2303 5.90643 12.1603 5.73877L12.4376 5.63818C12.4813 5.73051 12.5322 5.79518 12.5909 5.83154C12.6989 5.89709 12.8448 5.89654 13.0275 5.82959C13.1359 5.78982 13.2226 5.73125 13.2882 5.65479C13.3538 5.57819 13.3697 5.49096 13.3341 5.39404C13.3071 5.32065 13.253 5.27729 13.173 5.26318C13.1221 5.25534 13.0291 5.25826 12.8937 5.27295L12.6398 5.30029C12.4784 5.31841 12.3544 5.31823 12.2677 5.29932C12.1136 5.2676 12.0114 5.18279 11.9611 5.04541C11.9018 4.88361 11.9128 4.73079 11.9943 4.5874C12.0758 4.44413 12.2165 4.33639 12.4161 4.26318ZM20.8448 4.12549L20.3175 5.86084L20.0197 5.77002L20.547 4.03467L20.8448 4.12549ZM14.3683 3.72119C14.4942 3.69618 14.6221 3.70186 14.7521 3.73779C14.8821 3.77377 14.9878 3.83253 15.0685 3.91455C15.1461 3.99286 15.2073 4.09035 15.2511 4.20654C15.2851 4.28533 15.3197 4.41499 15.3556 4.59521L14.0558 4.854C14.0975 5.03466 14.1693 5.17205 14.2706 5.26611C14.3719 5.36 14.5056 5.39097 14.672 5.35791C14.8276 5.32697 14.9418 5.24983 15.0138 5.12744C15.0537 5.05681 15.0763 4.97964 15.0822 4.896L15.3781 4.8374C15.3833 4.9045 15.3717 4.98256 15.3439 5.07178C15.316 5.16119 15.2804 5.2374 15.2365 5.29932C15.1636 5.40634 15.0631 5.4887 14.9357 5.54639C14.8675 5.57844 14.7879 5.6036 14.6974 5.62158C14.4764 5.66549 14.2728 5.62195 14.087 5.49072C13.9011 5.35942 13.7788 5.14747 13.7208 4.85596C13.6638 4.56902 13.6954 4.32071 13.8146 4.11084C13.9337 3.90091 14.1184 3.77091 14.3683 3.72119ZM19.7208 3.81689L19.6515 4.12354C19.6881 4.06906 19.7614 4.00917 19.8712 3.94385C19.9811 3.87856 20.0958 3.85879 20.214 3.88525C20.2195 3.88651 20.2294 3.889 20.2423 3.89307C20.2554 3.89718 20.2774 3.90499 20.3087 3.91553L20.2384 4.23096C20.2215 4.22365 20.2052 4.21786 20.1906 4.21338C20.1758 4.20894 20.1595 4.20466 20.1417 4.20068C19.9912 4.16688 19.8643 4.1894 19.7618 4.26807C19.6594 4.34675 19.5938 4.44959 19.5656 4.57568L19.3361 5.59814L19.0372 5.53076L19.4366 3.75244L19.7208 3.81689ZM17.7579 3.53174L17.6407 4.73584C17.6317 4.82836 17.6384 4.9058 17.6613 4.96729C17.7035 5.08079 17.7966 5.14458 17.9406 5.15869C18.1473 5.17891 18.2974 5.09793 18.3907 4.91553C18.4414 4.81791 18.475 4.68054 18.4923 4.50342L18.5792 3.61279L18.8849 3.64209L18.7072 5.45654L18.4191 5.42822L18.4484 5.16064C18.4029 5.22561 18.3493 5.27907 18.2872 5.3208C18.1639 5.40448 18.0204 5.43829 17.8575 5.42236C17.604 5.39751 17.4394 5.29449 17.3644 5.11279C17.3237 5.01544 17.3112 4.88942 17.3263 4.73486L17.4464 3.50146L17.7579 3.53174ZM16.3292 3.47314C16.5341 3.4632 16.7036 3.50473 16.837 3.59814C16.9703 3.69165 17.056 3.85984 17.0939 4.10205L16.796 4.1167C16.7724 4.00542 16.7265 3.91338 16.6583 3.84229C16.5901 3.77151 16.4844 3.73966 16.3419 3.74658C16.1472 3.75615 16.0122 3.85816 15.9376 4.05225C15.8893 4.17812 15.8703 4.33149 15.879 4.51221C15.8879 4.69444 15.9336 4.84653 16.0167 4.96729C16.0999 5.08791 16.2244 5.14428 16.3898 5.13623C16.5165 5.13 16.6153 5.08622 16.6857 5.00537C16.7561 4.92448 16.8016 4.81573 16.8234 4.68018L17.1212 4.6665C17.099 4.9093 17.0222 5.08938 16.8917 5.20752C16.7611 5.32577 16.5899 5.39057 16.3781 5.40088C16.1402 5.41234 15.9461 5.33446 15.796 5.16748C15.646 5.00046 15.5645 4.7864 15.5519 4.52588C15.5363 4.20647 15.6026 3.95443 15.7491 3.76904C15.8957 3.58356 16.089 3.48483 16.3292 3.47314ZM14.4015 3.98682C14.2648 4.014 14.1599 4.08684 14.087 4.20459C14.0142 4.32256 13.9897 4.45922 14.0148 4.61377L14.9991 4.41846C14.9611 4.29074 14.9123 4.19175 14.8527 4.12256C14.7424 3.99451 14.592 3.94901 14.4015 3.98682ZM21.045 3.46924L20.9435 3.80127L20.6456 3.71143L20.7472 3.37939L21.045 3.46924Z" fill="#E5EAFA"/>
</svg>
