<svg width="8" height="8" viewBox="0 0 8 8" fill="none" xmlns="http://www.w3.org/2000/svg">
<path d="M4.24998 1.16665C4.21685 1.16618 4.18396 1.1723 4.15322 1.18466C4.12247 1.19701 4.09449 1.21535 4.0709 1.23861C4.04731 1.26187 4.02858 1.28959 4.01579 1.32015C4.003 1.35072 3.99642 1.38352 3.99642 1.41665C3.99642 1.44978 4.003 1.48258 4.01579 1.51315C4.02858 1.54371 4.04731 1.57143 4.0709 1.59469C4.09449 1.61795 4.12247 1.63629 4.15322 1.64865C4.18396 1.661 4.21685 1.66712 4.24998 1.66665H5.9798L1.23989 6.40656C1.21589 6.4296 1.19674 6.45719 1.18354 6.48772C1.17035 6.51825 1.16338 6.55111 1.16304 6.58437C1.1627 6.61763 1.169 6.65062 1.18157 6.68142C1.19415 6.71221 1.21274 6.74019 1.23626 6.76371C1.25978 6.78723 1.28775 6.80582 1.31854 6.81839C1.34934 6.83096 1.38233 6.83726 1.41559 6.83692C1.44885 6.83659 1.48171 6.82961 1.51224 6.81642C1.54277 6.80322 1.57037 6.78407 1.5934 6.76008L6.33331 2.02017V3.74998C6.33284 3.78311 6.33896 3.816 6.35132 3.84675C6.36367 3.87749 6.38201 3.90547 6.40527 3.92906C6.42853 3.95265 6.45625 3.97139 6.48681 3.98417C6.51738 3.99696 6.55018 4.00355 6.58331 4.00355C6.61644 4.00355 6.64924 3.99696 6.67981 3.98417C6.71037 3.97139 6.73809 3.95265 6.76135 3.92906C6.78461 3.90547 6.80295 3.87749 6.81531 3.84675C6.82766 3.816 6.83378 3.78311 6.83331 3.74998V1.41665C6.8333 1.35035 6.80696 1.28676 6.76008 1.23988C6.7132 1.193 6.64961 1.16666 6.58331 1.16665H4.24998Z" fill="#E5EAFA"/>
</svg>
