<svg width="16" height="17" viewBox="0 0 16 17" fill="none" xmlns="http://www.w3.org/2000/svg">
<path d="M2.25074 7.67536C6.44008 5.83236 11.8614 3.58536 12.6097 3.27436C14.5727 2.46036 15.1751 2.61636 14.8747 4.41903C14.6591 5.71469 14.0367 10.0044 13.5407 12.6744C13.2464 14.2577 12.5861 14.4454 11.5477 13.7604C11.0484 13.4307 8.52808 11.764 7.98108 11.3727C7.48174 11.016 6.79308 10.587 7.65674 9.74203C7.96408 9.44103 9.97874 7.51736 11.5484 6.02003C11.7541 5.82336 11.4957 5.50036 11.2584 5.65803C9.14274 7.06103 6.20941 9.00836 5.83608 9.26203C5.27208 9.64503 4.73041 9.82069 3.75808 9.54136C3.02341 9.33036 2.30574 9.07869 2.02641 8.98269C0.950743 8.61336 1.20608 8.13503 2.25074 7.67536Z" fill="#E5EAFA"/>
</svg>
