<svg width="12" height="13" viewBox="0 0 12 13" fill="none" xmlns="http://www.w3.org/2000/svg">
<path d="M1.83333 0.136719C0.826742 0.136719 0 0.963461 0 1.97005V10.3034C0 11.31 0.826742 12.1367 1.83333 12.1367H10.1667C11.1733 12.1367 12 11.31 12 10.3034V1.97005C12 0.963461 11.1733 0.136719 10.1667 0.136719H1.83333ZM7.16667 1.80339C7.44333 1.80339 7.66667 2.02672 7.66667 2.30339C7.66667 3.31339 8.49 4.13672 9.5 4.13672C9.77667 4.13672 10 4.36005 10 4.63672C10 4.91339 9.77667 5.13672 9.5 5.13672C8.8 5.13672 8.16 4.88354 7.66667 4.46354V7.80339C7.66667 9.27339 6.47 10.4701 5 10.4701C3.53 10.4701 2.33333 9.27339 2.33333 7.80339C2.33333 6.33339 3.53 5.13672 5 5.13672C5.07 5.13672 5.13971 5.1399 5.20638 5.14323C5.48305 5.16656 5.69 5.40701 5.66667 5.68034C5.64667 5.95701 5.40688 6.16323 5.13021 6.14323C5.08687 6.1399 5.04333 6.13672 5 6.13672C4.08 6.13672 3.33333 6.88339 3.33333 7.80339C3.33333 8.72339 4.08 9.47005 5 9.47005C5.92 9.47005 6.66667 8.72339 6.66667 7.80339V2.30339C6.66667 2.02672 6.89 1.80339 7.16667 1.80339Z" fill="#E5EAFA"/>
</svg>
