<svg width="12" height="12" viewBox="0 0 12 12" fill="none" xmlns="http://www.w3.org/2000/svg">
<path d="M4.5 1.75C2.15723 1.75 0.25 3.65723 0.25 6C0.25 8.34277 2.15723 10.25 4.5 10.25C4.75624 10.25 5.00611 10.2234 5.25 10.1797C5.49303 10.2234 5.74289 10.25 6 10.25C6.25636 10.25 6.506 10.2234 6.75 10.1797C6.99303 10.2234 7.24289 10.25 7.5 10.25C9.84269 10.25 11.75 8.34269 11.75 6C11.75 3.65731 9.84269 1.75 7.5 1.75C7.24289 1.75 6.99303 1.77663 6.75 1.82031C6.506 1.77656 6.25636 1.75 6 1.75C5.74289 1.75 5.49303 1.77663 5.25 1.82031C5.00611 1.77661 4.75624 1.75 4.5 1.75ZM4.5 2.5C4.71789 2.5 4.93001 2.52222 5.13672 2.56006C5.16454 2.56823 5.19321 2.57314 5.22217 2.57471C6.81123 2.90635 8 4.31037 8 6C8 7.6898 6.81097 9.09383 5.22168 9.42529C5.1924 9.42678 5.16339 9.4317 5.13525 9.43994C4.92898 9.47761 4.71739 9.5 4.5 9.5C2.56256 9.5 1 7.93744 1 6C1 4.06256 2.56256 2.5 4.5 2.5ZM7.18359 2.7085C8.53509 3.19273 9.5 4.47902 9.5 6C9.5 7.52098 8.53509 8.80727 7.18359 9.2915C8.13862 8.5114 8.75 7.32591 8.75 6C8.75 4.67409 8.13862 3.4886 7.18359 2.7085ZM8.68359 2.7085C10.0351 3.19273 11 4.47902 11 6C11 7.52098 10.0351 8.80727 8.68359 9.2915C9.63862 8.51138 10.25 7.32587 10.25 6C10.25 4.67413 9.63862 3.48862 8.68359 2.7085ZM4.11914 3.49463C4.01977 3.49618 3.92508 3.53711 3.85586 3.60843C3.78665 3.67975 3.74857 3.77563 3.75 3.875V6.125C3.75001 6.22445 3.78952 6.31983 3.85985 6.39015C3.93017 6.46048 4.02555 6.49999 4.125 6.5H5.875C5.92469 6.5007 5.97403 6.49152 6.02014 6.47299C6.06625 6.45446 6.10822 6.42695 6.14361 6.39206C6.179 6.35717 6.2071 6.31559 6.22628 6.26974C6.24546 6.2239 6.25534 6.1747 6.25534 6.125C6.25534 6.0753 6.24546 6.0261 6.22628 5.98026C6.2071 5.93441 6.179 5.89283 6.14361 5.85794C6.10822 5.82305 6.06625 5.79554 6.02014 5.77701C5.97403 5.75848 5.92469 5.7493 5.875 5.75H4.5V3.875C4.50072 3.82481 4.49136 3.77498 4.47247 3.72848C4.45357 3.68197 4.42554 3.63973 4.39002 3.60426C4.35451 3.56879 4.31223 3.54081 4.2657 3.52198C4.21917 3.50314 4.16933 3.49384 4.11914 3.49463Z" fill="#E5EAFA"/>
</svg>
