 <svg xmlns="http://www.w3.org/2000/svg" width="36" height="36" viewBox="0 0 36 36" fill="none">
                <g clip-path="url(#clip0_50731_275)">
                  <path
                    d="M18 36C27.9411 36 36 27.9411 36 18C36 8.05887 27.9411 0 18 0C8.05887 0 0 8.05887 0 18C0 27.9411 8.05887 36 18 36Z"
                    fill="#F0F0F0" />
                  <path
                    d="M13.3038 35.3803C11.0008 34.7595 8.88057 33.6935 7.04114 32.2797L13.3038 26.0161V35.3803ZM28.9591 32.2797C27.1196 33.6936 24.9987 34.7594 22.6954 35.3803V26.0161L28.9591 32.2797ZM3.72083 28.9594C2.30708 27.12 1.24112 24.9998 0.620239 22.6967H9.98352L3.72083 28.9594ZM35.38 22.6967C34.7592 24.9998 33.6931 27.12 32.2794 28.9594L26.0157 22.6967H35.38ZM9.9845 13.3051H0.620239C1.24103 11.0017 2.30691 8.88103 3.72083 7.04144L9.9845 13.3051ZM32.2794 7.04144C33.6932 8.88101 34.7592 11.0019 35.38 13.3051H26.0157L32.2794 7.04144ZM22.6954 0.620544C24.9988 1.2414 27.1195 2.30722 28.9591 3.72113L22.6954 9.9848V0.620544ZM13.3038 9.98383L7.04114 3.72113C8.88054 2.30738 11.0007 1.24142 13.3038 0.620544V9.98383Z"
                    fill="#0052B4" />
                  <path
                    d="M18 0C18.7957 0 19.5791 0.0523075 20.3477 0.152344V15.6523H35.8477C35.9477 16.4208 36 17.2043 36 18C36 18.7958 35.9477 19.5791 35.8477 20.3477H20.3477V35.8477C19.5792 35.9478 18.7957 36 18 36C17.2042 36 16.4209 35.9477 15.6523 35.8477V20.3477H0.152344C0.0523016 19.5792 0 18.7958 0 18C0 17.2043 0.0523075 16.4209 0.152344 15.6523H15.6523V0.152344C16.4208 0.0523017 17.2042 0 18 0ZM13.3047 24.9092L6.42773 31.7861C6.02752 31.4499 5.64077 31.097 5.27148 30.7275L13.3037 22.6953H13.3047V24.9092ZM31.7861 29.5723C31.4499 29.9725 31.0969 30.3583 30.7275 30.7275L22.6953 22.6953H24.9092L31.7861 29.5723ZM13.3047 13.3047H11.0908L4.21387 6.42773C4.5501 6.02752 4.90304 5.64077 5.27246 5.27148L13.3047 13.3047ZM29.5723 4.21484C29.9724 4.55092 30.3584 4.90315 30.7275 5.27246L22.6953 13.3047V11.0908L29.5723 4.21484Z"
                    fill="#D80027" />
                </g>
                <defs>
                  <clipPath id="clip0_50731_275">
                    <rect width="36" height="36" fill="white" />
                  </clipPath>
                </defs>
              </svg>