  <svg xmlns="http://www.w3.org/2000/svg" width="33" height="33" viewBox="0 0 33 33" fill="none">
              <path
                d="M16.5066 0.136719C18.6665 0.136721 20.7616 0.560239 22.7341 1.39453C24.6394 2.2004 26.3507 3.35389 27.8201 4.82324C29.2894 6.29262 30.4429 8.0039 31.2488 9.90918C32.0831 11.8818 32.5066 13.9769 32.5066 16.1367C32.5066 18.2966 32.0831 20.3917 31.2488 22.3643C30.4429 24.2695 29.2894 25.9808 27.8201 27.4502C26.3507 28.9195 24.6394 30.073 22.7341 30.8789C20.7616 31.7132 18.6665 32.1367 16.5066 32.1367C14.3467 32.1367 12.2516 31.7132 10.2791 30.8789C8.37377 30.073 6.6625 28.9195 5.19312 27.4502C3.72377 25.9808 2.57028 24.2695 1.7644 22.3643C0.930077 20.3917 0.506594 18.2966 0.506592 16.1367C0.506592 13.9769 0.930083 11.8818 1.7644 9.90918C2.57028 8.00389 3.72377 6.29263 5.19312 4.82324C6.6625 3.3539 8.37377 2.2004 10.2791 1.39453C12.2516 0.560245 14.3467 0.136719 16.5066 0.136719ZM16.5066 0.345703C14.3748 0.345703 12.3068 0.763511 10.3601 1.58691C8.47979 2.38226 6.79078 3.52046 5.34058 4.9707C3.8903 6.42091 2.7521 8.10992 1.95679 9.99023C1.13338 11.937 0.715576 14.0049 0.715576 16.1367C0.715578 18.2685 1.13339 20.3365 1.95679 22.2832C2.7521 24.1635 3.89031 25.8525 5.34058 27.3027C6.79078 28.753 8.47979 29.8912 10.3601 30.6865C12.3068 31.5099 14.3748 31.9277 16.5066 31.9277C18.6384 31.9277 20.7064 31.5099 22.6531 30.6865C24.5334 29.8912 26.2224 28.753 27.6726 27.3027C29.1228 25.8525 30.2611 24.1635 31.0564 22.2832C31.8798 20.3365 32.2976 18.2685 32.2976 16.1367C32.2976 14.0049 31.8798 11.937 31.0564 9.99023C30.2611 8.10992 29.1228 6.42091 27.6726 4.9707C26.2224 3.52048 24.5334 2.38226 22.6531 1.58691C20.7064 0.763513 18.6384 0.345705 16.5066 0.345703ZM16.5076 0.748047C18.5846 0.748109 20.5997 1.15471 22.4968 1.95703C24.3292 2.73209 25.9753 3.84179 27.3884 5.25488C28.8016 6.66804 29.9112 8.31407 30.6863 10.1465C31.4888 12.0439 31.8962 14.0594 31.8962 16.1367C31.8962 18.2141 31.4888 20.2296 30.6863 22.127C29.9112 23.9594 28.8016 25.6054 27.3884 27.0186C25.9753 28.4316 24.3293 29.5413 22.4968 30.3164C20.5997 31.1187 18.5846 31.5253 16.5076 31.5254C14.4304 31.5254 12.4146 31.1188 10.5173 30.3164C8.68494 29.5413 7.03885 28.4316 5.62573 27.0186C4.21257 25.6054 3.10298 23.9594 2.32788 22.127C1.52535 20.2296 1.1189 18.2141 1.1189 16.1367C1.1189 14.0594 1.52535 12.0439 2.32788 10.1465C3.10298 8.31407 4.21257 6.66804 5.62573 5.25488C7.03885 3.84179 8.68495 2.73209 10.5173 1.95703C12.4146 1.15465 14.4304 0.748047 16.5076 0.748047ZM16.5076 1.23633C14.4958 1.23633 12.5437 1.63028 10.7068 2.40723C8.93259 3.15768 7.33892 4.23216 5.97046 5.60059C4.60205 6.96909 3.52752 8.56266 2.7771 10.3369C2.0002 12.1737 1.6062 14.1251 1.6062 16.1367C1.6062 18.1484 2.00021 20.0997 2.7771 21.9365C3.52752 23.7108 4.60205 25.3044 5.97046 26.6729C7.33891 28.0413 8.9326 29.1158 10.7068 29.8662C12.5437 30.6432 14.4958 31.0371 16.5076 31.0371C18.5191 31.037 20.4706 30.6431 22.3074 29.8662C24.0815 29.1158 25.6752 28.0413 27.0437 26.6729C28.4121 25.3044 29.4866 23.7108 30.2371 21.9365C31.014 20.0997 31.408 18.1484 31.408 16.1367C31.408 14.1251 31.014 12.1737 30.2371 10.3369C29.4866 8.56267 28.4121 6.96909 27.0437 5.60059C25.6752 4.23216 24.0815 3.15768 22.3074 2.40723C20.4706 1.63034 18.5191 1.23639 16.5076 1.23633ZM17.3796 27.8311C17.5741 27.8177 17.7356 27.8543 17.864 27.9404C17.9925 28.0267 18.0773 28.1847 18.1179 28.4141L17.8357 28.4336C17.8111 28.3284 17.7661 28.242 17.7 28.1758C17.6339 28.1096 17.5326 28.0815 17.3972 28.0908C17.2123 28.1036 17.0864 28.2029 17.0193 28.3887C16.9758 28.5092 16.9596 28.6554 16.9714 28.8271C16.9833 28.9999 17.03 29.1428 17.1111 29.2559C17.1923 29.3689 17.3115 29.4209 17.4685 29.4102C17.5887 29.4019 17.6815 29.3583 17.7468 29.2803C17.8122 29.2021 17.8547 29.098 17.8728 28.9688L18.155 28.9492C18.1385 29.1805 18.0688 29.354 17.947 29.4688C17.8254 29.5832 17.6643 29.6472 17.4636 29.6611C17.238 29.6767 17.0517 29.6068 16.906 29.4512C16.7603 29.2955 16.679 29.0938 16.6619 28.8467C16.641 28.5435 16.6981 28.302 16.8337 28.123C16.9695 27.9441 17.1517 27.8468 17.3796 27.8311ZM14.7966 27.0791C15.0361 27.1154 15.2311 27.2055 15.3806 27.3496C15.53 27.4937 15.585 27.6961 15.5457 27.957L15.2468 27.9121C15.2505 27.7842 15.232 27.6831 15.1921 27.6084C15.1177 27.4719 14.9694 27.3861 14.7468 27.3525C14.567 27.3253 14.4312 27.3452 14.3406 27.4121C14.2502 27.479 14.1973 27.5648 14.1814 27.6689C14.164 27.7841 14.1981 27.876 14.283 27.9434C14.3389 27.9867 14.47 28.0504 14.6765 28.1338L14.9841 28.2568C15.1323 28.3162 15.244 28.3835 15.3181 28.459C15.4461 28.5905 15.4941 28.7609 15.4626 28.9697C15.4233 29.2297 15.3036 29.4023 15.1023 29.4863C14.9009 29.5704 14.6775 29.5935 14.4333 29.5566C14.1487 29.5136 13.9371 29.4049 13.7986 29.2314C13.66 29.0591 13.6117 28.8466 13.6531 28.5938L13.9519 28.6387C13.939 28.7729 13.9531 28.8854 13.9939 28.9766C14.072 29.1475 14.2392 29.2523 14.4958 29.291C14.6106 29.3083 14.7177 29.3078 14.8171 29.2881C15.0097 29.2497 15.1194 29.1449 15.1453 28.9746C15.1646 28.8468 15.1392 28.7497 15.0701 28.6836C14.9997 28.6185 14.8837 28.553 14.7224 28.4883L14.4255 28.3701C14.2313 28.2928 14.0963 28.2196 14.0212 28.1504C13.8917 28.0306 13.8414 27.8727 13.8708 27.6777C13.9028 27.4669 14.0004 27.3042 14.1628 27.1904C14.3252 27.0767 14.5366 27.0399 14.7966 27.0791ZM18.906 27.6172C19.1227 27.5718 19.3215 27.6066 19.5017 27.7207C19.6819 27.8348 19.802 28.0331 19.8611 28.3154C19.9181 28.5883 19.899 28.8276 19.8044 29.0332C19.7097 29.2389 19.5234 29.3716 19.2458 29.4297C19.0143 29.4781 18.8134 29.4377 18.6443 29.3086C18.4752 29.1795 18.3629 28.9814 18.3074 28.7158C18.248 28.4314 18.2725 28.1898 18.3806 27.9912C18.4889 27.7927 18.6641 27.6678 18.906 27.6172ZM19.4089 28.0156C19.2971 27.8764 19.1439 27.8267 18.95 27.8672C18.778 27.9032 18.6664 27.9964 18.616 28.1455C18.5656 28.2945 18.5602 28.463 18.5994 28.6504C18.6371 28.8305 18.7079 28.9724 18.8113 29.0762C18.9146 29.1798 19.0514 29.2142 19.2214 29.1787C19.4079 29.1397 19.5208 29.041 19.5603 28.8838C19.5998 28.7266 19.6018 28.5606 19.5652 28.3857C19.5322 28.2278 19.4797 28.1042 19.4089 28.0156ZM21.5476 26.7578C21.7629 26.6692 21.942 26.6871 22.0837 26.8105C22.1599 26.8769 22.2268 26.9809 22.2849 27.1221L22.7244 28.1885L22.4451 28.3027L21.9871 27.1914C21.9432 27.0848 21.8859 27.0218 21.8162 27.0039C21.7465 26.986 21.6731 26.9938 21.5964 27.0254C21.4909 27.069 21.414 27.1411 21.3669 27.2432C21.3198 27.3452 21.3311 27.4792 21.3992 27.6445L21.783 28.5762L21.5085 28.6885L21.0789 27.6436C21.0341 27.5351 20.9885 27.461 20.9421 27.4219C20.8705 27.364 20.7783 27.3583 20.6667 27.4043C20.5652 27.4462 20.4889 27.5239 20.4382 27.6367C20.3875 27.7497 20.4051 27.9091 20.49 28.1152L20.8396 28.9648L20.5701 29.0752L19.9109 27.4746L20.1765 27.3652L20.2703 27.5918C20.3016 27.487 20.3358 27.4058 20.3728 27.3486C20.4364 27.2513 20.5248 27.1792 20.6375 27.1328C20.7649 27.0803 20.8805 27.0699 20.9841 27.1006C21.0427 27.1184 21.1041 27.155 21.1687 27.21C21.1932 27.0997 21.2378 27.0073 21.3015 26.9326C21.3652 26.858 21.447 26.7993 21.5476 26.7578ZM12.2703 26.6133C12.4502 26.5297 12.6646 26.5308 12.9138 26.6152C13.1432 26.6929 13.3193 26.8154 13.4412 26.9834C13.563 27.1516 13.5815 27.3612 13.4968 27.6113L13.2107 27.5137C13.2368 27.3884 13.2367 27.2855 13.2107 27.2051C13.1614 27.0575 13.0295 26.9473 12.8162 26.875C12.6443 26.8169 12.5078 26.8125 12.407 26.8623C12.306 26.9123 12.2387 26.9879 12.2048 27.0879C12.1675 27.1981 12.1849 27.2938 12.2566 27.375C12.304 27.4275 12.4223 27.5133 12.6111 27.6318L12.8923 27.8066C13.0279 27.8912 13.1256 27.9781 13.1853 28.0654C13.2878 28.2173 13.3047 28.393 13.2371 28.5928C13.1527 28.8417 13.0046 28.9907 12.7917 29.0381C12.5787 29.0854 12.3548 29.0695 12.1208 28.9902C11.8482 28.8978 11.6594 28.7536 11.5535 28.5586C11.4472 28.3644 11.4359 28.1461 11.5212 27.9043L11.8083 28.001C11.772 28.1309 11.7656 28.2449 11.7898 28.3418C11.8367 28.5237 11.9828 28.656 12.2283 28.7393C12.3382 28.7765 12.4442 28.7949 12.5457 28.793C12.7419 28.789 12.8682 28.705 12.9236 28.542C12.9651 28.4195 12.9576 28.3194 12.9011 28.2422C12.8432 28.1658 12.7408 28.0813 12.5935 27.9893L12.322 27.8203C12.1445 27.7102 12.0244 27.6144 11.9626 27.5332C11.8561 27.3925 11.8341 27.2287 11.8972 27.042C11.9657 26.84 12.0902 26.6968 12.2703 26.6133ZM23.4919 25.8633C23.6887 25.915 23.8637 26.0587 24.0154 26.293C24.2202 26.6095 24.2831 26.8896 24.2048 27.1328C24.155 27.2869 24.0605 27.4095 23.9207 27.5C23.8108 27.5711 23.7029 27.6062 23.5974 27.6064C23.5363 27.6076 23.4574 27.5929 23.3611 27.5615L23.8416 28.3037L23.5974 28.4619L22.2859 26.4355L22.5251 26.2812L22.6492 26.4736C22.6555 26.3759 22.676 26.2896 22.7107 26.2158C22.7581 26.1083 22.8376 26.0184 22.949 25.9463C23.114 25.8395 23.2953 25.8118 23.4919 25.8633ZM11.0886 25.8662C11.3697 26.0238 11.5314 26.2471 11.573 26.5361C11.6088 26.7958 11.547 27.0679 11.3875 27.3525C11.2641 27.5725 11.1117 27.7489 10.9304 27.8809C10.6107 28.114 10.2751 28.132 9.92456 27.9355L9.10034 27.4727L10.2615 25.4014L11.0886 25.8662ZM9.51733 27.3926L10.0076 27.667C10.1002 27.7188 10.182 27.7518 10.2527 27.7656C10.3798 27.7887 10.5071 27.7673 10.6335 27.7012C10.7345 27.6479 10.8334 27.5624 10.9304 27.4453C10.9879 27.375 11.0356 27.306 11.073 27.2393C11.2169 26.9827 11.2787 26.7554 11.2585 26.5576C11.2384 26.3598 11.1177 26.1985 10.8962 26.0742L10.4089 25.8018L9.51733 27.3926ZM23.5349 26.2119C23.3678 26.0932 23.1997 26.0881 23.031 26.1973C22.8613 26.3071 22.7998 26.4672 22.8464 26.6768C22.8714 26.7889 22.9292 26.9153 23.0193 27.0547C23.0919 27.1668 23.1711 27.2507 23.2556 27.3076C23.4163 27.4167 23.5808 27.417 23.7498 27.3076C23.864 27.2336 23.9281 27.124 23.9421 26.9795C23.9559 26.8352 23.9018 26.6682 23.7791 26.4785C23.704 26.3627 23.6223 26.2734 23.5349 26.2119ZM25.53 23.833C25.6725 23.7932 25.8043 23.8283 25.9246 23.9395L26.657 24.6162C26.6791 24.6367 26.7015 24.6491 26.7234 24.6523C26.7451 24.6555 26.7697 24.6425 26.7966 24.6133C26.8054 24.6037 26.8151 24.5921 26.825 24.5791C26.8345 24.5663 26.8444 24.5524 26.8542 24.5371L27.0125 24.6826C26.9913 24.7246 26.9734 24.7558 26.9597 24.7754C26.946 24.7949 26.9248 24.8197 26.8972 24.8496C26.8292 24.9231 26.7535 24.9525 26.6707 24.9375C26.6269 24.9293 26.5763 24.9048 26.5193 24.8652C26.536 24.9614 26.5282 25.0702 26.4949 25.1904C26.4614 25.3106 26.3989 25.4195 26.3083 25.5176C26.2317 25.6005 26.1467 25.6547 26.0544 25.6836L26.4187 26.1396L25.656 26.748L25.0955 26.0449L24.2136 25.0527L24.2664 25.0049L24.1755 24.8916L24.9373 24.2832L24.9646 24.3174C25.0013 24.2477 25.0496 24.1816 25.1082 24.1182C25.2461 23.9689 25.387 23.8737 25.53 23.833ZM10.6882 24.4082L9.14233 26.2119L8.4021 25.5771L9.948 23.7734L10.6882 24.4082ZM25.6101 18.7842L25.7576 18.8271C25.1878 20.7894 23.9745 22.5563 22.3406 23.8018C20.6524 25.0886 18.6348 25.7686 16.5066 25.7686C14.3783 25.7685 12.3608 25.0886 10.6726 23.8018C9.03873 22.5563 7.8253 20.7894 7.25562 18.8271L7.40308 18.7842L7.54858 18.7412C7.55269 18.7554 7.5571 18.77 7.56128 18.7842H8.40308L7.65112 19.0703C7.68377 19.1686 7.71864 19.2671 7.75464 19.3643L9.573 18.7842H11.7957L8.53003 20.9658C8.58374 21.0542 8.63849 21.1419 8.69507 21.2285L12.8386 18.7842H13.4314L9.80444 22.6191C9.87632 22.6937 9.94884 22.7677 10.0232 22.8398L14.3123 18.7842H14.448L11.2429 23.8369C11.3269 23.8945 11.4113 23.9513 11.4968 24.0059L15.2146 18.8193L13.0203 24.792C13.1152 24.8303 13.2112 24.8672 13.3074 24.9023L15.8445 19.04L14.9753 25.3389C15.0763 25.3554 15.1782 25.3706 15.28 25.3838L16.5066 19.1143L16.9636 25.4521C17.0661 25.4472 17.1684 25.4407 17.2703 25.4326L17.1697 19.04L18.9656 25.1377C19.0634 25.1111 19.1607 25.0826 19.2576 25.0527L17.7986 18.8193L20.8064 24.416C20.8964 24.369 20.9863 24.3206 21.075 24.2705L18.5125 18.7842H18.6296L22.4285 23.3418C22.5048 23.2789 22.5798 23.2146 22.6541 23.1494L19.4207 18.7842H19.866L23.8718 21.8555C23.93 21.7805 23.9869 21.7045 24.0427 21.6279L20.7556 18.7842H22.0066L24.9109 20.1816C24.9509 20.0989 24.9896 20.0155 25.0271 19.9316L22.9695 18.7842H25.4519C25.4561 18.7701 25.4605 18.7554 25.4646 18.7412L25.6101 18.7842ZM7.48999 23.2109C7.80341 23.1952 8.07632 23.3166 8.30933 23.5752C8.5082 23.796 8.60434 24.0202 8.59644 24.248C8.58853 24.476 8.51527 24.6641 8.37769 24.8125L8.16772 24.5791C8.258 24.4508 8.30189 24.318 8.29858 24.1807C8.29516 24.0434 8.23025 23.9045 8.10425 23.7646C7.95057 23.5942 7.76526 23.5114 7.54858 23.5166C7.33182 23.5217 7.09685 23.6379 6.84448 23.8652C6.63778 24.0515 6.51269 24.2503 6.46948 24.4609C6.42627 24.6714 6.48975 24.8707 6.65894 25.0586C6.81481 25.2316 7.00166 25.303 7.21851 25.2715C7.33285 25.2553 7.45827 25.2059 7.59546 25.125L7.80542 25.3584C7.60131 25.505 7.38461 25.5774 7.15503 25.5752C6.87896 25.5731 6.63436 25.4547 6.42261 25.2197C6.24007 25.0171 6.14905 24.7906 6.14917 24.541C6.15015 24.2118 6.32205 23.8929 6.66479 23.584C6.92519 23.3494 7.20068 23.225 7.48999 23.2109ZM26.032 24.4346C26.0245 24.4761 26.0071 24.5229 25.9802 24.5742C25.9535 24.6255 25.924 24.673 25.8923 24.7168L25.7898 24.8613C25.7286 24.9481 25.6914 25.0216 25.6775 25.0811C25.6664 25.1275 25.6671 25.1709 25.6785 25.2119L25.8142 25.3818C25.8625 25.4102 25.9147 25.4202 25.9714 25.4111C26.0485 25.3989 26.1157 25.3623 26.1726 25.3008C26.2421 25.2255 26.2926 25.1358 26.323 25.0332C26.3747 24.8615 26.335 24.7149 26.2039 24.5938L26.032 24.4346ZM25.5398 24.1123C25.4591 24.1336 25.3738 24.1928 25.2849 24.2891C25.2001 24.3808 25.1581 24.4699 25.155 24.5557L25.4597 24.9385C25.4809 24.8952 25.5069 24.8519 25.5378 24.8086L25.8103 24.4277C25.8492 24.373 25.8588 24.3211 25.8396 24.2725C25.8292 24.2453 25.806 24.2148 25.7703 24.1816C25.6974 24.1144 25.6203 24.0913 25.5398 24.1123ZM24.2214 24.6162L23.9998 24.8125L23.781 24.5654L24.0027 24.3691L24.2214 24.6162ZM26.7615 22.3936C26.8655 22.4075 26.9898 22.4639 27.1335 22.5625L28.0496 23.1914L27.8826 23.4355L26.9822 22.8174C26.8955 22.758 26.8166 22.7229 26.7458 22.7119C26.6277 22.6936 26.5298 22.7406 26.4529 22.8525C26.414 22.9093 26.3872 22.9596 26.3738 23.0039C26.3482 23.0831 26.3483 23.1678 26.3728 23.2578C26.3924 23.3301 26.4226 23.39 26.4646 23.4365C26.5065 23.4829 26.5746 23.5376 26.6677 23.6016L27.4158 24.1152L27.2507 24.3555L25.824 23.375L25.9802 23.1475L26.1824 23.2861C26.1452 23.1614 26.1347 23.0487 26.1501 22.9482C26.1655 22.8478 26.2049 22.7516 26.2683 22.6592C26.4072 22.4567 26.5716 22.3678 26.7615 22.3936ZM7.1394 22.1602C7.24921 22.3391 7.28654 22.5152 7.25269 22.6875C7.21872 22.8597 7.10996 23.0025 6.92651 23.1152C6.76867 23.2121 6.60085 23.247 6.42358 23.2207C6.24631 23.1943 6.0957 23.0801 5.97144 22.8779L5.58276 22.2461L4.72729 22.7715L4.55933 22.498L6.58276 21.2549L7.1394 22.1602ZM5.81421 22.1035L6.14722 22.6455C6.22214 22.7675 6.30905 22.8505 6.40796 22.8945C6.50708 22.9385 6.62336 22.9201 6.75562 22.8389C6.90427 22.7475 6.97169 22.6303 6.95776 22.4883C6.94919 22.4107 6.91268 22.3195 6.84839 22.2148L6.51538 21.6729L5.81421 22.1035ZM27.2703 21.4951L27.1384 21.7383L28.1335 22.2744C28.1866 22.3029 28.232 22.3046 28.2693 22.2783C28.2905 22.264 28.3134 22.233 28.3386 22.1865C28.3452 22.1743 28.3522 22.161 28.3591 22.1465C28.3662 22.1319 28.3739 22.1141 28.3816 22.0938L28.5847 22.2041C28.5774 22.2381 28.5668 22.2719 28.5535 22.3057C28.5401 22.3394 28.5236 22.3751 28.5037 22.4121C28.4393 22.5313 28.3651 22.5957 28.281 22.6055C28.1968 22.6152 28.1053 22.5938 28.0076 22.541L26.9988 21.9971L26.8875 22.2031L26.6785 22.0908L26.7898 21.8838L26.365 21.6543L26.5046 21.3955L26.9294 21.625L27.0613 21.3818L27.2703 21.4951ZM20.447 16.834L20.9236 15.3945H21.2527C21.2108 15.5081 21.1173 15.7664 20.9734 16.1699C20.8656 16.4737 20.7755 16.7216 20.7029 16.9131C20.5313 17.3639 20.41 17.6393 20.3396 17.7383C20.2692 17.837 20.1485 17.8867 19.9773 17.8867C19.9355 17.8867 19.9032 17.8851 19.8806 17.8818C19.8582 17.8785 19.8304 17.872 19.7976 17.8633V17.5928C19.8488 17.607 19.8859 17.6158 19.9089 17.6191C19.932 17.6224 19.9529 17.624 19.9705 17.624C20.0253 17.624 20.0658 17.6148 20.0916 17.5967C20.1173 17.5786 20.1395 17.5566 20.157 17.5303C20.1626 17.5213 20.1816 17.4756 20.2156 17.3945C20.2495 17.3135 20.2744 17.2534 20.2898 17.2139L19.6365 15.3945H19.9734L20.447 16.834ZM5.75562 14.6758C6.00294 14.6758 6.21353 14.7377 6.38647 14.8604C6.55905 14.9831 6.6452 15.179 6.64526 15.4482H6.33667C6.32083 15.3186 6.28675 15.2187 6.23511 15.1494C6.1391 15.0232 5.97636 14.96 5.74683 14.96C5.56125 14.96 5.42768 15.0008 5.34644 15.082C5.2652 15.1635 5.22437 15.2584 5.22437 15.3662C5.22442 15.4849 5.27209 15.572 5.36792 15.627C5.43083 15.6622 5.57387 15.706 5.79565 15.7588L6.12476 15.8369C6.28354 15.8743 6.4066 15.9253 6.49292 15.9902C6.6419 16.1035 6.71654 16.268 6.71655 16.4834C6.71655 16.7519 6.62091 16.9441 6.43042 17.0596C6.23997 17.175 6.01848 17.2324 5.76636 17.2324C5.47246 17.2324 5.24221 17.1559 5.07593 17.002C4.90957 16.8491 4.82856 16.6416 4.83179 16.3799H5.14038C5.14785 16.5173 5.17909 16.6291 5.23413 16.7148C5.33913 16.8753 5.52396 16.9561 5.78882 16.9561C5.9075 16.9561 6.0155 16.9376 6.11304 16.9023C6.30169 16.8341 6.39624 16.7122 6.39624 16.5361C6.39621 16.4042 6.35603 16.31 6.27612 16.2539C6.19508 16.199 6.06784 16.151 5.89526 16.1104L5.57788 16.0361C5.37013 15.9878 5.22282 15.9343 5.13647 15.876C4.98721 15.7747 4.91187 15.6233 4.91187 15.4219C4.91192 15.2041 4.98592 15.0254 5.13257 14.8857C5.27925 14.7461 5.48693 14.6758 5.75562 14.6758ZM7.77515 15.3545C7.89973 15.3545 8.02049 15.3837 8.13745 15.4424C8.25431 15.5012 8.34378 15.5775 8.40503 15.6709C8.46407 15.76 8.50346 15.8646 8.52319 15.9834C8.54066 16.0648 8.54956 16.1949 8.54956 16.373H7.26343C7.26892 16.5527 7.31091 16.697 7.3894 16.8057C7.46798 16.9143 7.58996 16.9687 7.75464 16.9688C7.90858 16.9688 8.03206 16.9173 8.12378 16.8145C8.17496 16.7549 8.21078 16.6857 8.23218 16.6074H8.52515C8.51743 16.6723 8.49136 16.7445 8.448 16.8242C8.40455 16.9039 8.35593 16.969 8.30249 17.0195C8.21294 17.1076 8.10159 17.1674 7.96948 17.1982C7.89863 17.2157 7.81855 17.2246 7.72925 17.2246C7.51054 17.2246 7.32462 17.1445 7.17261 16.9844C7.02072 16.8243 6.94507 16.5997 6.94507 16.3115C6.9451 16.0278 7.02151 15.7972 7.17456 15.6201C7.32767 15.443 7.528 15.3545 7.77515 15.3545ZM13.9724 15.3545C14.0971 15.3545 14.2186 15.3836 14.3357 15.4424C14.4526 15.5012 14.542 15.5774 14.6033 15.6709C14.6623 15.76 14.7017 15.8646 14.7214 15.9834C14.7389 16.0649 14.7468 16.195 14.7468 16.373H13.4617C13.4672 16.5528 13.5091 16.697 13.5876 16.8057C13.6663 16.9143 13.7881 16.9688 13.9529 16.9688C14.1067 16.9687 14.2294 16.9172 14.321 16.8145C14.3723 16.7548 14.409 16.6859 14.4304 16.6074H14.7224C14.7147 16.6723 14.6886 16.7445 14.6453 16.8242C14.6018 16.9039 14.5532 16.969 14.4998 17.0195C14.4102 17.1075 14.2998 17.1674 14.1677 17.1982C14.0967 17.2158 14.016 17.2246 13.9265 17.2246C13.708 17.2245 13.5228 17.1444 13.3708 16.9844C13.2188 16.8243 13.1433 16.5998 13.1433 16.3115C13.1433 16.0277 13.2197 15.7972 13.3728 15.6201C13.5258 15.4432 13.7255 15.3546 13.9724 15.3545ZM24.865 15.3545C24.9896 15.3545 25.1112 15.3836 25.2283 15.4424C25.345 15.5011 25.4337 15.5776 25.4949 15.6709C25.5539 15.76 25.5933 15.8646 25.613 15.9834C25.6305 16.0648 25.6394 16.1949 25.6394 16.373H24.3542C24.3598 16.5528 24.4017 16.697 24.4802 16.8057C24.5589 16.9143 24.6806 16.9688 24.8455 16.9688C24.9993 16.9687 25.1219 16.9172 25.2136 16.8145C25.2649 16.7548 25.3016 16.6859 25.323 16.6074H25.615C25.6072 16.6723 25.5812 16.7445 25.5378 16.8242C25.4943 16.9039 25.4458 16.969 25.3923 17.0195C25.3028 17.1075 25.1924 17.1674 25.0603 17.1982C24.9892 17.2158 24.9086 17.2246 24.8191 17.2246C24.6005 17.2245 24.4153 17.1444 24.2634 16.9844C24.1113 16.8243 24.0359 16.5998 24.0359 16.3115C24.0359 16.0277 24.1123 15.7972 24.2654 15.6201C24.4183 15.4432 24.618 15.3546 24.865 15.3545ZM18.7273 15.3516C18.9351 15.3516 19.1044 15.3905 19.2341 15.4697C19.3626 15.549 19.4265 15.6726 19.4265 15.8398V16.8584C19.4265 16.8891 19.4334 16.914 19.446 16.9326C19.4587 16.951 19.485 16.9599 19.5251 16.96C19.5383 16.96 19.5537 16.9597 19.5701 16.958C19.5866 16.9564 19.6041 16.9535 19.6228 16.9502V17.1699C19.5767 17.1831 19.5415 17.1911 19.5173 17.1943C19.4932 17.1977 19.4603 17.2002 19.4187 17.2002C19.3163 17.2002 19.2413 17.1634 19.1951 17.0908C19.1709 17.0523 19.1542 16.9979 19.1443 16.9277C19.0837 17.0069 18.9968 17.0755 18.8835 17.1338C18.7702 17.1921 18.645 17.2217 18.5085 17.2217C18.3449 17.2216 18.2111 17.1714 18.1072 17.0723C18.0032 16.9728 17.9509 16.8477 17.9509 16.6982C17.951 16.5347 18.0019 16.4074 18.1042 16.3174C18.2065 16.2273 18.3414 16.1723 18.5076 16.1514L18.9812 16.0918C19.0493 16.0829 19.0949 16.0541 19.1179 16.0059C19.131 15.9794 19.1375 15.9411 19.1375 15.8916C19.1374 15.7902 19.1017 15.7167 19.03 15.6709C18.9581 15.6251 18.8552 15.6016 18.7214 15.6016C18.5667 15.6016 18.4561 15.6437 18.3914 15.7275C18.3551 15.774 18.332 15.8438 18.321 15.9355H18.0437C18.0492 15.717 18.1199 15.565 18.2556 15.4795C18.3912 15.3941 18.5484 15.3516 18.7273 15.3516ZM9.51343 15.3428C9.71258 15.3428 9.87486 15.3915 9.99976 15.4883C10.1245 15.5852 10.199 15.7518 10.2244 15.9883H9.93628C9.91867 15.8793 9.87791 15.7889 9.81519 15.7168C9.75246 15.6448 9.65199 15.6084 9.51343 15.6084C9.32417 15.6084 9.18858 15.7011 9.10718 15.8857C9.05439 16.0055 9.02808 16.1534 9.02808 16.3291C9.02808 16.506 9.06557 16.6554 9.14038 16.7764C9.21522 16.897 9.3334 16.957 9.4939 16.957C9.61698 16.957 9.71483 16.9198 9.78687 16.8447C9.8589 16.7697 9.90879 16.6665 9.93628 16.5361H10.2244C10.1914 16.7705 10.1093 16.9424 9.97729 17.0508C9.84524 17.1592 9.67615 17.2129 9.47046 17.2129C9.23949 17.2129 9.05524 17.1287 8.91772 16.96C8.78025 16.7911 8.71175 16.58 8.71167 16.3271C8.71167 16.017 8.78666 15.7753 8.93726 15.6025C9.08803 15.4298 9.28015 15.3428 9.51343 15.3428ZM10.7244 16.5674C10.7244 16.6577 10.7385 16.7319 10.7664 16.7891C10.8178 16.8945 10.9142 16.9473 11.0544 16.9473C11.2556 16.9471 11.3927 16.8546 11.4656 16.6699C11.5052 16.571 11.5251 16.4352 11.5251 16.2627V15.3945H11.822V17.1621H11.5417L11.5447 16.9014C11.5069 16.9684 11.4601 17.0252 11.4041 17.0713C11.2928 17.1637 11.1575 17.21 10.9988 17.21C10.7516 17.2099 10.5835 17.1254 10.4939 16.957C10.4453 16.8668 10.4207 16.7465 10.4207 16.5957V15.3945H10.7244V16.5674ZM28.0662 15.3945H28.3484V15.6367H28.0662V16.79C28.0662 16.8517 28.0878 16.8932 28.1296 16.9141C28.1528 16.9261 28.1913 16.9326 28.2449 16.9326C28.2592 16.9326 28.2744 16.9324 28.2908 16.9316C28.3071 16.931 28.3265 16.9287 28.3484 16.9258V17.1621C28.3143 17.1719 28.2786 17.1791 28.2419 17.1836C28.2051 17.1879 28.1655 17.1894 28.1228 17.1895C27.9842 17.1895 27.8901 17.154 27.8406 17.083C27.7911 17.0121 27.7664 16.9199 27.7664 16.8066V15.6367H27.5271V15.3945H27.7664V14.9004H28.0662V15.3945ZM13.0125 15.3564C13.0257 15.3575 13.0489 15.359 13.0808 15.3623V15.6758C13.0633 15.6725 13.0468 15.671 13.032 15.6699C13.0172 15.6688 13.0007 15.668 12.9832 15.668C12.8335 15.668 12.7187 15.7163 12.6384 15.8125C12.5582 15.9087 12.5174 16.0193 12.5173 16.1445V17.1621H12.2205V15.3936H12.5027V15.6992C12.5258 15.6399 12.5825 15.5676 12.6726 15.4824C12.7628 15.3971 12.8673 15.3545 12.9851 15.3545C12.9906 15.3545 12.9997 15.3554 13.0125 15.3564ZM17.03 14.7373C17.2443 14.7374 17.4177 14.7975 17.5496 14.9189C17.6814 15.0405 17.7468 15.2117 17.7468 15.4316C17.7468 15.6209 17.6877 15.7864 17.5701 15.9268C17.4523 16.0667 17.2723 16.1367 17.03 16.1367H16.2732V17.1621H15.9451V14.7373H17.03ZM23.239 15.3545C23.4765 15.3545 23.6386 15.4407 23.7244 15.6123C23.7704 15.7046 23.7937 15.8294 23.7937 15.9854V17.1621H23.4851V15.9336C23.4851 15.816 23.4551 15.7354 23.3962 15.6914C23.3375 15.6475 23.2659 15.6251 23.1814 15.625C23.0647 15.625 22.9638 15.6641 22.8796 15.7422C22.7955 15.8204 22.7537 15.9512 22.7537 16.1338V17.1621H22.4519V16.0078C22.4519 15.888 22.4376 15.8001 22.4089 15.7451C22.3637 15.6627 22.2791 15.6221 22.156 15.6221C22.0437 15.6221 21.9413 15.665 21.8494 15.752C21.7576 15.8389 21.7117 15.9969 21.7117 16.2246V17.1621H21.4148V15.3936H21.7087V15.6445C21.7791 15.5577 21.843 15.4947 21.9001 15.4551C21.9979 15.388 22.1089 15.3546 22.2332 15.3545C22.3741 15.3545 22.4881 15.3887 22.574 15.458C22.6224 15.4976 22.6662 15.5568 22.7058 15.6338C22.7718 15.5392 22.8491 15.4686 22.9382 15.4229C23.0274 15.3772 23.1279 15.3545 23.239 15.3545ZM26.781 15.3545C27.0319 15.3545 27.2017 15.4422 27.2898 15.6172C27.338 15.7128 27.362 15.8496 27.3621 16.0273V17.1621H27.0603V16.0479C27.0603 15.9402 27.0443 15.8531 27.0125 15.7871C26.9597 15.6772 26.8638 15.6222 26.7253 15.6221C26.6549 15.6221 26.5966 15.6292 26.5515 15.6436C26.4702 15.6678 26.3982 15.7155 26.3367 15.7881C26.2873 15.8462 26.2559 15.9068 26.241 15.9688C26.2262 16.0309 26.2185 16.12 26.2185 16.2354V17.1621H25.9216V15.3936H26.2039V15.6445C26.2874 15.5413 26.376 15.4669 26.4695 15.4219C26.5629 15.3769 26.6668 15.3545 26.781 15.3545ZM19.1296 16.2637C19.0934 16.2868 19.0461 16.3058 18.989 16.3213C18.9321 16.3367 18.8757 16.348 18.821 16.3545L18.6423 16.3779C18.5348 16.3922 18.4534 16.4146 18.3992 16.4453C18.3073 16.497 18.2615 16.5793 18.2615 16.6924C18.2616 16.7778 18.2926 16.8452 18.3552 16.8945C18.4179 16.9439 18.4922 16.9687 18.5779 16.9688C18.6823 16.9688 18.7838 16.9447 18.8816 16.8965C19.0467 16.8163 19.1296 16.6844 19.1296 16.502V16.2637ZM7.75659 15.6133C7.62131 15.6133 7.50746 15.6633 7.41577 15.7617C7.32431 15.8601 7.27571 15.985 7.27026 16.1367H8.2439C8.23188 16.0081 8.20447 15.9051 8.16089 15.8281C8.08019 15.6851 7.94521 15.6133 7.75659 15.6133ZM13.9539 15.6133C13.8187 15.6133 13.7057 15.6633 13.614 15.7617C13.5224 15.8602 13.473 15.9849 13.4675 16.1367H14.4421C14.4301 16.008 14.4018 15.9052 14.3582 15.8281C14.2774 15.6851 14.1425 15.6133 13.9539 15.6133ZM24.8464 15.6133C24.7112 15.6133 24.5973 15.6633 24.5056 15.7617C24.4143 15.8601 24.3655 15.9851 24.3601 16.1367H25.3347C25.3226 16.008 25.2943 15.9052 25.2507 15.8281C25.1699 15.6851 25.0352 15.6133 24.8464 15.6133ZM16.2732 15.8594H16.9216C17.0678 15.8594 17.1869 15.8282 17.2781 15.7656C17.3693 15.7029 17.4158 15.592 17.4158 15.4336C17.4158 15.2553 17.3496 15.1341 17.2185 15.0703C17.1464 15.0363 17.0472 15.0195 16.9216 15.0195H16.2732V15.8594ZM16.5066 6.50488C18.6348 6.50488 20.6524 7.1849 22.3406 8.47168C23.9744 9.71719 25.1879 11.484 25.7576 13.4463L25.4646 13.5322C25.4605 13.518 25.4561 13.5034 25.4519 13.4893H22.7839L24.9646 12.2061C24.9211 12.113 24.8764 12.0203 24.8298 11.9287L21.8113 13.4893H20.6189L23.865 10.4102C23.8032 10.3307 23.7399 10.2523 23.6755 10.1748L19.7673 13.4893H19.3826L22.4998 8.99121C22.4196 8.92383 22.338 8.85763 22.2556 8.79297L18.6111 13.4893H18.4958L20.824 7.86621C20.7339 7.81895 20.6429 7.77271 20.5515 7.72852L17.7986 13.4541L18.9353 7.12695C18.8394 7.10125 18.742 7.07728 18.6453 7.05469L17.1697 13.2334L17.0652 6.82617C16.9634 6.8202 16.861 6.81616 16.7585 6.81348L16.5066 13.1592L15.0476 6.92285C14.944 6.93901 14.8408 6.95698 14.738 6.97656L15.8445 13.2334L13.0818 7.45703C12.9836 7.49587 12.8857 7.53587 12.7888 7.57812L15.2146 13.4541L11.325 8.38086C11.2373 8.4397 11.1503 8.50051 11.0642 8.5625L14.4324 13.4893H14.2654L9.73511 9.72656C9.66305 9.80288 9.59164 9.88032 9.52222 9.95898L13.3269 13.4893H12.6765L8.53003 11.3066C8.478 11.3923 8.42792 11.4792 8.37866 11.5664L11.572 13.4893H9.573L7.75464 12.9092C7.71868 13.0063 7.68377 13.1048 7.65112 13.2031L8.40308 13.4893H7.56128C7.5571 13.5034 7.55271 13.518 7.54858 13.5322L7.40308 13.4893L7.25562 13.4463C7.82533 11.484 9.03872 9.7172 10.6726 8.47168C12.3607 7.18487 14.3784 6.50492 16.5066 6.50488ZM6.24976 8.43848C6.35587 8.44816 6.47807 8.49525 6.61499 8.58008L7.64624 9.21973L7.47827 9.49023L6.4021 8.82324C6.29891 8.75935 6.21189 8.74089 6.14136 8.76855C6.07085 8.7963 6.01254 8.84763 5.96655 8.92188C5.90337 9.02395 5.88337 9.13303 5.90601 9.24902C5.9288 9.36522 6.02031 9.47312 6.18042 9.57227L7.08179 10.1309L6.91772 10.3955L5.90601 9.76953C5.80095 9.70445 5.71684 9.66889 5.65308 9.66406C5.55626 9.65884 5.47386 9.7104 5.40698 9.81836C5.34618 9.91658 5.32902 10.0297 5.35522 10.1572C5.38152 10.2849 5.49466 10.4106 5.69409 10.5342L6.51636 11.0439L6.35522 11.3037L4.80542 10.3438L4.9646 10.0869L5.1853 10.2227C5.14739 10.1139 5.12644 10.0238 5.1228 9.95215C5.11712 9.82989 5.14805 9.71445 5.21558 9.60547C5.29204 9.48203 5.38359 9.4009 5.49097 9.36328C5.55184 9.34249 5.6268 9.33568 5.71558 9.34277C5.66853 9.23359 5.6496 9.12725 5.65796 9.02441C5.66635 8.92177 5.70039 8.8218 5.7605 8.72461C5.8895 8.51635 6.05281 8.4206 6.24976 8.43848ZM29.6306 10.3818L27.9968 11.1123L28.7966 8.85254L29.6306 10.3818ZM26.5906 8.32617C26.8273 8.32609 27.0177 8.42876 27.1609 8.63477C27.24 8.7488 27.2818 8.86115 27.2869 8.97168C27.2898 9.03566 27.2763 9.12041 27.2458 9.22559L28.0017 8.7002L28.1697 8.94238L26.1101 10.373L25.9529 10.1465L26.1609 10.002C26.0282 10.0076 25.9135 9.98484 25.8171 9.93359C25.7207 9.88228 25.6367 9.80499 25.5652 9.70215C25.4498 9.53605 25.4196 9.34302 25.4753 9.12402C25.5312 8.90513 25.6751 8.71444 25.908 8.55273C26.126 8.40125 26.3536 8.32628 26.5906 8.32617ZM26.616 8.62891C26.4646 8.61795 26.2944 8.67789 26.1062 8.80859C25.9462 8.91994 25.8361 9.04775 25.7751 9.19043C25.7142 9.33312 25.7351 9.4788 25.8386 9.62793C25.9191 9.74379 26.0353 9.80449 26.1873 9.80957C26.3391 9.81463 26.5089 9.75202 26.696 9.62207C26.885 9.49076 26.9984 9.35481 27.0359 9.21484C27.0733 9.07482 27.0529 8.94801 26.9744 8.83496C26.8867 8.70886 26.7672 8.63995 26.616 8.62891ZM7.53101 6.97168C7.75528 6.9607 7.97888 7.05932 8.20093 7.2666C8.41542 7.46694 8.54451 7.68454 8.58765 7.91895C8.63059 8.15328 8.55007 8.37961 8.34644 8.59766C8.17653 8.77956 7.97934 8.86599 7.75562 8.85742C7.53203 8.84871 7.31577 8.74738 7.10718 8.55273C6.88353 8.34385 6.75847 8.12036 6.7312 7.88379C6.70411 7.64739 6.77927 7.43426 6.95679 7.24414C7.11578 7.07391 7.30699 6.98275 7.53101 6.97168ZM25.5398 6.93457C25.7035 6.95329 25.858 7.04046 26.0037 7.19531C26.1942 7.39794 26.273 7.59902 26.24 7.79883C26.2183 7.92488 26.1634 8.02828 26.0759 8.10742L25.8787 7.89648C25.9247 7.84512 25.9528 7.78364 25.9636 7.71289C25.9726 7.60557 25.9163 7.48681 25.7947 7.35742C25.7136 7.27129 25.636 7.22124 25.5623 7.20703C25.4885 7.19287 25.4253 7.21049 25.3728 7.25977C25.3152 7.31394 25.2959 7.38672 25.3162 7.47754C25.3271 7.53055 25.3561 7.59733 25.4021 7.67773L25.5076 7.8623C25.6222 8.06204 25.688 8.2071 25.7039 8.29688C25.7282 8.4371 25.6787 8.56479 25.5564 8.67969C25.4384 8.79061 25.2939 8.84095 25.1228 8.83105C24.9515 8.8211 24.7779 8.7238 24.6033 8.53809C24.4152 8.33808 24.3272 8.1539 24.3386 7.98633C24.3501 7.8189 24.419 7.67014 24.5457 7.54004L24.7478 7.75391C24.6798 7.83048 24.6399 7.90324 24.6296 7.97168C24.6115 8.09661 24.6693 8.23036 24.8025 8.37207C24.8819 8.45639 24.97 8.51361 25.0662 8.54395C25.1623 8.57423 25.2478 8.55402 25.323 8.4834C25.38 8.42978 25.4 8.36331 25.3816 8.28418C25.369 8.23431 25.3284 8.14942 25.2615 8.03027L25.1375 7.80859C25.0574 7.66725 25.0085 7.55301 24.9919 7.46582C24.9606 7.31171 24.9986 7.18424 25.1052 7.08398C25.2308 6.96588 25.3757 6.91588 25.5398 6.93457ZM7.63062 7.28223C7.44997 7.23012 7.2886 7.28026 7.14624 7.43262C7.01992 7.5679 6.98015 7.71507 7.0271 7.87402C7.07404 8.03276 7.17095 8.18086 7.31812 8.31836C7.45977 8.4506 7.60673 8.53002 7.75854 8.55664C7.91033 8.58328 8.04881 8.53015 8.17358 8.39648C8.31049 8.24978 8.34813 8.09671 8.28687 7.9375C8.22556 7.77825 8.12644 7.63422 7.98901 7.50586C7.86486 7.38993 7.74516 7.3156 7.63062 7.28223ZM24.2175 5.66504L24.0203 5.91309L24.2087 6.03027L23.6951 6.85938L23.4177 6.6875C23.3893 6.73387 23.3694 6.77786 23.3601 6.82031C23.3343 6.93843 23.3777 7.04219 23.491 7.13184C23.6537 7.26058 23.8237 7.27361 24.0007 7.1709C24.0961 7.11619 24.1999 7.01865 24.3103 6.87891L24.865 6.17676L25.1052 6.36719L23.9753 7.79688L23.7478 7.61719L23.9177 7.4082C23.8443 7.43829 23.77 7.45456 23.6951 7.45605C23.5461 7.45969 23.4074 7.41008 23.2791 7.30859C23.0792 7.1506 22.997 6.97546 23.032 6.78223C23.0465 6.70053 23.0837 6.61226 23.1462 6.51953L22.866 6.34668L23.3796 5.51758L23.7527 5.74805L23.9724 5.4707L24.2175 5.66504ZM8.76831 6.04492C8.7523 6.05395 8.73776 6.06238 8.72534 6.07129C8.71287 6.08028 8.6992 6.0909 8.6853 6.10254C8.56715 6.20158 8.50831 6.31616 8.50854 6.44531C8.50885 6.57451 8.55059 6.689 8.63354 6.78809L9.3064 7.5918L9.07202 7.78809L7.9021 6.39062L8.12476 6.2041L8.3269 6.44531C8.30585 6.38307 8.30221 6.28826 8.31714 6.16113C8.33199 6.03409 8.38624 5.93143 8.47925 5.85352C8.48358 5.84985 8.49152 5.84383 8.50269 5.83594C8.51381 5.82807 8.53314 5.81525 8.5603 5.79688L8.76831 6.04492ZM9.80347 5.05273C9.93764 5.03816 10.0575 5.05399 10.1628 5.10059C10.2639 5.14467 10.3566 5.21282 10.4402 5.30469C10.5009 5.36539 10.5808 5.47291 10.6804 5.62695L9.56812 6.34668C9.67357 6.49933 9.7908 6.60127 9.91968 6.65137C10.0485 6.70121 10.1844 6.68011 10.3269 6.58789C10.4601 6.50175 10.5374 6.38832 10.5593 6.24805C10.5703 6.16783 10.5631 6.08761 10.5378 6.00781L10.7908 5.84375C10.8204 5.90417 10.8384 5.98102 10.8455 6.07422C10.8525 6.1675 10.8477 6.25152 10.8298 6.3252C10.8016 6.45155 10.7385 6.56537 10.6414 6.66602C10.5898 6.72088 10.5253 6.77321 10.448 6.82324C10.2587 6.94569 10.053 6.98023 9.83179 6.92676C9.61061 6.87324 9.41897 6.72217 9.25757 6.47266C9.09859 6.22691 9.03574 5.98421 9.06909 5.74512C9.1024 5.50606 9.22624 5.3171 9.44019 5.17871C9.54804 5.10895 9.6693 5.06731 9.80347 5.05273ZM21.9402 4.31738L21.7048 5.8623L22.8142 4.76074L23.116 4.91406C23.0245 4.99904 22.8181 5.19319 22.4978 5.49707C22.257 5.72622 22.0591 5.9124 21.9031 6.05469C21.5356 6.38889 21.2963 6.58502 21.1853 6.64355C21.0745 6.70176 20.9397 6.69128 20.782 6.61133C20.7437 6.59194 20.7152 6.57503 20.696 6.56152C20.6769 6.548 20.6539 6.52931 20.6277 6.50586L20.7537 6.25684C20.7944 6.29405 20.8248 6.32018 20.8445 6.33398C20.8642 6.34773 20.882 6.35897 20.8982 6.36719C20.9486 6.39272 20.99 6.40299 21.0222 6.39844C21.0544 6.39377 21.0846 6.38316 21.113 6.36719C21.1221 6.36161 21.162 6.32937 21.2312 6.27051C21.3002 6.21178 21.3511 6.1678 21.3835 6.13867L21.6306 4.16016L21.9402 4.31738ZM10.0398 5.37305C9.8898 5.29444 9.73247 5.30835 9.56909 5.41406C9.45207 5.48982 9.38135 5.59595 9.35718 5.73242C9.33301 5.86881 9.36099 6.00431 9.44116 6.13867L10.2839 5.59375C10.2016 5.48925 10.1205 5.4153 10.0398 5.37305ZM21.3884 3.54102L21.2087 4.0166L21.4812 4.12012L21.3923 4.35352L21.1199 4.25098L20.699 5.36328C20.6766 5.42268 20.6819 5.47043 20.7146 5.50586C20.7324 5.5259 20.7673 5.54581 20.8191 5.56543C20.8328 5.57063 20.848 5.57576 20.864 5.58105C20.8802 5.58638 20.9003 5.59146 20.9226 5.59668L20.8357 5.82422C20.7993 5.82131 20.7624 5.81578 20.7253 5.80664C20.6883 5.79743 20.6494 5.78415 20.6082 5.76855C20.4746 5.71803 20.3967 5.64988 20.3748 5.56348C20.3528 5.47694 20.3627 5.37883 20.4041 5.26953L20.8308 4.1416L20.5994 4.05371L20.6882 3.82031L20.9187 3.90723L21.0994 3.43164L21.3884 3.54102ZM12.0066 3.89062C12.2678 3.79489 12.4841 3.80125 12.655 3.91016C12.7623 3.97951 12.8353 4.07022 12.8738 4.18164L12.6023 4.28125C12.5732 4.21866 12.5274 4.16769 12.4666 4.12988C12.3715 4.07973 12.2405 4.08543 12.074 4.14648C11.963 4.18713 11.8866 4.23859 11.8445 4.30078C11.8025 4.36304 11.7934 4.42836 11.8181 4.49609C11.8453 4.57039 11.9053 4.61679 11.9968 4.63379C12.05 4.64434 12.1227 4.64363 12.2146 4.63281L12.4246 4.6084C12.6531 4.58137 12.8122 4.57815 12.9011 4.59863C13.0398 4.63113 13.1383 4.72633 13.196 4.88379C13.2519 5.03604 13.2421 5.18916 13.1658 5.34277C13.0894 5.49637 12.9314 5.61733 12.6921 5.70508C12.4344 5.79955 12.2304 5.80866 12.0808 5.73242C11.9311 5.65621 11.8207 5.53388 11.7507 5.36621L12.0281 5.26562C12.0717 5.35795 12.1226 5.42263 12.1814 5.45898C12.2893 5.52453 12.4353 5.52398 12.6179 5.45703C12.7264 5.41726 12.8131 5.35869 12.8787 5.28223C12.9443 5.20563 12.9601 5.1184 12.9246 5.02148C12.8976 4.94809 12.8434 4.90473 12.7634 4.89062C12.7126 4.88278 12.6195 4.88571 12.4841 4.90039L12.2302 4.92773C12.0688 4.94586 11.9448 4.94567 11.8582 4.92676C11.7041 4.89504 11.6019 4.81023 11.5515 4.67285C11.4923 4.51106 11.5033 4.35823 11.5847 4.21484C11.6662 4.07157 11.807 3.96383 12.0066 3.89062ZM20.4353 3.75293L19.908 5.48828L19.6101 5.39746L20.1375 3.66211L20.4353 3.75293ZM13.9587 3.34863C14.0846 3.32362 14.2125 3.32931 14.3425 3.36523C14.4726 3.40121 14.5782 3.45997 14.6589 3.54199C14.7365 3.62031 14.7977 3.71779 14.8416 3.83398C14.8756 3.91277 14.9101 4.04243 14.946 4.22266L13.6462 4.48145C13.6879 4.66211 13.7598 4.79949 13.8611 4.89355C13.9623 4.98744 14.096 5.01841 14.2625 4.98535C14.4181 4.95441 14.5322 4.87728 14.6042 4.75488C14.6442 4.68425 14.6667 4.60708 14.6726 4.52344L14.9685 4.46484C14.9737 4.53195 14.9621 4.61001 14.9343 4.69922C14.9064 4.78863 14.8708 4.86484 14.8269 4.92676C14.7541 5.03378 14.6535 5.11614 14.5261 5.17383C14.4579 5.20588 14.3783 5.23104 14.2878 5.24902C14.0668 5.29294 13.8633 5.2494 13.6775 5.11816C13.4916 4.98686 13.3693 4.77491 13.3113 4.4834C13.2543 4.19646 13.2859 3.94815 13.405 3.73828C13.5242 3.52835 13.7088 3.39835 13.9587 3.34863ZM19.3113 3.44434L19.2419 3.75098C19.2786 3.6965 19.3519 3.63661 19.4617 3.57129C19.5716 3.506 19.6862 3.48623 19.8044 3.5127C19.81 3.51395 19.8198 3.51644 19.8328 3.52051C19.8458 3.52462 19.8679 3.53243 19.8992 3.54297L19.8289 3.8584C19.812 3.8511 19.7957 3.8453 19.781 3.84082C19.7663 3.83639 19.7499 3.8321 19.7322 3.82812C19.5817 3.79432 19.4547 3.81684 19.3523 3.89551C19.2499 3.97419 19.1842 4.07704 19.156 4.20312L18.9265 5.22559L18.6277 5.1582L19.0271 3.37988L19.3113 3.44434ZM17.3484 3.15918L17.2312 4.36328C17.2221 4.4558 17.2289 4.53324 17.2517 4.59473C17.2939 4.70823 17.387 4.77202 17.531 4.78613C17.7377 4.80635 17.8879 4.72537 17.9812 4.54297C18.0318 4.44535 18.0654 4.30799 18.0828 4.13086L18.1697 3.24023L18.4753 3.26953L18.2976 5.08398L18.0095 5.05566L18.0388 4.78809C17.9933 4.85305 17.9398 4.90651 17.8777 4.94824C17.7543 5.03192 17.6109 5.06573 17.448 5.0498C17.1944 5.02496 17.0299 4.92193 16.9548 4.74023C16.9141 4.64289 16.9017 4.51686 16.9167 4.3623L17.0369 3.12891L17.3484 3.15918ZM15.9197 3.10059C16.1246 3.09064 16.2941 3.13217 16.4275 3.22559C16.5608 3.3191 16.6464 3.48728 16.6843 3.72949L16.3865 3.74414C16.3628 3.63287 16.317 3.54082 16.2488 3.46973C16.1805 3.39895 16.0749 3.3671 15.9324 3.37402C15.7376 3.38359 15.6027 3.4856 15.5281 3.67969C15.4798 3.80556 15.4607 3.95893 15.4695 4.13965C15.4784 4.32188 15.524 4.47397 15.6072 4.59473C15.6903 4.71535 15.8149 4.77172 15.9802 4.76367C16.107 4.75744 16.2057 4.71366 16.2761 4.63281C16.3465 4.55192 16.392 4.44318 16.4138 4.30762L16.7117 4.29395C16.6894 4.53674 16.6126 4.71682 16.4822 4.83496C16.3516 4.95322 16.1803 5.01801 15.9685 5.02832C15.7307 5.03978 15.5365 4.9619 15.3865 4.79492C15.2365 4.62791 15.155 4.41384 15.1423 4.15332C15.1268 3.83391 15.1931 3.58187 15.3396 3.39648C15.4861 3.21101 15.6794 3.11227 15.9197 3.10059ZM13.9919 3.61426C13.8553 3.64145 13.7503 3.71428 13.6775 3.83203C13.6046 3.95 13.5802 4.08666 13.6052 4.24121L14.5896 4.0459C14.5516 3.91818 14.5028 3.81919 14.4431 3.75C14.3328 3.62195 14.1825 3.57645 13.9919 3.61426ZM20.6355 3.09668L20.5339 3.42871L20.2361 3.33887L20.3376 3.00684L20.6355 3.09668Z"
                fill="#E5EAFA" />
            </svg>