<svg xmlns="http://www.w3.org/2000/svg" width="75" height="23" viewBox="0 0 75 23" fill="none">
              <path
                d="M72.6483 9.87573L70.0422 15.893L67.3575 9.87573H65.4496L69.0814 18.0597L67.3003 22.1369H69.2064L74.5712 9.87573H72.6483Z"
                fill="#E5EAFA" />
              <path
                d="M22.71 14.0056C22.71 15.0422 22.6559 15.7228 22.5487 16.0301C22.4017 16.4706 22.1301 16.8315 21.7406 17.1021C21.3497 17.3736 20.8629 17.5117 20.2936 17.5117C19.7188 17.5117 19.2217 17.3695 18.8153 17.0899C18.4071 16.8088 18.1383 16.4361 17.9944 15.9521C17.8963 15.6093 17.8468 14.9541 17.8468 14.0056V9.87573H16.4034V14.1291C16.4034 15.3545 16.5465 16.2899 16.8284 16.9096C17.1149 17.5398 17.554 18.0361 18.1334 18.3852C18.7095 18.7325 19.4364 18.9083 20.2936 18.9083C21.1463 18.9083 21.8681 18.7321 22.4393 18.3848C23.0128 18.0356 23.4501 17.5453 23.7388 16.9269C24.0239 16.3166 24.1688 15.404 24.1688 14.2145V9.87573H22.71V14.0056Z"
                fill="#E5EAFA" />
              <path
                d="M33.1727 15.6243C32.8491 16.1623 32.5475 16.5541 32.2765 16.7884C32.0077 17.0209 31.6754 17.212 31.2894 17.3559C30.904 17.5003 30.5008 17.573 30.0903 17.573C29.2403 17.573 28.5452 17.2806 27.9658 16.6794C27.4283 16.121 27.1301 15.4027 27.0782 14.5414H34.6848L34.6843 14.368C34.6788 13.1793 34.3542 12.1713 33.7194 11.3709C32.8236 10.2349 31.6154 9.65918 30.1289 9.65918C28.6729 9.65918 27.4959 10.2222 26.631 11.3327C25.95 12.1995 25.6049 13.2029 25.6049 14.3144C25.6049 15.4903 26.0117 16.5596 26.8136 17.4917C27.6227 18.4315 28.7559 18.9083 30.1829 18.9083C30.825 18.9083 31.4097 18.8093 31.9219 18.615C32.434 18.4202 32.9025 18.1319 33.3135 17.7582C33.7244 17.3846 34.0858 16.8865 34.3878 16.2772L34.4623 16.1269L33.2577 15.4835L33.1727 15.6243ZM27.248 13.2606C27.4564 12.6258 27.7466 12.1377 28.1111 11.8077C28.6736 11.3037 29.3552 11.0481 30.1366 11.0481C30.6138 11.0481 31.0755 11.1507 31.5087 11.3527C31.9414 11.5543 32.2924 11.8213 32.5521 12.1464C32.7791 12.4297 32.9611 12.8038 33.095 13.2606H27.248Z"
                fill="#E5EAFA" />
              <path
                d="M0.577148 8.5362H3.82758V16.2107C3.84799 17.0543 4.13995 17.7376 4.69476 18.2425C5.49838 18.9735 6.65533 19.0825 7.27371 19.0825C7.59607 19.0825 7.81036 19.0548 7.83353 19.0516L8.00424 19.0284L7.80673 17.5301L7.63605 17.5519C7.30457 17.5942 6.24033 17.606 5.71045 17.1215C5.44208 16.8763 5.32132 16.5145 5.34039 16.0082V8.5362H8.77112V7.07739H0.577148V8.5362Z"
                fill="#E5EAFA" />
              <path
                d="M11.3055 10.0478C10.1487 10.8038 9.62152 12.0097 9.62152 12.8101V18.8851H11.1344V12.8101C11.1344 12.4701 11.4517 11.7595 12.1328 11.3141C12.6418 10.9818 13.5153 10.7025 14.788 11.261L14.9464 11.3304L15.5544 9.94519L15.3959 9.87573C13.9194 9.22782 12.4669 9.28912 11.3055 10.0478Z"
                fill="#E5EAFA" />
              <path
                d="M64.564 14.4876C64.564 13.2186 64.1328 12.1076 63.2836 11.1863C62.3588 10.1729 61.1806 9.65942 59.7821 9.65942C58.3833 9.65942 57.2046 10.1757 56.2788 11.1959C55.4456 12.123 55.0234 13.2304 55.0234 14.4876C55.0234 15.7521 55.4693 16.8731 56.3488 17.8184C57.2345 18.771 58.3896 19.2541 59.7821 19.2541L59.8112 19.2531C60.2275 19.2177 60.5944 19.1469 60.9286 19.0461V17.1287C60.326 17.4738 59.6146 17.5591 58.7851 17.3821C58.0763 17.0261 57.5697 16.5943 57.2786 16.0981C56.9794 15.5877 56.8278 15.0511 56.8278 14.503C56.8278 13.6404 57.1143 12.9253 57.704 12.3169C58.2911 11.7117 58.9708 11.4174 59.7821 11.4174C60.592 11.4174 61.2632 11.7107 61.8335 12.3132C62.0536 12.5471 62.2299 12.7959 62.3574 13.0533C62.4936 13.5092 62.5667 13.9859 62.5776 14.4763H62.5795V18.0636V19.2926H64.5786C64.5786 19.2926 64.5795 18.9149 64.564 14.4876Z"
                fill="#E5EAFA" />
              <path
                d="M53.5697 1.83974C51.4711 0.143928 50.4655 0 46.0386 0H39.6L38.564 7.36941C40.7992 5.41661 43.4606 5.20276 44.4282 5.19504V3.08243L51.2827 7.3962L44.5145 12.3215V9.96693C41.146 10.1667 39.0951 11.2573 37.8469 12.4723L36.869 19.4317H42.5317L43.2214 16.006C43.2214 16.006 46.1317 16.1622 47.907 16.006C50.4655 15.7808 54.777 13.769 55.3808 10.2621C55.9842 6.7551 55.6682 3.53555 53.5697 1.83974Z"
                fill="#E5EAFA" />
              <path
                d="M35.5754 16.0064C35.5754 16.0064 36.064 9.77793 44.86 9.4306V11.4697L50.6666 7.24397L44.7737 3.53589V5.37563C44.7737 5.37563 35.6903 4.73363 35.5754 16.0064Z"
                fill="#E5EAFA" />
            </svg>