  <svg xmlns="http://www.w3.org/2000/svg" width="100" height="19" viewBox="0 0 100 19" fill="none">
              <path
                d="M66.0226 13.4736C64.7023 13.4736 63.7288 12.8281 63.4493 11.6812C63.189 12.8281 62.2061 13.4736 60.8953 13.4736C58.727 13.4736 57.6572 12.0472 57.6572 10.1101V4.32788H59.7677V10.2355C59.7677 11.1705 60.0956 11.7968 61.0785 11.7968C62.0135 11.7968 62.3894 11.1705 62.4086 10.2355V4.32788H64.5097V10.2355C64.5097 11.1705 64.895 11.7968 65.8393 11.7968C66.8227 11.7968 67.1502 11.1705 67.1502 10.2355V4.32788H69.2606V10.1101C69.2606 12.0472 68.1908 13.4736 66.0226 13.4736Z"
                fill="#E5EAFA" />
              <path
                d="M39.0184 6.61172C39.4906 5.94691 39.741 5.14678 39.741 4.32788H32.9374V5.93703H37.1391L33.5059 11.045C33.0337 11.7098 32.7828 12.51 32.7828 13.3289H39.5869V11.7197H35.3852L39.0184 6.61172Z"
                fill="#E5EAFA" />
              <path
                d="M97.6231 7.49829V9.81126V10.3605C97.6231 10.727 97.6809 11.045 97.8157 11.2856L97.8256 11.3147C97.8735 11.3918 97.9219 11.4688 97.9891 11.5266C98.0281 11.5651 98.0666 11.6037 98.1145 11.6328C98.1338 11.6521 98.1629 11.6614 98.1916 11.6807L98.2015 11.6906L98.2301 11.7098C98.4904 11.8639 98.7991 11.9124 99.0974 11.9124C99.252 11.9124 99.4061 11.8931 99.5602 11.8639V13.4543C99.4061 13.4736 99.252 13.4736 99.0974 13.4736C97.4305 13.4736 96.1389 12.6448 95.7151 11.3241L95.7052 11.3048C95.6376 11.0544 95.5991 10.7941 95.5798 10.5146C95.5798 10.4667 95.5704 10.4089 95.5704 10.3605V10.3511V10.1773V7.49829H94.2981V5.93704H95.5704V4.32739H97.6231V5.92716H99.5602V7.49829H97.6231Z"
                fill="#E5EAFA" />
              <path
                d="M42.7293 9.02085C42.7293 7.79694 43.4904 7.49813 44.1943 7.49813C44.9168 7.49813 45.6779 7.79694 45.6779 9.02085H42.7293ZM46.854 6.9005C46.8154 6.86197 46.7769 6.82345 46.7285 6.78492C46.5359 6.61156 46.3141 6.46684 46.0731 6.34139C45.9575 6.2836 45.8419 6.23569 45.717 6.18729C45.6779 6.17791 45.6394 6.15865 45.6009 6.14877C45.1771 6.00405 44.705 5.927 44.1943 5.927C44.0589 5.927 43.9241 5.93688 43.7991 5.94626C43.7216 5.95614 43.6544 5.96553 43.5774 5.96553C43.2879 6.00405 43.0183 6.06184 42.7678 6.15865C42.6715 6.18729 42.5846 6.22582 42.4883 6.26434C42.4014 6.30287 42.3149 6.35127 42.228 6.38979C41.9776 6.52463 41.7459 6.68861 41.5533 6.88123C40.9942 7.42108 40.6667 8.17281 40.6667 9.06876V9.69553V10.3218C40.6667 10.3505 40.6766 10.3697 40.6766 10.3989C40.686 10.6591 40.7152 10.9096 40.7729 11.1407V11.1605C41.1488 12.577 42.4784 13.4636 44.2135 13.4636C45.6394 13.4636 46.7962 12.8565 47.3646 11.8445V11.8346C47.4516 11.6805 47.5188 11.5264 47.5765 11.3625H45.4275C45.2542 11.6134 45.0038 11.7675 44.7336 11.8346C44.5701 11.883 44.3869 11.8924 44.2135 11.8924C43.9147 11.8924 43.5966 11.8445 43.3457 11.6904L43.3171 11.6712C43.1052 11.5556 42.9605 11.3625 42.8641 11.1313C42.8449 11.0735 42.8158 11.0059 42.8064 10.9481C42.7965 10.9096 42.7871 10.8616 42.7772 10.8132C42.7486 10.6878 42.7387 10.5337 42.7387 10.3796V10.3411H47.7504V10.3218V9.69553V9.06876C47.7405 8.19207 47.4131 7.44972 46.854 6.9005Z"
                fill="#E5EAFA" />
              <path
                d="M75.2935 10.9967C75.2841 11.093 75.255 11.1799 75.207 11.257C75.0144 11.575 74.5131 11.9218 73.7322 11.9218C73.1929 11.9218 72.7207 11.6136 72.7207 11.0451C72.7207 10.4761 73.1544 10.1195 73.9155 10.1195H75.2935V10.5823C75.3034 10.7171 75.3127 10.852 75.2935 10.9967ZM77.3175 8.96325C77.3175 8.84768 77.3076 8.74148 77.2982 8.62591C77.2884 8.54886 77.279 8.47181 77.2691 8.39476C77.2597 8.35624 77.2498 8.31771 77.2498 8.27919C77.2498 8.24066 77.2306 8.20214 77.2306 8.17299V8.15373C76.8646 6.76585 75.5637 5.88916 73.8577 5.88916C72.9519 5.88916 72.1616 6.12969 71.564 6.57322C71.3713 6.71794 71.198 6.88142 71.0434 7.06466L72.5952 8.05742C72.7686 7.73934 73.0383 7.56598 73.347 7.48893C73.3855 7.47905 73.4334 7.46967 73.4724 7.45979C73.5974 7.44053 73.7228 7.43114 73.8577 7.43114C74.0024 7.43114 74.1565 7.44053 74.3012 7.47905C74.3398 7.48893 74.3684 7.49832 74.4069 7.50819C74.5131 7.53684 74.6094 7.58524 74.7057 7.64303L74.7349 7.66229L74.7442 7.67168C74.7635 7.68156 74.7828 7.70082 74.802 7.7102C74.9369 7.79713 75.0337 7.9127 75.1008 8.04754C75.1201 8.07668 75.13 8.09595 75.1394 8.12459C75.1492 8.15373 75.1586 8.17299 75.1685 8.20214C75.1878 8.25992 75.2164 8.31771 75.2263 8.38488C75.2357 8.42341 75.2456 8.47181 75.255 8.51034C75.2648 8.53898 75.2648 8.57751 75.2742 8.60665V8.61653C75.2841 8.6837 75.2935 8.74148 75.2935 8.81853V8.93411V8.97313H73.3949C71.93 8.97313 70.6967 9.60879 70.6967 11.1799C70.6967 12.6641 71.9882 13.4736 73.3085 13.4736C74.0311 13.4736 74.802 13.2617 75.2935 12.7313V13.3388H77.3175V9.0887C77.3274 9.0403 77.3274 9.00177 77.3175 8.96325Z"
                fill="#E5EAFA" />
              <path
                d="M26.8758 9.02085C26.8758 7.79694 27.6369 7.49813 28.3407 7.49813C29.0633 7.49813 29.8244 7.79694 29.8244 9.02085H26.8758ZM31.0004 6.9005C30.9619 6.86197 30.9234 6.82345 30.875 6.78492C30.6824 6.61156 30.4606 6.46684 30.2196 6.34139C30.104 6.2836 29.9884 6.23569 29.8635 6.18729C29.8244 6.17791 29.7859 6.15865 29.7474 6.14877C29.3236 6.00405 28.8514 5.927 28.3407 5.927C28.2054 5.927 28.0706 5.93688 27.9456 5.94626C27.8681 5.95614 27.8009 5.96553 27.7238 5.96553C27.4344 6.00405 27.1647 6.06184 26.9143 6.15865C26.818 6.18729 26.7311 6.22582 26.6348 6.26434C26.5478 6.30287 26.4614 6.35127 26.3745 6.38979C26.1241 6.52463 25.8924 6.68861 25.6998 6.88123C25.1407 7.42108 24.8132 8.17281 24.8132 9.06876V9.69553V10.3218C24.8132 10.3505 24.8231 10.3697 24.8231 10.3989C24.8325 10.6591 24.8616 10.9096 24.9194 11.1407V11.1605C25.2953 12.577 26.6249 13.4636 28.36 13.4636C29.7859 13.4636 30.9426 12.8565 31.5111 11.8445V11.8346C31.5304 11.7961 31.5595 11.7482 31.5788 11.7097C31.6366 11.5941 31.6845 11.478 31.723 11.3625H29.574C29.4007 11.6134 29.1502 11.7675 28.8801 11.8346C28.7166 11.883 28.5334 11.8924 28.36 11.8924C28.0612 11.8924 27.7431 11.8445 27.4922 11.6904L27.4635 11.6712C27.2517 11.5556 27.1069 11.3625 27.0106 11.1313C26.9914 11.0735 26.9622 11.0059 26.943 10.9481C26.9336 10.9096 26.9237 10.8616 26.9143 10.8132C26.8852 10.6878 26.8758 10.5337 26.8758 10.3796V10.3411H31.887V10.3218V9.69553V9.06876C31.887 8.19207 31.5595 7.44972 31.0004 6.9005Z"
                fill="#E5EAFA" />
              <path
                d="M51.0944 9.02085C51.0944 7.79694 51.8555 7.49813 52.5594 7.49813C53.2819 7.49813 54.0431 7.79694 54.0431 9.02085H51.0944ZM55.2191 6.9005C55.1805 6.86197 55.142 6.82345 55.0936 6.78492C54.901 6.61156 54.6792 6.46684 54.4382 6.34139C54.3226 6.2836 54.207 6.23569 54.0821 6.18729C54.0431 6.17791 54.0045 6.15865 53.966 6.14877C53.5422 6.00405 53.0701 5.927 52.5594 5.927C52.424 5.927 52.2892 5.93688 52.1642 5.94626C52.0867 5.95614 52.0195 5.96553 51.9425 5.96553C51.653 6.00405 51.3834 6.06184 51.1329 6.15865C51.0366 6.18729 50.9497 6.22582 50.8534 6.26434C50.7665 6.30287 50.68 6.35127 50.5931 6.38979C50.3427 6.52463 50.1209 6.68861 49.9184 6.88123C49.3593 7.42108 49.0319 8.17281 49.0319 9.06876V9.69553V10.3218C49.0319 10.3505 49.0417 10.3697 49.0417 10.3989C49.0511 10.6591 49.0803 10.9096 49.1381 11.1407V11.1605C49.5139 12.577 50.8435 13.4636 52.5786 13.4636C54.0045 13.4636 55.1613 12.8565 55.7298 11.8445V11.8346C55.8167 11.6805 55.8839 11.5264 55.9417 11.3625H53.7833C53.6094 11.6134 53.359 11.7675 53.0893 11.8346C52.9253 11.883 52.7421 11.8924 52.5687 11.8924C52.2699 11.8924 51.9519 11.8445 51.7014 11.6904L51.6723 11.6712C51.4604 11.5556 51.3157 11.3625 51.2194 11.1313C51.2001 11.0735 51.1715 11.0059 51.1522 10.9481C51.1423 10.9096 51.1329 10.8616 51.1231 10.8132C51.0944 10.6878 51.0845 10.5337 51.0845 10.3796V10.3411H56.0962V10.3218V9.69553V9.06876C56.1056 8.19207 55.7782 7.44972 55.2191 6.9005Z"
                fill="#E5EAFA" />
              <path
                d="M88.3427 9.02085C88.3427 7.79694 89.1038 7.49813 89.8076 7.49813C90.5302 7.49813 91.2914 7.79694 91.2914 9.02085H88.3427ZM92.4673 6.9005C92.4288 6.86197 92.3903 6.82345 92.3419 6.78492C92.1493 6.61156 91.9275 6.46684 91.6865 6.34139C91.5709 6.2836 91.4553 6.23569 91.3304 6.18729C91.2914 6.17791 91.2528 6.15865 91.2143 6.14877C90.7905 6.00405 90.3184 5.927 89.8076 5.927C89.6723 5.927 89.5375 5.93688 89.4125 5.94626C89.335 5.95614 89.2678 5.96553 89.1908 5.96553C88.9013 6.00405 88.6317 6.06184 88.3812 6.15865C88.2849 6.18729 88.198 6.22582 88.1017 6.26434C88.0148 6.30287 87.9283 6.35127 87.8414 6.38979C87.591 6.52463 87.3593 6.68861 87.1667 6.88123C86.6076 7.42108 86.2802 8.17281 86.2802 9.06876V9.69553V10.3218C86.2802 10.3505 86.29 10.3697 86.29 10.3989C86.2994 10.6591 86.3286 10.9096 86.3864 11.1407V11.1605C86.7622 12.577 88.0918 13.4636 89.8269 13.4636C91.2528 13.4636 92.4096 12.8565 92.9781 11.8445V11.8346C93.065 11.6805 93.1322 11.5264 93.1899 11.3625H91.0409C90.8676 11.6134 90.6172 11.7675 90.347 11.8346C90.1835 11.883 90.0003 11.8924 89.8269 11.8924C89.5281 11.8924 89.21 11.8445 88.9591 11.6904L88.9305 11.6712C88.7186 11.5556 88.5739 11.3625 88.4776 11.1313C88.4583 11.0735 88.4291 11.0059 88.4198 10.9481C88.4099 10.9096 88.4005 10.8616 88.3906 10.8132C88.362 10.6878 88.3521 10.5337 88.3521 10.3796V10.3411H93.3638V10.3218V9.69553V9.06876C93.3539 8.19207 93.0264 7.44972 92.4673 6.9005Z"
                fill="#E5EAFA" />
              <path
                d="M79.8808 13.3289H81.0568V4.32739H79.0037V12.4616C79.0037 12.9431 79.3894 13.3289 79.8808 13.3289Z"
                fill="#E5EAFA" />
              <path
                d="M83.4471 13.3289H84.6231V4.32739H82.5699V12.4616C82.5699 12.9431 82.9651 13.3289 83.4471 13.3289Z"
                fill="#E5EAFA" />
              <path
                d="M7.62952 11.1891C7.62952 11.8253 8.14022 12.336 8.77637 12.336H17.932V10.0521H8.77637C8.14022 10.0423 7.62952 10.553 7.62952 11.1891Z"
                fill="#E5EAFA" />
              <path
                d="M17.9223 5.46484H8.76673C8.13058 5.46484 7.61987 5.97555 7.61987 6.6117C7.61987 7.24786 8.13058 7.75856 8.76673 7.75856H17.9223V5.46484Z"
                fill="#E5EAFA" />
              <path
                d="M4.7097 4.67455C4.54572 4.97336 4.46867 5.3107 4.46867 5.64804C4.45929 6.51535 4.99864 7.17076 5.71184 7.6138C6.24181 7.96102 6.753 8.36553 6.753 9.02095C6.753 9.67637 6.24181 10.0809 5.71184 10.4281C5.00851 10.8716 4.46867 11.5266 4.46867 12.3939C4.46867 12.7312 4.54572 13.0685 4.7097 13.3673C5.2204 14.331 6.29021 14.6105 7.30223 14.6105H19.0597V18.0417H7.11899H6.61767C5.21102 18.0511 3.73621 17.733 2.60861 16.8464C1.96307 16.3456 1.46175 15.6803 1.1822 14.8999C0.527279 13.1362 0.922406 11.411 2.28115 10.1293C2.41599 9.99444 2.5607 9.86899 2.68566 9.72477C2.82099 9.57018 2.94595 9.39681 3.00374 9.19431C3.023 9.13652 3.03288 9.098 3.03288 9.02095C3.03288 8.9439 3.023 8.90537 3.00374 8.84759C2.94595 8.64508 2.82099 8.47172 2.68566 8.31762C2.5607 8.17291 2.41599 8.04745 2.28115 7.91262C0.922406 6.63092 0.527279 4.89632 1.1822 3.14244C1.47163 2.37145 1.96307 1.69677 2.61849 1.19546C3.74608 0.318273 5.2204 -0.00918911 6.62755 0.000195522H7.12887H19.0696V3.43138H7.31161C6.29021 3.43138 5.2204 3.71093 4.7097 4.67455Z"
                fill="#E5EAFA" />
            </svg>