  <svg xmlns="http://www.w3.org/2000/svg" width="67" height="33" viewBox="0 0 67 33" fill="none">
              <g clip-path="url(#clip0_2090_55768)">
                <path
                  d="M38.4548 28.9326C38.608 28.9327 38.7564 28.9504 38.8972 28.9863C39.038 29.0223 39.164 29.079 39.2751 29.1611C39.3839 29.2409 39.4726 29.3443 39.5369 29.4678C39.6011 29.5912 39.6335 29.7426 39.6335 29.9199H39.0056C39.0007 29.8274 38.9806 29.7525 38.9509 29.6934C38.9213 29.6344 38.8767 29.5861 38.825 29.5527C38.773 29.5193 38.7135 29.4933 38.6443 29.4805C38.5752 29.4677 38.5035 29.46 38.4246 29.46C38.3728 29.46 38.321 29.4648 38.2693 29.4775C38.2174 29.4878 38.1702 29.5088 38.1257 29.5371C38.0837 29.5654 38.0484 29.6008 38.0212 29.6445C37.9941 29.6882 37.9793 29.7425 37.9792 29.8066C37.9792 29.8656 37.9894 29.9146 38.0115 29.9531C38.0337 29.9917 38.0766 30.0258 38.1433 30.0566C38.2076 30.0874 38.2965 30.1206 38.4099 30.1514C38.5236 30.1822 38.6718 30.2236 38.8572 30.2725C38.9115 30.2827 38.9884 30.3032 39.0847 30.334C39.1811 30.3648 39.2803 30.4117 39.3767 30.4785C39.473 30.5454 39.5575 30.6327 39.6267 30.7432C39.6958 30.8537 39.7302 30.9955 39.7302 31.165C39.7302 31.3038 39.703 31.4349 39.6511 31.5557C39.5992 31.6765 39.5201 31.7798 39.4187 31.8672C39.315 31.9545 39.1889 32.0215 39.0359 32.0703C38.8827 32.1191 38.7067 32.1416 38.5066 32.1416C38.3434 32.1416 38.1872 32.1212 38.0339 32.0801C37.8807 32.0389 37.7468 31.9747 37.6306 31.8848C37.5145 31.7948 37.421 31.6837 37.3542 31.5449C37.2851 31.4087 37.2531 31.2442 37.2556 31.0566H37.8806C37.8806 31.1595 37.8982 31.2473 37.9353 31.3193V31.3115C37.9699 31.3834 38.0196 31.4397 38.0789 31.4834C38.1381 31.527 38.207 31.5605 38.2859 31.5811C38.365 31.6016 38.4499 31.6123 38.5339 31.6123C38.5906 31.6123 38.6521 31.6069 38.7185 31.5967C38.7852 31.5864 38.8472 31.5683 38.9041 31.54C38.9609 31.5118 39.0105 31.4733 39.0476 31.4219C39.0872 31.373 39.1042 31.3086 39.1042 31.2314C39.1042 31.1493 39.0798 31.0826 39.0281 31.0312C38.9762 30.9798 38.9119 30.9358 38.8279 30.9023C38.7464 30.8689 38.6523 30.8382 38.5486 30.8125C38.4448 30.7868 38.3384 30.7584 38.2322 30.7275C38.1235 30.6993 38.0146 30.6632 37.9109 30.6221C37.807 30.5809 37.7122 30.5272 37.6306 30.4629C37.5491 30.3961 37.4823 30.3135 37.4304 30.2158C37.3786 30.1181 37.3543 29.9972 37.3542 29.8584C37.3542 29.7015 37.3866 29.5649 37.4509 29.4492C37.5152 29.3337 37.5987 29.2356 37.7048 29.1611C37.8086 29.0841 37.9275 29.0278 38.0583 28.9893C38.1894 28.9533 38.3238 28.9326 38.4548 28.9326ZM50.7478 28.9326C50.9009 28.9327 51.0494 28.9504 51.1902 28.9863C51.3309 29.0223 51.457 29.079 51.5681 29.1611C51.6769 29.2409 51.7656 29.3443 51.8298 29.4678C51.8941 29.5912 51.9265 29.7426 51.9265 29.9199H51.2986C51.2936 29.8274 51.2735 29.7525 51.2439 29.6934C51.2142 29.6344 51.1697 29.5861 51.1179 29.5527C51.066 29.5193 51.0065 29.4933 50.9373 29.4805C50.8682 29.4677 50.7965 29.46 50.7175 29.46C50.6658 29.46 50.614 29.4648 50.5623 29.4775C50.5104 29.4878 50.4632 29.5088 50.4187 29.5371C50.3767 29.5654 50.3414 29.6008 50.3142 29.6445C50.2871 29.6882 50.2723 29.7425 50.2722 29.8066C50.2722 29.8656 50.2824 29.9146 50.3044 29.9531C50.3267 29.9917 50.3695 30.0258 50.4363 30.0566C50.5005 30.0874 50.5894 30.1206 50.7029 30.1514C50.8166 30.1822 50.9648 30.2236 51.1501 30.2725C51.2045 30.2827 51.2813 30.3032 51.3777 30.334C51.4741 30.3648 51.5733 30.4117 51.6697 30.4785C51.766 30.5454 51.8505 30.6327 51.9197 30.7432C51.9888 30.8537 52.0232 30.9955 52.0232 31.165C52.0231 31.3038 51.996 31.4349 51.9441 31.5557C51.8922 31.6765 51.813 31.7798 51.7117 31.8672C51.6079 31.9545 51.4819 32.0215 51.3289 32.0703C51.1756 32.1191 50.9997 32.1416 50.7996 32.1416C50.6364 32.1416 50.4802 32.1212 50.3269 32.0801C50.1737 32.0389 50.0397 31.9747 49.9236 31.8848C49.8075 31.7948 49.7139 31.6837 49.6472 31.5449C49.5781 31.4087 49.5461 31.2442 49.5486 31.0566H50.1736C50.1736 31.1595 50.1912 31.2473 50.2283 31.3193V31.3115C50.2629 31.3834 50.3126 31.4397 50.3718 31.4834C50.431 31.527 50.5 31.5605 50.5789 31.5811C50.658 31.6016 50.7428 31.6123 50.8269 31.6123C50.8835 31.6123 50.945 31.6069 51.0115 31.5967C51.0781 31.5864 51.1402 31.5683 51.197 31.54C51.2539 31.5118 51.3035 31.4733 51.3406 31.4219C51.3801 31.373 51.3972 31.3086 51.3972 31.2314C51.3972 31.1493 51.3728 31.0826 51.321 31.0312C51.2691 30.9798 51.2049 30.9358 51.1208 30.9023C51.0393 30.8689 50.9453 30.8382 50.8416 30.8125C50.7378 30.7868 50.6314 30.7584 50.5251 30.7275C50.4165 30.6993 50.3076 30.6632 50.2039 30.6221C50.1 30.5809 50.0052 30.5272 49.9236 30.4629C49.8421 30.3961 49.7753 30.3135 49.7234 30.2158C49.6715 30.1181 49.6472 29.9972 49.6472 29.8584C49.6472 29.7015 49.6796 29.5649 49.7439 29.4492C49.8081 29.3337 49.8916 29.2356 49.9978 29.1611C50.1015 29.0841 50.2205 29.0278 50.3513 28.9893C50.4824 28.9533 50.6168 28.9326 50.7478 28.9326ZM41.4363 28.9375C41.5991 28.9375 41.7521 28.961 41.8953 29.0098C42.0387 29.0586 42.1702 29.1285 42.2839 29.2236C42.3975 29.3161 42.4921 29.4312 42.5662 29.5674C42.6403 29.7036 42.687 29.8608 42.7068 30.0381H42.0808C42.0709 29.9611 42.0436 29.8894 42.0066 29.8252L42.0046 29.8223C41.9651 29.758 41.9179 29.7012 41.8611 29.6523C41.8043 29.6036 41.7374 29.5648 41.6658 29.5391C41.5942 29.5109 41.5177 29.4981 41.4363 29.498C41.2904 29.498 41.1665 29.5268 41.0652 29.5859C40.9639 29.645 40.8799 29.7221 40.8181 29.8223C40.7538 29.92 40.7091 30.0332 40.6794 30.1592C40.6498 30.2851 40.6375 30.4162 40.6375 30.5498C40.6375 30.6835 40.6522 30.8049 40.6794 30.9258C40.7091 31.0465 40.7539 31.1572 40.8181 31.2549C40.8799 31.3524 40.9639 31.4292 41.0652 31.4883C41.1666 31.5474 41.2904 31.5762 41.4363 31.5762C41.6339 31.5761 41.7899 31.5146 41.9011 31.3887C42.0123 31.2628 42.0814 31.0981 42.1062 30.8926H42.7312C42.7139 31.0825 42.6723 31.2571 42.6033 31.4111C42.5341 31.5654 42.4445 31.6967 42.3308 31.8047C42.2171 31.9127 42.0861 31.9981 41.9353 32.0547C41.7846 32.1112 41.619 32.1396 41.4363 32.1396C41.2114 32.1396 41.0083 32.0982 40.8279 32.0186C40.6474 31.9363 40.4964 31.8256 40.3728 31.6816C40.2492 31.5377 40.1554 31.3705 40.0886 31.1777C40.0219 30.9849 39.99 30.7764 39.99 30.5527C39.99 30.329 40.0219 30.113 40.0886 29.915C40.1554 29.7196 40.2492 29.5473 40.3728 29.4033C40.4964 29.2567 40.6474 29.1438 40.8279 29.0615C41.0084 28.9793 41.2113 28.9375 41.4363 28.9375ZM3.72632 28.9355C3.95116 28.9355 4.15873 28.9764 4.33667 29.0586C4.51468 29.1409 4.66618 29.2564 4.78979 29.4004C4.91338 29.5469 5.00722 29.7168 5.07397 29.9121C5.1407 30.1075 5.17258 30.321 5.17261 30.5498C5.17261 30.7786 5.14069 30.982 5.07397 31.1748C5.00726 31.3675 4.91329 31.5348 4.78979 31.6787C4.66617 31.8227 4.51468 31.9333 4.33667 32.0156C4.15871 32.0978 3.95367 32.1367 3.72632 32.1367C3.49889 32.1367 3.29839 32.0953 3.11792 32.0156C2.93757 31.9334 2.78639 31.8226 2.66284 31.6787C2.53938 31.5348 2.44536 31.3675 2.37866 31.1748C2.31196 30.982 2.28003 30.7734 2.28003 30.5498C2.28006 30.3262 2.31194 30.11 2.37866 29.9121C2.4454 29.7168 2.53928 29.5443 2.66284 29.4004C2.78642 29.2539 2.93753 29.1409 3.11792 29.0586C3.29839 28.9763 3.50136 28.9356 3.72632 28.9355ZM20.5222 28.9355C20.6728 28.9356 20.8184 28.9587 20.9617 29.0049C21.1026 29.0512 21.2317 29.1203 21.3455 29.2129C21.4591 29.3054 21.5526 29.4165 21.6267 29.5527C21.7008 29.6864 21.7461 29.8408 21.7634 30.0156H21.1453C21.1057 29.8435 21.0312 29.7147 20.9226 29.6299C20.8139 29.5451 20.6803 29.5011 20.5222 29.501C20.3765 29.501 20.2524 29.5289 20.1511 29.5879C20.0498 29.647 19.9659 29.7249 19.9041 29.8252C19.8398 29.9229 19.795 30.0361 19.7654 30.1621C19.7358 30.288 19.7234 30.4191 19.7234 30.5527C19.7234 30.6863 19.7382 30.807 19.7654 30.9277C19.795 31.0485 19.8398 31.1592 19.9041 31.2568C19.9659 31.3546 20.0498 31.4321 20.1511 31.4912C20.2525 31.5503 20.3764 31.5791 20.5222 31.5791C20.7369 31.579 20.9022 31.522 21.0183 31.4092C21.1345 31.2961 21.2046 31.1314 21.2244 30.918H20.574V30.416H21.8103V32.0723H21.3972L21.3298 31.7256C21.2138 31.8796 21.0878 31.9872 20.947 32.0488V32.0439C20.8062 32.1056 20.6655 32.1367 20.5222 32.1367C20.2973 32.1367 20.0943 32.0953 19.9138 32.0156C19.7333 31.9333 19.5824 31.8227 19.4587 31.6787C19.3352 31.5347 19.2413 31.3676 19.1746 31.1748C19.1078 30.982 19.0759 30.7735 19.0759 30.5498C19.076 30.3262 19.1078 30.11 19.1746 29.9121C19.2413 29.7168 19.3352 29.5443 19.4587 29.4004C19.5823 29.2539 19.7334 29.1409 19.9138 29.0586C20.0943 28.9764 20.2973 28.9355 20.5222 28.9355ZM34.4841 28.9355C34.6348 28.9356 34.7804 28.9587 34.9236 29.0049C35.0645 29.0512 35.1936 29.1203 35.3074 29.2129C35.421 29.3054 35.5145 29.4165 35.5886 29.5527C35.6627 29.6864 35.708 29.8408 35.7253 30.0156H35.1072C35.0677 29.8435 34.9931 29.7147 34.8845 29.6299C34.7758 29.5451 34.6422 29.5011 34.4841 29.501C34.3384 29.501 34.2143 29.5289 34.113 29.5879C34.0117 29.647 33.9278 29.7249 33.866 29.8252C33.8017 29.9229 33.757 30.0361 33.7273 30.1621C33.6977 30.288 33.6853 30.4191 33.6853 30.5527C33.6853 30.6863 33.7001 30.807 33.7273 30.9277C33.757 31.0485 33.8017 31.1592 33.866 31.2568C33.9278 31.3546 34.0117 31.4321 34.113 31.4912C34.2144 31.5503 34.3383 31.5791 34.4841 31.5791C34.6988 31.579 34.8641 31.522 34.9802 31.4092C35.0964 31.2961 35.1665 31.1314 35.1863 30.918H34.5359V30.416H35.7722V32.0723H35.3591L35.2917 31.7256C35.1757 31.8796 35.0497 31.9872 34.9089 32.0488V32.0439C34.7681 32.1056 34.6274 32.1367 34.4841 32.1367C34.2592 32.1367 34.0562 32.0953 33.8757 32.0156C33.6952 31.9333 33.5443 31.8227 33.4207 31.6787C33.2971 31.5347 33.2032 31.3676 33.1365 31.1748C33.0697 30.982 33.0378 30.7735 33.0378 30.5498C33.0379 30.3262 33.0697 30.11 33.1365 29.9121C33.2032 29.7168 33.2971 29.5443 33.4207 29.4004C33.5442 29.2539 33.6953 29.1409 33.8757 29.0586C34.0562 28.9764 34.2592 28.9355 34.4841 28.9355ZM7.48706 31.0596H7.49487V29.0049H8.10034V32.0674H7.45288L6.22827 30.0176H6.22144V32.0674H5.61597V29.0049H6.25854L7.48706 31.0596ZM11.7615 32.0674H11.114V29.0049H11.7615V32.0674ZM14.2029 31.0596H14.2097V29.0049H14.8152V32.0674H14.1677L12.9441 30.0176H12.9363V32.0674H12.3308V29.0049H12.9734L14.2029 31.0596ZM24.9001 32.0674H24.2283L24.0056 31.3857H22.905L22.6755 32.0674H22.0251L23.1375 29.0049H23.8005L24.9001 32.0674ZM26.7546 31.1104H26.7625L27.4128 29.0049H28.322V32.0674H27.7166V29.8965H27.7087L26.9871 32.0674H26.488L25.7654 29.9199H25.7585V32.0674H25.1531V29.0049H26.0671L26.7546 31.1104ZM29.5408 32.0674H28.8933V29.0049H29.5408V32.0674ZM31.9841 31.0596H31.9919V29.0049H32.5974V32.0674H31.95L30.7253 30.0176H30.7185V32.0674H30.113V29.0049H30.7556L31.9841 31.0596ZM45.738 32.0674H45.0652L44.8425 31.3857H43.7429L43.5125 32.0674H42.863L43.9753 29.0049H44.6375L45.738 32.0674ZM47.5925 31.1104H47.6003L48.2507 29.0049H49.1599V32.0674H48.5544V29.8965H48.5466L47.825 32.0674H47.3259L46.6033 29.9199H46.5964V32.0674H45.991V29.0049H46.905L47.5925 31.1104ZM53.0564 30.1797H54.2478V29.0049H54.8953V32.0674H54.2478V30.7451H53.0564V32.0674H52.4089V29.0049H53.0564V30.1797ZM56.1121 32.0674H55.4646V29.0049H56.1121V32.0674ZM9.31714 31.499H10.7507V32.0645H8.66968V29.002H9.31714V31.499ZM17.5867 29.0049V29.5703H16.032V30.2266H17.4587V30.748H16.032V31.499H17.6189V32.0645H15.3845V29.002H17.5847L17.5867 29.0049ZM58.8816 29.0049V29.5703H57.3259V30.2266H58.7527V30.748H57.3259V31.499H58.9138V32.0645H56.6785V29.002H58.8787L58.8816 29.0049ZM59.9988 31.499H61.4333V32.0645H59.3513V29.002H59.9988V31.499ZM63.0671 29.0049C63.2575 29.0049 63.4333 29.0354 63.5964 29.0996C63.7596 29.1613 63.9011 29.2568 64.0222 29.3828C64.1408 29.5088 64.2348 29.6659 64.3015 29.8535C64.3682 30.0411 64.4021 30.2622 64.4021 30.5166C64.4021 30.7403 64.3754 30.9461 64.321 31.1338C64.2667 31.3215 64.1823 31.4858 64.071 31.6221C63.9598 31.7583 63.8216 31.8666 63.656 31.9463C63.4904 32.026 63.2946 32.0645 63.0671 32.0645H61.7966V29.002H63.0671V29.0049ZM3.72632 29.498C3.58048 29.4981 3.45658 29.5268 3.35522 29.5859C3.254 29.6451 3.17237 29.7221 3.10815 29.8223C3.04387 29.92 2.99915 30.0332 2.96948 30.1592C2.93984 30.2851 2.92556 30.4162 2.92554 30.5498C2.92554 30.6835 2.93981 30.8049 2.96948 30.9258C2.99915 31.0466 3.0439 31.1572 3.10815 31.2549C3.17234 31.3524 3.25407 31.4292 3.35522 31.4883C3.45658 31.5474 3.58048 31.5762 3.72632 31.5762C3.87219 31.5762 3.99604 31.5474 4.09741 31.4883C4.1986 31.4292 4.28028 31.3524 4.34448 31.2549C4.40873 31.1572 4.45349 31.0491 4.48315 30.9258C4.51282 30.8023 4.5271 30.6784 4.5271 30.5498C4.52708 30.4213 4.5128 30.2851 4.48315 30.1592C4.45349 30.0332 4.40877 29.92 4.34448 29.8223C4.28025 29.7246 4.19867 29.6451 4.09741 29.5859C3.99604 29.5268 3.87219 29.498 3.72632 29.498ZM62.4441 31.502H63.0203L63.0232 31.499C63.1169 31.499 63.2083 31.4839 63.2947 31.4531C63.3837 31.4223 63.4608 31.3679 63.53 31.2959C63.5991 31.224 63.6531 31.1288 63.6951 31.0107C63.7371 30.8925 63.7576 30.7507 63.7576 30.5811C63.7576 30.4268 63.7428 30.2875 63.7156 30.1641C63.6859 30.0408 63.6387 29.933 63.572 29.8457C63.5053 29.7583 63.4181 29.6889 63.3093 29.6426C63.2006 29.5964 63.0674 29.5733 62.907 29.5732H62.4441V31.502ZM23.0759 30.8818H23.8376L23.4666 29.7578H23.4587L23.0759 30.8818ZM43.9128 30.8818H44.6746L44.3044 29.7578H44.2966L43.9128 30.8818ZM57.5906 0.139648C58.7131 0.139648 59.7915 0.27055 60.825 0.530273C61.8581 0.78997 62.775 1.21431 63.5759 1.79785C64.377 2.38159 65.0154 3.12741 65.4851 4.03516C65.9548 4.9428 66.1921 6.04327 66.1921 7.33398H61.6208C61.5813 6.66822 61.4454 6.1154 61.2156 5.67578C60.9856 5.23862 60.6784 4.89397 60.2976 4.64453C59.9169 4.39518 59.4819 4.21771 58.99 4.1123C58.498 4.00946 57.9616 3.95509 57.3806 3.95508C56.9999 3.95508 56.6188 3.99619 56.238 4.08105C55.8574 4.16334 55.5114 4.31032 55.2 4.51855C54.8884 4.72685 54.6336 4.98706 54.4333 5.30078C54.2332 5.61444 54.1316 6.01018 54.1316 6.48828C54.1316 6.92541 54.2111 7.28016 54.3718 7.55273C54.5325 7.82525 54.8485 8.07489 55.3181 8.30371C55.7879 8.53258 56.441 8.76173 57.2742 8.99316C58.1049 9.22203 59.1929 9.51525 60.5378 9.87012C60.9384 9.95498 61.4948 10.1037 62.2068 10.3223C62.9188 10.5408 63.6257 10.8912 64.3279 11.3721C65.0299 11.8529 65.6355 12.4928 66.1472 13.2949C66.659 14.0972 66.9138 15.1262 66.9138 16.376C66.9138 17.3968 66.7242 18.3458 66.3435 19.2227C65.9628 20.0995 65.3959 20.8551 64.6443 21.4902C63.8927 22.1253 62.9608 22.6217 61.8484 22.9766C60.7359 23.3314 59.4477 23.5088 57.9841 23.5088C56.7999 23.5088 55.6524 23.3575 54.5398 23.0566C53.4272 22.7558 52.4455 22.2799 51.5925 21.6318C50.7396 20.9864 50.0641 20.1614 49.5623 19.1611C49.0604 18.1608 48.8208 16.9695 48.8406 15.5938H53.4119C53.4119 16.3445 53.543 16.98 53.8025 17.502V17.4971C54.0621 18.0191 54.4089 18.4406 54.8416 18.7646C55.2717 19.0886 55.7783 19.3275 56.3591 19.4844C56.94 19.6412 57.5409 19.7187 58.1638 19.7188C58.584 19.7188 59.0368 19.6829 59.5164 19.6084C59.9984 19.5364 60.4486 19.3948 60.8689 19.1865C61.2891 18.9783 61.6408 18.6932 61.9226 18.3281C62.202 17.963 62.3425 17.4997 62.3425 16.9365C62.3425 16.3322 62.1568 15.8413 61.7859 15.4658C61.4151 15.0905 60.9285 14.7767 60.3279 14.5273C59.7271 14.2779 59.0445 14.0588 58.283 13.8711C57.5215 13.6834 56.7502 13.4749 55.9666 13.2461C55.1655 13.0378 54.3813 12.7839 53.6199 12.4805C52.8584 12.1796 52.1758 11.7859 51.575 11.3076C50.9742 10.8293 50.4878 10.2272 50.1169 9.50977C49.7461 8.78979 49.5603 7.92083 49.5603 6.89746C49.5603 5.75058 49.7951 4.7552 50.2673 3.90918C50.7396 3.06315 51.3554 2.36101 52.1169 1.79785C52.8784 1.23477 53.7412 0.818457 54.7029 0.545898C55.6646 0.275895 56.6288 0.139655 57.5906 0.139648ZM35.7869 0.136719C36.8894 0.13676 37.9576 0.308778 38.991 0.65332C40.0244 0.997895 40.9562 1.50492 41.7869 2.1709C42.6175 2.83941 43.305 3.66202 43.8464 4.6416C44.3879 5.62135 44.719 6.74858 44.8376 8.02148H40.3259C40.0441 6.76927 39.5028 5.82996 38.7019 5.20508C37.9008 4.5802 36.9262 4.2666 35.7839 4.2666C34.7208 4.26661 33.8186 4.48037 33.0769 4.90723C32.3353 5.33402 31.7345 5.9071 31.2722 6.62695C30.8099 7.34695 30.4761 8.16502 30.2634 9.08301C30.0533 10.001 29.947 10.9499 29.947 11.9297C29.947 12.9094 30.0533 13.7814 30.2634 14.666C30.4736 15.5531 30.8099 16.3499 31.2722 17.0596C31.7321 17.7693 32.3352 18.3378 33.0769 18.7646C33.8186 19.1915 34.7209 19.4053 35.7839 19.4053C37.349 19.4053 38.556 18.9938 39.4089 18.1709C40.2618 17.348 40.7563 16.1522 40.8972 14.5889H36.1453V10.9297H45.1667V23.0049H42.1599L41.6785 20.4727C40.8354 21.5989 39.9027 22.3856 38.8816 22.833L38.8845 22.8301C37.8611 23.2775 36.8301 23.5038 35.7869 23.5039C34.1428 23.5039 32.6641 23.2053 31.3513 22.6113C30.0385 22.0173 28.9305 21.2002 28.0281 20.1562C27.1257 19.1148 26.4335 17.888 25.9539 16.4814C25.4717 15.0748 25.2322 13.5575 25.2322 11.9297C25.2322 10.3019 25.4717 8.71234 25.9539 7.28516C26.436 5.8582 27.1258 4.61135 28.0281 3.54688C28.9305 2.48227 30.0385 1.64923 31.3513 1.04492C32.6641 0.440657 34.1428 0.136719 35.7869 0.136719ZM11.1833 0.133789C12.8275 0.133789 14.3306 0.437698 15.6335 1.04199C16.9365 1.6463 18.0397 2.48191 18.9421 3.54395C19.8444 4.60584 20.5368 5.85273 21.0164 7.28223C21.4985 8.71199 21.738 10.2604 21.738 11.9268C21.738 13.5931 21.4985 15.0719 21.0164 16.4785C20.5342 17.8851 19.8446 19.1119 18.9421 20.1533C18.0397 21.1973 16.9365 22.0144 15.6335 22.6084C14.3306 23.2024 12.8473 23.501 11.1833 23.501C9.51945 23.501 8.06064 23.2024 6.7478 22.6084C5.43506 22.0144 4.32693 21.1973 3.42456 20.1533C2.52216 19.1119 1.82998 17.8851 1.35034 16.4785C0.868219 15.0719 0.628662 13.5545 0.628662 11.9268C0.628664 10.299 0.868221 8.70941 1.35034 7.28223C1.8324 5.85532 2.52234 4.6084 3.42456 3.54395C4.32694 2.47941 5.43506 1.64629 6.7478 1.04199C8.06064 0.437697 9.53922 0.133801 11.1833 0.133789ZM11.1882 4.2666C10.1253 4.26662 9.22285 4.47948 8.4812 4.90625C7.7395 5.33311 7.13885 5.90697 6.67651 6.62695C6.21417 7.34698 5.88035 8.16498 5.66772 9.08301C5.45761 10.001 5.35132 10.95 5.35132 11.9297C5.35134 12.9092 5.45764 13.7807 5.66772 14.665C5.87788 15.5522 6.21417 16.3498 6.67651 17.0596C7.13637 17.7692 7.73953 18.3378 8.4812 18.7646C9.22286 19.1914 10.1252 19.4043 11.1882 19.4043C12.2512 19.4043 13.1536 19.1914 13.8953 18.7646C14.637 18.3378 15.2386 17.7693 15.7009 17.0596C16.1608 16.3499 16.4971 15.5522 16.7097 14.665C16.9198 13.7781 17.0261 12.8654 17.0261 11.9297C17.0261 10.9938 16.9198 10.0009 16.7097 9.08301C16.4996 8.16507 16.1632 7.34693 15.7009 6.62695C15.2386 5.90693 14.637 5.33312 13.8953 4.90625C13.1536 4.47955 12.2512 4.2666 11.1882 4.2666Z"
                  fill="#E5EAFA" />
              </g>
              <defs>
                <clipPath id="clip0_2090_55768">
                  <rect width="66.2857" height="32" fill="white" transform="translate(0.628662 0.136719)" />
                </clipPath>
              </defs>
            </svg>