  <svg xmlns="http://www.w3.org/2000/svg" width="83" height="23" viewBox="0 0 83 23" fill="none">
              <path
                d="M7.67252 7.78834L6.72559 8.77724C5.92627 8.00591 5.15131 7.61998 4.40125 7.61998C3.91739 7.61998 3.50351 7.77798 3.16003 8.09345C2.81607 8.40892 2.64465 8.78397 2.64465 9.21911C2.64465 9.58379 2.78809 9.93397 3.07559 10.2707C3.35638 10.6286 3.94904 11.0384 4.85345 11.5015C5.96146 12.0692 6.71164 12.6199 7.10425 13.1529C7.49017 13.6927 7.68286 14.2993 7.68286 14.9727C7.68286 15.9124 7.35184 16.7102 6.68881 17.3655C6.02625 18.0213 5.19687 18.3492 4.20126 18.3492C3.53513 18.3492 2.89844 18.2072 2.29236 17.9234C1.68579 17.639 1.18588 17.2411 0.793213 16.7293L1.72928 15.6669C2.4866 16.5227 3.28955 16.95 4.13809 16.95C4.72708 16.95 5.23053 16.7594 5.64758 16.3766C6.06458 15.9948 6.27335 15.5477 6.27335 15.0359C6.27335 14.6081 6.13657 14.2294 5.8631 13.8999C5.58951 13.5699 4.96899 13.1566 4.00134 12.6587C2.95645 12.1324 2.24835 11.603 1.87689 11.07C1.49826 10.5514 1.30865 9.95521 1.30865 9.28179C1.30865 8.4053 1.60858 7.678 2.20795 7.09937C2.80777 6.52074 3.55948 6.23169 4.46445 6.23169C5.52322 6.23169 6.59244 6.75074 7.67252 7.78834Z"
                fill="#E5EAFA" />
              <path
                d="M9.98389 6.52661H11.4773V11.9119C11.4773 13.2308 11.5473 14.1353 11.6877 14.6258C11.8985 15.3345 12.3015 15.8934 12.8978 16.3037C13.4935 16.714 14.2089 16.9191 15.0434 16.9191C15.8707 16.9191 16.5721 16.7192 17.1471 16.3198C17.7221 15.9199 18.1183 15.3941 18.3359 14.7419C18.4898 14.3 18.567 13.3567 18.567 11.9119V6.52661H20.0817V12.1963C20.0817 13.7882 19.8941 14.9853 19.5191 15.7883C19.144 16.5912 18.5845 17.219 17.8412 17.6713C17.0978 18.1235 16.1654 18.3499 15.0434 18.3499C13.9141 18.3499 12.9744 18.1235 12.2243 17.6713C11.4737 17.219 10.9127 16.5845 10.5413 15.767C10.1693 14.9506 9.98389 13.7214 9.98389 12.0803V6.52661Z"
                fill="#E5EAFA" />
              <path
                d="M22.6884 13.0583V11.67C22.8003 10.9759 22.9619 10.4112 23.1722 9.9761C23.6628 8.77015 24.3222 7.88692 25.15 7.32539C25.9773 6.7649 26.6647 6.48413 27.2112 6.48413C27.6178 6.48413 28.053 6.61726 28.5156 6.88404L27.7479 8.12522C27.0957 7.88692 26.4486 8.07963 25.8073 8.70384C25.1656 9.32754 24.7221 10.0077 24.4766 10.7443C24.2943 11.3965 24.2031 12.6201 24.2031 14.415V18.3178H22.6884V13.0583Z"
                fill="#E5EAFA" />
              <path
                d="M38.9899 14.2366L40.2311 14.8992C39.8312 15.7057 39.3613 16.3548 38.8215 16.8454C38.2818 17.3365 37.6751 17.71 37.0017 17.9659C36.3288 18.2218 35.5678 18.3497 34.7193 18.3497C32.8399 18.3497 31.3708 17.7343 30.312 16.5035C29.2532 15.2727 28.7238 13.8828 28.7238 12.3329C28.7238 10.8674 29.1723 9.56307 30.0701 8.4198C31.2061 6.96158 32.7312 6.23169 34.6458 6.23169C36.6018 6.23169 38.1693 6.97867 39.3474 8.47264C40.1819 9.52422 40.6025 10.8358 40.6097 12.4065H30.2488C30.2768 13.7528 30.7047 14.8557 31.5319 15.7145C32.3592 16.5734 33.3797 17.0034 34.5929 17.0034C35.1819 17.0034 35.7538 16.8998 36.3076 16.6931C36.8613 16.4859 37.3333 16.2144 37.7223 15.8777C38.1113 15.541 38.5341 14.994 38.9899 14.2366ZM38.9899 11.1337C38.7936 10.3411 38.5061 9.70863 38.1274 9.23516C37.7487 8.76169 37.2473 8.3794 36.6231 8.08879C35.9988 7.79766 35.3435 7.6521 34.6562 7.6521C33.5268 7.6521 32.5561 8.01678 31.7422 8.74615C31.1532 9.27868 30.7078 10.0749 30.4063 11.1337H38.9899Z"
                fill="#E5EAFA" />
              <path d="M61.0374 13.189H64.6402L62.8225 8.2124L61.0374 13.189Z" fill="#E5EAFA" />
              <path
                d="M50.5366 7.67798H48.8914V11.3632H50.5366C51.1121 11.3632 51.5934 11.3031 51.9803 11.1824C52.3667 11.0617 52.6615 10.8643 52.8646 10.5898C53.0671 10.3157 53.1687 9.95675 53.1687 9.51228C53.1687 8.98028 53.0122 8.54721 52.6998 8.21257C52.3492 7.85617 51.6275 7.67798 50.5366 7.67798Z"
                fill="#E5EAFA" />
              <path
                d="M78.4967 0H46.0598C43.8065 0 41.9794 1.82705 41.9794 4.08044V18.2607C41.9794 20.5141 43.8065 22.3411 46.0598 22.3411H78.4967C80.7501 22.3411 82.5771 20.5141 82.5771 18.2607V4.08044C82.5771 1.82705 80.7501 0 78.4967 0ZM54.5092 12.2558C53.753 12.8893 52.6258 13.2059 51.1287 13.2059H48.8913V16.6196C48.8913 17.1076 48.7763 17.478 48.5458 17.7302C48.3159 17.982 48.0247 18.1084 47.674 18.1084C47.3067 18.1084 47.0104 17.9835 46.7856 17.7344C46.5608 17.4847 46.4483 17.1185 46.4483 16.6362V7.34085C46.4483 6.80366 46.5717 6.41981 46.8182 6.18929C47.0653 5.95877 47.4574 5.84377 47.9947 5.84377H51.1287C52.0554 5.84377 52.7682 5.91526 53.2675 6.05771C53.7607 6.19447 54.1871 6.4224 54.5466 6.74046C54.9055 7.05853 55.1786 7.44756 55.365 7.9086C55.5515 8.36912 55.6448 8.88713 55.6448 9.46317C55.6448 10.6914 55.2666 11.6223 54.5092 12.2558ZM68.1321 17.7587C67.899 17.9918 67.6178 18.1084 67.2888 18.1084C67.0966 18.1084 66.9324 18.0742 66.7951 18.0053C66.6578 17.9369 66.5428 17.8437 66.4496 17.7261C66.3564 17.608 66.2564 17.4272 66.1497 17.1832C66.0424 16.9392 65.9507 16.7237 65.8741 16.5372L65.298 15.0236H60.3955L59.82 16.5704C59.5947 17.1734 59.403 17.5805 59.244 17.7919C59.0849 18.0027 58.8244 18.1084 58.4628 18.1084C58.1556 18.1084 57.8842 17.996 57.6485 17.7712C57.4122 17.5463 57.2946 17.2915 57.2946 17.006C57.2946 16.8418 57.3221 16.6719 57.3765 16.4963C57.4314 16.3207 57.5221 16.0767 57.6485 15.7638L60.7328 7.93294C60.8203 7.70812 60.926 7.43823 61.0498 7.12276C61.173 6.80781 61.3046 6.54569 61.4445 6.33744C61.5844 6.12868 61.7677 5.96033 61.9957 5.83134C62.2231 5.70235 62.5038 5.63812 62.839 5.63812C63.1789 5.63812 63.4627 5.70235 63.6902 5.83134C63.9175 5.96033 64.1014 6.12609 64.2413 6.32916C64.3812 6.53222 64.4988 6.74979 64.5951 6.9829C64.6909 7.216 64.8127 7.52733 64.9608 7.91688L68.1114 15.698C68.3585 16.2907 68.4818 16.7211 68.4818 16.9895C68.4818 17.2692 68.3647 17.5256 68.1321 17.7587ZM79.3825 7.27506C79.2784 7.489 79.1002 7.78479 78.8479 8.16346L75.8289 12.7946V16.6196C75.8289 17.1185 75.7139 17.4914 75.4834 17.738C75.2534 17.9851 74.9597 18.1084 74.6033 18.1084C74.2411 18.1084 73.9479 17.9861 73.7232 17.7421C73.4983 17.4982 73.3859 17.1242 73.3859 16.6196V12.7946L70.4409 8.22925C70.183 7.81794 70.0012 7.49729 69.8939 7.26677C69.7872 7.03625 69.7333 6.8363 69.7333 6.66639C69.7333 6.38666 69.8421 6.14526 70.0586 5.9422C70.2752 5.73965 70.5425 5.63812 70.8605 5.63812C71.1952 5.63812 71.4485 5.7324 71.6215 5.92199C71.794 6.11107 72.0536 6.48819 72.3985 7.05283L74.6525 10.7132L76.9313 7.05283C77.068 6.82801 77.1835 6.63893 77.2768 6.4856C77.37 6.33175 77.4726 6.18774 77.585 6.05357C77.6974 5.9194 77.8222 5.81632 77.9595 5.74483C78.0963 5.67386 78.2636 5.63812 78.461 5.63812C78.7681 5.63812 79.0246 5.7381 79.2302 5.93857C79.4359 6.13852 79.5389 6.37008 79.5389 6.63323C79.5389 6.84717 79.4866 7.06112 79.3825 7.27506Z"
                fill="#E5EAFA" />
            </svg>