 <svg xmlns="http://www.w3.org/2000/svg" width="50" height="17" viewBox="0 0 50 17" fill="none">
              <path
                d="M39.5742 1.64357L43.6579 0.917111V16.586H39.5742V1.64357ZM45.5362 1.64357V16.5771H49.6194V0.917111L45.5362 1.64357ZM33.7693 16.5771H37.8526V5.12137H33.7693V16.5771ZM6.78288 6.7398C6.26383 6.70523 5.07018 6.62719 5.07018 5.55452C5.07018 4.25663 6.79179 4.25663 7.43183 4.25663C8.56525 4.25663 10.0365 4.59394 11.083 4.90558C11.083 4.90558 11.6717 5.11299 12.1646 5.32092L12.208 5.3293V1.78237L12.1473 1.76456C10.9101 1.33246 9.47398 0.917111 6.80017 0.917111C2.19681 0.917111 0.571045 3.59931 0.571045 5.89182C0.571045 7.2159 1.14142 10.3307 6.41101 10.6937C6.86092 10.7199 8.0462 10.789 8.0462 11.9052C8.0462 12.8223 7.07724 13.3675 5.44205 13.3675C3.65078 13.3675 1.92026 12.9087 0.864876 12.4761V16.1361C2.43983 16.5515 4.2222 16.7589 6.30731 16.7589C10.8064 16.7589 12.8224 14.2239 12.8224 11.7061C12.8224 8.85109 10.5728 6.99958 6.78288 6.7398ZM31.4679 4.95743C27.6952 5.07842 25.7835 6.77436 25.7835 10.1401V16.586H29.9013V11.3253C29.9013 9.30938 30.1611 8.44412 32.5573 8.36661V5.00928C32.142 4.93176 31.4679 4.95743 31.4679 4.95743ZM20.3929 5.11299C20.3065 5.33821 19.6491 7.18971 18.0653 9.10197V0.917111L13.8521 1.74728V16.5771H18.0653V11.9916C19.2857 13.8258 19.8911 16.5771 19.8911 16.5771H24.9355C24.4337 14.5009 22.2533 10.6764 22.2533 10.6764C24.2085 8.19324 25.0738 5.54561 25.212 5.10461H20.3929V5.11299ZM35.8025 4.02303C36.9098 4.02303 37.8185 3.1232 37.8185 2.01597C37.8185 0.908208 36.9182 0 35.8025 0C34.6948 0 33.7955 0.899827 33.7955 2.01597C33.7955 3.1232 34.6948 4.02303 35.8025 4.02303Z"
                fill="#E5EAFA" />
            </svg>