 <svg xmlns="http://www.w3.org/2000/svg" width="93" height="16" viewBox="0 0 93 16" fill="none">
              <path
                d="M91.1874 1.21204C90.0113 0.406637 88.2323 0.000559807 85.8999 0.000559807H79.7924L77.5213 12.3274H69.5202L70.0342 9.531H74.8542L75.4252 6.3898L70.6079 6.39655L71.1237 3.61195H76.0888L76.7491 0.00112343H66.6669L64.5111 11.6941H60.8109L62.9813 0.000559807H57.7108L55.5549 11.6935H51.9509L54.123 0.000559807H48.8552L46.5819 12.328H38.5228L39.0323 9.531H43.8715L44.4435 6.4078L39.6088 6.40274L40.1218 3.61307H45.1421L45.7984 0H14.3798L12.5918 9.7689L9.03047 0H3.56192L0.619263 15.9422H5.84148L7.62271 5.90443L11.0783 15.9422H29.7944L32.07 3.61139H34.9969L32.7213 15.9422H81.9668L83.3948 8.15866L85.7042 15.9422H90.9292L88.536 9.58218L89.0833 9.46407C90.2891 9.20534 91.2301 8.65022 91.8847 7.81782C92.5394 6.97811 92.873 5.89936 92.873 4.60408C92.873 3.09563 92.3212 1.98595 91.1856 1.21092L91.1874 1.21204ZM25.25 12.3274H17.2561L17.7724 9.531H22.7865L23.3551 6.3808H18.3894L18.8674 3.61307H26.8494L25.2482 12.3274H25.25ZM86.8819 6.95786C86.3566 7.32513 85.5945 7.50399 84.5529 7.50399H83.5202L84.3127 3.22612H85.072C85.937 3.22612 86.5681 3.36448 87.0034 3.64738C87.3431 3.86898 87.7469 4.30768 87.7469 5.13783C87.7458 6.14121 87.2756 6.68058 86.8802 6.95786H86.8819Z"
                fill="#E5EAFA" />
            </svg>