  <svg xmlns="http://www.w3.org/2000/svg" width="99" height="33" viewBox="0 0 99 33" fill="none">
              <path
                d="M31.4091 0.227625C43.3107 -0.965444 43.5879 9.9036 43.3114 12.377C43.0349 14.851 41.5504 29.8359 34.3778 31.7276C27.205 33.619 20.876 28.4248 18.7226 26.8243C15.0328 24.0395 10.7155 22.2012 6.15127 21.4708C4.85061 21.3224 3.56456 21.0585 2.31045 20.6847C1.84486 20.5013 1.41584 20.2346 1.04482 19.8985C-0.191875 18.6618 0.971751 16.8581 1.85927 15.796C5.16208 11.7803 18.4164 2.14828 31.4091 0.227625ZM55.372 21.7608C55.372 22.1391 55.8086 22.5908 56.6669 22.5909H58.8349C59.6933 22.5909 60.1298 22.1391 60.1298 21.7608V17.5997H61.0028V22.1397C60.8572 22.7798 60.1297 23.085 58.8349 23.085H56.6669C55.3722 23.085 54.6444 22.7798 54.4989 22.1397V17.5997H55.372V21.7608ZM52.3456 17.4981C53.3641 17.7164 53.452 18.168 53.452 19.172H52.5644C52.5353 18.5463 52.3018 18.0655 51.8944 18.0655H48.2431C47.8066 18.0655 47.5732 18.6039 47.5731 19.3458V21.0196C47.5732 21.7615 47.8066 22.3575 48.2431 22.3575H52.0692C52.1013 22.3575 52.1334 22.355 52.164 22.3507C52.5378 22.2939 52.7949 21.9462 52.7382 21.5724V21.296L53.495 21.2813V21.5577C53.4514 22.5761 53.0878 22.8964 52.3749 23.0128H47.8358C47.0793 22.8964 46.7148 22.1252 46.7147 21.0196V19.3458C46.7148 18.2402 47.0793 17.6145 47.8358 17.4981H52.3456ZM67.1581 17.5997C68.0061 17.5853 68.7275 18.2141 68.831 19.0548C68.831 20.318 67.9246 20.5051 67.9003 20.5099C68.2857 20.686 68.5615 21.0387 68.6415 21.4561V22.9981H67.8417V21.4708C67.638 21.0475 67.1871 20.8014 66.7216 20.8595H63.3603V23.0128H62.4579V17.5997H67.1581ZM76.6874 23.0128H75.6688L75.0585 21.878H71.1591L70.5478 23.0128H69.4999L72.4101 17.4835H73.7782L76.6874 23.0128ZM82.8856 17.4981C83.9041 17.7164 84.0067 18.168 84.0067 19.172H83.1044C83.0753 18.5465 82.8426 18.0658 82.4354 18.0655H78.7978C78.3613 18.0655 78.1289 18.6039 78.1288 19.3458V21.0196C78.1289 21.7615 78.3613 22.3575 78.7978 22.3575H82.581C82.6127 22.3575 82.6444 22.355 82.6747 22.3507C83.0486 22.2939 83.3065 21.9462 83.2499 21.5724V21.296L84.0067 21.2813V21.5577C83.9631 22.5761 83.5986 22.8964 82.8856 23.0128H78.3466C77.5901 22.8964 77.2265 22.1252 77.2265 21.0196V19.3458C77.2265 18.2402 77.5901 17.6145 78.3466 17.4981H82.8856ZM91.6005 23.0128H90.5819L89.9706 21.878H86.0712L85.4608 23.0128H84.413L87.3231 17.4835H88.6903L91.6005 23.0128ZM97.7987 17.5567C98.5117 17.6877 98.8759 18.3134 98.8759 19.4337V21.1358C98.8759 22.2706 98.5116 22.8964 97.7987 23.0128H93.0995C92.3866 22.8964 92.0224 22.2706 92.0224 21.1358V19.4337C92.0224 18.3134 92.3866 17.6877 93.0995 17.5567H97.7987ZM93.5214 18.1388C93.0995 18.1388 92.8808 18.5458 92.8808 19.3604V21.2081C92.8808 22.0229 93.0994 22.4307 93.5214 22.4307H97.3769C97.7988 22.4307 98.0175 22.0229 98.0175 21.2081V19.3604C98.0174 18.5458 97.7988 18.1388 97.3769 18.1388H93.5214ZM29.8817 11.5616C28.1213 11.5616 26.6954 12.9892 26.6952 14.7481V19.0548C26.6952 20.8255 28.1257 22.2619 29.8964 22.2706H34.7118C35.8321 22.2706 37.4041 21.3976 37.4042 20.2628L37.3456 18.6036H35.8036V19.4913C35.8036 20.3788 35.1777 21.0626 33.8974 21.0626H30.5507C29.2996 21.0625 28.3104 20.568 28.3104 18.5167V15.1993C28.3105 13.3081 29.0524 12.6974 30.5653 12.6974H33.956C34.9161 12.6974 35.6874 13.09 35.6874 14.6612V14.8214H37.1425V14.0352C37.1423 12.6692 36.0349 11.5618 34.6688 11.5616H29.8817ZM17.6894 11.5763C15.9856 11.5675 14.597 12.9428 14.5897 14.6466V19.0548C14.5737 20.7585 15.9417 22.153 17.6454 22.169H22.9853C24.3194 22.169 25.4003 21.0872 25.4003 19.753V16.8438H19.6679V18.0802H19.7548V17.8907H24.12V19.1134C24.152 20.142 23.3459 21.0023 22.3173 21.0343H18.2714C16.9548 20.995 15.9188 19.8948 15.9579 18.5782V15.1124C15.9172 13.7956 16.9517 12.6941 18.2685 12.6534H22.2431C23.2717 12.6854 24.0797 13.5437 24.0478 14.5724V14.7774H25.3856V13.9923C25.3856 12.6581 24.3048 11.5763 22.9706 11.5763H17.6894ZM71.5224 21.2227H74.8104L73.1522 18.1388L71.5224 21.2227ZM86.3622 21.2227H89.7235L88.0507 18.1388L86.3622 21.2227ZM63.3603 20.1026H67.4638C67.8418 20.1022 68.0602 19.6223 68.0312 19.0987C67.973 18.7555 67.7647 18.4574 67.4638 18.2843H63.3603V20.1026ZM52.3749 10.3253C53.3933 10.4853 53.4513 10.9944 53.4804 11.9981H52.6073C52.6072 11.3726 52.3457 10.8927 51.9384 10.8927H48.2431C47.8066 10.8927 47.5731 11.4456 47.5731 12.1876V13.8458C47.5731 14.5878 47.8066 15.1993 48.2431 15.1993H52.0399C52.4182 15.1949 52.7211 14.8862 52.7167 14.5079C52.7167 14.476 52.7142 14.4451 52.7099 14.4132V13.7589H49.9159V13.0167H53.495V14.4132C53.495 15.4025 53.0878 15.7373 52.3749 15.8682H47.8358C47.0793 15.7519 46.7147 14.9808 46.7147 13.8604V12.1876C46.7147 11.0673 47.0793 10.4562 47.8358 10.3253H52.3749ZM89.1562 10.3253C90.1891 10.4853 90.2336 10.9944 90.2772 11.9981H89.3749C89.3748 11.3729 89.1276 10.893 88.7206 10.8927H85.0536C84.6026 10.8927 84.37 11.4456 84.37 12.1876V13.8458C84.37 14.5878 84.6026 15.1993 85.0536 15.1993H88.8515C89.2208 15.1962 89.5184 14.8949 89.5155 14.5255C89.5155 14.4877 89.5116 14.4495 89.5058 14.4132V13.7589H86.6981V13.0167H90.2626V14.4132C90.2626 15.4025 89.8545 15.7373 89.1562 15.8682H84.6171C83.8751 15.7518 83.497 14.9807 83.497 13.8604V12.1876C83.497 11.0673 83.8751 10.4563 84.6171 10.3253H89.1562ZM61.3378 15.8536H60.3046L59.6933 14.6905H55.6923L55.081 15.8253H54.0624L56.9726 10.3253H58.4276L61.3378 15.8536ZM66.7206 15.0099L69.5282 10.3253H71.3036V15.8536H70.2851V10.9796L67.1571 15.8536H66.1825L63.1562 10.9796V15.8536H62.1376V10.3253H63.9267L66.7206 15.0099ZM73.788 15.8536H72.788V10.3253H73.788V15.8536ZM81.2704 15.3155V10.4122H82.2304V15.7813H80.6454L76.2802 10.878V15.7813H75.2763V10.4122H76.9062L81.2704 15.3155ZM55.9979 14.0645L59.3446 14.0352L57.6854 10.9796L55.9979 14.0645ZM37.7675 11.8243V12.0274H38.1747V12.8712H38.4228V12.0274H38.8153V12.8712H39.0478V12.1153L39.5429 12.8136L40.0517 12.129V12.8712H40.2704V11.8243H39.9647L39.5429 12.3477L39.2226 11.8243L39.2079 11.8302V11.8243H37.7675Z"
                fill="#E5EAFA" />
            </svg>