  <svg xmlns="http://www.w3.org/2000/svg" width="208" height="29" viewBox="0 0 208 29" fill="none">
              <path
                d="M40.7233 9.61914C42.9594 9.52951 44.9281 10.7821 46.0016 12.6602V9.8877H47.8795V15.5234H45.9117C45.733 14.7183 45.3745 14.0018 44.9274 13.376C44.0326 12.2131 42.6018 11.4978 41.1705 11.4082C39.0235 11.4082 35.8033 13.2869 35.8033 18.7441C35.8034 23.0381 38.1287 26.1689 41.1705 26.1689C43.5859 26.0793 45.5544 24.2905 46.0016 21.9648C46.0912 21.5173 46.0914 20.9803 46.0914 20.5332H41.8864L41.9752 18.9229H48.1481V27.6895H46.1803V24.917C45.8228 25.5428 45.3752 26.0795 44.8385 26.6162C43.6759 27.6001 42.2437 28.1367 40.8121 28.1367C36.6975 28.1365 33.4772 24.1115 33.4772 18.9229C33.4772 13.7341 36.6976 9.61924 40.7233 9.61914ZM56.0211 14.0918C58.7944 14.0919 61.1198 15.3445 61.1198 18.7441V26.1689H62.9987L63.1783 27.7793H59.3307V25.3633C58.4359 27.0632 56.6468 28.0479 54.7682 28.0479C52.5317 28.2264 50.5641 26.4367 50.3854 24.2002V23.9326C50.3854 21.3385 52.6214 20.0856 57.9889 19.5488L59.2418 19.459V18.1172C59.2417 16.5967 58.0784 15.6123 56.1998 15.6123C54.3213 15.6124 53.3366 16.2394 52.9791 18.0283H50.9225C51.1012 16.9548 51.6379 15.9704 52.443 15.2549C53.4269 14.4498 54.7689 14.0918 56.0211 14.0918ZM115.227 14.0928C118.537 14.0928 121.221 16.6866 121.221 21.4277H111.47C111.65 23.3959 112.097 24.5589 112.991 25.4531C113.707 26.0795 114.601 26.4375 115.496 26.4375C117.016 26.4375 118.001 25.7216 118.716 24.1113L120.953 24.0225C120.773 24.8275 120.416 25.4537 119.88 26.0801C118.806 27.3322 117.285 28.0478 115.586 28.0479C111.917 28.0479 109.323 25.185 109.323 21.0703C109.323 17.1338 111.917 14.0928 115.227 14.0928ZM166.576 14.0918C170.333 14.0918 172.301 15.7922 172.301 18.834L172.212 25.1846H173.375V27.7793H169.171V26.1689C168.187 27.4217 166.666 28.0478 165.055 28.0479C162.372 28.0479 160.314 26.2582 160.314 23.8428C160.314 19.9071 164.787 19.459 169.081 19.1016C169.081 17.0439 168.365 16.418 166.666 16.418C164.966 16.418 164.34 17.2233 164.251 18.4756V18.5654L161.03 18.4756C161.209 15.7918 163.355 14.0918 166.576 14.0918ZM24.5309 13.9131C26.5883 13.9131 28.5567 14.8975 29.7194 16.6865C30.614 18.2071 31.1508 19.9074 31.0612 21.6963H21.399C21.7572 25.1844 23.9936 25.3642 24.6198 25.3643C25.8725 25.4534 27.0352 24.5587 27.3932 23.3955L30.7926 23.3057C30.1667 26.2578 27.7514 28.0469 24.5309 28.0469C20.7736 28.0469 18.0007 25.0957 18.0006 20.9805C18.0006 16.8652 20.7736 13.9131 24.5309 13.9131ZM191.884 13.9131C193.942 13.9131 195.91 14.8975 197.073 16.6865C197.968 18.2071 198.504 19.9073 198.415 21.6963H188.754C189.112 25.1848 191.348 25.3643 191.974 25.3643C193.226 25.4532 194.39 24.5586 194.748 23.3955L198.147 23.3057C197.521 26.2578 195.105 28.0468 191.884 28.0469C188.128 28.0469 185.354 25.0957 185.354 20.9805C185.354 16.8652 188.128 13.9131 191.884 13.9131ZM91.2672 17.0449C91.804 16.0605 93.3248 14.0929 95.651 14.0928C98.6922 14.0928 101.018 17.2233 101.018 21.1592C101.018 24.8274 98.5135 27.959 95.651 27.959C93.2358 27.9589 92.0723 26.3489 91.2672 25.2754V27.7803H87.4205V26.1699H89.2994V10.8721H87.5104V9.26172H91.2672V17.0449ZM80.3531 13.9131C82.4104 13.9131 83.5737 15.2546 83.5739 17.5801V26.0791H85.4528V27.6895H81.6949V18.2959C81.6949 16.4175 81.0688 15.5236 79.7272 15.5234C77.4015 15.5234 76.1492 18.2957 76.149 19.2803V26.0791H78.1168V27.6895H74.1803V18.0273C74.1802 16.3283 73.5541 15.6124 72.2125 15.6123C70.1552 15.6123 68.6345 18.2067 68.6344 19.459V26.1689H70.6022V27.7793H64.7877V26.1689H66.7555V15.791H64.7877V14.1816H68.7233L68.8131 16.7754C69.4395 15.8806 70.6021 14.002 73.1071 14.002C74.896 14.002 75.8804 14.8968 76.2379 16.7754C76.5959 16.149 76.9531 15.612 77.4899 15.0752C78.295 14.3597 79.2797 13.9131 80.3531 13.9131ZM106.013 26.1689H107.802V27.7793H102.077V26.1689H104.046V10.7822H102.167V9.26074H106.013V26.1689ZM138.665 24.917H140.007V27.7793H135.981L134.819 23.9316H128.556L127.394 27.7793H123.279V24.917H124.621L129.451 10.0664H133.745L138.665 24.917ZM7.62366 10.0664C10.6652 10.0664 11.7387 10.1557 12.6334 10.5137C14.3328 11.3188 15.317 12.929 15.317 14.8076C15.3169 16.5969 14.7797 17.491 12.9908 18.3857C14.8695 19.0121 16.1217 20.8012 15.943 22.7695C15.943 25.7216 13.6175 27.6893 10.2184 27.6895H0.824829V24.8271H2.16663V12.9287H0.824829V10.0664H7.62366ZM145.196 16.8652H143.854L145.733 24.8271L147.968 14.2715H151.458L153.694 24.6484L155.483 16.8652H154.141V14.2715H159.509V16.8652H158.346L155.483 27.6895H151.905L149.669 18.3867L147.521 27.6895H143.944L140.992 16.8652H139.829V14.2715H145.196V16.8652ZM183.117 14.0029C183.654 14.0029 184.102 14.0925 184.638 14.1816V17.3125C184.102 17.2229 183.565 17.1338 183.028 17.1338C181.328 17.0447 179.896 18.297 179.807 19.9072V25.0947H181.418V27.6895H175.156V25.0947H176.498V16.8652H175.156V14.2705H179.717V16.418C180.612 14.7182 181.596 14.003 183.117 14.0029ZM58.0787 20.9805C53.9635 21.5172 52.6217 22.2332 52.6217 23.9326C52.7116 25.4535 53.9638 26.5273 55.3951 26.5273C57.3628 26.4376 59.0622 25.0057 59.3307 23.0381V20.8018L58.0787 20.9805ZM95.1149 15.6133C93.1466 15.6133 91.1774 17.7603 91.1774 19.7285L91.2672 22.0547C91.2674 24.2912 92.9679 26.0801 95.1149 26.2588C97.4403 26.2585 98.8706 24.2014 98.8707 20.8916C98.8707 17.5822 97.3508 15.6136 95.1149 15.6133ZM168.991 21.4277C165.86 21.6961 163.803 21.9645 163.802 23.8428C163.802 24.9162 164.697 25.6317 166.039 25.6318C167.649 25.6318 168.991 24.3798 169.081 22.7695V21.4277H168.991ZM5.83459 19.9961V24.8271H9.59143C11.023 24.9168 12.2752 23.932 12.3649 22.501V22.4111C12.3647 20.8908 11.1123 19.9064 9.23401 19.9062L5.83459 19.9961ZM129.272 21.248H133.923L131.598 13.376L129.272 21.248ZM117.642 16.5078C117.016 15.9711 116.211 15.6125 115.406 15.7021C113.707 15.7913 112.275 16.9552 111.828 18.5654C111.738 19.0124 111.559 19.4602 111.559 19.9072H118.985C118.985 18.655 118.537 17.4917 117.642 16.5078ZM24.6198 16.6865C23.0993 16.6866 21.8472 17.8494 21.5787 19.2803L27.3932 19.3701C27.3932 17.8495 26.1411 16.6865 24.7096 16.6865H24.6198ZM191.884 16.6865C190.364 16.6865 189.112 17.8494 188.843 19.2803L194.658 19.3701C194.658 17.8496 193.406 16.6867 191.974 16.6865H191.884ZM5.83459 17.2227H9.32288C10.5751 17.3123 11.7391 16.4173 11.8287 15.165V14.9863C11.8286 13.8233 10.6653 12.9288 9.0553 12.9287H5.83459V17.2227ZM203.246 0.136719C205.663 0.136777 207.628 2.10328 207.629 4.51953C207.629 6.93647 205.663 8.90326 203.246 8.90332C200.829 8.90332 198.863 6.9365 198.863 4.51953C198.863 2.10324 200.829 0.136719 203.246 0.136719ZM203.246 0.852539C201.223 0.852539 199.578 2.49774 199.578 4.51953C199.578 6.54201 201.223 8.18848 203.246 8.18848C205.268 8.18842 206.914 6.54198 206.914 4.51953C206.913 2.49777 205.268 0.852597 203.246 0.852539ZM203.683 2.10156C204.114 2.10156 204.452 2.20542 204.695 2.41699C204.937 2.62857 205.057 2.91831 205.057 3.28516C205.057 3.56027 204.996 3.80095 204.872 4.00781C204.747 4.21451 204.547 4.3556 204.272 4.43164V4.44434C204.403 4.46982 204.51 4.51109 204.592 4.57031C204.675 4.62969 204.74 4.70092 204.789 4.7832C204.837 4.86502 204.874 4.95697 204.897 5.05859C204.92 5.15955 204.938 5.26521 204.951 5.375C204.959 5.48548 204.965 5.59733 204.969 5.71094C204.974 5.82558 204.984 5.93745 205.001 6.04688C205.017 6.15672 205.042 6.26143 205.075 6.36035C205.106 6.45978 205.153 6.54703 205.216 6.62305H204.545C204.502 6.57676 204.474 6.51307 204.46 6.43359C204.444 6.35334 204.435 6.26314 204.431 6.16309C204.427 6.06464 204.423 5.95782 204.419 5.84375C204.414 5.73015 204.401 5.61776 204.38 5.50781C204.363 5.39801 204.343 5.29375 204.317 5.19434C204.292 5.09586 204.251 5.00908 204.196 4.93457C204.142 4.86088 204.07 4.80252 203.982 4.75781C203.893 4.71352 203.774 4.69141 203.627 4.69141H202.157V6.62305H201.555V2.10156H203.683ZM202.157 4.18457H203.411C203.55 4.18457 203.684 4.17416 203.81 4.15332C203.937 4.13144 204.048 4.09026 204.143 4.0293C204.238 3.96834 204.314 3.88589 204.371 3.78223C204.428 3.67904 204.457 3.54508 204.457 3.37988C204.457 3.15231 204.393 2.96651 204.266 2.82324C204.14 2.67993 203.935 2.60742 203.652 2.60742H202.157V4.18457Z"
                fill="#E5EAFA" />
            </svg>