  <svg xmlns="http://www.w3.org/2000/svg" width="30" height="33" viewBox="0 0 30 33" fill="none">
              <g clip-path="url(#clip0_2090_55735)">
                <path
                  d="M28.818 18.7373C29.3738 18.7374 29.8247 19.1631 29.8248 19.6895V29.126L24.5621 32.1367L19.3014 29.126V19.6895C19.3015 19.163 19.7514 18.7373 20.3073 18.7373H28.818ZM22.2311 0.136719C23.4783 0.136939 24.4899 1.14796 24.4899 2.39648V17.2041H21.4469V9.39746L12.6832 4.71094L3.91956 9.39746V18.7695L12.6832 23.4561L17.7672 20.7373V28.8535L12.6823 31.9297L0.87561 24.7861V2.39648C0.87561 1.14782 1.88671 0.136719 3.13538 0.136719H22.2311ZM23.2096 26.4619L22.7125 25.8613L21.2477 24.0918L20.4596 24.7432L21.8278 26.3965L23.1813 28.0312L28.6979 21.8213L27.9332 21.1426L23.2096 26.4619ZM13.5758 8.51953C14.5458 8.51955 15.456 8.76732 16.2496 9.20312C16.0338 9.1638 15.8128 9.1389 15.5885 9.12891L15.3639 9.12402C12.625 9.12402 10.4039 11.3441 10.4039 14.083C10.404 16.8218 12.625 19.043 15.3639 19.043C15.6655 19.043 15.9621 19.0163 16.2496 18.9639L15.9469 19.1182C15.2277 19.4577 14.4247 19.6474 13.5758 19.6475C10.5034 19.6475 8.01238 17.1567 8.01233 14.083C8.01233 11.0093 10.5034 8.51953 13.5758 8.51953ZM15.608 17.1855H16.3317L16.3307 17.1865H16.3317L15.7457 17.6113L15.9694 18.2988L15.3844 17.875L14.7985 18.2988L15.0221 17.6113L14.4371 17.1865H14.4381L14.4371 17.1855H15.1608L15.3844 16.4971L15.608 17.1855ZM15.608 14.9766H16.3317L15.7457 15.4014L15.9694 16.0898L15.3844 15.6641L14.7985 16.0898L15.0211 15.4014L14.4371 14.9766H15.1608L15.3844 14.2871L15.608 14.9766ZM15.608 12.7656H16.3317L15.7457 13.1904L15.9694 13.8799L15.3844 13.4541L14.7985 13.8799L15.0221 13.1904L14.4371 12.7656H15.1608L15.3844 12.0781L15.608 12.7656ZM15.608 10.5557H16.3317L15.7457 10.9814L15.9694 11.6699L15.3844 11.2441L14.7985 11.6699L15.0221 10.9814L14.4371 10.5557H15.1608L15.3844 9.86816L15.608 10.5557Z"
                  fill="#E5EAFA" />
              </g>
              <defs>
                <clipPath id="clip0_2090_55735">
                  <rect width="28.9493" height="32" fill="white" transform="translate(0.87561 0.136719)" />
                </clipPath>
              </defs>
            </svg>