   <svg xmlns="http://www.w3.org/2000/svg" width="41" height="33" viewBox="0 0 41 33" fill="none">
              <g clip-path="url(#clip0_2090_55795)">
                <path
                  d="M22.3077 23.7179H21.702V23.3032H21.8907C21.917 23.355 21.9475 23.4055 21.9844 23.4525C22.0691 23.5608 22.1775 23.6492 22.3077 23.7179Z"
                  fill="#E5EAFA" />
                <path
                  d="M21.4368 0.15282V0.136719C21.4368 0.136719 21.4321 0.141506 21.4295 0.144117C21.4252 0.14107 21.4209 0.136719 21.4209 0.136719V0.15282C21.1488 0.419581 17.1038 4.26259 9.18494 5.52895V10.5682C9.53269 10.8476 9.84993 11.1692 10.1276 11.5278C10.3572 11.2567 10.6108 11.0069 10.8833 10.7806V6.96458C16.2557 5.85141 19.7694 3.6403 21.4291 2.37829C23.0858 3.63899 26.6016 5.85141 31.974 6.96458V10.1287C32.0685 10.1709 32.1635 10.214 32.259 10.2567L32.5777 10.4207L33.0724 10.6367L33.3224 10.7461C33.428 10.7461 33.6728 10.918 33.6728 10.918V10.4207V5.52895C25.7539 4.26303 21.7085 0.419581 21.4368 0.15282ZM31.5488 23.8628C31.3868 23.8628 31.2363 23.8327 31.1014 23.7736C31.0644 23.757 31.0287 23.7388 30.9943 23.7183C30.837 23.8145 30.6513 23.8628 30.4398 23.8628C30.3624 23.8628 30.2872 23.8558 30.2154 23.8419H29.9094C28.6284 25.4673 26.2603 27.6605 21.4295 30.2032C16.5837 27.6531 14.2152 25.4546 12.9376 23.8275L12.7119 23.8415H12.3092C12.267 23.8549 12.1931 23.8628 12.1196 23.8628C11.8853 23.8628 11.6824 23.7918 11.5178 23.6522C11.5143 23.6491 11.5118 23.6461 11.5083 23.643C11.3317 23.7757 11.1163 23.8493 10.8653 23.8606C12.0912 25.7662 14.6734 28.708 21.4213 32.1298V32.1367C21.4243 32.1354 21.4269 32.1337 21.4299 32.1324C21.4299 32.1324 21.4347 32.1354 21.4372 32.1367V32.1298C28.3326 28.6331 30.8783 25.6378 32.0716 23.737C31.9211 23.8201 31.7462 23.8628 31.5488 23.8628Z"
                  fill="#E5EAFA" />
                <path
                  d="M36.754 10.48H34.7285L32.1279 17.0846C32.1283 17.0698 32.1296 17.055 32.1296 17.0402C32.0208 16.431 31.891 16.186 31.5845 15.7748C31.278 15.3631 30.7738 14.954 29.9859 14.595C29.1644 14.2151 28.3253 13.7025 28.1568 13.5388C27.9926 13.3796 27.9621 13.2229 27.9621 13.0414C27.9621 12.8726 28.116 12.6289 28.2617 12.5149C28.4074 12.4009 28.6757 12.3452 28.9968 12.3452C29.6179 12.3452 30.1333 12.6176 30.9883 13.0145L31.8519 11.1837C30.8679 10.7407 29.9842 10.3425 29.0376 10.3425C27.966 10.3425 27.3642 10.7194 26.7512 11.1963C26.1382 11.6733 25.8265 12.3086 25.8265 13.1611C25.8265 13.6172 25.9559 14.0088 26.1309 14.3269C26.3093 14.6511 26.443 14.8444 26.7413 15.102C27.0392 15.3596 27.4626 15.6233 28.0588 15.8975C28.7174 16.1973 29.0853 16.4349 29.2375 16.532C29.3897 16.629 29.5414 16.7287 29.6102 16.8235C29.679 16.9184 29.7658 17.1595 29.7503 17.347C29.7331 17.549 29.5745 17.8127 29.4038 17.9415C29.2328 18.0703 28.9456 18.1747 28.5789 18.1747C28.1538 18.1747 27.6732 17.9637 27.1957 17.7396C26.7456 17.5285 26.6024 17.3362 26.1313 17.0912L25.4487 18.2448L22.3928 10.48H20.3673L17.3424 18.1617L16.9899 17.4837C16.4732 17.8436 15.8254 18.0564 15.1243 18.0564C13.4229 18.0564 12.0435 16.8031 12.0435 15.2582C12.0435 13.7133 13.4225 12.46 15.1243 12.46C15.831 12.46 16.4848 12.6772 17.0058 13.0432L17.9313 11.2011C17.0892 10.6502 16.067 10.3268 14.9657 10.3268C12.7287 10.3268 10.8206 11.6602 10.0808 13.5327C9.44157 11.6659 7.68946 10.3242 5.62742 10.3242C3.02461 10.3242 0.914429 12.4605 0.914429 15.0941V15.4218C0.914429 18.0568 3.02461 20.1931 5.62742 20.1931C6.9286 20.1931 8.10771 19.6595 8.96012 18.7953C9.45833 18.2901 9.84477 17.6721 10.0808 16.9837C10.8206 18.8562 12.7287 20.19 14.9661 20.19C15.5555 20.19 16.1203 20.0952 16.6486 19.925L16.6275 19.9785H18.9582L19.609 18.119H23.152L23.801 19.9785H26.1317L25.9198 19.4407C26.2985 19.6474 26.6807 19.8436 26.8978 19.8893C27.3104 19.9759 27.9148 20.15 28.5235 20.15C29.253 20.15 29.9132 20.0129 30.4609 19.7797C30.8267 19.6239 31.116 19.3497 31.3528 19.0551L30.9892 19.979H33.3199L33.9707 18.1195H37.5136L38.1627 19.979H40.4934L36.754 10.48ZM8.04151 15.6825C8.04151 17.032 6.96041 18.1264 5.62742 18.1264C4.29442 18.1264 3.21332 17.032 3.21332 15.6825V14.8343C3.21332 13.4836 4.29442 12.3904 5.62742 12.3904C6.29413 12.3904 6.89722 12.6646 7.33482 13.1058C7.77113 13.5475 8.04151 14.1594 8.04151 14.8343V15.6825ZM20.3153 16.196L21.3792 13.4453L22.4431 16.196H20.3153ZM34.6769 16.196L35.7408 13.4453L36.8047 16.196H34.6769Z"
                  fill="#E5EAFA" />
                <path
                  d="M36.754 10.48H34.7285L32.1279 17.0846C32.1283 17.0698 32.1296 17.055 32.1296 17.0402C32.0208 16.431 31.891 16.186 31.5845 15.7748C31.278 15.3631 30.7738 14.954 29.9859 14.595C29.1644 14.2151 28.3253 13.7025 28.1568 13.5388C27.9926 13.3796 27.9621 13.2229 27.9621 13.0414C27.9621 12.8726 28.116 12.6289 28.2617 12.5149C28.4074 12.4009 28.6757 12.3452 28.9968 12.3452C29.6179 12.3452 30.1333 12.6176 30.9883 13.0145L31.8519 11.1837C30.8679 10.7407 29.9842 10.3425 29.0376 10.3425C27.966 10.3425 27.3642 10.7194 26.7512 11.1963C26.1382 11.6733 25.8265 12.3086 25.8265 13.1611C25.8265 13.6172 25.9559 14.0088 26.1309 14.3269C26.3093 14.6511 26.443 14.8444 26.7413 15.102C27.0392 15.3596 27.4626 15.6233 28.0588 15.8975C28.7174 16.1973 29.0853 16.4349 29.2375 16.532C29.3897 16.629 29.5414 16.7287 29.6102 16.8235C29.679 16.9184 29.7658 17.1595 29.7503 17.347C29.7331 17.549 29.5745 17.8127 29.4038 17.9415C29.2328 18.0703 28.9456 18.1747 28.5789 18.1747C28.1538 18.1747 27.6732 17.9637 27.1957 17.7396C26.7456 17.5285 26.6024 17.3362 26.1313 17.0912L25.4487 18.2448L22.3928 10.48H20.3673L17.3424 18.1617L16.9899 17.4837C16.4732 17.8436 15.8254 18.0564 15.1243 18.0564C13.4229 18.0564 12.0435 16.8031 12.0435 15.2582C12.0435 13.7133 13.4225 12.46 15.1243 12.46C15.831 12.46 16.4848 12.6772 17.0058 13.0432L17.9313 11.2011C17.0892 10.6502 16.067 10.3268 14.9657 10.3268C12.7287 10.3268 10.8206 11.6602 10.0808 13.5327C9.44157 11.6659 7.68946 10.3242 5.62742 10.3242C3.02461 10.3242 0.914429 12.4605 0.914429 15.0941V15.4218C0.914429 18.0568 3.02461 20.1931 5.62742 20.1931C6.9286 20.1931 8.10771 19.6595 8.96012 18.7953C9.45833 18.2901 9.84477 17.6721 10.0808 16.9837C10.8206 18.8562 12.7287 20.19 14.9661 20.19C15.5555 20.19 16.1203 20.0952 16.6486 19.925L16.6275 19.9785H18.9582L19.609 18.119H23.152L23.801 19.9785H26.1317L25.9198 19.4407C26.2985 19.6474 26.6807 19.8436 26.8978 19.8893C27.3104 19.9759 27.9148 20.15 28.5235 20.15C29.253 20.15 29.9132 20.0129 30.4609 19.7797C30.8267 19.6239 31.116 19.3497 31.3528 19.0551L30.9892 19.979H33.3199L33.9707 18.1195H37.5136L38.1627 19.979H40.4934L36.754 10.48ZM8.04151 15.6825C8.04151 17.032 6.96041 18.1264 5.62742 18.1264C4.29442 18.1264 3.21332 17.032 3.21332 15.6825V14.8343C3.21332 13.4836 4.29442 12.3904 5.62742 12.3904C6.29413 12.3904 6.89722 12.6646 7.33482 13.1058C7.77113 13.5475 8.04151 14.1594 8.04151 14.8343V15.6825ZM20.3153 16.196L21.3792 13.4453L22.4431 16.196H20.3153ZM34.6769 16.196L35.7408 13.4453L36.8047 16.196H34.6769Z"
                  fill="#E5EAFA" />
                <path
                  d="M4.38922 22.6443C4.38922 22.7914 4.36171 22.9197 4.30712 23.0294C4.25253 23.1391 4.17472 23.2226 4.07457 23.2805C3.97441 23.3384 3.85706 23.3671 3.72337 23.3671C3.58968 23.3671 3.47663 23.3379 3.37561 23.2796C3.2746 23.2218 3.19593 23.1386 3.14005 23.0311C3.08417 22.9237 3.05537 22.7988 3.05408 22.6573V22.549C3.05408 22.4045 3.08159 22.277 3.13747 22.1665C3.19292 22.0559 3.27116 21.9711 3.3726 21.9123C3.47405 21.8536 3.59011 21.824 3.72079 21.824C3.85147 21.824 3.97097 21.8531 4.07242 21.911C4.17386 21.9689 4.2521 22.0533 4.30669 22.1638C4.36128 22.2744 4.38879 22.4028 4.38879 22.549V22.6443H4.38922ZM4.17171 22.5472C4.17171 22.3692 4.13217 22.2326 4.05307 22.1373C3.97398 22.042 3.8635 21.9946 3.72122 21.9946C3.57894 21.9946 3.47405 22.042 3.39453 22.1373C3.315 22.2326 3.27417 22.3649 3.27202 22.5337V22.6443C3.27202 22.817 3.31199 22.9524 3.39238 23.0512C3.47233 23.1499 3.58281 23.1991 3.72337 23.1991C3.86393 23.1991 3.97398 23.1526 4.05178 23.0594C4.12916 22.9663 4.16913 22.8327 4.17128 22.6586V22.5472H4.17171Z"
                  fill="#E5EAFA" />
                <path
                  d="M4.85456 22.2118L4.86101 22.3545C4.95171 22.2453 5.07078 22.1909 5.21694 22.1909C5.4684 22.1909 5.59521 22.3263 5.59736 22.5969V23.3467H5.39404V22.5961C5.39318 22.5142 5.37384 22.4538 5.33515 22.4146C5.29646 22.3754 5.23671 22.3558 5.15547 22.3558C5.0897 22.3558 5.03167 22.3728 4.9818 22.4063C4.93194 22.4398 4.89325 22.4838 4.86531 22.5386V23.3472H4.66199V22.2127H4.85456V22.2118Z"
                  fill="#E5EAFA" />
                <path d="M6.11629 23.3477H5.91296V21.8198H6.11629V23.3477Z" fill="#E5EAFA" />
                <path
                  d="M6.65389 23.3463H6.45056V22.2118H6.65389V23.3463ZM6.65389 21.7983H6.45056V22.0207H6.65389V21.7983Z"
                  fill="#E5EAFA" />
                <path
                  d="M7.16218 22.2118L7.16863 22.3545C7.25933 22.2453 7.3784 22.1909 7.52455 22.1909C7.77602 22.1909 7.90283 22.3263 7.90498 22.5969V23.3467H7.70166V22.5961C7.7008 22.5142 7.68145 22.4538 7.64277 22.4146C7.60408 22.3754 7.54433 22.3558 7.46308 22.3558C7.39732 22.3558 7.33928 22.3728 7.28942 22.4063C7.23956 22.4398 7.20087 22.4838 7.17293 22.5386V23.3472H6.9696V22.2127H7.16218V22.2118Z"
                  fill="#E5EAFA" />
                <path
                  d="M8.77834 23.3671C8.61714 23.3671 8.48603 23.3167 8.38502 23.2157C8.284 23.1147 8.23328 22.9798 8.23328 22.8101V22.7744C8.23328 22.6617 8.25563 22.5612 8.30076 22.4729C8.3459 22.3845 8.40866 22.3153 8.4899 22.2653C8.57072 22.2152 8.65884 22.1904 8.75298 22.1904C8.90773 22.1904 9.02766 22.2392 9.11363 22.3362C9.1996 22.4337 9.24216 22.5725 9.24216 22.7535V22.8341H8.4366C8.43961 22.9459 8.47357 23.0364 8.53934 23.1052C8.60468 23.1739 8.6885 23.2083 8.78952 23.2083C8.8613 23.2083 8.92234 23.1944 8.97221 23.1665C9.02207 23.1387 9.06549 23.1012 9.10288 23.0551L9.22711 23.1474C9.12739 23.294 8.97779 23.3671 8.77834 23.3671ZM8.75298 22.3501C8.67087 22.3501 8.6021 22.3789 8.54621 22.4354C8.49076 22.4924 8.45594 22.5721 8.44305 22.6752H9.03883V22.6604C9.03282 22.5616 9.00531 22.4855 8.95544 22.4311C8.90558 22.3771 8.83809 22.3501 8.75298 22.3501Z"
                  fill="#E5EAFA" />
                <path
                  d="M11.422 22.8702C11.4013 23.029 11.3368 23.1517 11.2277 23.2379C11.1185 23.3241 10.9736 23.3676 10.7926 23.3676C10.5966 23.3676 10.4393 23.3041 10.3215 23.1765C10.2033 23.0495 10.1444 22.8789 10.1444 22.6661V22.5216C10.1444 22.3819 10.1719 22.2592 10.2269 22.1535C10.282 22.0477 10.3602 21.9663 10.4612 21.9093C10.5622 21.8527 10.6792 21.8245 10.8124 21.8245C10.9887 21.8245 11.1301 21.8689 11.2363 21.9581C11.3424 22.0473 11.4048 22.1704 11.422 22.328H11.2019C11.183 22.2079 11.1417 22.1208 11.0781 22.0673C11.0144 22.0133 10.9259 21.9868 10.812 21.9868C10.6723 21.9868 10.5627 22.0338 10.4831 22.1273C10.4036 22.2209 10.3641 22.3541 10.3641 22.5268V22.6726C10.3641 22.8358 10.4019 22.9655 10.4771 23.0617C10.5523 23.1578 10.6577 23.2061 10.7926 23.2061C10.9143 23.2061 11.0076 23.1813 11.0725 23.1313C11.1374 23.0812 11.1804 22.9946 11.2019 22.8706H11.422V22.8702Z"
                  fill="#E5EAFA" />
                <path
                  d="M12.4862 23.3462C12.4746 23.3241 12.4652 23.284 12.4574 23.2266C12.3629 23.3201 12.2502 23.3671 12.1187 23.3671C12.0014 23.3671 11.9051 23.3354 11.8303 23.2723C11.755 23.2087 11.7177 23.1287 11.7177 23.0316C11.7177 22.9133 11.7649 22.8219 11.8591 22.7562C11.9532 22.6909 12.0856 22.6582 12.2563 22.6582H12.454V22.569C12.454 22.5011 12.4329 22.4472 12.3904 22.4071C12.3478 22.3671 12.2851 22.3467 12.2025 22.3467C12.1299 22.3467 12.0693 22.3641 12.0198 22.3993C11.9708 22.4341 11.9463 22.4768 11.9463 22.5259H11.7417C11.7417 22.4694 11.7628 22.4145 11.8049 22.3619C11.847 22.3092 11.9042 22.2675 11.9764 22.2366C12.0486 22.2057 12.1277 22.1904 12.2146 22.1904C12.3517 22.1904 12.4592 22.2231 12.5365 22.2883C12.6143 22.3536 12.6547 22.4437 12.6573 22.5586V23.0808C12.6573 23.1848 12.6711 23.2679 12.699 23.3293V23.3462H12.4862ZM12.1488 23.1983C12.2124 23.1983 12.273 23.1826 12.3302 23.1513C12.3874 23.12 12.4286 23.0791 12.4544 23.0286V22.7958H12.295C12.0456 22.7958 11.9214 22.8654 11.9214 23.0042C11.9214 23.0651 11.9425 23.1126 11.985 23.1469C12.0276 23.1813 12.0822 23.1983 12.1488 23.1983Z"
                  fill="#E5EAFA" />
                <path
                  d="M13.5567 23.0451C13.5567 22.9924 13.5361 22.9519 13.4944 22.9228C13.4527 22.8936 13.3809 22.8688 13.2777 22.8479C13.1746 22.827 13.0929 22.8018 13.0327 22.7722C12.9721 22.743 12.9274 22.7078 12.8986 22.6673C12.8698 22.6269 12.8552 22.5786 12.8552 22.5224C12.8552 22.4293 12.8964 22.351 12.979 22.2865C13.0615 22.2221 13.1668 22.1899 13.2949 22.1899C13.4299 22.1899 13.5391 22.223 13.6229 22.2896C13.7067 22.3562 13.7488 22.441 13.7488 22.5446H13.5442C13.5442 22.4915 13.5206 22.4458 13.4733 22.4071C13.426 22.3684 13.3667 22.3492 13.2945 22.3492C13.2223 22.3492 13.1625 22.3644 13.1208 22.3953C13.0791 22.4262 13.0581 22.4663 13.0581 22.5159C13.0581 22.5629 13.0774 22.5981 13.1165 22.6216C13.1552 22.6456 13.2257 22.6682 13.3272 22.69C13.4286 22.7117 13.5107 22.7374 13.5739 22.7674C13.6371 22.7974 13.6835 22.8336 13.714 22.8758C13.7445 22.918 13.7596 22.9698 13.7596 23.0307C13.7596 23.1321 13.717 23.2135 13.6319 23.2744C13.5468 23.3358 13.4368 23.3662 13.3009 23.3662C13.2055 23.3662 13.1213 23.3501 13.0482 23.3179C12.9751 23.2857 12.9175 23.2409 12.8762 23.183C12.835 23.1256 12.8143 23.0629 12.8143 22.9959H13.0177C13.0211 23.0612 13.0486 23.1125 13.0993 23.1508C13.1501 23.1891 13.2175 23.2078 13.3009 23.2078C13.3779 23.2078 13.4398 23.193 13.4862 23.1634C13.5331 23.1347 13.5567 23.0947 13.5567 23.0451Z"
                  fill="#E5EAFA" />
                <path
                  d="M14.2755 23.3463H14.0721V22.2118H14.2755V23.3463ZM14.2755 21.7983H14.0721V22.0207H14.2755V21.7983Z"
                  fill="#E5EAFA" />
                <path
                  d="M14.7325 22.2118L14.7389 22.3545C14.8296 22.2453 14.9487 22.1909 15.0949 22.1909C15.3463 22.1909 15.4731 22.3263 15.4753 22.5969V23.3467H15.272V22.5961C15.2711 22.5142 15.2518 22.4538 15.2131 22.4146C15.1744 22.3754 15.1146 22.3558 15.0334 22.3558C14.9676 22.3558 14.9096 22.3728 14.8597 22.4063C14.8099 22.4398 14.7712 22.4838 14.7432 22.5386V23.3472H14.5399V22.2127H14.7325V22.2118Z"
                  fill="#E5EAFA" />
                <path
                  d="M15.7455 22.7684C15.7455 22.6574 15.7683 22.5573 15.8143 22.4686C15.8603 22.3798 15.9239 22.311 16.0055 22.2632C16.0872 22.2153 16.1805 22.1909 16.2854 22.1909C16.4474 22.1909 16.5781 22.2444 16.6783 22.3515C16.7784 22.4585 16.8283 22.6008 16.8283 22.7784V22.7919C16.8283 22.9024 16.8059 23.0012 16.7617 23.0891C16.7174 23.177 16.6538 23.2453 16.5717 23.2941C16.4891 23.3428 16.3946 23.3676 16.2875 23.3676C16.1263 23.3676 15.9957 23.3141 15.8955 23.207C15.7953 23.1 15.7455 22.9586 15.7455 22.7823V22.7684ZM15.9501 22.7915C15.9501 22.9172 15.9806 23.0182 16.0417 23.0943C16.1027 23.1705 16.1848 23.2088 16.2875 23.2088C16.3903 23.2088 16.4728 23.1701 16.5338 23.093C16.5949 23.016 16.625 22.9076 16.625 22.7684C16.625 22.6439 16.594 22.543 16.5321 22.4659C16.4702 22.3885 16.3881 22.3502 16.2854 22.3502C16.1827 22.3502 16.104 22.3885 16.0425 22.4646C15.9806 22.5404 15.9501 22.6496 15.9501 22.7915Z"
                  fill="#E5EAFA" />
                <path
                  d="M18.5424 22.91H17.9333L17.7764 23.3465H17.5692L18.1512 21.8447H18.3271L18.9104 23.3465H18.704L18.5424 22.91ZM18.0163 22.6937H18.4616L18.2389 22.0889L18.0163 22.6937Z"
                  fill="#E5EAFA" />
                <path
                  d="M19.2984 22.2118L19.3049 22.3545C19.3956 22.2453 19.5146 22.1909 19.6608 22.1909C19.9123 22.1909 20.0391 22.3263 20.0412 22.5969V23.3467H19.8379V22.5961C19.837 22.5142 19.8177 22.4538 19.779 22.4146C19.7403 22.3754 19.6806 22.3558 19.5993 22.3558C19.5335 22.3558 19.4755 22.3728 19.4257 22.4063C19.3758 22.4398 19.3371 22.4838 19.3092 22.5386V23.3472H19.1058V22.2127H19.2984V22.2118Z"
                  fill="#E5EAFA" />
                <path
                  d="M20.6449 21.9367V22.2113H20.8672V22.3614H20.6449V23.066C20.6449 23.1117 20.6548 23.1456 20.6746 23.1683C20.6944 23.1909 20.7283 23.2022 20.7756 23.2022C20.7993 23.2022 20.8315 23.1978 20.8723 23.1896V23.3458C20.819 23.3597 20.767 23.3667 20.7163 23.3667C20.6256 23.3667 20.5568 23.3406 20.5108 23.2879C20.4648 23.2353 20.4416 23.1613 20.4416 23.0647V22.361H20.225V22.2109H20.4416V21.9363H20.6449V21.9367Z"
                  fill="#E5EAFA" />
                <path
                  d="M21.2125 23.3463H21.0092V22.2118H21.2125V23.3463ZM21.2125 21.7983H21.0092V22.0207H21.2125V21.7983Z"
                  fill="#E5EAFA" />
                <path d="M22.0984 22.8071H21.5619V22.657H22.0984V22.8071Z" fill="#E5EAFA" />
                <path
                  d="M22.879 22.677C22.6912 22.6282 22.5549 22.5682 22.4694 22.4968C22.3838 22.4259 22.3413 22.338 22.3413 22.2335C22.3413 22.1152 22.3937 22.0177 22.4982 21.9402C22.6026 21.8628 22.7385 21.8245 22.9057 21.8245C23.0196 21.8245 23.1215 21.8445 23.2104 21.8841C23.2999 21.9241 23.3686 21.9789 23.4181 22.049C23.4671 22.1191 23.4916 22.1957 23.4916 22.2792H23.2715C23.2715 22.1883 23.2397 22.1165 23.1756 22.0647C23.1116 22.0125 23.0217 21.9863 22.9052 21.9863C22.7973 21.9863 22.7131 22.0081 22.6529 22.0512C22.5927 22.0943 22.5622 22.1539 22.5622 22.2305C22.5622 22.2918 22.591 22.3436 22.6482 22.3858C22.7054 22.428 22.8034 22.4672 22.9414 22.502C23.0793 22.5373 23.1872 22.576 23.265 22.6182C23.3428 22.6604 23.4009 22.7096 23.4383 22.7662C23.4757 22.8228 23.4946 22.8889 23.4946 22.9655C23.4946 23.0873 23.4421 23.1848 23.3373 23.2579C23.2324 23.331 23.0922 23.368 22.9164 23.368C22.8025 23.368 22.6959 23.3484 22.597 23.3088C22.4982 23.2692 22.4221 23.2153 22.3683 23.1465C22.3146 23.0778 22.288 22.9999 22.288 22.9124H22.5081C22.5081 23.0033 22.545 23.0747 22.6194 23.1274C22.6933 23.18 22.7926 23.2061 22.9164 23.2061C23.0321 23.2061 23.1206 23.1848 23.1821 23.1422C23.2435 23.0995 23.2745 23.0416 23.2745 22.9681C23.2745 22.8946 23.2461 22.8375 23.189 22.7975C23.1318 22.7562 23.0286 22.7166 22.879 22.677Z"
                  fill="#E5EAFA" />
                <path
                  d="M24.271 23.2087C24.3437 23.2087 24.4069 23.1878 24.461 23.1456C24.5152 23.1039 24.5453 23.0512 24.5513 22.9885H24.7435C24.74 23.0534 24.7164 23.1152 24.673 23.1739C24.63 23.2327 24.5719 23.2797 24.4997 23.3145C24.4275 23.3493 24.351 23.3671 24.2706 23.3671C24.1086 23.3671 23.9796 23.3154 23.8842 23.2122C23.7887 23.1091 23.7406 22.9681 23.7406 22.7892V22.7566C23.7406 22.6461 23.7617 22.5481 23.8042 22.462C23.8468 22.3758 23.9078 22.3092 23.9873 22.2618C24.0669 22.2144 24.161 22.1904 24.2693 22.1904C24.4026 22.1904 24.5135 22.2287 24.6016 22.3049C24.6897 22.381 24.737 22.4798 24.743 22.6017H24.5509C24.5449 22.5281 24.5161 22.4681 24.4636 22.4206C24.4112 22.3736 24.3467 22.3497 24.2698 22.3497C24.1666 22.3497 24.0862 22.3854 24.0295 22.4563C23.9727 22.5273 23.9444 22.63 23.9444 22.764V22.801C23.9444 22.9315 23.9727 23.0325 24.029 23.103C24.0853 23.1735 24.1662 23.2087 24.271 23.2087Z"
                  fill="#E5EAFA" />
                <path
                  d="M25.6952 23.3462C25.6836 23.3241 25.6742 23.284 25.6664 23.2266C25.5719 23.3201 25.4592 23.3671 25.3277 23.3671C25.2103 23.3671 25.1141 23.3354 25.0393 23.2723C24.964 23.2087 24.9266 23.1287 24.9266 23.0316C24.9266 22.9133 24.9739 22.8219 25.0681 22.7562C25.1622 22.6909 25.2946 22.6582 25.4653 22.6582H25.663V22.569C25.663 22.5011 25.6419 22.4472 25.5994 22.4071C25.5568 22.3671 25.4941 22.3467 25.4115 22.3467C25.3389 22.3467 25.2783 22.3641 25.2288 22.3993C25.1798 22.4341 25.1553 22.4768 25.1553 22.5259H24.9507C24.9507 22.4694 24.9718 22.4145 25.0139 22.3619C25.056 22.3092 25.1132 22.2675 25.1854 22.2366C25.2576 22.2057 25.3367 22.1904 25.4236 22.1904C25.5607 22.1904 25.6681 22.2231 25.7455 22.2883C25.8233 22.3536 25.8637 22.4437 25.8663 22.5586V23.0808C25.8663 23.1848 25.8801 23.2679 25.908 23.3293V23.3462H25.6952ZM25.3578 23.1983C25.4214 23.1983 25.482 23.1826 25.5392 23.1513C25.5964 23.12 25.6376 23.0791 25.6634 23.0286V22.7958H25.5039C25.2546 22.7958 25.1304 22.8654 25.1304 23.0042C25.1304 23.0651 25.1515 23.1126 25.194 23.1469C25.2366 23.1813 25.2912 23.1983 25.3578 23.1983Z"
                  fill="#E5EAFA" />
                <path
                  d="M26.3508 22.2118L26.356 22.3376C26.4364 22.2397 26.5451 22.1909 26.6818 22.1909C26.8353 22.1909 26.9401 22.2518 26.9956 22.3737C27.0321 22.3193 27.0799 22.2749 27.1383 22.2414C27.1968 22.2079 27.266 22.1909 27.3459 22.1909C27.5867 22.1909 27.7092 22.3228 27.7135 22.5865V23.3467H27.5256V22.5982C27.5256 22.5173 27.5076 22.4564 27.4719 22.4163C27.4362 22.3763 27.3756 22.3558 27.2913 22.3558C27.2217 22.3558 27.1637 22.3776 27.1177 22.4203C27.0717 22.4633 27.045 22.5212 27.0373 22.5939V23.3467H26.8486V22.6035C26.8486 22.4385 26.7704 22.3558 26.6143 22.3558C26.4909 22.3558 26.4067 22.4098 26.3616 22.5186V23.3472H26.1737V22.2127H26.3508V22.2118Z"
                  fill="#E5EAFA" />
                <path
                  d="M30.6944 23.0451C30.6944 22.9924 30.6738 22.9519 30.6321 22.9228C30.5908 22.8936 30.5186 22.8688 30.4154 22.8479C30.3122 22.827 30.2306 22.8018 30.1704 22.7722C30.1098 22.743 30.0651 22.7078 30.0363 22.6673C30.0075 22.6269 29.9929 22.5786 29.9929 22.5224C29.9929 22.4293 30.0341 22.351 30.1167 22.2865C30.1992 22.2221 30.3045 22.1899 30.4326 22.1899C30.5676 22.1899 30.6768 22.223 30.7606 22.2896C30.8444 22.3562 30.8865 22.441 30.8865 22.5446H30.6819C30.6819 22.4915 30.6583 22.4458 30.611 22.4071C30.5637 22.3684 30.5044 22.3492 30.4322 22.3492C30.36 22.3492 30.3002 22.3644 30.2585 22.3953C30.2168 22.4262 30.1958 22.4663 30.1958 22.5159C30.1958 22.5629 30.2151 22.5981 30.2542 22.6216C30.2929 22.6456 30.3634 22.6682 30.4648 22.69C30.5663 22.7117 30.6484 22.7374 30.7116 22.7674C30.7748 22.7974 30.8212 22.8336 30.8517 22.8758C30.8822 22.918 30.8973 22.9698 30.8973 23.0307C30.8973 23.1321 30.8547 23.2135 30.7696 23.2744C30.6845 23.3358 30.5745 23.3662 30.4386 23.3662C30.3432 23.3662 30.2589 23.3501 30.1859 23.3179C30.1128 23.2857 30.0552 23.2409 30.0139 23.183C29.9727 23.1256 29.952 23.0629 29.952 22.9959H30.1553C30.1588 23.0612 30.1863 23.1125 30.237 23.1508C30.2877 23.1891 30.3552 23.2078 30.4386 23.2078C30.5156 23.2078 30.5775 23.193 30.6239 23.1634C30.6712 23.1347 30.6944 23.0947 30.6944 23.0451Z"
                  fill="#E5EAFA" />
                <path
                  d="M31.8033 23.0451C31.8033 22.9924 31.7827 22.9519 31.741 22.9228C31.6997 22.8936 31.6275 22.8688 31.5244 22.8479C31.4212 22.827 31.3395 22.8018 31.2793 22.7722C31.2187 22.743 31.174 22.7078 31.1452 22.6673C31.1164 22.6269 31.1018 22.5786 31.1018 22.5224C31.1018 22.4293 31.1431 22.351 31.2256 22.2865C31.3081 22.2221 31.4135 22.1899 31.5416 22.1899C31.6765 22.1899 31.7857 22.223 31.87 22.2896C31.9538 22.3562 31.9959 22.441 31.9959 22.5446H31.7913C31.7913 22.4915 31.7677 22.4458 31.7204 22.4071C31.6731 22.3684 31.6133 22.3492 31.5416 22.3492C31.4698 22.3492 31.4096 22.3644 31.3679 22.3953C31.3262 22.4262 31.3051 22.4663 31.3051 22.5159C31.3051 22.5629 31.3245 22.5981 31.3636 22.6216C31.4023 22.6456 31.4728 22.6682 31.5742 22.69C31.6757 22.7117 31.7578 22.7374 31.821 22.7674C31.8837 22.7974 31.9306 22.8336 31.9611 22.8758C31.9916 22.918 32.0067 22.9698 32.0067 23.0307C32.0067 23.1321 31.9641 23.2135 31.879 23.2744C31.7939 23.3358 31.6838 23.3662 31.548 23.3662C31.4526 23.3662 31.3683 23.3501 31.2952 23.3179C31.2222 23.2857 31.1646 23.2409 31.1233 23.183C31.082 23.1256 31.0614 23.0629 31.0614 22.9959H31.2647C31.2682 23.0612 31.2957 23.1125 31.3464 23.1508C31.3971 23.1891 31.4646 23.2078 31.548 23.2078C31.6249 23.2078 31.6868 23.193 31.7333 23.1634C31.7801 23.1347 31.8033 23.0947 31.8033 23.0451Z"
                  fill="#E5EAFA" />
                <path
                  d="M32.2904 22.7684C32.2904 22.6574 32.3132 22.5573 32.3592 22.4686C32.4047 22.3798 32.4688 22.311 32.5505 22.2632C32.6321 22.2153 32.7254 22.1909 32.8303 22.1909C32.9924 22.1909 33.123 22.2444 33.2232 22.3515C33.3234 22.4585 33.3732 22.6008 33.3732 22.7784V22.7919C33.3732 22.9024 33.3509 23.0012 33.3066 23.0891C33.2623 23.177 33.1991 23.2453 33.1166 23.2941C33.0341 23.3428 32.9395 23.3676 32.8325 23.3676C32.6713 23.3676 32.5406 23.3141 32.4404 23.207C32.3403 23.1 32.2904 22.9586 32.2904 22.7823V22.7684ZM32.495 22.7915C32.495 22.9172 32.5255 23.0182 32.5866 23.0943C32.6476 23.1705 32.7297 23.2088 32.8325 23.2088C32.9352 23.2088 33.0177 23.1701 33.0788 23.093C33.1394 23.016 33.1699 22.9076 33.1699 22.7684C33.1699 22.6439 33.1389 22.543 33.077 22.4659C33.0151 22.3885 32.933 22.3502 32.8303 22.3502C32.7276 22.3502 32.6489 22.3885 32.5874 22.4646C32.5255 22.5404 32.495 22.6496 32.495 22.7915Z"
                  fill="#E5EAFA" />
                <path
                  d="M34.0469 23.2087C34.1196 23.2087 34.1828 23.1878 34.2369 23.1456C34.2911 23.1039 34.3212 23.0512 34.3272 22.9885H34.5193C34.5155 23.0534 34.4923 23.1152 34.4488 23.1739C34.4054 23.2327 34.3478 23.2797 34.2756 23.3145C34.2034 23.3493 34.1269 23.3671 34.0465 23.3671C33.8844 23.3671 33.7559 23.3154 33.6601 23.2122C33.5646 23.1091 33.5165 22.9681 33.5165 22.7892V22.7566C33.5165 22.6461 33.5375 22.5481 33.5801 22.462C33.6227 22.3758 33.6837 22.3092 33.7632 22.2618C33.8427 22.2144 33.9369 22.1904 34.0452 22.1904C34.1785 22.1904 34.2894 22.2287 34.3779 22.3049C34.466 22.381 34.5133 22.4798 34.5193 22.6017H34.3272C34.3212 22.5281 34.2924 22.4681 34.2395 22.4206C34.1871 22.3736 34.1226 22.3497 34.0456 22.3497C33.9425 22.3497 33.8621 22.3854 33.8053 22.4563C33.7486 22.5273 33.7202 22.63 33.7202 22.764V22.801C33.7202 22.9315 33.7486 23.0325 33.8049 23.103C33.8617 23.1735 33.9425 23.2087 34.0469 23.2087Z"
                  fill="#E5EAFA" />
                <path
                  d="M34.8995 23.3463H34.6962V22.2118H34.8995V23.3463ZM34.8995 21.7983H34.6962V22.0207H34.8995V21.7983Z"
                  fill="#E5EAFA" />
                <path
                  d="M36.018 23.3462C36.0064 23.3241 35.997 23.284 35.9897 23.2266C35.8951 23.3201 35.782 23.3671 35.6509 23.3671C35.5336 23.3671 35.4373 23.3354 35.3625 23.2723C35.2873 23.2087 35.2499 23.1287 35.2499 23.0316C35.2499 22.9133 35.2967 22.8219 35.3913 22.7562C35.4854 22.6909 35.6178 22.6582 35.7885 22.6582H35.9862V22.569C35.9862 22.5011 35.9647 22.4472 35.9226 22.4071C35.8801 22.3671 35.8173 22.3467 35.7348 22.3467C35.6621 22.3467 35.6015 22.3641 35.5521 22.3993C35.5031 22.4341 35.4786 22.4768 35.4786 22.5259H35.2739C35.2739 22.4694 35.295 22.4145 35.3371 22.3619C35.3793 22.3092 35.4364 22.2675 35.5087 22.2366C35.5809 22.2057 35.6604 22.1904 35.7468 22.1904C35.8839 22.1904 35.991 22.2231 36.0688 22.2883C36.1466 22.3536 36.1865 22.4437 36.1896 22.5586V23.0808C36.1896 23.1848 36.2033 23.2679 36.2312 23.3293V23.3462H36.018ZM35.6806 23.1983C35.7442 23.1983 35.8048 23.1826 35.862 23.1513C35.9192 23.12 35.9604 23.0791 35.9862 23.0286V22.7958H35.8267C35.5774 22.7958 35.4528 22.8654 35.4528 23.0042C35.4528 23.0651 35.4743 23.1126 35.5164 23.1469C35.5594 23.1813 35.614 23.1983 35.6806 23.1983Z"
                  fill="#E5EAFA" />
                <path
                  d="M36.7197 21.9367V22.2113H36.9419V22.3614H36.7197V23.066C36.7197 23.1117 36.7295 23.1456 36.7493 23.1683C36.7691 23.1909 36.8026 23.2022 36.8503 23.2022C36.8735 23.2022 36.9058 23.1978 36.9471 23.1896V23.3458C36.8933 23.3597 36.8413 23.3667 36.791 23.3667C36.6999 23.3667 36.6315 23.3406 36.5855 23.2879C36.5395 23.2353 36.5163 23.1613 36.5163 23.0647V22.361H36.2997V22.2109H36.5163V21.9363H36.7197V21.9367Z"
                  fill="#E5EAFA" />
                <path
                  d="M37.3912 23.3463H37.1879V22.2118H37.3912V23.3463ZM37.3916 21.7983H37.1883V22.0207H37.3916V21.7983Z"
                  fill="#E5EAFA" />
                <path
                  d="M37.6415 22.7684C37.6415 22.6574 37.6643 22.5573 37.7103 22.4686C37.7558 22.3798 37.8199 22.311 37.9015 22.2632C37.9832 22.2153 38.0765 22.1909 38.1814 22.1909C38.3434 22.1909 38.4741 22.2444 38.5743 22.3515C38.6744 22.4585 38.7243 22.6008 38.7243 22.7784V22.7919C38.7243 22.9024 38.7019 23.0012 38.6577 23.0891C38.6134 23.177 38.5502 23.2453 38.4677 23.2941C38.3851 23.3428 38.2906 23.3676 38.1835 23.3676C38.0223 23.3676 37.8917 23.3141 37.7915 23.207C37.6913 23.1 37.6415 22.9586 37.6415 22.7823V22.7684ZM37.8461 22.7915C37.8461 22.9172 37.8766 23.0182 37.9377 23.0943C37.9987 23.1705 38.0808 23.2088 38.1835 23.2088C38.2863 23.2088 38.3688 23.1701 38.4298 23.093C38.4905 23.016 38.521 22.9076 38.521 22.7684C38.521 22.6439 38.49 22.543 38.4281 22.4659C38.3662 22.3885 38.2841 22.3502 38.1814 22.3502C38.0786 22.3502 38 22.3885 37.9385 22.4646C37.8766 22.5404 37.8461 22.6496 37.8461 22.7915Z"
                  fill="#E5EAFA" />
                <path
                  d="M39.1246 22.2118L39.1311 22.3545C39.2218 22.2453 39.3409 22.1909 39.4874 22.1909C39.7389 22.1909 39.8657 22.3263 39.8679 22.5969V23.3467H39.6645V22.5961C39.6637 22.5142 39.6443 22.4538 39.6057 22.4146C39.5674 22.3754 39.5072 22.3558 39.426 22.3558C39.3598 22.3558 39.3022 22.3728 39.2523 22.4063C39.2024 22.4398 39.1638 22.4838 39.1358 22.5386V23.3472H38.9325V22.2127H39.1246V22.2118Z"
                  fill="#E5EAFA" />
                <path
                  d="M29.478 22.91H28.8689L28.712 23.3465H28.5048L29.0868 21.8447H29.2626L29.8459 23.3465H29.6396L29.478 22.91ZM28.9518 22.6937H29.3972L29.1745 22.0889L28.9518 22.6937Z"
                  fill="#E5EAFA" />
                <path
                  d="M19.3505 24.7997C19.3505 24.7065 19.3646 24.6178 19.3934 24.5342C19.4223 24.4502 19.4639 24.3754 19.5194 24.3092C19.5749 24.2435 19.6333 24.197 19.6952 24.1704L19.7283 24.2566C19.6634 24.2997 19.6105 24.3658 19.5701 24.4546C19.5297 24.5434 19.5078 24.6447 19.5039 24.7588L19.5031 24.811C19.5031 24.9333 19.5228 25.0425 19.5624 25.1382C19.6019 25.2344 19.657 25.3071 19.7283 25.3571L19.6952 25.4389C19.6333 25.4124 19.5744 25.3658 19.519 25.2992C19.4635 25.2327 19.4214 25.1578 19.393 25.0747C19.3646 24.9907 19.3505 24.8993 19.3505 24.7997Z"
                  fill="#E5EAFA" />
                <path
                  d="M20.4146 24.9703H20.0617L19.9878 25.2001H19.8231L20.167 24.2131H20.3089L20.6536 25.2001H20.4885L20.4146 24.9703ZM20.1064 24.8319H20.3703L20.2384 24.4225L20.1064 24.8319Z"
                  fill="#E5EAFA" />
                <path
                  d="M21.414 24.9459C21.414 24.9024 21.3985 24.8689 21.3671 24.8454C21.3362 24.8219 21.2799 24.7984 21.1986 24.774C21.1174 24.7501 21.0529 24.7235 21.0048 24.694C20.9128 24.6374 20.8668 24.5638 20.8668 24.4729C20.8668 24.3933 20.8999 24.328 20.9661 24.2762C21.0323 24.2248 21.1182 24.1987 21.224 24.1987C21.294 24.1987 21.3568 24.2114 21.4118 24.2366C21.4668 24.2618 21.5098 24.2979 21.5412 24.3449C21.5726 24.3915 21.5885 24.4437 21.5885 24.5003H21.414C21.414 24.449 21.3976 24.4085 21.3645 24.3793C21.3314 24.3502 21.2842 24.3358 21.2231 24.3358C21.1659 24.3358 21.1217 24.3476 21.0899 24.3719C21.0581 24.3959 21.0426 24.4294 21.0426 24.4725C21.0426 24.5086 21.0598 24.5386 21.0937 24.563C21.1277 24.5873 21.1844 24.6108 21.2627 24.6335C21.3413 24.6565 21.4041 24.6822 21.4518 24.7114C21.4995 24.7405 21.5343 24.774 21.5563 24.8119C21.5786 24.8498 21.5894 24.8937 21.5894 24.9442C21.5894 25.0264 21.5571 25.0917 21.4926 25.1404C21.4282 25.1892 21.3409 25.2136 21.2304 25.2136C21.1574 25.2136 21.0903 25.2001 21.0293 25.174C20.9682 25.1474 20.9205 25.1109 20.8865 25.0643C20.8526 25.0177 20.8358 24.9638 20.8358 24.9015H21.0112C21.0112 24.9577 21.0301 25.0008 21.0679 25.0317C21.1058 25.0625 21.1599 25.0778 21.2309 25.0778C21.2919 25.0778 21.3375 25.0656 21.3684 25.0412C21.3989 25.0173 21.414 24.9855 21.414 24.9459Z"
                  fill="#E5EAFA" />
                <path d="M22.0094 25.2001H21.8348V24.2131H22.0094V25.2001Z" fill="#E5EAFA" />
                <path
                  d="M22.8101 24.9703H22.4572L22.3833 25.2001H22.2186L22.5625 24.2131H22.7044L23.0491 25.2001H22.8841L22.8101 24.9703ZM22.5019 24.8319H22.7658L22.6339 24.4225L22.5019 24.8319Z"
                  fill="#E5EAFA" />
                <path
                  d="M23.5515 25.0737C23.5231 25.1573 23.481 25.2321 23.4255 25.2983C23.3701 25.3649 23.3112 25.4114 23.2493 25.438L23.2162 25.3562C23.2871 25.3061 23.3426 25.233 23.3821 25.1373C23.4217 25.0415 23.4414 24.9323 23.4414 24.81L23.4406 24.7578C23.4367 24.6433 23.4148 24.5419 23.3744 24.4536C23.334 24.3648 23.2811 24.2991 23.2162 24.2556L23.2493 24.1694C23.3112 24.196 23.3696 24.2425 23.4251 24.3083C23.4805 24.3744 23.5227 24.4492 23.551 24.5332C23.5798 24.6168 23.594 24.7056 23.594 24.7987C23.594 24.8988 23.5798 24.9902 23.5515 25.0737Z"
                  fill="#E5EAFA" />
              </g>
              <defs>
                <clipPath id="clip0_2090_55795">
                  <rect width="39.5789" height="32" fill="white" transform="translate(0.914429 0.136719)" />
                </clipPath>
              </defs>
            </svg>