 <svg xmlns="http://www.w3.org/2000/svg" width="86" height="17" viewBox="0 0 86 17" fill="none">
              <path
                d="M0.440002 1.53993C0.440002 1.40922 0.475311 1.30487 0.543304 1.22634C0.612885 1.14939 0.715652 1.10986 0.85321 1.10986H6.83038C7.25992 1.10986 7.66524 1.16889 8.04628 1.28748C8.42627 1.40606 8.7757 1.56997 9.09351 1.77868C9.41132 1.98792 9.69855 2.23668 9.95522 2.52813C10.2098 2.81695 10.4269 3.13054 10.6045 3.46784C10.7822 3.8041 10.9181 4.15827 11.0119 4.52931C11.1052 4.89982 11.1516 5.27612 11.1516 5.65612C11.1516 6.21795 11.0499 6.76607 10.848 7.30312C10.6451 7.83912 10.3558 8.31663 9.98262 8.73404C9.60843 9.15146 9.15939 9.49034 8.63603 9.7486C8.1111 10.0079 7.53136 10.1407 6.89522 10.1465H4.06131V14.5995C4.06131 14.8677 3.91797 15.0006 3.63126 15.0006H0.85321C0.727768 15.0006 0.628159 14.9679 0.553314 14.9041C0.477951 14.8382 0.440002 14.7365 0.440002 14.5995V1.53993ZM7.48497 5.63715C7.48497 5.45005 7.4523 5.26295 7.38643 5.07585C7.32054 4.88928 7.22673 4.72168 7.10129 4.57569C6.9769 4.42917 6.8251 4.309 6.64804 4.21519C6.46936 4.12243 6.26855 4.075 6.04405 4.075H4.06131V7.1993H6.04405C6.26855 7.1993 6.47095 7.1545 6.65224 7.06385C6.8325 6.97372 6.98482 6.85725 7.10551 6.71389C7.22725 6.56948 7.32054 6.40505 7.38643 6.21795C7.4523 6.03032 7.48497 5.83742 7.48497 5.63715Z"
                fill="#E5EAFA" />
              <path
                d="M16.6898 1.47531C16.6955 1.43841 16.7161 1.39836 16.7504 1.35356C16.7846 1.30982 16.8273 1.26976 16.8769 1.23234C16.9264 1.1944 16.9802 1.16541 17.0366 1.14327C17.0919 1.12166 17.1451 1.1106 17.1941 1.1106H19.5901C19.6955 1.1106 19.7861 1.14327 19.8615 1.20862C19.9358 1.2745 19.9917 1.33195 20.0291 1.38202L20.2626 1.91486L25.1746 14.5812C25.2247 14.7062 25.2147 14.8068 25.1461 14.8853C25.0782 14.9628 24.9596 15.0023 24.7909 15.0023H22.1067C21.9623 15.0023 21.8521 14.976 21.7747 14.9233C21.6961 14.869 21.635 14.781 21.5918 14.6556C21.4669 14.3383 21.3457 14.0215 21.2276 13.7069C21.108 13.3917 20.9894 13.076 20.8713 12.7572H15.9039C15.7853 13.076 15.6657 13.3917 15.544 13.7069C15.4222 14.0215 15.3021 14.3383 15.1835 14.6556C15.1023 14.8869 14.9442 15.0023 14.707 15.0023H11.9469C11.8283 15.0023 11.7308 14.9707 11.6523 14.9091C11.5743 14.8463 11.5595 14.7525 11.6107 14.6271L16.6898 1.47531ZM18.3926 5.47924C18.274 5.79757 18.1539 6.14068 18.0321 6.50802C17.9104 6.87642 17.7902 7.24746 17.6716 7.62061C17.5541 7.99586 17.4339 8.36479 17.3122 8.72951C17.191 9.09474 17.0708 9.43627 16.9517 9.75407H19.8235L18.3926 5.47924Z"
                fill="#E5EAFA" />
              <path
                d="M29.323 6.23712L31.5819 1.40047C31.6188 1.32615 31.6504 1.27134 31.6752 1.23709C31.7005 1.2023 31.7252 1.17753 31.75 1.16172C31.7748 1.14643 31.8022 1.13695 31.8291 1.13379C31.8575 1.13115 31.8902 1.12377 31.9276 1.1106H35.5289C35.5732 1.1106 35.6096 1.12535 35.6375 1.15329C35.6649 1.18122 35.6791 1.21442 35.6791 1.25131C35.6791 1.31983 35.6354 1.39836 35.5489 1.48479L31.1144 9.33349V14.5633C31.1144 14.8558 30.971 15.0023 30.6848 15.0023H27.8852C27.7608 15.0023 27.6654 14.9628 27.5959 14.8853C27.5279 14.8068 27.4936 14.6998 27.4936 14.5633V9.31557L23.0691 1.48479C22.9879 1.40416 22.9473 1.32615 22.9473 1.25131C22.9473 1.21442 22.9605 1.18122 22.9848 1.15329C23.0101 1.12535 23.0443 1.1106 23.0881 1.1106H26.6899C26.7326 1.12377 26.7673 1.13115 26.7916 1.13379C26.8174 1.13695 26.8417 1.14643 26.8675 1.16172C26.8923 1.17753 26.917 1.2023 26.9418 1.23709C26.9671 1.27134 27.0014 1.32615 27.0451 1.40047L29.323 6.23712Z"
                fill="#E5EAFA" />
              <path
                d="M36.9888 1.52217C36.9888 1.40991 37.023 1.31347 37.0915 1.2323C37.1595 1.15061 37.2634 1.11108 37.3999 1.11108H40.4599C40.5463 1.11108 40.6369 1.13269 40.7308 1.17538C40.8246 1.22018 40.9052 1.29502 40.9737 1.40043C41.7659 2.67903 42.5511 3.93813 43.3307 5.17931C44.1107 6.42049 44.8997 7.68065 45.6976 8.95925V1.46578C45.7224 1.35405 45.7714 1.26603 45.8473 1.20384C45.9221 1.14218 46.0102 1.11108 46.1087 1.11108H48.7745C48.9068 1.11108 49.0158 1.14587 49.1028 1.21807C49.1903 1.28975 49.2335 1.39094 49.2335 1.52217V14.6371C49.2335 14.762 49.1967 14.8532 49.1213 14.9132C49.0459 14.9728 48.9437 15.0028 48.813 15.0028H45.8283C45.7472 15.0028 45.676 14.9744 45.6138 14.9175C45.5511 14.8616 45.4857 14.7873 45.4172 14.6935C44.5871 13.3216 43.7676 11.965 42.9565 10.6242C42.1464 9.28338 41.3232 7.92678 40.4873 6.55489V14.5902C40.4873 14.7272 40.4562 14.8305 40.3934 14.8995C40.3313 14.968 40.219 15.0028 40.0572 15.0028H37.3999C37.2565 15.0028 37.1526 14.9638 37.0868 14.8848C37.0215 14.8068 36.9888 14.7119 36.9888 14.6002V1.52217Z"
                fill="#E5EAFA" />
              <path
                d="M71.1906 14.8057C71.1279 14.6998 71.0689 14.5902 71.013 14.4784C70.9582 14.3656 70.9071 14.2534 70.8633 14.1416C70.058 12.0208 69.2574 9.91952 68.459 7.83613C67.661 5.75326 66.8594 3.65195 66.0541 1.53166C66.0541 1.50004 66.0499 1.47263 66.0415 1.44733C66.0314 1.42204 66.0272 1.39779 66.0272 1.37302C66.0272 1.19804 66.1426 1.11108 66.373 1.11108H69.3855C69.6227 1.11108 69.7834 1.22966 69.872 1.46578L72.7338 9.98751L75.3817 1.46578C75.4686 1.22966 75.6399 1.11108 75.8961 1.11108H78.9371C79.0799 1.11108 79.1822 1.13691 79.2402 1.19014C79.2997 1.24284 79.3297 1.31294 79.3297 1.40043C79.3297 1.44997 79.3261 1.48423 79.3197 1.50373V1.53166L77.6548 6.30191L78.9086 9.97855L81.9402 1.46578C82.0266 1.22966 82.1974 1.11108 82.4535 1.11108H85.4008C85.5441 1.11108 85.6442 1.13691 85.7043 1.19014C85.7639 1.24284 85.7934 1.31294 85.7934 1.40043C85.7934 1.44997 85.7907 1.48423 85.7834 1.50373V1.53166C85.3596 2.62843 84.9259 3.72363 84.4842 4.8146C84.0405 5.9061 83.5962 6.99708 83.1519 8.08805C82.7039 9.18008 82.2617 10.2737 81.8227 11.3668C81.3826 12.462 80.9536 13.5551 80.5356 14.6455C80.5114 14.7151 80.456 14.7904 80.368 14.8758C80.28 14.9596 80.1746 15.0023 80.0492 15.0023H80.0212H77.757C77.62 15.0023 77.5157 14.9754 77.4445 14.9222C77.3729 14.8695 77.3207 14.7989 77.2896 14.7119L75.8123 10.8197C75.6004 11.3884 75.3917 11.9444 75.1851 12.4904C74.979 13.0359 74.7735 13.593 74.5679 14.1596C74.5368 14.2476 74.5004 14.3382 74.4599 14.4352C74.4203 14.5327 74.3713 14.6239 74.3149 14.7066C74.2591 14.7904 74.1947 14.8616 74.1231 14.9169C74.0519 14.9738 73.9681 15.0023 73.8754 15.0023H73.8474H71.5838C71.3846 15.0023 71.2529 14.9364 71.1906 14.8057Z"
                fill="#E5EAFA" />
              <path
                d="M53.6602 1.71657C50.1269 4.47036 49.4934 9.58583 52.2467 13.1186C53.7967 15.1076 56.1341 16.2487 58.6592 16.2487C60.4822 16.2487 62.2078 15.6547 63.6487 14.5332C65.3568 13.2008 66.4452 11.2792 66.7124 9.12361C66.9812 6.96748 66.3941 4.83929 65.0617 3.13115C64.7175 2.68896 64.3291 2.28262 63.9059 1.92317C63.8158 1.84675 63.7014 1.80459 63.5844 1.80459C63.4274 1.80459 63.2777 1.88154 63.1828 2.01119L58.6914 8.18021L56.4409 5.42852C56.3497 5.31732 56.2211 5.2546 56.0867 5.2546C55.9418 5.2546 55.8084 5.32523 55.7183 5.44802L54.7617 6.76141C54.6115 6.96907 54.62 7.27528 54.7818 7.47397L58.4363 11.9406C58.5259 12.0508 58.6555 12.1161 58.7899 12.1161C58.9343 12.1161 59.0687 12.0434 59.1599 11.919L63.8542 5.47227C65.117 7.94146 64.4619 10.9978 62.2415 12.728C61.2075 13.5349 59.9684 13.9613 58.6592 13.9613C56.8441 13.9613 55.1649 13.1428 54.0502 11.7119C53.0926 10.4844 52.6731 8.95496 52.8649 7.40598C53.0573 5.85806 53.8384 4.47722 55.0664 3.52011C56.1015 2.71374 57.34 2.28789 58.6492 2.28789C59.4498 2.28789 60.2235 2.44547 60.9513 2.75537C61.1874 2.85656 61.4899 2.77277 61.6391 2.5688L62.3964 1.52789C62.4824 1.40983 62.5124 1.26595 62.4776 1.1305C62.4449 0.996108 62.3517 0.884376 62.2241 0.821131C61.1099 0.276697 59.9062 0 58.6492 0C56.8267 0 55.1022 0.593976 53.6602 1.71657Z"
                fill="#E5EAFA" />
            </svg>