  <svg xmlns="http://www.w3.org/2000/svg" width="57" height="33" viewBox="0 0 57 33" fill="none">
              <path
                d="M19.0722 8.66977C19.3152 8.66977 19.5247 8.87922 19.5247 9.09286V18.6857C19.5247 18.958 19.3739 19.2303 19.1644 19.4104C17.3547 20.9478 14.5816 21.8526 11.6828 21.8526C5.16885 21.8526 0.824829 17.5086 0.824829 10.9947C0.824829 4.48074 5.16885 0.136719 11.6828 0.136719C13.9155 0.136719 16.2656 0.798585 18.0166 1.88773C18.2596 2.00921 18.3475 2.24799 18.2889 2.43231L16.7808 6.8643C16.6887 7.07375 16.4792 7.16591 16.2069 7.10726C14.9712 6.4454 13.371 6.05163 11.8629 6.05163C9.08979 6.05163 7.21729 8.04142 7.21729 10.9989C7.21729 13.9563 9.0856 16.0048 11.8629 16.0048C12.9772 16.0048 13.7312 15.7953 14.0664 15.4309V13.6799H11.2932C11.0209 13.6799 10.8408 13.5584 10.8115 13.3489L10.4177 9.18502C10.3884 8.88341 10.5685 8.67396 10.8994 8.67396H19.0722V8.66977ZM38.015 19.5906C38.1072 19.8042 37.9857 20.0137 37.7428 20.1351C35.9917 21.2201 33.6417 21.8862 31.4089 21.8862C25.1966 21.8862 21.0327 17.5421 21.0327 11.0282C21.0327 4.51426 25.1966 0.170231 31.4089 0.170231C33.6417 0.170231 35.9917 0.832098 37.7428 1.92125C37.9857 2.04273 38.103 2.25218 38.015 2.46582L36.0252 6.65904C35.9038 6.93132 35.6943 7.01929 35.4514 6.902C34.3371 6.26946 33.2479 6.05582 31.9535 6.05582C29.239 6.05582 27.4294 8.04561 27.4294 11.0324C27.4294 14.0192 29.239 16.009 31.9535 16.009C33.2521 16.009 34.3371 15.7995 35.4514 15.1628C35.6943 15.0413 35.9038 15.1334 36.0252 15.4057L38.015 19.599V19.5906ZM49.2333 0.618457C53.1835 0.618457 55.81 2.97269 55.81 6.49986C55.81 8.66977 54.7544 10.27 53.1249 10.7517C55.0267 11.2335 56.2625 13.0431 56.2625 15.5482C56.2625 19.0753 53.6401 21.4296 49.7192 21.4296H40.1556C39.9169 21.4296 39.7325 21.2201 39.7325 21.0065V1.07087C39.7325 0.861421 39.9127 0.618457 40.1556 0.618457H49.2374H49.2333ZM47.8467 8.79125C48.7515 8.79125 49.3547 8.24668 49.3547 7.40469C49.3547 6.56269 48.7515 6.01812 47.8467 6.01812H45.9449V8.79125H47.8467ZM48.3871 16.0299C49.2626 16.0299 49.8658 15.456 49.8658 14.5805C49.8658 13.705 49.2626 13.1311 48.3871 13.1311H45.9449V16.0257H48.3871V16.0299ZM11.599 30.1846C11.62 30.2223 11.599 30.2768 11.5529 30.3145C11.1466 30.57 10.5853 30.746 10.158 30.746C8.79236 30.746 7.88753 29.8705 7.88753 28.5593C7.88753 27.2481 8.79236 26.3726 10.158 26.3726C10.5895 26.3726 11.1466 26.5444 11.5529 26.8041C11.599 26.8418 11.62 26.8962 11.599 26.9339L11.1634 27.8555C11.134 27.9142 11.0796 27.9393 11.0293 27.9016C10.8408 27.7676 10.5559 27.6754 10.3046 27.6754C9.75584 27.6754 9.3914 28.0315 9.3914 28.5635C9.3914 29.0955 9.75165 29.4516 10.3046 29.4516C10.5518 29.4516 10.8408 29.3594 11.0293 29.2253C11.0838 29.1876 11.134 29.2086 11.1634 29.2714L11.599 30.193V30.1846ZM15.5199 30.2014C15.5367 30.2558 15.5199 30.2852 15.4655 30.3145C15.0633 30.5784 14.4853 30.7376 13.903 30.7376C12.5667 30.7376 11.6786 29.8621 11.6786 28.5593C11.6786 27.2565 12.5541 26.3726 13.8653 26.3726C15.1764 26.3726 15.8551 27.1811 15.8551 28.5509C15.8551 28.664 15.8467 28.7771 15.8257 28.8902C15.8174 28.9489 15.7797 28.9824 15.7126 28.9824H13.2914C13.2914 28.9824 13.2914 29.4557 13.9239 29.4557C14.3093 29.4557 14.7366 29.3636 15.0801 29.2086C15.1346 29.1876 15.1764 29.217 15.1932 29.2672L15.5158 30.2014H15.5199ZM14.3596 28.1865C14.3596 27.8555 14.1543 27.6377 13.8527 27.6377C13.5134 27.6377 13.2872 27.8555 13.2872 28.1865H14.3596ZM18.6701 26.4732C18.7287 26.4732 18.7748 26.5192 18.7748 26.5779V27.5581C18.7748 27.6168 18.7287 27.6628 18.6701 27.6628H18.4732C18.1884 27.6628 17.9286 27.7927 17.8323 27.9812V30.5072C17.8323 30.5658 17.7778 30.6203 17.7192 30.6203H16.3913C16.3326 30.6203 16.2782 30.5658 16.2782 30.5072V26.5863C16.2782 26.5318 16.3326 26.4815 16.3913 26.4815H17.2416C17.3003 26.4815 17.338 26.536 17.3631 26.5946L17.4762 26.9256C17.7024 26.6449 18.0711 26.4732 18.4732 26.4732H18.6701ZM21.6569 26.4732C21.7239 26.4732 21.77 26.5192 21.77 26.5779L21.6862 27.311C21.6778 27.3696 21.6317 27.4241 21.5731 27.4241H21.0914V30.5072C21.0914 30.5658 21.0369 30.6203 20.9783 30.6203H19.6503C19.5917 30.6203 19.5372 30.5658 19.5372 30.5072V27.4241H19.1058C19.0513 27.4241 19.001 27.378 19.001 27.3193V26.5863C19.001 26.5192 19.0555 26.4732 19.1058 26.4732H19.5372V25.6521C19.5372 25.5976 19.5917 25.5558 19.6503 25.5474L20.9783 25.4175C21.0369 25.4091 21.0914 25.472 21.0914 25.5222V26.4732H21.6569ZM22.6832 30.7292C22.2852 30.7292 22.0213 30.4821 22.0213 30.1092C22.0213 29.7364 22.2852 29.4767 22.6832 29.4767C23.0811 29.4767 23.3451 29.7322 23.3451 30.1092C23.3451 30.4862 23.0811 30.7292 22.6832 30.7292ZM26.4072 30.0799C26.2858 30.3229 25.9255 30.4779 25.5024 30.4779C24.4007 30.4779 23.6676 29.6861 23.6676 28.4923C23.6676 27.156 24.3462 26.3642 25.5024 26.3642C26.0847 26.3642 26.5455 26.5234 26.7382 26.7957L26.8722 26.5863C26.9183 26.5192 26.9853 26.4732 27.0482 26.4732H27.8483C27.9153 26.4732 27.9614 26.5192 27.9614 26.5863V30.2349C27.9614 31.3743 26.9267 32.1367 25.6448 32.1367C24.8992 32.1367 24.2331 31.965 23.8645 31.6634C23.8184 31.6257 23.8058 31.5712 23.8184 31.5335L24.2038 30.5993C24.2248 30.5449 24.2708 30.5239 24.3169 30.5533C24.6395 30.8172 25.138 30.9764 25.6448 30.9764C26.1182 30.9764 26.4072 30.725 26.4072 30.2977V30.0799ZM26.4072 28.1194C26.4072 28.1194 26.2941 27.7801 25.8878 27.7801C25.5108 27.7801 25.293 28.044 25.293 28.4965C25.293 28.9489 25.5108 29.2212 25.8878 29.2212C26.2941 29.2212 26.4072 28.8818 26.4072 28.8818V28.1194ZM32.0918 30.1846C32.1127 30.2223 32.0918 30.2768 32.0457 30.3145C31.6393 30.57 31.078 30.746 30.6507 30.746C29.2851 30.746 28.3803 29.8705 28.3803 28.5593C28.3803 27.2481 29.2851 26.3726 30.6507 26.3726C31.0822 26.3726 31.6393 26.5444 32.0457 26.8041C32.0918 26.8418 32.1127 26.8962 32.0918 26.9339L31.6561 27.8555C31.6268 27.9142 31.5723 27.9393 31.522 27.9016C31.3335 27.7676 31.0445 27.6754 30.7973 27.6754C30.2486 27.6754 29.8841 28.0315 29.8841 28.5635C29.8841 29.0955 30.2444 29.4516 30.7973 29.4516C31.0445 29.4516 31.3335 29.3594 31.522 29.2253C31.5765 29.1876 31.6268 29.2086 31.6561 29.2714L32.0918 30.193V30.1846ZM34.0774 26.6533C34.3036 26.4732 34.6429 26.3684 34.9989 26.3684C36.1928 26.3684 36.9887 27.2439 36.9887 28.5467C36.9887 29.8495 36.1886 30.7334 34.9989 30.7334C34.4921 30.7334 34.0103 30.5365 33.7255 30.2349L33.6124 30.5072C33.583 30.5742 33.5453 30.6203 33.4909 30.6203H32.6363C32.5777 30.6203 32.5232 30.5658 32.5232 30.5072V25.2583C32.5232 25.2039 32.5777 25.1536 32.6363 25.1536H33.9642C34.0229 25.1536 34.0774 25.2081 34.0774 25.2583V26.6533ZM34.0774 29.0326C34.1695 29.2798 34.4083 29.4474 34.6722 29.4474C35.0869 29.4474 35.3676 29.0871 35.3676 28.5425C35.3676 27.998 35.0869 27.667 34.6722 27.667C34.4083 27.667 34.1653 27.8346 34.0774 28.0817V29.0326ZM37.9731 30.7292C37.5752 30.7292 37.3113 30.4821 37.3113 30.1092C37.3113 29.7364 37.5752 29.4767 37.9731 29.4767C38.3711 29.4767 38.635 29.7322 38.635 30.1092C38.635 30.4862 38.3711 30.7292 37.9731 30.7292ZM42.6732 30.1846C42.6942 30.2223 42.6732 30.2768 42.6272 30.3145C42.2208 30.57 41.6595 30.746 41.2322 30.746C39.8666 30.746 38.9618 29.8705 38.9618 28.5593C38.9618 27.2481 39.8666 26.3726 41.2322 26.3726C41.6637 26.3726 42.2208 26.5444 42.6272 26.8041C42.6732 26.8418 42.6942 26.8962 42.6732 26.9339L42.2376 27.8555C42.2083 27.9142 42.1538 27.9393 42.1035 27.9016C41.915 27.7676 41.6302 27.6754 41.3788 27.6754C40.8301 27.6754 40.4656 28.0315 40.4656 28.5635C40.4656 29.0955 40.8259 29.4516 41.3788 29.4516C41.6302 29.4516 41.915 29.3594 42.1035 29.2253C42.158 29.1876 42.2083 29.2086 42.2376 29.2714L42.6732 30.193V30.1846ZM49.2919 26.4732C49.3506 26.4732 49.3883 26.5276 49.3673 26.5779L48.1399 30.5156C48.1232 30.57 48.0645 30.6203 48.0059 30.6203H46.8371C46.7785 30.6203 46.7073 30.5658 46.6863 30.5156L46.1041 28.509L45.5218 30.5156C45.5008 30.57 45.4296 30.6203 45.371 30.6203H44.2022C44.1436 30.6203 44.0808 30.5658 44.0682 30.5156L42.8408 26.5779C42.8199 26.5234 42.8576 26.4732 42.9162 26.4732H44.441C44.508 26.4732 44.5709 26.5192 44.5834 26.5779L44.9772 28.2284L45.3835 26.5779C45.4003 26.5025 45.4673 26.4732 45.5176 26.4732H46.6947C46.8078 26.4732 46.8162 26.5025 46.8288 26.5779L47.2351 28.2284L47.6289 26.5779C47.6456 26.5192 47.7043 26.4732 47.7713 26.4732H49.2961H49.2919Z"
                fill="#E5EAFA" />
            </svg>