<svg xmlns="http://www.w3.org/2000/svg" width="99" height="25" viewBox="0 0 99 25" fill="none">
              <path
                d="M26.2575 8.64185H36.1719V10.483H32.2682V20.8618H30.1285V10.483H26.2412L26.2575 8.64185ZM35.7472 12.0146H37.5766V13.7253H37.6092C37.6746 13.481 37.7889 13.2528 37.9522 13.0247C38.1156 12.7966 38.3116 12.5848 38.5566 12.4056C38.7852 12.2101 39.0466 12.0634 39.3406 11.9494C39.6182 11.8353 39.9122 11.7702 40.2062 11.7702C40.4349 11.7702 40.5982 11.7864 40.6799 11.7864C40.7616 11.8027 40.8596 11.819 40.9412 11.819V13.6928C40.8106 13.6602 40.6636 13.6439 40.5166 13.6276C40.3696 13.6113 40.2389 13.595 40.0919 13.595C39.7652 13.595 39.4549 13.6602 39.1609 13.7905C38.8669 13.9209 38.6219 14.1164 38.3932 14.3608C38.1809 14.6215 38.0012 14.9311 37.8706 15.3058C37.7399 15.6805 37.6746 16.1205 37.6746 16.6093V20.8129H35.7146L35.7472 12.0146ZM49.9246 20.8618H47.9972V19.6235H47.9646C47.7196 20.0797 47.3602 20.4219 46.8866 20.6989C46.4129 20.9759 45.9229 21.1062 45.4329 21.1062C44.2732 21.1062 43.4239 20.8292 42.9012 20.2427C42.3786 19.6724 42.1172 18.7926 42.1172 17.6357V12.0146H44.0772V17.4402C44.0772 18.2223 44.2242 18.7763 44.5346 19.0858C44.8286 19.4117 45.2532 19.5746 45.7922 19.5746C46.2006 19.5746 46.5436 19.5095 46.8212 19.3791C47.0989 19.2488 47.3276 19.0858 47.4909 18.874C47.6706 18.6622 47.7849 18.4015 47.8666 18.1082C47.9482 17.815 47.9809 17.4891 47.9809 17.1469V12.0146H49.9409V20.8618H49.9246ZM53.2566 18.0268C53.3219 18.597 53.5343 18.9881 53.9099 19.2325C54.2856 19.4606 54.7429 19.5746 55.2656 19.5746C55.4453 19.5746 55.6576 19.5583 55.8863 19.5258C56.1149 19.4932 56.3436 19.4443 56.5396 19.3628C56.7519 19.2814 56.9153 19.1673 57.0459 19.0044C57.1766 18.8414 57.2419 18.6459 57.2256 18.4015C57.2093 18.1571 57.1276 17.9453 56.9479 17.7824C56.7683 17.6194 56.5559 17.5054 56.2946 17.3913C56.0333 17.2936 55.7229 17.2121 55.3799 17.1469C55.0369 17.0818 54.6939 17.0003 54.3346 16.9188C53.9753 16.8374 53.6159 16.7396 53.2729 16.6256C52.9299 16.5115 52.6359 16.3649 52.3582 16.153C52.0969 15.9575 51.8682 15.7131 51.7212 15.4036C51.5579 15.094 51.4762 14.7355 51.4762 14.2793C51.4762 13.7905 51.5906 13.3995 51.8356 13.0736C52.0642 12.7478 52.3746 12.4871 52.7339 12.2915C53.0932 12.096 53.5016 11.9494 53.9426 11.8679C54.3836 11.7864 54.8083 11.7539 55.2003 11.7539C55.6576 11.7539 56.0986 11.8027 56.5069 11.9005C56.9153 11.9983 57.3073 12.1449 57.6339 12.373C57.9769 12.5848 58.2546 12.8781 58.4669 13.2203C58.6956 13.5624 58.8263 13.986 58.8916 14.4748H56.8499C56.7519 14.0023 56.5396 13.6928 56.2129 13.5298C55.8699 13.3669 55.4943 13.2854 55.0533 13.2854C54.9226 13.2854 54.7429 13.3017 54.5633 13.318C54.3673 13.3506 54.2039 13.3832 54.0243 13.4484C53.8609 13.5135 53.7139 13.6113 53.5996 13.7253C53.4853 13.8394 53.4199 14.0023 53.4199 14.1979C53.4199 14.4423 53.5016 14.6215 53.6649 14.7681C53.8283 14.9148 54.0406 15.0288 54.3183 15.1429C54.5796 15.2406 54.8899 15.3221 55.2329 15.3873C55.5759 15.4524 55.9353 15.5339 56.2946 15.6154C56.6539 15.6968 56.9969 15.7946 57.3399 15.9086C57.6829 16.0227 57.9933 16.1693 58.2546 16.3812C58.5159 16.5767 58.7446 16.8211 58.9079 17.1144C59.0713 17.4076 59.1529 17.7824 59.1529 18.206C59.1529 18.7274 59.0386 19.1673 58.7936 19.5421C58.5486 19.9005 58.2383 20.2101 57.8626 20.4382C57.4869 20.6663 57.0459 20.8292 56.5886 20.9433C56.1149 21.041 55.6576 21.1062 55.2003 21.1062C54.6449 21.1062 54.1223 21.041 53.6486 20.9107C53.1749 20.7803 52.7502 20.5848 52.4072 20.3404C52.0642 20.0797 51.7866 19.7702 51.5906 19.3791C51.3946 19.0044 51.2802 18.5482 51.2639 18.0105H53.2402V18.0268H53.2566ZM59.7083 12.0146H61.1946V9.34246H63.1546V11.9983H64.9186V13.4484H63.1546V18.1734C63.1546 18.3852 63.1709 18.5482 63.1873 18.7111C63.2036 18.8577 63.2526 18.9881 63.3016 19.0858C63.3669 19.1836 63.4649 19.2651 63.5793 19.314C63.7099 19.3628 63.8733 19.3954 64.1019 19.3954C64.2326 19.3954 64.3796 19.3954 64.5103 19.3791C64.6409 19.3628 64.7879 19.3465 64.9186 19.314V20.8292C64.7063 20.8618 64.4939 20.8781 64.2816 20.8944C64.0693 20.927 63.8733 20.927 63.6446 20.927C63.1219 20.927 62.7136 20.8781 62.4033 20.7803C62.0929 20.6826 61.8479 20.5359 61.6683 20.3567C61.4886 20.1612 61.3743 19.9331 61.3089 19.6561C61.2436 19.3791 61.2109 19.037 61.1946 18.6785V13.4647H59.7083V11.982V12.0146ZM66.2906 12.0146H68.1363V13.2203H68.1689C68.4466 12.6989 68.8223 12.3404 69.3123 12.1123C69.8023 11.8842 70.3249 11.7702 70.9129 11.7702C71.6153 11.7702 72.2196 11.8842 72.7423 12.1449C73.2649 12.3893 73.6896 12.7152 74.0326 13.1551C74.3756 13.5787 74.6369 14.0838 74.8003 14.6541C74.9636 15.2243 75.0616 15.8435 75.0616 16.4789C75.0616 17.0818 74.9799 17.652 74.833 18.206C74.6696 18.76 74.4409 19.2651 74.1306 19.6887C73.8203 20.1123 73.4283 20.4545 72.9383 20.7152C72.4483 20.9759 71.8929 21.1062 71.2396 21.1062C70.9619 21.1062 70.6679 21.0736 70.3903 21.0247C70.1126 20.9759 69.8349 20.8944 69.5736 20.7803C69.3123 20.6663 69.0673 20.5197 68.8549 20.3404C68.6263 20.1612 68.4466 19.9494 68.2996 19.7213H68.2669V24.1368H66.3069V12.0146H66.2906ZM73.1343 16.4463C73.1343 16.0553 73.0853 15.6643 72.9709 15.2895C72.8729 14.9148 72.7096 14.5889 72.4973 14.2956C72.2849 14.0023 72.0236 13.7742 71.7296 13.595C71.4193 13.4158 71.0599 13.3343 70.6679 13.3343C69.8513 13.3343 69.2306 13.6113 68.8059 14.1816C68.3976 14.7518 68.1853 15.5176 68.1853 16.4626C68.1853 16.9188 68.2343 17.3262 68.3486 17.7009C68.4629 18.0757 68.6099 18.4015 68.8386 18.6785C69.0509 18.9555 69.3123 19.1673 69.6226 19.3302C69.9329 19.4932 70.2759 19.5746 70.6843 19.5746C71.1416 19.5746 71.5009 19.4769 71.8113 19.2977C72.1216 19.1184 72.3666 18.874 72.5789 18.597C72.7749 18.3038 72.9219 17.9779 73.0036 17.6032C73.0853 17.2121 73.1343 16.8374 73.1343 16.4463ZM76.5806 8.64185H78.5406V10.483H76.5806V8.64185ZM76.5806 12.0146H78.5406V20.8618H76.5806V12.0146ZM80.2883 8.64185H82.2483V20.8618H80.2883V8.64185ZM88.2263 21.1062C87.524 21.1062 86.887 20.9922 86.3316 20.7478C85.7763 20.5034 85.319 20.1938 84.927 19.7865C84.5513 19.3791 84.2573 18.874 84.0613 18.3038C83.8653 17.7335 83.751 17.0981 83.751 16.43C83.751 15.762 83.849 15.1429 84.0613 14.5726C84.2573 14.0023 84.5513 13.5135 84.927 13.0899C85.3026 12.6826 85.7763 12.3567 86.3316 12.1286C86.887 11.9005 87.524 11.7702 88.2263 11.7702C88.9286 11.7702 89.5656 11.8842 90.121 12.1286C90.6763 12.3567 91.1336 12.6826 91.5256 13.0899C91.9013 13.4972 92.1953 14.0023 92.3913 14.5726C92.5873 15.1429 92.7016 15.762 92.7016 16.43C92.7016 17.1144 92.6036 17.7335 92.3913 18.3038C92.179 18.874 91.9013 19.3628 91.5256 19.7865C91.15 20.1938 90.6763 20.5197 90.121 20.7478C89.5656 20.9759 88.945 21.1062 88.2263 21.1062ZM88.2263 19.5584C88.651 19.5584 89.043 19.4606 89.3533 19.2814C89.68 19.1021 89.925 18.8577 90.1373 18.5645C90.3496 18.2712 90.4966 17.929 90.5946 17.5706C90.6926 17.1958 90.7416 16.8211 90.7416 16.43C90.7416 16.0553 90.6926 15.6805 90.5946 15.3058C90.4966 14.9311 90.3496 14.6052 90.1373 14.3119C89.925 14.0186 89.6636 13.7905 89.3533 13.6113C89.0266 13.4321 88.651 13.3343 88.2263 13.3343C87.8016 13.3343 87.4096 13.4321 87.0993 13.6113C86.7726 13.7905 86.5276 14.0349 86.3153 14.3119C86.103 14.6052 85.956 14.9311 85.858 15.3058C85.76 15.6805 85.711 16.0553 85.711 16.43C85.711 16.8211 85.76 17.1958 85.858 17.5706C85.956 17.9453 86.103 18.2712 86.3153 18.5645C86.5276 18.8577 86.789 19.1021 87.0993 19.2814C87.426 19.4769 87.8016 19.5584 88.2263 19.5584ZM93.2896 12.0146H94.776V9.34246H96.736V11.9983H98.5V13.4484H96.736V18.1734C96.736 18.3852 96.7523 18.5482 96.7687 18.7111C96.785 18.8577 96.834 18.9881 96.883 19.0858C96.9483 19.1836 97.0463 19.2651 97.1606 19.314C97.2913 19.3628 97.4547 19.3954 97.6833 19.3954C97.814 19.3954 97.961 19.3954 98.0917 19.3791C98.2223 19.3628 98.3693 19.3465 98.5 19.314V20.8292C98.2877 20.8618 98.0753 20.8781 97.863 20.8944C97.6507 20.927 97.4547 20.927 97.226 20.927C96.7033 20.927 96.295 20.8781 95.9846 20.7803C95.6743 20.6826 95.4293 20.5359 95.2496 20.3567C95.07 20.1612 94.9557 19.9331 94.8903 19.6561C94.825 19.3791 94.7923 19.037 94.776 18.6785V13.4647H93.2896V11.982V12.0146Z"
                fill="white" />
              <path
                d="M23.971 8.64182H15.004L12.2437 0.136719L9.46701 8.64182L0.5 8.62553L7.75201 13.8883L4.97534 22.3934L12.2274 17.1306L19.4794 22.3934L16.719 13.8883L23.971 8.64182Z"
                fill="#00B67A" />
              <path d="M17.3397 15.8108L16.719 13.8882L12.2437 17.1305L17.3397 15.8108Z" fill="#005128" />
            </svg>