<svg width="24" height="24" viewBox="0 0 24 24" fill="none" xmlns="http://www.w3.org/2000/svg">
<g clip-path="url(#clip0_50696_2868)">
<mask id="mask0_50696_2868" style="mask-type:luminance" maskUnits="userSpaceOnUse" x="0" y="0" width="24" height="24">
<path d="M24 0H0V24H24V0Z" fill="white"/>
</mask>
<g mask="url(#mask0_50696_2868)">
<path fill-rule="evenodd" clip-rule="evenodd" d="M13.683 4.49591L13.6963 4.50899L12.6348 5.94254C12.7613 6.08569 12.8885 6.22696 13.0153 6.36787C13.2643 6.64439 13.5122 6.91964 13.7507 7.20486C13.3545 7.15229 12.966 7.06854 12.577 6.98469C12.3866 6.94365 12.196 6.90257 12.0044 6.86513C11.9987 6.87318 11.993 6.88072 11.9876 6.88798C11.9764 6.90294 11.9661 6.91672 11.9574 6.93145C11.7124 7.34166 11.4676 7.75207 11.2237 8.16288C11.2072 8.19069 11.1922 8.22138 11.1856 8.25266C11.0892 8.70405 11.021 9.16 10.9711 9.61872C10.9704 9.62479 10.971 9.63099 10.9719 9.63973C10.9724 9.6448 10.973 9.65074 10.9734 9.65802C11.1616 9.77487 11.357 9.88228 11.5535 9.99033C11.7021 10.072 11.8514 10.1541 11.9987 10.2409C11.6617 10.3027 11.3239 10.3311 10.9708 10.34C10.9516 10.7112 10.9698 11.0741 11.0158 11.4348C10.8912 11.4788 10.778 11.4571 10.7026 11.3657C10.4465 11.0556 10.1908 10.7453 9.94059 10.4305C9.86348 10.3335 9.78765 10.2738 9.65184 10.2626C9.2346 10.2284 8.8226 10.1543 8.42011 10.0351C8.34374 10.0124 8.26828 9.98678 8.1928 9.96113C8.15717 9.94903 8.12116 9.93678 8.08543 9.92499L8.08375 9.90044L9.31023 9.39599L9.29211 9.35408L9.2545 9.2673C9.2189 9.1857 9.18262 9.10435 9.14634 9.02299L9.14594 9.02207C9.05631 8.82108 8.96644 8.61953 8.88695 8.41461C8.84121 8.29671 8.78222 8.21485 8.67046 8.15456C8.49854 8.06191 8.32967 7.96351 8.16082 7.86512C8.08488 7.82087 8.00891 7.7766 7.93269 7.73287C7.91188 7.72095 7.89036 7.71021 7.8655 7.6978C7.85299 7.69156 7.83963 7.68489 7.82509 7.67743L7.11751 8.6805C7.10542 8.65873 7.09297 8.63753 7.08068 8.61659C7.01974 8.5128 6.96279 8.41579 6.97308 8.29157C6.98889 8.10023 7.0041 7.90886 7.0193 7.71747L7.0403 7.45392C7.04275 7.42326 7.04503 7.39259 7.0473 7.36193C7.05284 7.28741 7.05837 7.2129 7.06643 7.13864C7.07207 7.08627 7.05069 7.05519 7.01337 7.02094C6.87994 6.89839 6.74986 6.77218 6.62068 6.64517C6.59749 6.62238 6.57783 6.59607 6.55627 6.56722C6.54572 6.5531 6.53469 6.53834 6.52258 6.52312C6.53383 6.51812 6.54381 6.51337 6.55302 6.50899C6.57063 6.5006 6.58545 6.49354 6.60098 6.48867L6.70918 6.45492C6.89935 6.39556 7.08951 6.3362 7.28064 6.2802C7.33539 6.26416 7.36677 6.23882 7.39339 6.18616C7.55979 5.85692 7.72897 5.52897 7.90388 5.20428C7.94229 5.13291 7.94625 5.0848 7.89289 5.02095C7.78684 4.89392 7.68401 4.76423 7.57893 4.6317C7.5378 4.57983 7.49622 4.52738 7.45407 4.47463C7.2997 4.5961 7.1543 4.72712 7.00813 4.85883C6.87416 4.97955 6.73949 5.10089 6.59673 5.21596C6.59924 5.19914 6.60146 5.18226 6.60369 5.16538C6.60838 5.1298 6.61311 5.09394 6.62048 5.05896C6.85281 3.95296 7.38359 3.018 8.22778 2.264C8.27765 2.2194 8.33084 2.17853 8.38405 2.13766C8.40876 2.11868 8.43354 2.09964 8.45793 2.08027L8.47772 2.09037L8.47236 2.11536C8.46871 2.13284 8.46506 2.15029 8.4601 2.16738L8.37215 2.47131C8.32452 2.63563 8.27689 2.79996 8.22985 2.96445C8.22217 2.99124 8.21749 3.01886 8.21212 3.05058C8.2094 3.06663 8.20648 3.08386 8.20293 3.10244C8.4304 3.12029 8.65237 3.12725 8.87352 3.13418L8.97138 3.13728L8.97841 3.15936L8.94286 3.18902C8.91795 3.20992 8.89306 3.23082 8.86735 3.25062L8.71851 3.36553C8.51771 3.52064 8.31689 3.67576 8.11423 3.82833C8.0589 3.87 8.03712 3.91583 8.03386 3.98443C8.00505 4.57797 8.00713 5.17072 8.06395 5.76268C8.07003 5.82641 8.07897 5.88987 8.08827 5.95599C8.09273 5.9877 8.0973 6.02016 8.10166 6.05341C8.14457 6.05341 8.18671 6.05415 8.22828 6.05487C8.31843 6.05643 8.40641 6.05795 8.49337 6.05193C8.77598 6.03233 9.0583 6.00669 9.34022 5.97858C9.4006 5.97254 9.46109 5.95056 9.51791 5.927C9.82046 5.80141 10.1224 5.67459 10.4244 5.54775L10.7567 5.4083C10.7717 5.40197 10.7868 5.39595 10.8052 5.38863L10.8296 5.3789L10.8477 5.24674C10.8609 5.14945 10.8742 5.05108 10.889 4.95295C10.9457 4.57857 11.0036 4.20429 11.0621 3.83011C11.0689 3.78685 11.073 3.74904 11.0443 3.70875C10.8855 3.48534 10.7278 3.26114 10.5701 3.03695L10.3719 2.75538C10.3697 2.75228 10.3666 2.74986 10.3614 2.74584C10.358 2.7432 10.3537 2.73986 10.3482 2.73519C9.98505 2.8196 9.6246 2.93464 9.26004 3.051L9.17887 3.0769C9.23232 2.9395 9.72628 2.42198 10.0417 2.17124C10.0386 2.15871 10.0359 2.14549 10.0331 2.1319C10.0267 2.10096 10.02 2.0681 10.0084 2.03701C9.95446 1.89112 9.89886 1.74581 9.84325 1.6005L9.84283 1.59938L9.79122 1.46436C9.78091 1.4374 9.77045 1.41055 9.7578 1.37807L9.7434 1.34112C9.75441 1.34112 9.76442 1.34092 9.77377 1.34073C9.79217 1.34036 9.80799 1.34004 9.82368 1.34141C10.2376 1.37675 10.6497 1.42427 11.0543 1.52296C11.0806 1.5294 11.1145 1.52633 11.139 1.51494C11.5788 1.31132 12.0478 1.20481 12.5171 1.10018C12.703 1.0587 12.8911 1.02712 13.0834 1C13.0336 1.04087 12.9837 1.08156 12.9338 1.12226C12.6641 1.34212 12.3936 1.56259 12.1344 1.81557C12.1991 1.83869 12.2637 1.86127 12.328 1.88375C12.6571 1.99886 12.9789 2.11142 13.2767 2.28003L13.2742 2.30151C13.2561 2.30321 13.2381 2.30512 13.2201 2.30703C13.1815 2.31112 13.1428 2.31523 13.1041 2.31725C13.0088 2.32225 12.9134 2.32661 12.8181 2.33097C12.6304 2.33955 12.4423 2.34815 12.255 2.3616C12.1501 2.36911 12.0458 2.38382 11.9414 2.39852C11.8793 2.40728 11.8172 2.41603 11.755 2.42327C11.6895 2.43089 11.6503 2.46693 11.616 2.51959C11.3819 2.87951 11.2228 3.27151 11.1132 3.68509C11.1016 3.72865 11.105 3.76686 11.131 3.80685C11.243 3.97911 11.3544 4.15175 11.4659 4.3244L11.4664 4.32527L11.4672 4.32642L11.4677 4.32731C11.5861 4.51069 11.7047 4.69455 11.8238 4.87752C11.8809 4.96532 11.8848 4.96621 11.9839 4.94038C12.3734 4.83876 12.7626 4.7364 13.1518 4.63403L13.6268 4.50918C13.6405 4.5056 13.6543 4.50245 13.6682 4.49929L13.683 4.49591ZM10.0241 9.04625C10.0135 9.05122 10.0027 9.05623 9.99207 9.0616C9.98105 9.05661 9.97021 9.05241 9.9596 9.04825C9.93763 9.03962 9.91703 9.03153 9.89981 9.01884C9.558 8.76662 9.21698 8.5133 8.87685 8.2589C8.85418 8.24197 8.83567 8.21614 8.82221 8.19069C8.64195 7.84938 8.48564 7.49826 8.37695 7.12676C8.35696 7.05855 8.36666 7.01124 8.41299 6.95709C8.71025 6.61013 9.05355 6.31286 9.40625 6.0252C9.44653 5.99234 9.48088 5.99828 9.52404 6.01372L9.56752 6.02924C9.98057 6.17672 10.3937 6.32421 10.8083 6.46699C10.8777 6.49085 10.8987 6.52985 10.9036 6.59528C10.9143 6.73971 10.9263 6.88403 10.943 7.02787C10.9858 7.39809 11.0672 7.76108 11.1552 8.12249C11.1697 8.18258 11.1627 8.22178 11.1145 8.259C11.0373 8.31858 10.9605 8.37879 10.8837 8.439C10.7509 8.5432 10.6175 8.64776 10.4822 8.7487C10.3869 8.81983 10.2867 8.8844 10.1865 8.94895C10.1538 8.97004 10.1208 8.9913 10.0883 9.0126C10.0683 9.02566 10.0464 9.03586 10.0241 9.04625ZM17.3676 6.67599C17.0432 6.81814 16.7281 6.94158 16.3821 7.0376L16.2038 5.75391C16.1949 5.76941 16.1874 5.78202 16.1809 5.79284C16.1696 5.8118 16.1616 5.82535 16.1546 5.83933C16.1352 5.87889 16.1161 5.91864 16.097 5.95838C16.0634 6.02846 16.0297 6.09875 15.9939 6.16768C15.8178 6.50692 15.6353 6.84259 15.4265 7.16332C15.3807 7.2336 15.3283 7.26775 15.2418 7.26736C15.0054 7.26618 14.7689 7.26799 14.5325 7.2698C14.4295 7.27058 14.3266 7.27137 14.2237 7.27191C14.1541 7.27223 14.0844 7.27214 14.0077 7.27203L13.8772 7.27191C13.9 7.29786 13.9207 7.32235 13.9403 7.34551C13.9798 7.39232 14.0147 7.4337 14.0537 7.47078C14.2165 7.62557 14.3806 7.77886 14.5448 7.93217C14.619 8.0015 14.6934 8.07087 14.7675 8.14034C14.79 8.16139 14.8118 8.18317 14.8334 8.20475L14.8636 8.23478C14.8567 8.24866 14.8504 8.26166 14.8444 8.27402C14.8329 8.29772 14.8226 8.31905 14.811 8.33961C14.4352 9.00403 14.0149 9.63687 13.4946 10.199C13.4004 10.301 13.2856 10.3485 13.1504 10.3415L12.8197 10.3243H12.8187L12.8176 10.3242H12.8166C12.6185 10.3138 12.4204 10.3035 12.2223 10.2936C12.1996 10.2924 12.1769 10.2934 12.1541 10.2944C12.1434 10.2949 12.132 10.2954 12.1213 10.2956L12.1145 10.3188L12.7827 10.9248C12.6479 11.1245 12.4654 11.263 12.2832 11.4013C12.2168 11.4517 12.1506 11.502 12.0867 11.5552C12.1186 11.5637 12.1473 11.565 12.1757 11.5635L12.2666 11.5588C12.3645 11.5538 12.4627 11.5488 12.5604 11.5414C13.057 11.5039 13.5357 11.388 13.9963 11.2007C14.6062 10.9527 15.1493 10.5946 15.6573 10.18C15.6656 10.1733 15.6766 10.1698 15.6875 10.1663C15.6926 10.1647 15.6977 10.1631 15.7026 10.1611L15.6828 10.13C15.4434 10.149 15.2047 10.1764 14.9652 10.2039C14.7423 10.2295 14.5186 10.2552 14.2928 10.2743L14.2679 9.31327L14.278 9.30489L14.2828 9.30068C14.2884 9.29576 14.2914 9.29311 14.2949 9.29179C14.3379 9.27526 14.381 9.25902 14.4244 9.24348L14.5304 9.20561C14.8982 9.07444 15.266 8.94321 15.6063 8.74715C15.6424 8.72637 15.6672 8.7379 15.6951 8.75092L15.7061 8.75596C15.9407 8.86 16.1755 8.96374 16.4107 9.06639C16.4323 9.07583 16.4552 9.08242 16.4801 9.08956C16.4923 9.09305 16.5049 9.09668 16.518 9.10084C16.5186 9.09056 16.5194 9.08154 16.52 9.07335C16.5213 9.05786 16.5223 9.04533 16.5216 9.03283C16.5161 8.93193 16.5102 8.83103 16.5043 8.73012L16.4955 8.57877L16.4872 8.43359C16.4811 8.32404 16.4749 8.21452 16.4679 8.10501C16.465 8.05937 16.4765 8.02463 16.5118 7.99176C16.8856 7.64411 17.1398 7.21558 17.3442 6.7538C17.3504 6.73977 17.3544 6.72469 17.3592 6.7065C17.3616 6.69723 17.3643 6.68715 17.3676 6.67599ZM14.8919 2.67917L15.2393 1.90527C15.2463 1.91655 15.2529 1.92657 15.259 1.93586C15.2708 1.95378 15.2808 1.96903 15.2887 1.98526C15.4639 2.3434 15.6321 2.70461 15.755 3.08473C15.7732 3.14106 15.8124 3.16967 15.8557 3.19986C16.2622 3.48366 16.6408 3.80023 16.9788 4.16392C16.9984 4.18504 17.0173 4.20683 17.0361 4.22862L17.0607 4.25697L17.0515 4.27805L16.0879 4.24311C16.0888 4.25783 16.0894 4.27155 16.09 4.28459C16.0911 4.30989 16.0921 4.33278 16.0948 4.35536C16.1067 4.45721 16.119 4.55901 16.1312 4.6608C16.1552 4.85978 16.1792 5.05873 16.2009 5.25795C16.2087 5.33041 16.2109 5.40347 16.2131 5.47654C16.2141 5.51007 16.2152 5.54361 16.2167 5.57709L16.1929 5.5855L16.1738 5.5607C16.1592 5.54186 16.1447 5.52304 16.1307 5.50384C16.0567 5.40237 15.9825 5.30099 15.9084 5.19962C15.6966 4.91007 15.4848 4.6205 15.2763 4.32854C15.2049 4.22856 15.1297 4.19549 15.004 4.21163C14.6344 4.25914 14.2689 4.32596 13.9061 4.40971C13.8691 4.41822 13.8317 4.42525 13.7882 4.42406C13.8669 4.32462 13.9471 4.22682 14.0274 4.12893C14.1963 3.92307 14.3656 3.71681 14.5211 3.49415C14.2955 3.25117 14.0596 3.0206 13.8217 2.78802C13.6598 2.62977 13.497 2.47054 13.3358 2.30588C13.4304 2.29451 13.5123 2.30832 13.5917 2.32171C13.6077 2.32441 13.6235 2.32709 13.6394 2.32954C14.0316 2.39032 14.4065 2.51505 14.7805 2.64265C14.8002 2.64936 14.8201 2.65578 14.8448 2.66376L14.8919 2.67917ZM10.5674 17.6893C10.5479 17.6878 10.5277 17.6862 10.5066 17.685L10.2954 18.2697L10.21 18.5068C10.1258 18.7407 10.0416 18.9747 9.95618 19.2082C9.95365 19.2151 9.95157 19.2225 9.94945 19.23C9.94036 19.2622 9.93052 19.297 9.88174 19.3098L9.22812 17.6859C9.18582 17.6885 9.14437 17.6915 9.10351 17.6946C9.01212 17.7014 8.92365 17.7079 8.83513 17.7084C8.74575 17.7089 8.65637 17.7033 8.567 17.6976C8.52788 17.6951 8.48877 17.6927 8.44966 17.6907L8.44392 17.7123C8.44919 17.7163 8.45427 17.7209 8.45934 17.7255C8.47009 17.7351 8.48084 17.7448 8.49341 17.7497L8.49786 17.7514C8.61336 17.7965 8.616 17.7976 8.61141 17.9264L8.60925 17.9872L8.60921 17.9882C8.59849 18.2903 8.58775 18.5928 8.57181 18.8947C8.56267 19.0677 8.55085 19.2405 8.53904 19.4134C8.5295 19.5529 8.51996 19.6925 8.51183 19.8321C8.50698 19.917 8.46867 19.9663 8.38839 19.9883C8.36755 19.9941 8.34744 20.0023 8.32734 20.0106C8.3185 20.0143 8.30967 20.0179 8.30078 20.0213L8.30088 20.0414C8.30401 20.0424 8.30716 20.0436 8.31032 20.0448L8.31852 20.0483C8.33122 20.0536 8.34392 20.059 8.35602 20.0579C8.59646 20.036 8.83661 20.0377 9.07696 20.059C9.08751 20.06 9.09861 20.0547 9.11025 20.0491C9.11586 20.0465 9.12159 20.0437 9.12744 20.0416C9.10611 19.9994 9.07299 19.9942 9.03985 19.9891C9.03408 19.9882 9.02832 19.9874 9.02261 19.9863C8.93124 19.9689 8.89115 19.9247 8.88413 19.8343L8.88305 19.8204C8.8793 19.7725 8.87553 19.7243 8.8767 19.6763C8.88749 19.2414 8.89927 18.8064 8.91175 18.3715C8.91235 18.3506 8.91633 18.3298 8.92031 18.3089L8.92377 18.2904L8.9256 18.2794L8.94659 18.2769L8.94999 18.2836L8.95893 18.3007C8.96792 18.3177 8.97691 18.3347 8.98401 18.3524C9.18951 18.8662 9.39481 19.3801 9.59962 19.8941C9.60993 19.92 9.61816 19.9419 9.62513 19.9605C9.64497 20.0135 9.65467 20.0393 9.67334 20.0518C9.69122 20.0637 9.71733 20.0633 9.76845 20.0624C9.78861 20.0621 9.81267 20.0617 9.84165 20.062L9.87209 20.0624C9.92612 20.0633 9.95235 20.0637 9.96933 20.0513C9.98535 20.0397 9.99314 20.0167 10.0083 19.9721L10.0206 19.9362C10.204 19.4141 10.3876 18.8921 10.5718 18.3705C10.5739 18.3645 10.5756 18.3583 10.5773 18.352C10.5847 18.3243 10.5928 18.2945 10.636 18.2782L10.6412 18.3179C10.6449 18.3454 10.6484 18.3712 10.6505 18.3971L10.6654 18.5841C10.6854 18.8339 10.7054 19.0837 10.7236 19.3335C10.7347 19.4847 10.7436 19.6361 10.7474 19.7877C10.7504 19.9074 10.7115 19.9538 10.5983 19.9884C10.5778 19.9947 10.5575 20.0014 10.5351 20.0088L10.5043 20.0188C10.5476 20.0551 10.5501 20.0551 10.5876 20.055H10.595C10.8217 20.0549 11.0483 20.0558 11.275 20.0567H11.2761H11.2773H11.2784L11.3361 20.0569C11.3499 20.057 11.3637 20.0578 11.3776 20.0585C11.4001 20.0598 11.4225 20.061 11.4447 20.0591C11.4535 20.0584 11.4617 20.0507 11.4728 20.0404C11.4788 20.0348 11.4856 20.0285 11.4937 20.0221L11.4588 20.0095C11.4392 20.0023 11.4237 19.9967 11.4079 19.9916C11.3042 19.9585 11.2918 19.9422 11.2826 19.8322C11.2775 19.7713 11.272 19.7104 11.2665 19.6496C11.2568 19.5431 11.2471 19.4366 11.2397 19.3299C11.2067 18.8598 11.1748 18.3896 11.145 17.9193C11.1364 17.7817 11.1402 17.7803 11.2698 17.7319L11.2736 17.7305C11.2772 17.7292 11.2798 17.7251 11.2823 17.7211C11.2834 17.7193 11.2846 17.7175 11.2858 17.7159C11.2634 17.6796 11.2618 17.6796 11.2254 17.6811L11.2155 17.6815C11.0379 17.6875 10.8604 17.6922 10.6827 17.6949C10.6452 17.6954 10.6077 17.6925 10.5674 17.6893ZM4.50888 18.9911H3.56918C3.56852 19.0054 3.56772 19.0188 3.56696 19.0317C3.56545 19.0574 3.56406 19.0808 3.56413 19.1043C3.56482 19.3417 3.56601 19.5789 3.5674 19.8163C3.56819 19.9488 3.57551 19.9582 3.70232 20.0113C3.71359 20.016 3.72331 20.0244 3.73293 20.0326C3.73725 20.0364 3.74156 20.04 3.74597 20.0434C3.72588 20.08 3.69932 20.076 3.67404 20.0723C3.66743 20.0713 3.6609 20.0703 3.65461 20.0701C3.58924 20.0677 3.52391 20.0649 3.45858 20.0621L3.45689 20.062H3.45574H3.45461C3.34047 20.0571 3.22555 20.0522 3.11135 20.0492C3.06957 20.0482 3.02772 20.0517 2.98583 20.0552C2.96192 20.0572 2.93799 20.0592 2.91407 20.0603C2.91071 20.0605 2.90725 20.0608 2.90375 20.0612C2.88172 20.0633 2.85803 20.0656 2.84863 20.026C2.85327 20.0239 2.85795 20.0215 2.86271 20.0191C2.87309 20.0139 2.88386 20.0085 2.89526 20.0057C2.98791 19.9829 3.0181 19.9507 3.0188 19.8557C3.02256 19.3185 3.02533 18.7812 3.02711 18.244C3.02731 18.1699 3.02467 18.0958 3.02202 18.0217C3.02078 17.987 3.01954 17.9524 3.0186 17.9178C3.01553 17.8041 2.9986 17.783 2.88882 17.7551C2.88099 17.7532 2.87354 17.7496 2.8653 17.7457C2.86115 17.7437 2.8568 17.7416 2.8521 17.7396C2.86389 17.6909 2.89615 17.6936 2.92722 17.6962L2.93802 17.697C2.97088 17.6991 3.00374 17.7018 3.0366 17.7045C3.10234 17.7099 3.16807 17.7154 3.2338 17.7152C3.32925 17.7148 3.42474 17.7106 3.52021 17.7063C3.5692 17.7042 3.61909 17.702 3.66807 17.7003C3.68432 17.6998 3.70067 17.7011 3.71699 17.7024C3.72426 17.703 3.73229 17.7036 3.73954 17.7041L3.7433 17.7252C3.7375 17.7278 3.73176 17.7307 3.72602 17.7336C3.71393 17.7397 3.70184 17.7458 3.68915 17.7499C3.60283 17.7778 3.56878 17.8167 3.5668 17.9064C3.56185 18.1305 3.55948 18.3546 3.5572 18.5788C3.557 18.5956 3.56023 18.6124 3.5636 18.63C3.56526 18.6386 3.56695 18.6474 3.56829 18.6564H4.51275C4.51357 18.6445 4.5146 18.633 4.51559 18.6218C4.51758 18.5995 4.51944 18.5786 4.51938 18.5577C4.51819 18.35 4.51651 18.1423 4.51413 17.9346C4.51255 17.8022 4.4975 17.7841 4.3703 17.7523C4.36424 17.7508 4.35849 17.7479 4.35232 17.7449C4.34922 17.7434 4.346 17.7418 4.34258 17.7403C4.3402 17.693 4.36655 17.6958 4.39296 17.6986C4.39836 17.6992 4.40375 17.6998 4.40891 17.6999L4.5438 17.7039C4.67323 17.7078 4.80286 17.7117 4.93226 17.7131C4.97326 17.7135 5.01431 17.709 5.05539 17.7045C5.07661 17.7021 5.09811 17.6998 5.11935 17.6981C5.14445 17.6961 5.16954 17.6948 5.19463 17.6935L5.22359 17.6919L5.23309 17.7129L5.22813 17.7175L5.21996 17.726C5.21078 17.7357 5.20162 17.7454 5.19043 17.7491C5.07996 17.7858 5.06035 17.8084 5.05145 17.9216C5.04966 17.9446 5.04848 17.9678 5.04867 17.9908L5.05156 18.2795C5.05669 18.793 5.06182 19.3066 5.06808 19.8202C5.06975 19.9592 5.07249 19.9601 5.20074 20.0031L5.20359 20.0041C5.20964 20.0062 5.21488 20.0107 5.21991 20.015C5.22211 20.0169 5.22429 20.0187 5.22646 20.0203C5.23111 20.0616 5.20429 20.0645 5.17647 20.0628C5.15383 20.0615 5.13118 20.0593 5.10854 20.0571C5.0687 20.0532 5.02888 20.0493 4.98918 20.0502C4.86505 20.053 4.74096 20.0577 4.61688 20.0624C4.55369 20.0648 4.48951 20.0672 4.42633 20.0693C4.40533 20.07 4.3843 20.0692 4.36324 20.0685L4.33466 20.0675L4.32773 20.042C4.33394 20.0383 4.34001 20.0341 4.34608 20.0299C4.35917 20.0209 4.37226 20.012 4.38673 20.0074C4.46978 19.981 4.51284 19.9244 4.51364 19.8393C4.51581 19.6191 4.51655 19.3989 4.51728 19.1787L4.51779 19.0285C4.51779 19.0225 4.51602 19.0165 4.51358 19.0082C4.51219 19.0035 4.5105 18.9977 4.50888 18.9911ZM17.0194 17.643C16.3237 17.7531 16.0084 18.3146 16.0029 18.8468C16.0061 18.8739 16.0086 18.901 16.0112 18.9282C16.0168 18.986 16.0224 19.0444 16.0332 19.1011C16.1526 19.7318 16.7711 20.2703 17.5318 20.0638C17.9143 19.9599 18.2023 19.7356 18.3575 19.3604C18.416 19.219 18.4504 19.0719 18.4553 18.9192C18.4671 18.5458 18.3532 18.2164 18.0876 17.9506C17.7905 17.6534 17.4185 17.5798 17.0194 17.643ZM16.5441 18.8128C16.5411 18.7843 16.5381 18.7558 16.5347 18.7274C16.5372 18.5968 16.5589 18.4718 16.6062 18.3503C16.7858 17.8887 17.3529 17.8144 17.6669 18.1788C17.7844 18.3152 17.8422 18.4782 17.8825 18.6493C17.9354 18.8742 17.9459 19.099 17.8683 19.3207C17.7934 19.5341 17.6633 19.6978 17.4341 19.7542C17.2229 19.8062 17.0296 19.768 16.8685 19.6111C16.6961 19.4433 16.6131 19.2312 16.569 19.0011C16.5572 18.939 16.5506 18.8759 16.5441 18.8128ZM21.392 17.6892C21.3857 17.6932 21.3795 17.6975 21.3734 17.7019C21.36 17.7114 21.3467 17.7208 21.3319 17.7264C21.2333 17.764 21.214 17.7883 21.2127 17.8918C21.2108 18.049 21.2094 18.2063 21.2091 18.3635C21.2084 18.7513 21.2081 19.1391 21.2077 19.527L21.2074 19.9159V20.0346L21.1883 20.0352L21.1643 20.0362L21.156 20.0366C21.1207 20.0382 21.0877 20.0397 21.0552 20.0381C21.0343 20.0371 21.0126 20.0374 20.9908 20.0376C20.9307 20.0383 20.8696 20.039 20.8232 20.014C20.7802 19.9908 20.7511 19.9409 20.7224 19.8914C20.7112 19.8722 20.7001 19.8531 20.6883 19.8357L20.2623 19.21L20.2607 19.2076C20.0603 18.9131 19.8599 18.6186 19.6592 18.3242C19.6379 18.2931 19.6145 18.2634 19.5867 18.2282C19.5723 18.21 19.5566 18.1902 19.5396 18.1681C19.5376 18.1875 19.5357 18.2035 19.534 18.2173C19.531 18.2418 19.5288 18.2598 19.5289 18.2776L19.5303 18.4865C19.5333 18.9177 19.5362 19.3489 19.5414 19.7801C19.5429 19.9023 19.5749 19.9349 19.6937 19.9621C19.6986 19.9632 19.7039 19.9639 19.7093 19.9646C19.7327 19.9674 19.7562 19.9703 19.7487 20.0147H19.0278C19.033 20.0082 19.0374 20.0015 19.0414 19.9953C19.0495 19.983 19.0564 19.9723 19.0659 19.9685C19.1897 19.9198 19.203 19.903 19.2038 19.7752L19.2039 19.7601V19.7565V19.753L19.204 19.7495V19.746V19.7425V19.739V19.7355V19.732L19.2041 19.7285V19.725V19.7215V19.7181V19.7146V19.7111L19.2042 19.7077V19.7043V19.7008C19.2075 19.1126 19.2109 18.5244 19.2139 17.9362C19.2147 17.7894 19.2049 17.7759 19.066 17.7189C19.0599 17.7164 19.0548 17.7113 19.0462 17.7026C19.0409 17.6973 19.0342 17.6904 19.0251 17.6821C19.0401 17.681 19.0528 17.6796 19.0639 17.6783C19.0843 17.676 19.0997 17.6743 19.1146 17.6762C19.3283 17.7031 19.5423 17.7004 19.7558 17.6796C19.8106 17.6743 19.8321 17.6993 19.857 17.7367C19.9653 17.8994 20.0743 18.0618 20.1832 18.2241L20.341 18.4594L20.4987 18.6949C20.6001 18.8463 20.7015 18.9978 20.8032 19.1491C20.8164 19.1688 20.8311 19.1876 20.8457 19.2065C20.8523 19.2151 20.859 19.2237 20.8656 19.2324L20.8881 19.2263C20.8892 19.2179 20.8905 19.2094 20.8918 19.2009C20.8947 19.1824 20.8975 19.1638 20.8973 19.1453C20.8932 18.7302 20.8888 18.3149 20.8827 17.8998C20.881 17.7892 20.8356 17.7424 20.7235 17.7246C20.7215 17.7242 20.7195 17.7241 20.7174 17.7241L20.7117 17.7242C20.7053 17.7244 20.6989 17.7246 20.6945 17.7217C20.6861 17.7161 20.6793 17.7083 20.6724 17.7004L20.6651 17.6922L20.6634 17.6905C20.6658 17.6888 20.6682 17.6868 20.6706 17.6848L20.6763 17.6798C20.6858 17.6712 20.6954 17.6626 20.7055 17.6619C20.7229 17.6606 20.7405 17.6641 20.7583 17.6675L20.7706 17.6699C20.7749 17.6707 20.7792 17.6714 20.7835 17.672C20.9579 17.6959 21.1318 17.6877 21.3057 17.6644C21.3225 17.6621 21.3397 17.6627 21.3569 17.6633C21.3648 17.6636 21.3728 17.6639 21.3806 17.6639L21.392 17.6892ZM22.0996 19.2624C22.0895 19.2336 22.0762 19.2059 22.0296 19.2217L22.0292 19.2298L22.0283 19.2443C22.0272 19.2609 22.026 19.2783 22.0266 19.2955C22.0296 19.3774 22.0329 19.4592 22.0361 19.5411C22.0404 19.6502 22.0448 19.7593 22.0484 19.8684L22.0486 19.8724C22.052 19.9738 22.052 19.974 22.1497 20.0043C22.5022 20.1135 22.8615 20.1335 23.2249 20.0797C23.4196 20.0508 23.603 19.9871 23.7554 19.8566C23.9414 19.6974 24.0329 19.4973 23.9894 19.2512C23.944 18.9942 23.7854 18.8268 23.5429 18.7437C23.4179 18.7009 23.2914 18.6628 23.1648 18.6247C23.0708 18.5964 22.9767 18.568 22.8834 18.5378C22.7963 18.5095 22.7085 18.4778 22.6289 18.4333C22.5211 18.373 22.4839 18.2635 22.5178 18.1443C22.5555 18.0121 22.6581 17.9502 22.7798 17.9141C22.905 17.877 23.0354 17.8757 23.1625 17.892C23.4371 17.9273 23.6417 18.0649 23.7512 18.3274C23.7577 18.3429 23.7648 18.3581 23.7721 18.3738L23.7833 18.3979C23.8337 18.3876 23.8303 18.3561 23.8271 18.3269L23.826 18.3166L23.8257 18.3114C23.8213 18.2208 23.8164 18.1302 23.8115 18.0397C23.8071 17.9592 23.8028 17.8787 23.7988 17.7982C23.7947 17.7162 23.7938 17.7136 23.7116 17.6941C23.3882 17.6172 23.0616 17.5894 22.7309 17.6328C22.5354 17.6583 22.3525 17.7163 22.1944 17.8409C21.9023 18.0709 21.8551 18.615 22.2695 18.8457C22.3951 18.9156 22.532 18.9674 22.668 19.0156C22.748 19.0439 22.8297 19.0673 22.9114 19.0908C22.9848 19.1118 23.0581 19.1328 23.1303 19.1574C23.2007 19.1814 23.272 19.2152 23.3297 19.2613C23.467 19.3707 23.4687 19.5552 23.3422 19.6764C23.2688 19.7468 23.1804 19.7876 23.0812 19.8078C22.9499 19.8345 22.8181 19.829 22.6875 19.8099C22.4084 19.7691 22.2194 19.6141 22.1238 19.3478C22.1187 19.3336 22.115 19.319 22.1114 19.3043C22.1079 19.2902 22.1044 19.2761 22.0996 19.2624ZM2.17154 17.4916C2.17154 17.5109 2.17139 17.5285 2.17125 17.5449C2.17098 17.5773 2.17075 17.6053 2.17174 17.6332C2.1769 17.7838 2.18257 17.9344 2.18824 18.0851L2.19242 18.1964C2.1926 18.2011 2.19301 18.2059 2.19342 18.2107C2.19575 18.238 2.19814 18.266 2.15936 18.2867C2.15584 18.2817 2.15186 18.277 2.14794 18.2723C2.13974 18.2625 2.13179 18.253 2.12877 18.2422C2.03157 17.894 1.67045 17.7217 1.29301 17.7812C0.877546 17.8466 0.64898 18.1886 0.591665 18.5069C0.514453 18.935 0.639873 19.3028 0.994453 19.5632C1.30607 19.7921 1.65234 19.787 1.9991 19.6392C2.06233 19.6123 2.12221 19.5775 2.18211 19.5428C2.21045 19.5264 2.23933 19.5096 2.26805 19.494C2.27625 19.4895 2.28478 19.4856 2.297 19.48L2.32537 19.4667C2.32207 19.4984 2.31913 19.5286 2.31629 19.5578C2.31034 19.619 2.30482 19.6757 2.29745 19.732C2.27666 19.8908 2.27607 19.8915 2.13402 19.9584C1.78934 20.1206 1.42724 20.1757 1.05533 20.0952C0.508712 19.9768 0.17482 19.6262 0.0400955 19.0912C-0.129771 18.417 0.2552 17.7242 0.909124 17.5043C1.17946 17.4135 1.45772 17.3951 1.73885 17.422C1.83449 17.4311 1.92934 17.4484 2.02871 17.4665C2.07515 17.4749 2.12258 17.4836 2.17154 17.4916ZM12.7243 18.0509L12.7255 18.0377L12.7272 18.017C12.7692 18.017 12.8104 18.0161 12.851 18.0152C12.9386 18.0133 13.0236 18.0114 13.1078 18.0188C13.3808 18.0426 13.507 18.1742 13.5339 18.4467C13.5595 18.7058 13.4047 18.941 13.1645 18.9904C13.098 19.004 13.0288 19.0043 12.9598 19.0045C12.9333 19.0046 12.9066 19.0047 12.8803 19.0055C12.8606 19.0061 12.8408 19.0038 12.8217 19.0014C12.813 19.0004 12.8045 18.9993 12.7962 18.9986C12.7748 19.0551 12.8087 19.0717 12.8398 19.087L12.8504 19.0922C13.0229 19.182 13.2057 19.2003 13.3975 19.1789C13.766 19.1376 14.1805 18.8179 14.0443 18.2462C13.98 17.9767 13.7834 17.8249 13.5262 17.754C13.4227 17.7255 13.3118 17.716 13.2038 17.7133C12.901 17.7058 12.5981 17.7023 12.2952 17.6988L12.047 17.6958C12.0379 17.6957 12.0287 17.6982 12.0138 17.7023L11.9958 17.7071L11.9788 17.7113C11.9906 17.7198 11.9999 17.7273 12.0077 17.7337C12.0213 17.7446 12.0305 17.7521 12.0409 17.755C12.1602 17.7889 12.1779 17.8097 12.1779 17.9339C12.1777 18.5338 12.177 19.1338 12.1762 19.7338V19.7484C12.1763 19.7799 12.1764 19.8117 12.1707 19.8422C12.1582 19.9088 12.1346 19.9683 12.0596 19.992C12.0432 19.9972 12.0289 20.0091 12.0146 20.021C12.008 20.0265 12.0014 20.032 11.9946 20.0368L12.0034 20.0643C12.0603 20.0676 12.1172 20.0617 12.174 20.0557C12.2232 20.0506 12.2724 20.0455 12.3217 20.0463C12.4304 20.0481 12.5392 20.0468 12.648 20.0448C12.6915 20.044 12.735 20.0469 12.779 20.0499C12.8422 20.0542 12.9063 20.0585 12.9724 20.0519C12.9602 20.0018 12.9287 19.9976 12.9 19.9938C12.8907 19.9926 12.8817 19.9914 12.8737 19.9887C12.7634 19.951 12.729 19.9125 12.7283 19.7978C12.7248 19.2386 12.7225 18.6792 12.7202 18.1199V18.1169C12.7201 18.0954 12.7221 18.0738 12.7243 18.0509ZM6.34258 20.0282C6.33283 20.023 6.32389 20.0182 6.31551 20.0135C6.29883 20.0043 6.28419 19.9962 6.26893 19.9896C6.15202 19.9391 6.1349 19.9071 6.17707 19.7842C6.1977 19.7241 6.22037 19.6646 6.24304 19.6052C6.26963 19.5354 6.29621 19.4657 6.31951 19.3949C6.34198 19.3263 6.38336 19.3008 6.45038 19.3019C6.55879 19.3036 6.66722 19.3052 6.77566 19.3068C6.88436 19.3084 6.99306 19.31 7.10173 19.3118C7.1053 19.3118 7.10888 19.3139 7.11502 19.3174L7.12421 19.3226L7.13043 19.3258C7.14306 19.3685 7.15627 19.4117 7.16964 19.4555C7.20102 19.5583 7.23328 19.6641 7.2609 19.771C7.29664 19.9091 7.27446 19.9424 7.14172 19.9957C7.12786 20.0013 7.115 20.0094 7.10213 20.0176L7.09013 20.0251L7.08381 20.0288L7.09025 20.0493C7.097 20.05 7.10375 20.0509 7.1105 20.0517C7.12497 20.0535 7.13958 20.0555 7.15399 20.0553C7.22009 20.054 7.28618 20.0525 7.35226 20.0509H7.35334C7.47778 20.0479 7.60253 20.045 7.72695 20.0443C7.78662 20.0439 7.8463 20.0485 7.90597 20.0531C7.93173 20.0551 7.95748 20.057 7.98323 20.0586L7.9844 20.0587C8.0146 20.0606 8.04447 20.0624 8.04203 20.0179C7.87474 19.9228 7.87271 19.9163 7.83966 19.8096C7.83295 19.7879 7.82496 19.7622 7.81406 19.7307C7.65332 19.2665 7.49502 18.8015 7.33673 18.3365C7.27448 18.1537 7.21204 17.9702 7.14964 17.7874C7.14278 17.7675 7.13537 17.7478 7.12794 17.728L7.11618 17.6964C7.08982 17.6984 7.06406 17.7006 7.03871 17.7028C6.98277 17.7075 6.92871 17.7121 6.87465 17.7139C6.83947 17.715 6.80421 17.714 6.76895 17.713C6.72841 17.7119 6.68786 17.7108 6.64747 17.7129C6.61952 17.7144 6.59171 17.7099 6.56274 17.7052C6.5133 17.6972 6.46048 17.6886 6.39781 17.7084C6.41197 17.7174 6.42393 17.7252 6.43453 17.7321C6.45454 17.7451 6.4697 17.755 6.48562 17.7635C6.56728 17.8065 6.575 17.8222 6.54184 17.9112L6.53189 17.938C6.48583 18.0617 6.43975 18.1855 6.3898 18.3077C6.19924 18.7738 6.0075 19.2395 5.81477 19.7048C5.79488 19.7529 5.77038 19.7992 5.74591 19.8455L5.72696 19.8814C5.70182 19.9294 5.66757 19.968 5.61263 19.9839C5.58679 19.9913 5.56165 20.0019 5.57521 20.0519C5.82061 20.0152 6.06857 20.03 6.31635 20.052C6.319 20.0522 6.3219 20.0492 6.32756 20.0432C6.3312 20.0394 6.336 20.0343 6.34258 20.0282ZM6.8004 18.1671C6.79304 18.177 6.78702 18.1843 6.78216 18.1903C6.77422 18.1999 6.7694 18.2058 6.76695 18.2126C6.67251 18.4681 6.57857 18.7237 6.48562 18.9797C6.48179 18.9903 6.48192 19.0023 6.48207 19.0174C6.48215 19.0253 6.48224 19.034 6.48176 19.0438C6.56743 19.0364 6.65155 19.0405 6.73528 19.0446C6.83276 19.0493 6.92969 19.054 7.02788 19.0406L6.8004 18.1671ZM16.1879 15.3374L16.3183 15.1978C13.8494 12.6504 9.81724 12.859 7.62146 15.2068L7.75539 15.3349C8.92852 14.1771 10.3301 13.5644 11.9746 13.5657C13.6173 13.567 15.0181 14.1799 16.1879 15.3374ZM14.1903 21.1765H14.7495C14.7491 21.1734 14.7509 21.1789 14.7498 21.1795C14.6646 21.2314 14.6627 21.3113 14.6626 21.4005C14.6623 21.5716 14.6589 21.7428 14.6555 21.914C14.653 22.039 14.6506 22.1646 14.6493 22.2897C14.6485 22.3701 14.6557 22.4509 14.6629 22.5313L14.6642 22.546C14.6761 22.678 14.7544 22.7771 14.8839 22.8056C14.9999 22.8313 15.1195 22.8317 15.2355 22.7973C15.3546 22.7621 15.4279 22.6809 15.4406 22.5578C15.4541 22.4271 15.4612 22.2952 15.4624 22.1638C15.4645 21.9314 15.4641 21.6989 15.4637 21.4642V21.4631V21.4619L15.4635 21.3409L15.4634 21.1798L15.4757 21.1776C15.4868 21.1755 15.5 21.1731 15.5133 21.1725C15.6446 21.1668 15.7761 21.1616 15.9076 21.1573C15.9258 21.1567 15.9442 21.1586 15.9626 21.1605C15.9708 21.1613 15.9791 21.1622 15.9873 21.1628L15.9887 21.183L15.9724 21.1905L15.9555 21.1983C15.9499 21.2008 15.9442 21.2033 15.9384 21.2056C15.8867 21.2261 15.8611 21.264 15.8602 21.3195C15.8591 21.3897 15.8577 21.4598 15.8564 21.5299L15.8543 21.6357L15.8476 22.0043L15.8375 22.5545C15.834 22.7383 15.7478 22.8655 15.5778 22.9376C15.4706 22.983 15.3594 23.0102 15.2436 23.0179C15.0416 23.0311 14.8426 23.0181 14.6493 22.9511C14.42 22.8718 14.2774 22.6822 14.2724 22.4382C14.2697 22.3017 14.2698 22.1652 14.2699 22.0286C14.2699 21.9708 14.2699 21.913 14.2698 21.8551L14.2697 21.7446C14.2696 21.6596 14.2696 21.5744 14.2682 21.4895C14.2679 21.4718 14.2683 21.454 14.2688 21.4362C14.271 21.3499 14.2734 21.2615 14.1903 21.1765ZM17.8463 21.5544C17.8538 21.5786 17.8614 21.6033 17.9024 21.6064C17.9209 21.529 17.904 21.2344 17.8805 21.167L16.5261 21.1763C16.5033 21.1765 16.4804 21.1772 16.4575 21.1781C16.4551 21.1782 16.4523 21.1812 16.4505 21.1835C16.4492 21.1852 16.4484 21.1871 16.4468 21.1907L16.4433 21.1984C16.4463 21.2009 16.4493 21.2042 16.4525 21.2075C16.4594 21.2148 16.4668 21.2227 16.4755 21.2247C16.5414 21.2403 16.5665 21.2836 16.5665 21.3473V21.5464C16.5665 21.9774 16.5665 22.4083 16.5674 22.8392C16.5675 22.8861 16.5462 22.9124 16.5064 22.93C16.4893 22.9376 16.4726 22.9463 16.456 22.955L16.433 22.9669L16.4359 22.9898L16.4511 22.9919L16.4617 22.9935C16.48 22.9964 16.4983 22.9993 16.5165 22.9992C16.9711 22.9973 17.4257 22.9949 17.8802 22.9918C17.8992 22.9916 17.9182 22.9883 17.9379 22.9849C17.9473 22.9832 17.9569 22.9816 17.9667 22.9802L17.9964 22.4472C17.9461 22.426 17.9374 22.4482 17.9262 22.4772L17.9244 22.4819C17.898 22.5485 17.8687 22.6145 17.8339 22.6771C17.8104 22.7192 17.7684 22.7367 17.7172 22.7377C17.5935 22.7401 17.4698 22.7438 17.3461 22.7475C17.2659 22.7499 17.1851 22.7523 17.1049 22.7544C17.0835 22.7549 17.0619 22.7535 17.037 22.7518C17.0248 22.751 17.0118 22.7502 16.9976 22.7494V22.1751H17.4559C17.5062 22.1751 17.5334 22.2049 17.5498 22.2486L17.5529 22.2573C17.5615 22.2821 17.5704 22.3076 17.6119 22.2958V21.7553C17.6033 21.763 17.5949 21.7691 17.5876 21.7745C17.5746 21.7841 17.565 21.7912 17.5634 21.7996C17.548 21.8841 17.4899 21.9117 17.4146 21.9166C17.2865 21.9251 17.1583 21.9319 17.0301 21.9385C17.0246 21.9388 17.0189 21.9364 17.01 21.9327C17.0047 21.9304 16.9981 21.9276 16.9897 21.9247C16.9887 21.7653 16.9909 21.6026 16.9948 21.4375L17.0091 21.4345L17.0168 21.4327C17.0295 21.4297 17.0399 21.4273 17.0503 21.427L17.183 21.4232C17.3428 21.4186 17.5029 21.414 17.6626 21.4122C17.7728 21.411 17.8053 21.4383 17.8426 21.543C17.8439 21.5467 17.8451 21.5506 17.8463 21.5544ZM9.38703 22.9947L7.86171 22.972L7.85547 22.9495L7.86575 22.943L7.8736 22.9379C7.88713 22.9288 7.90068 22.9198 7.91556 22.9144C7.96525 22.8962 7.98821 22.8606 7.99247 22.8103L7.9934 22.7997C7.99486 22.7835 7.99631 22.7673 7.99623 22.7512L7.99418 22.3482C7.9925 22.031 7.99081 21.7137 7.99039 21.3964C7.99029 21.3103 7.97822 21.2383 7.87784 21.2176C7.87388 21.2168 7.87105 21.2102 7.86816 21.2034C7.86679 21.2003 7.86541 21.197 7.86388 21.1944C7.93654 21.1686 9.23112 21.169 9.3216 21.1951L9.34942 21.6447C9.3386 21.6351 9.32952 21.6279 9.32201 21.622C9.30911 21.6118 9.30072 21.6051 9.29616 21.5965C9.28921 21.5834 9.28407 21.5692 9.27893 21.5551C9.27281 21.5382 9.26671 21.5214 9.25756 21.5064C9.23103 21.4629 9.1941 21.4302 9.13887 21.4289L9.13631 21.4288C8.91661 21.4234 8.69663 21.4179 8.47683 21.413C8.46865 21.4128 8.4604 21.4143 8.44923 21.4162C8.44295 21.4173 8.43575 21.4185 8.42713 21.4198V21.9143C8.43239 21.9151 8.43802 21.9163 8.44391 21.9174C8.45776 21.9202 8.47306 21.9233 8.48841 21.9234C8.53645 21.9238 8.58449 21.9237 8.63253 21.9235C8.70317 21.9233 8.77379 21.9231 8.84437 21.9246C8.92 21.9263 8.97167 21.9013 8.99207 21.8236C8.9947 21.8135 9.00314 21.8048 9.01255 21.7951L9.02007 21.7873L9.02348 21.7835L9.02681 21.7796C9.0477 21.8348 9.05304 22.2107 9.03542 22.31C9.02989 22.3055 9.02392 22.3017 9.01829 22.2981C9.00701 22.2909 8.99705 22.2845 8.99454 22.2759C8.9687 22.1884 8.90842 22.1586 8.8224 22.1604C8.76084 22.1617 8.69925 22.1613 8.63766 22.1609C8.59704 22.1607 8.55643 22.1604 8.51583 22.1607C8.49639 22.1608 8.477 22.1627 8.45529 22.1647C8.44483 22.1657 8.43379 22.1668 8.42199 22.1677C8.40615 22.356 8.40842 22.5384 8.42199 22.7346C8.46382 22.7361 8.50529 22.7379 8.54651 22.7396C8.64105 22.7436 8.73425 22.7475 8.82745 22.7479C8.88026 22.7481 8.93307 22.7451 8.98587 22.7421C9.04174 22.7389 9.09759 22.7357 9.15342 22.7363C9.23231 22.7372 9.27725 22.7002 9.30378 22.6331C9.32071 22.5903 9.33506 22.5462 9.34684 22.5018C9.35813 22.4587 9.38228 22.452 9.42693 22.4698L9.38703 22.9947ZM10.7957 23.0018L11.5087 22.9588C11.4235 22.8944 11.3937 22.8195 11.3675 22.7409C11.209 22.266 11.0493 21.7917 10.8893 21.3173C10.8785 21.2854 10.866 21.2542 10.8542 21.2246C10.8489 21.2114 10.8437 21.1985 10.8389 21.186H10.2934C10.2966 21.1917 10.2992 21.1975 10.3017 21.2029C10.3066 21.2136 10.3108 21.2229 10.318 21.2272C10.4207 21.289 10.4221 21.2899 10.379 21.3939L10.1941 21.8399L10.1936 21.841L10.1931 21.8421C10.0632 22.1551 9.93328 22.4684 9.80447 22.7817C9.7722 22.8601 9.73864 22.9329 9.64955 22.9608C9.64504 22.9623 9.64227 22.9693 9.63963 22.976C9.63844 22.979 9.63727 22.9819 9.63599 22.9843C9.63752 22.9866 9.63893 22.9894 9.64026 22.9919C9.64288 22.997 9.6452 23.0015 9.64757 23.0015C9.83406 23.0044 10.0207 23.0067 10.2072 23.0079C10.2118 23.008 10.2166 23.0044 10.224 22.9988C10.2285 22.9954 10.234 22.9912 10.241 22.9867L10.209 22.9693C10.1888 22.9583 10.1707 22.9485 10.1525 22.9392C10.117 22.9211 10.0912 22.8953 10.1029 22.8532C10.1423 22.711 10.1953 22.5737 10.2563 22.4388H10.8453C10.8565 22.474 10.868 22.5089 10.8795 22.5437C10.9053 22.6215 10.9309 22.6989 10.9517 22.7776C10.9823 22.8939 10.9713 22.9069 10.8584 22.9554C10.8476 22.96 10.8382 22.9678 10.8245 22.979C10.8166 22.9855 10.8074 22.993 10.7957 23.0018ZM10.5715 21.592L10.5944 21.5934L10.7598 22.2226H10.3477C10.3612 22.1432 10.3902 22.0728 10.4187 22.0036C10.4325 21.9703 10.4461 21.9372 10.4578 21.9036C10.4828 21.8317 10.5093 21.7603 10.5358 21.6889L10.5715 21.592ZM13.4655 21.6995C13.4249 21.7024 13.4147 21.681 13.4043 21.659L13.4006 21.6513L13.3977 21.6458C13.3911 21.6339 13.3847 21.6217 13.3783 21.6095C13.3553 21.5659 13.3321 21.5218 13.2989 21.4879C13.2542 21.4423 13.197 21.4 13.1372 21.3798C12.7331 21.2435 12.3582 21.4633 12.2634 21.8529C12.2055 22.091 12.2397 22.3187 12.3679 22.5281C12.4951 22.736 12.7384 22.8276 12.9576 22.7586C13.0717 22.7227 13.1437 22.654 13.1577 22.5297C13.1715 22.4075 13.1608 22.2881 13.1258 22.1724L13.7044 22.1474C13.6919 22.1569 13.6814 22.1657 13.6719 22.1736C13.6539 22.1887 13.6395 22.2006 13.6231 22.2076C13.5506 22.2384 13.5343 22.2928 13.5362 22.3664C13.5392 22.4796 13.5385 22.5929 13.5377 22.7062C13.5374 22.7511 13.5372 22.7961 13.5371 22.8411V22.9362C13.4353 22.9772 13.4046 22.9656 13.3713 22.8793C13.3368 22.7899 13.3207 22.7822 13.2508 22.8411C12.91 23.1283 12.2499 23.0676 11.9643 22.5941C11.8696 22.4373 11.8278 22.2668 11.8492 22.083L11.85 22.0766C11.8521 22.0591 11.8541 22.0415 11.8538 22.024C11.8465 21.6674 12.0247 21.4195 12.3274 21.2631C12.6718 21.0852 13.0314 21.0907 13.3896 21.2305C13.4131 21.2396 13.444 21.2672 13.4457 21.2883C13.4538 21.3917 13.4577 21.4954 13.4618 21.5995L13.4655 21.6995ZM14.6917 17.6928C14.6511 17.6898 14.6106 17.6868 14.5701 17.6844L14.5621 17.7094C14.567 17.7124 14.5718 17.7158 14.5766 17.7191C14.5868 17.7261 14.5969 17.7332 14.6082 17.7371C14.7183 17.7757 14.7412 17.8042 14.7415 17.9241C14.7433 18.5629 14.7445 19.2018 14.7437 19.8406C14.7436 19.8776 14.7296 19.9172 14.7124 19.9505C14.7043 19.9662 14.6881 19.9777 14.6719 19.9892C14.6646 19.9943 14.6574 19.9995 14.6509 20.005C14.7281 20.0166 14.8005 20.0129 14.8728 20.0093L14.8768 20.0091C14.9008 20.008 14.9248 20.0074 14.9489 20.0068C15.0008 20.0056 15.0526 20.0044 15.1035 19.9969C15.1289 19.9931 15.1553 19.9936 15.1811 19.9941C15.2271 19.995 15.2713 19.9958 15.305 19.9723C15.3005 19.9502 15.2953 19.9297 15.2904 19.9102C15.2805 19.871 15.2716 19.836 15.2715 19.8009C15.2704 19.4589 15.2704 19.117 15.2704 18.7751C15.2704 18.4884 15.2704 18.2008 15.2698 17.914C15.2697 17.8437 15.2844 17.7849 15.3407 17.7389C15.3508 17.7306 15.3584 17.7191 15.3672 17.7058C15.3717 17.699 15.3765 17.6917 15.3822 17.6841C15.3372 17.6867 15.2933 17.6898 15.2502 17.6929C15.1535 17.6998 15.0606 17.7065 14.9677 17.7065C14.8757 17.7065 14.7837 17.6996 14.6917 17.6928ZM9.45732 17.0244L9.31824 16.8964C10.67 15.3736 13.1733 15.2961 14.6209 16.8932L14.4824 17.0243C13.794 16.3084 12.961 15.9237 11.9668 15.9247C10.9757 15.9257 10.1447 16.3085 9.45732 17.0244ZM6.75596 21.1982L6.77706 21.1896L6.76895 21.1633C6.76509 21.1625 6.76119 21.1615 6.75729 21.1605C6.74879 21.1582 6.7403 21.1559 6.73222 21.157C6.51563 21.1858 6.29914 21.1873 6.08236 21.1597C6.07456 21.1587 6.06613 21.1628 6.05337 21.1689C6.04587 21.1726 6.03688 21.1769 6.02563 21.1814C6.03345 21.1859 6.03947 21.1898 6.04441 21.1929C6.05273 21.1983 6.058 21.2017 6.06365 21.2028C6.15591 21.2203 6.18135 21.2789 6.18016 21.3674C6.17826 21.507 6.179 21.6466 6.17974 21.7863C6.18028 21.887 6.18081 21.9878 6.18036 22.0885C6.17988 22.1881 6.17842 22.2877 6.17695 22.3873C6.17502 22.5181 6.17309 22.6491 6.17343 22.78C6.17362 22.855 6.15254 22.9071 6.0785 22.9326C6.06923 22.9357 6.06155 22.9437 6.05145 22.9541C6.04601 22.9597 6.03983 22.9661 6.03237 22.9728H7.47217L7.55047 22.4324C7.50107 22.4189 7.48296 22.4403 7.47138 22.4699C7.46679 22.4817 7.46317 22.4939 7.45954 22.5061C7.45567 22.5192 7.45179 22.5323 7.44673 22.5449C7.40248 22.655 7.33032 22.7257 7.20183 22.7211C7.17663 22.7201 7.15135 22.7225 7.12604 22.7248C7.10535 22.7267 7.08453 22.7286 7.06384 22.7288C6.95809 22.7296 6.85235 22.7294 6.74293 22.7293L6.61106 22.7292C6.61005 22.7184 6.60883 22.7079 6.60763 22.6975C6.60506 22.6753 6.60255 22.6536 6.60235 22.6321L6.60217 22.6124C6.60064 22.4412 6.59911 22.2698 6.59997 22.0986C6.60116 21.8517 6.60324 21.6047 6.60759 21.3579C6.60928 21.264 6.6271 21.245 6.71351 21.2148C6.72784 21.2098 6.7419 21.204 6.75596 21.1982ZM8.19214 15.5207L8.43189 15.3363L8.45565 15.3641C8.47076 15.3818 8.48475 15.3981 8.49792 15.415L8.58563 15.5277C8.67781 15.646 8.76998 15.7643 8.85992 15.8843C8.93624 15.986 9.03177 16.04 9.15857 16.0093C9.28409 15.9788 9.37734 15.9021 9.42248 15.7787C9.46009 15.6761 9.42485 15.5843 9.3619 15.502C9.2872 15.4043 9.21195 15.3071 9.1367 15.2099L9.01791 15.0562C8.99943 15.0323 8.98121 15.0083 8.96128 14.982L8.93585 14.9485L9.17461 14.7607L9.18249 14.7675L9.1885 14.7724C9.19727 14.7796 9.20524 14.786 9.21133 14.7939L9.30796 14.918C9.4134 15.0532 9.51887 15.1885 9.62105 15.3262C9.66362 15.3835 9.69757 15.4493 9.724 15.5158C9.76716 15.6243 9.76597 15.7389 9.71351 15.8425C9.58749 16.0914 9.38763 16.2521 9.11195 16.309C8.97465 16.3373 8.85022 16.2989 8.74371 16.2094C8.69867 16.1714 8.6561 16.1289 8.61967 16.0827C8.51439 15.9495 8.41098 15.8148 8.30756 15.6801L8.22075 15.5671C8.21449 15.559 8.20928 15.55 8.20313 15.5394C8.20126 15.5362 8.19928 15.5328 8.19718 15.5292C8.19559 15.5266 8.19392 15.5236 8.19214 15.5207ZM15.2479 15.0614L14.9495 14.8545L13.818 15.5984L14.0887 15.7879L14.3099 15.6388L14.7693 15.9562L14.7162 16.2239C14.7522 16.2468 14.7864 16.2713 14.8207 16.2958C14.8751 16.3346 14.9298 16.3736 14.9925 16.4075L15.2479 15.0614ZM14.9255 15.2371L14.9109 15.2221L14.5017 15.5044L14.8197 15.723L14.9255 15.2371ZM10.8483 14.6318L11.4087 14.5169L11.4558 14.7378L10.8988 14.8599L10.9601 15.1533L11.5571 15.0286L11.6092 15.2507L10.702 15.444L10.4386 14.2162L11.332 14.0254L11.3794 14.248L10.7946 14.3776L10.8483 14.6318ZM12.7189 15.3179L12.8196 14.8137L13.3603 14.9157L13.4043 14.6923L12.8636 14.5822L12.9168 14.3114L13.458 14.4135L13.5021 14.1888L12.6525 14.0259L12.413 15.2571L12.7189 15.3179Z" fill="#E5EAFA"/>
</g>
</g>
<defs>
<clipPath id="clip0_50696_2868">
<rect width="24" height="24" fill="white"/>
</clipPath>
</defs>
</svg>
