<svg width="38" height="39" viewBox="0 0 38 39" fill="none" xmlns="http://www.w3.org/2000/svg">
<path d="M3.5 0C1.58505 0 0 1.58505 0 3.5V20.5C0 22.415 1.58505 24 3.5 24H34.5C36.415 24 38 22.415 38 20.5V3.5C38 1.58505 36.415 0 34.5 0H3.5ZM6 3H32C32 4.66 33.34 6 35 6V18C33.34 18 32 19.34 32 21H6C6 19.34 4.66 18 3 18V6C4.66 6 6 4.66 6 3ZM19 5C15.691 5 13 8.141 13 12C13 15.859 15.691 19 19 19C22.309 19 25 15.859 25 12C25 8.141 22.309 5 19 5ZM7 10C6.46957 10 5.96086 10.2107 5.58579 10.5858C5.21071 10.9609 5 11.4696 5 12C5 12.5304 5.21071 13.0391 5.58579 13.4142C5.96086 13.7893 6.46957 14 7 14C7.53043 14 8.03914 13.7893 8.41421 13.4142C8.78929 13.0391 9 12.5304 9 12C9 11.4696 8.78929 10.9609 8.41421 10.5858C8.03914 10.2107 7.53043 10 7 10ZM31 10C30.4696 10 29.9609 10.2107 29.5858 10.5858C29.2107 10.9609 29 11.4696 29 12C29 12.5304 29.2107 13.0391 29.5858 13.4142C29.9609 13.7893 30.4696 14 31 14C31.5304 14 32.0391 13.7893 32.4142 13.4142C32.7893 13.0391 33 12.5304 33 12C33 11.4696 32.7893 10.9609 32.4142 10.5858C32.0391 10.2107 31.5304 10 31 10ZM18.9766 25.9785C18.5791 25.9847 18.2003 26.1484 17.9235 26.4337C17.6466 26.719 17.4943 27.1025 17.5 27.5V32.8789L16.0605 31.4395C15.9223 31.2955 15.7568 31.1806 15.5736 31.1014C15.3904 31.0222 15.1932 30.9804 14.9937 30.9784C14.7941 30.9763 14.5962 31.0141 14.4114 31.0896C14.2266 31.165 14.0588 31.2766 13.9177 31.4177C13.7766 31.5588 13.665 31.7266 13.5896 31.9114C13.5141 32.0962 13.4763 32.2941 13.4784 32.4937C13.4804 32.6932 13.5222 32.8904 13.6014 33.0736C13.6806 33.2568 13.7955 33.4223 13.9395 33.5605L17.8105 37.4316C17.9511 37.6149 18.1321 37.7633 18.3395 37.8652C18.5468 37.967 18.7748 38.0196 19.0058 38.0189C19.2368 38.0181 19.4645 37.964 19.6712 37.8608C19.8779 37.7576 20.0579 37.608 20.1973 37.4238L24.0605 33.5605C24.2045 33.4223 24.3194 33.2568 24.3986 33.0736C24.4778 32.8904 24.5196 32.6932 24.5216 32.4937C24.5237 32.2941 24.4859 32.0962 24.4104 31.9114C24.335 31.7266 24.2234 31.5588 24.0823 31.4177C23.9412 31.2766 23.7734 31.165 23.5886 31.0896C23.4038 31.0141 23.2059 30.9763 23.0063 30.9784C22.8068 30.9804 22.6096 31.0222 22.4264 31.1014C22.2432 31.1806 22.0777 31.2955 21.9395 31.4395L20.5 32.8789V27.5C20.5029 27.2992 20.4654 27.0999 20.3899 26.9139C20.3143 26.7279 20.2022 26.5589 20.0601 26.417C19.918 26.2752 19.7489 26.1632 19.5628 26.0879C19.3767 26.0126 19.1773 25.9754 18.9766 25.9785Z" fill="#E5EAFA"/>
</svg>
