<svg width="16" height="12" viewBox="0 0 16 12" fill="none" xmlns="http://www.w3.org/2000/svg">
<path d="M7.95243 0.969971C5.83486 0.969971 3.86741 1.12085 2.74475 1.35539C2.74236 1.35602 2.73997 1.35667 2.73759 1.35734C1.89178 1.54687 1.09536 2.15272 0.927694 3.10148C0.927471 3.10278 0.927254 3.10408 0.927043 3.10539C0.798238 3.87006 0.666626 4.86687 0.666626 6.3033C0.666626 7.73702 0.798689 8.70741 0.961548 9.51229C1.13332 10.4331 1.91136 11.0572 2.77014 11.2493C2.77425 11.2504 2.77837 11.2515 2.78251 11.2525C3.9542 11.4834 5.86611 11.6366 7.98368 11.6366C10.1013 11.6366 12.0142 11.4834 13.1862 11.2525C13.1903 11.2515 13.1944 11.2504 13.1985 11.2493C14.0443 11.0597 14.8408 10.4539 15.0084 9.50513C15.0089 9.50274 15.0093 9.50036 15.0097 9.49797C15.1366 8.71769 15.3009 7.72184 15.3333 6.28312C15.3333 6.27943 15.3333 6.27574 15.3333 6.27205C15.3333 4.83254 15.1685 3.82953 15.0078 3.03507C14.8374 2.11233 14.0584 1.48646 13.1985 1.29419C13.1854 1.29127 13.1721 1.28888 13.1588 1.28703C12.0154 1.12629 10.0703 0.969971 7.95243 0.969971ZM6.71871 3.80396C6.84218 3.8014 6.9698 3.83061 7.0898 3.89836L9.95764 5.5188C10.4413 5.79213 10.4413 6.48179 9.95764 6.75513L7.0898 8.37557C6.61014 8.64624 6.01233 8.30341 6.01233 7.75708V4.51619C6.01233 4.10644 6.3483 3.81161 6.71871 3.80396Z" fill="#E5EAFA"/>
</svg>
